; NON-PLATED HOLES START AT T1
; THROUGH (PLATED) HOLES START AT T100
M48
INCH
T100C0.015748
T101C0.031497
T102C0.038445
T103C0.038417
T104C0.035000
T105C0.040000
%
T100
X004016Y010021
X015521Y007025
X017016Y011021
X018016Y016021
X019016Y004521
X018021Y005525
X006016Y017021
X021516Y013021
X023025Y006032
X018524Y008513
X005516Y012021
X017016Y004521
X005516Y010521
X003016Y012521
X013016Y012521
X005016Y011021
X025516Y008521
X022516Y011521
X021516Y008521
X002016Y017021
X006016Y014521
X019016Y003021
X020016Y016021
X001516Y014021
X003016Y014521
X005016Y013521
X012516Y011021
X015016Y003521
X014516Y017521
X002516Y013521
X002516Y010021
X017016Y003021
X012016Y009521
T101
X025516Y007006
X025521Y003541
X025521Y004525
X025516Y006021
T102
X014421Y020025
X007421Y020025
X021021Y020025
X019021Y020025
X015421Y020025
X018021Y020025
X024021Y020025
X011421Y020025
X025021Y020025
X012421Y020025
X020021Y020025
X013421Y020025
X016421Y020025
X010421Y020025
X022021Y020025
X009421Y020025
X008421Y020025
X023021Y020025
T103
X014021Y001025
X012021Y001025
X023021Y001025
X011021Y001025
X021021Y001025
X015021Y001025
X013021Y001025
X020021Y001025
X016021Y001025
X017021Y001025
X018021Y001025
X022021Y001025
X024021Y001025
X025021Y001025
T104
X024516Y008521
X023516Y008521
X015016Y011521
X023516Y011521
X014016Y008521
X024516Y011521
X014016Y011521
X015016Y008521
T105
X022521Y017525
X002016Y018521
X015516Y017521
X018021Y017525
X004016Y018521
X020021Y017525
X013516Y017521
X024521Y017525
T00
M30
