G04 MADE WITH FRITZING*
G04 WWW.FRITZING.ORG*
G04 DOUBLE SIDED*
G04 HOLES PLATED*
G04 CONTOUR ON CENTER OF CONTOUR VECTOR*
%ASAXBY*%
%FSLAX23Y23*%
%MOIN*%
%OFA0B0*%
%SFA1.0B1.0*%
%ADD10C,0.075000*%
%ADD11C,0.039370*%
%ADD12C,0.066194*%
%ADD13C,0.066222*%
%ADD14C,0.080000*%
%ADD15C,0.062992*%
%ADD16R,0.137513X0.173810*%
%ADD17R,0.120543X0.148650*%
%ADD18R,0.080000X0.080000*%
%ADD19R,0.075000X0.075000*%
%ADD20R,0.062992X0.062992*%
%ADD21R,0.125984X0.070866*%
%ADD22C,0.024000*%
%ADD23C,0.032000*%
%ADD24C,0.020000*%
%LNCOPPER1*%
G90*
G70*
G54D10*
X2429Y1868D03*
X1992Y1631D03*
X1507Y1263D03*
X131Y2006D03*
X1959Y1099D03*
X2357Y1022D03*
X961Y892D03*
X1708Y863D03*
X2355Y721D03*
X1401Y442D03*
X2595Y1439D03*
G54D11*
X1702Y452D03*
X1252Y952D03*
X1252Y1102D03*
X1452Y1752D03*
X302Y1452D03*
X302Y1252D03*
X552Y1202D03*
X552Y1052D03*
X602Y1452D03*
X602Y1702D03*
X202Y1702D03*
X152Y1402D03*
X502Y1352D03*
X1502Y352D03*
X1552Y703D03*
X1802Y552D03*
X502Y1102D03*
X1802Y1602D03*
X402Y1002D03*
X252Y1352D03*
X1702Y302D03*
X1902Y302D03*
X1902Y452D03*
G54D12*
X2102Y103D03*
X2202Y103D03*
X2302Y103D03*
X2402Y103D03*
X2502Y103D03*
G54D13*
X1642Y2003D03*
X1542Y2003D03*
X1442Y2003D03*
X1342Y2003D03*
X1242Y2003D03*
X1142Y2003D03*
X1042Y2003D03*
X942Y2003D03*
X842Y2003D03*
X742Y2003D03*
X2502Y2003D03*
X2402Y2003D03*
X2302Y2003D03*
X2202Y2003D03*
X2102Y2003D03*
X2002Y2003D03*
X1902Y2003D03*
X1802Y2003D03*
G54D12*
X1202Y103D03*
X1102Y103D03*
X1302Y103D03*
X1402Y103D03*
X1502Y103D03*
X1602Y103D03*
X1702Y103D03*
X1802Y103D03*
X2002Y103D03*
G54D14*
X2452Y1753D03*
X2252Y1753D03*
X1552Y1752D03*
X1352Y1752D03*
X2002Y1753D03*
X1802Y1753D03*
X402Y1852D03*
X202Y1852D03*
G54D10*
X1502Y1152D03*
X1502Y852D03*
X1402Y1152D03*
X1402Y852D03*
G54D15*
X2552Y354D03*
X2552Y453D03*
G54D11*
X1702Y1102D03*
X1852Y851D03*
X2152Y852D03*
X252Y1002D03*
X2252Y1152D03*
X2303Y603D03*
X2552Y852D03*
G54D10*
X2452Y1152D03*
X2452Y852D03*
X2352Y1152D03*
X2352Y852D03*
G54D15*
X2552Y602D03*
X2552Y701D03*
G54D14*
X1102Y1752D03*
X902Y1752D03*
G54D11*
X1102Y1602D03*
X1102Y1102D03*
X952Y702D03*
X1002Y1252D03*
X852Y1202D03*
X852Y652D03*
X2002Y302D03*
X2002Y502D03*
X1852Y502D03*
X1552Y552D03*
X1352Y552D03*
G54D14*
X252Y202D03*
X452Y202D03*
X702Y202D03*
X902Y202D03*
G54D11*
X1002Y1152D03*
X752Y1152D03*
X752Y702D03*
X152Y702D03*
X202Y652D03*
X1102Y352D03*
X1152Y302D03*
X1152Y452D03*
X2252Y1852D03*
X2302Y1602D03*
X1852Y1252D03*
X2102Y1202D03*
X2052Y1252D03*
X1902Y1202D03*
X1952Y652D03*
X1952Y552D03*
X1752Y602D03*
X1452Y602D03*
X1352Y652D03*
X1152Y652D03*
X1102Y502D03*
X302Y702D03*
X1852Y552D03*
X1452Y752D03*
X1352Y752D03*
X452Y802D03*
G54D16*
X202Y1552D03*
X402Y1552D03*
X1352Y1452D03*
X452Y502D03*
X702Y502D03*
X902Y502D03*
X252Y502D03*
X1102Y1452D03*
X902Y1452D03*
X1552Y1452D03*
X1802Y1452D03*
X2002Y1452D03*
X2252Y1452D03*
X2452Y1452D03*
G54D17*
X402Y1302D03*
X152Y1302D03*
G54D18*
X2452Y1753D03*
X1552Y1752D03*
X2002Y1753D03*
X402Y1852D03*
G54D19*
X1502Y1152D03*
G54D20*
X2552Y354D03*
G54D21*
X1852Y973D03*
X1852Y752D03*
X1702Y973D03*
X1702Y752D03*
X2152Y973D03*
X2152Y752D03*
X2002Y973D03*
X2002Y752D03*
X1102Y1002D03*
X1102Y782D03*
X952Y1002D03*
X952Y782D03*
G54D19*
X2452Y1152D03*
G54D20*
X2552Y602D03*
G54D22*
X1252Y1083D02*
X1252Y971D01*
D02*
X402Y1233D02*
X402Y1021D01*
D02*
X1601Y301D02*
X1602Y133D01*
D02*
X1691Y436D02*
X1601Y301D01*
D02*
X2252Y602D02*
X2252Y1102D01*
D02*
X2153Y651D02*
X2202Y602D01*
D02*
X2202Y602D02*
X2252Y602D01*
D02*
X2252Y1102D02*
X2326Y1139D01*
D02*
X2152Y722D02*
X2153Y651D01*
D02*
X2152Y1003D02*
X2152Y1251D01*
D02*
X2152Y1251D02*
X2102Y1303D01*
D02*
X206Y1284D02*
X284Y1258D01*
D02*
X302Y1271D02*
X302Y1433D01*
D02*
X1471Y1752D02*
X1521Y1752D01*
D02*
X2133Y852D02*
X1871Y851D01*
D02*
X253Y1152D02*
X252Y1021D01*
D02*
X198Y1233D02*
X253Y1152D01*
G54D23*
D02*
X152Y1371D02*
X152Y1378D01*
D02*
X202Y1727D02*
X202Y1816D01*
G54D22*
D02*
X602Y1683D02*
X602Y1471D01*
D02*
X552Y1183D02*
X552Y1071D01*
D02*
X2301Y1901D02*
X2302Y1972D01*
D02*
X2351Y1301D02*
X2351Y1603D01*
D02*
X2351Y1603D02*
X2351Y1802D01*
D02*
X2351Y1802D02*
X2301Y1901D01*
D02*
X1702Y1083D02*
X1702Y1003D01*
D02*
X1651Y553D02*
X1513Y367D01*
D02*
X1651Y652D02*
X1651Y553D01*
D02*
X1687Y722D02*
X1651Y652D01*
D02*
X2252Y1202D02*
X2252Y1171D01*
D02*
X2451Y1253D02*
X2351Y1253D01*
D02*
X2351Y1253D02*
X2252Y1202D01*
D02*
X2451Y1181D02*
X2451Y1253D01*
D02*
X456Y1330D02*
X485Y1344D01*
D02*
X2451Y753D02*
X2451Y824D01*
D02*
X2528Y713D02*
X2451Y753D01*
D02*
X2301Y851D02*
X2323Y852D01*
D02*
X2302Y622D02*
X2301Y851D01*
D02*
X2502Y1301D02*
X2552Y1252D01*
D02*
X2552Y953D02*
X2472Y872D01*
D02*
X2552Y1252D02*
X2552Y953D01*
D02*
X2351Y1301D02*
X2502Y1301D01*
D02*
X1801Y404D02*
X1802Y533D01*
D02*
X1802Y133D02*
X1801Y404D01*
D02*
X152Y1101D02*
X152Y721D01*
D02*
X1302Y352D02*
X1301Y701D01*
D02*
X1802Y1721D02*
X1802Y1621D01*
D02*
X1301Y701D02*
X1533Y702D01*
D02*
X650Y1451D02*
X603Y1303D01*
D02*
X502Y1303D02*
X456Y1303D01*
D02*
X603Y1303D02*
X502Y1303D01*
D02*
X701Y1852D02*
X650Y1802D01*
D02*
X650Y1802D02*
X650Y1703D01*
D02*
X650Y1703D02*
X650Y1451D01*
D02*
X1001Y1852D02*
X701Y1852D01*
D02*
X1051Y1902D02*
X1001Y1852D01*
D02*
X1045Y1972D02*
X1051Y1902D01*
D02*
X1302Y803D02*
X1252Y752D01*
D02*
X1251Y403D02*
X1202Y352D01*
D02*
X1302Y1053D02*
X1302Y803D01*
D02*
X1202Y352D02*
X1121Y352D01*
D02*
X1252Y752D02*
X1251Y403D01*
D02*
X1502Y1053D02*
X1302Y1053D01*
D02*
X203Y1153D02*
X175Y1233D01*
D02*
X1252Y303D02*
X1302Y352D01*
D02*
X1171Y302D02*
X1252Y303D01*
D02*
X152Y1233D02*
X152Y1101D01*
D02*
X202Y671D02*
X203Y1153D01*
D02*
X1502Y1124D02*
X1502Y1053D01*
G54D23*
D02*
X553Y1751D02*
X432Y1832D01*
D02*
X553Y1501D02*
X553Y1751D01*
D02*
X454Y1371D02*
X553Y1501D01*
G54D22*
D02*
X251Y1303D02*
X252Y1333D01*
D02*
X206Y1303D02*
X251Y1303D01*
D02*
X1202Y1753D02*
X1321Y1752D01*
D02*
X1201Y1603D02*
X1202Y1753D01*
D02*
X1121Y1602D02*
X1201Y1603D01*
D02*
X1902Y433D02*
X1902Y321D01*
D02*
X1702Y283D02*
X1702Y133D01*
D02*
X2452Y551D02*
X2533Y471D01*
D02*
X2101Y553D02*
X2452Y551D01*
D02*
X2001Y651D02*
X2101Y553D01*
D02*
X2001Y722D02*
X2001Y651D01*
D02*
X1502Y253D02*
X1502Y133D01*
D02*
X1853Y652D02*
X1702Y652D01*
D02*
X1702Y652D02*
X1701Y553D01*
D02*
X1701Y553D02*
X1502Y253D01*
D02*
X1852Y722D02*
X1853Y652D01*
D02*
X1202Y702D02*
X1102Y702D01*
D02*
X1102Y702D02*
X1102Y752D01*
D02*
X1202Y1102D02*
X1202Y702D01*
D02*
X1251Y1253D02*
X1202Y1102D01*
D02*
X1403Y1252D02*
X1251Y1253D01*
D02*
X1402Y1181D02*
X1403Y1252D01*
D02*
X1944Y973D02*
X1909Y973D01*
D02*
X1751Y1052D02*
X1814Y1003D01*
D02*
X1751Y1152D02*
X1751Y1052D01*
D02*
X1651Y1202D02*
X1751Y1152D01*
D02*
X1602Y1152D02*
X1651Y1202D01*
D02*
X1602Y753D02*
X1602Y1152D01*
D02*
X1502Y753D02*
X1602Y753D01*
D02*
X1502Y824D02*
X1502Y753D01*
D02*
X1153Y1853D02*
X1301Y1853D01*
D02*
X1144Y1972D02*
X1153Y1853D01*
D02*
X1301Y1853D02*
X1651Y1852D01*
D02*
X1651Y1852D02*
X1651Y1603D01*
D02*
X1853Y1103D02*
X1852Y1003D01*
D02*
X1651Y1301D02*
X1801Y1202D01*
D02*
X1801Y1202D02*
X1853Y1103D01*
D02*
X1651Y1603D02*
X1651Y1301D01*
D02*
X1102Y1032D02*
X1102Y1083D01*
D02*
X952Y752D02*
X952Y721D01*
D02*
X902Y1534D02*
X902Y1721D01*
D02*
X951Y1303D02*
X929Y1371D01*
D02*
X952Y1032D02*
X951Y1303D01*
D02*
X1002Y1271D02*
X1001Y1753D01*
D02*
X1001Y1753D02*
X1071Y1752D01*
D02*
X852Y671D02*
X852Y1183D01*
D02*
X2002Y483D02*
X2002Y321D01*
D02*
X1871Y502D02*
X1983Y502D01*
D02*
X1371Y552D02*
X1533Y552D01*
D02*
X1085Y1111D02*
X1019Y1144D01*
D02*
X752Y721D02*
X752Y1133D01*
D02*
X1451Y202D02*
X933Y202D01*
D02*
X1502Y253D02*
X1451Y202D01*
D02*
X701Y302D02*
X701Y233D01*
D02*
X952Y302D02*
X701Y302D01*
D02*
X1133Y452D02*
X1052Y452D01*
D02*
X1052Y452D02*
X952Y302D01*
D02*
X2153Y1653D02*
X2153Y1852D01*
D02*
X2284Y1608D02*
X2153Y1653D01*
D02*
X2153Y1852D02*
X2233Y1852D01*
D02*
X1902Y1302D02*
X1902Y1753D01*
D02*
X1902Y1753D02*
X1971Y1753D01*
D02*
X2102Y1303D02*
X1902Y1302D01*
D02*
X2033Y1252D02*
X1871Y1252D01*
D02*
X2083Y1202D02*
X1921Y1202D01*
D02*
X1771Y602D02*
X1902Y602D01*
D02*
X1902Y602D02*
X1938Y639D01*
D02*
X1435Y611D02*
X1369Y644D01*
D02*
X1108Y520D02*
X1146Y634D01*
D02*
X252Y652D02*
X288Y689D01*
D02*
X252Y584D02*
X252Y652D01*
D02*
X252Y233D02*
X252Y421D01*
D02*
X1933Y552D02*
X1871Y552D01*
D02*
X1371Y752D02*
X1433Y752D01*
D02*
X452Y584D02*
X452Y783D01*
D02*
X452Y233D02*
X452Y421D01*
G36*
X2544Y1963D02*
X2544Y1961D01*
X2542Y1961D01*
X2542Y1959D01*
X2540Y1959D01*
X2540Y1957D01*
X2538Y1957D01*
X2538Y1955D01*
X2534Y1955D01*
X2534Y1953D01*
X2532Y1953D01*
X2532Y1951D01*
X2528Y1951D01*
X2528Y1949D01*
X2524Y1949D01*
X2524Y1947D01*
X2516Y1947D01*
X2516Y1945D01*
X2564Y1945D01*
X2564Y1963D01*
X2544Y1963D01*
G37*
D02*
G36*
X2342Y1961D02*
X2342Y1959D01*
X2340Y1959D01*
X2340Y1957D01*
X2338Y1957D01*
X2338Y1945D01*
X2388Y1945D01*
X2388Y1947D01*
X2382Y1947D01*
X2382Y1949D01*
X2376Y1949D01*
X2376Y1951D01*
X2374Y1951D01*
X2374Y1953D01*
X2370Y1953D01*
X2370Y1955D01*
X2368Y1955D01*
X2368Y1957D01*
X2364Y1957D01*
X2364Y1959D01*
X2362Y1959D01*
X2362Y1961D01*
X2342Y1961D01*
G37*
D02*
G36*
X2442Y1961D02*
X2442Y1959D01*
X2440Y1959D01*
X2440Y1957D01*
X2438Y1957D01*
X2438Y1955D01*
X2434Y1955D01*
X2434Y1953D01*
X2432Y1953D01*
X2432Y1951D01*
X2428Y1951D01*
X2428Y1949D01*
X2424Y1949D01*
X2424Y1947D01*
X2416Y1947D01*
X2416Y1945D01*
X2488Y1945D01*
X2488Y1947D01*
X2482Y1947D01*
X2482Y1949D01*
X2476Y1949D01*
X2476Y1951D01*
X2474Y1951D01*
X2474Y1953D01*
X2470Y1953D01*
X2470Y1955D01*
X2468Y1955D01*
X2468Y1957D01*
X2464Y1957D01*
X2464Y1959D01*
X2462Y1959D01*
X2462Y1961D01*
X2442Y1961D01*
G37*
D02*
G36*
X2338Y1945D02*
X2338Y1943D01*
X2564Y1943D01*
X2564Y1945D01*
X2338Y1945D01*
G37*
D02*
G36*
X2338Y1945D02*
X2338Y1943D01*
X2564Y1943D01*
X2564Y1945D01*
X2338Y1945D01*
G37*
D02*
G36*
X2338Y1945D02*
X2338Y1943D01*
X2564Y1943D01*
X2564Y1945D01*
X2338Y1945D01*
G37*
D02*
G36*
X2338Y1943D02*
X2338Y1907D01*
X2340Y1907D01*
X2340Y1903D01*
X2342Y1903D01*
X2342Y1899D01*
X2344Y1899D01*
X2344Y1895D01*
X2346Y1895D01*
X2346Y1891D01*
X2348Y1891D01*
X2348Y1887D01*
X2350Y1887D01*
X2350Y1883D01*
X2352Y1883D01*
X2352Y1879D01*
X2354Y1879D01*
X2354Y1875D01*
X2356Y1875D01*
X2356Y1871D01*
X2358Y1871D01*
X2358Y1867D01*
X2360Y1867D01*
X2360Y1863D01*
X2362Y1863D01*
X2362Y1859D01*
X2364Y1859D01*
X2364Y1855D01*
X2366Y1855D01*
X2366Y1851D01*
X2368Y1851D01*
X2368Y1847D01*
X2370Y1847D01*
X2370Y1843D01*
X2372Y1843D01*
X2372Y1839D01*
X2374Y1839D01*
X2374Y1835D01*
X2376Y1835D01*
X2376Y1831D01*
X2378Y1831D01*
X2378Y1827D01*
X2380Y1827D01*
X2380Y1823D01*
X2382Y1823D01*
X2382Y1819D01*
X2384Y1819D01*
X2384Y1817D01*
X2518Y1817D01*
X2518Y1687D01*
X2388Y1687D01*
X2388Y1563D01*
X2564Y1563D01*
X2564Y1943D01*
X2338Y1943D01*
G37*
D02*
G36*
X1686Y2059D02*
X1686Y2039D01*
X1688Y2039D01*
X1688Y2037D01*
X1690Y2037D01*
X1690Y2033D01*
X1692Y2033D01*
X1692Y2029D01*
X1694Y2029D01*
X1694Y2027D01*
X1696Y2027D01*
X1696Y2021D01*
X1698Y2021D01*
X1698Y2013D01*
X1700Y2013D01*
X1700Y1991D01*
X1698Y1991D01*
X1698Y1983D01*
X1696Y1983D01*
X1696Y1979D01*
X1694Y1979D01*
X1694Y1975D01*
X1692Y1975D01*
X1692Y1971D01*
X1690Y1971D01*
X1690Y1969D01*
X1688Y1969D01*
X1688Y1965D01*
X1686Y1965D01*
X1686Y1963D01*
X1684Y1963D01*
X1684Y1961D01*
X1682Y1961D01*
X1682Y1959D01*
X1680Y1959D01*
X1680Y1957D01*
X1676Y1957D01*
X1676Y1955D01*
X1674Y1955D01*
X1674Y1953D01*
X1672Y1953D01*
X1672Y1951D01*
X1668Y1951D01*
X1668Y1949D01*
X1664Y1949D01*
X1664Y1947D01*
X1656Y1947D01*
X1656Y1945D01*
X1788Y1945D01*
X1788Y1947D01*
X1782Y1947D01*
X1782Y1949D01*
X1776Y1949D01*
X1776Y1951D01*
X1774Y1951D01*
X1774Y1953D01*
X1770Y1953D01*
X1770Y1955D01*
X1768Y1955D01*
X1768Y1957D01*
X1764Y1957D01*
X1764Y1959D01*
X1762Y1959D01*
X1762Y1961D01*
X1760Y1961D01*
X1760Y1963D01*
X1758Y1963D01*
X1758Y1967D01*
X1756Y1967D01*
X1756Y1969D01*
X1754Y1969D01*
X1754Y1971D01*
X1752Y1971D01*
X1752Y1975D01*
X1750Y1975D01*
X1750Y1979D01*
X1748Y1979D01*
X1748Y1985D01*
X1746Y1985D01*
X1746Y1993D01*
X1744Y1993D01*
X1744Y2011D01*
X1746Y2011D01*
X1746Y2021D01*
X1748Y2021D01*
X1748Y2025D01*
X1750Y2025D01*
X1750Y2029D01*
X1752Y2029D01*
X1752Y2033D01*
X1754Y2033D01*
X1754Y2035D01*
X1756Y2035D01*
X1756Y2039D01*
X1758Y2039D01*
X1758Y2059D01*
X1686Y2059D01*
G37*
D02*
G36*
X1282Y1961D02*
X1282Y1959D01*
X1280Y1959D01*
X1280Y1957D01*
X1278Y1957D01*
X1278Y1955D01*
X1274Y1955D01*
X1274Y1953D01*
X1272Y1953D01*
X1272Y1951D01*
X1268Y1951D01*
X1268Y1949D01*
X1264Y1949D01*
X1264Y1947D01*
X1256Y1947D01*
X1256Y1945D01*
X1328Y1945D01*
X1328Y1947D01*
X1322Y1947D01*
X1322Y1949D01*
X1316Y1949D01*
X1316Y1951D01*
X1314Y1951D01*
X1314Y1953D01*
X1310Y1953D01*
X1310Y1955D01*
X1308Y1955D01*
X1308Y1957D01*
X1304Y1957D01*
X1304Y1959D01*
X1302Y1959D01*
X1302Y1961D01*
X1282Y1961D01*
G37*
D02*
G36*
X1382Y1961D02*
X1382Y1959D01*
X1380Y1959D01*
X1380Y1957D01*
X1378Y1957D01*
X1378Y1955D01*
X1374Y1955D01*
X1374Y1953D01*
X1372Y1953D01*
X1372Y1951D01*
X1368Y1951D01*
X1368Y1949D01*
X1364Y1949D01*
X1364Y1947D01*
X1356Y1947D01*
X1356Y1945D01*
X1428Y1945D01*
X1428Y1947D01*
X1422Y1947D01*
X1422Y1949D01*
X1416Y1949D01*
X1416Y1951D01*
X1414Y1951D01*
X1414Y1953D01*
X1410Y1953D01*
X1410Y1955D01*
X1408Y1955D01*
X1408Y1957D01*
X1404Y1957D01*
X1404Y1959D01*
X1402Y1959D01*
X1402Y1961D01*
X1382Y1961D01*
G37*
D02*
G36*
X1482Y1961D02*
X1482Y1959D01*
X1480Y1959D01*
X1480Y1957D01*
X1478Y1957D01*
X1478Y1955D01*
X1474Y1955D01*
X1474Y1953D01*
X1472Y1953D01*
X1472Y1951D01*
X1468Y1951D01*
X1468Y1949D01*
X1464Y1949D01*
X1464Y1947D01*
X1456Y1947D01*
X1456Y1945D01*
X1528Y1945D01*
X1528Y1947D01*
X1522Y1947D01*
X1522Y1949D01*
X1516Y1949D01*
X1516Y1951D01*
X1514Y1951D01*
X1514Y1953D01*
X1510Y1953D01*
X1510Y1955D01*
X1508Y1955D01*
X1508Y1957D01*
X1504Y1957D01*
X1504Y1959D01*
X1502Y1959D01*
X1502Y1961D01*
X1482Y1961D01*
G37*
D02*
G36*
X1582Y1961D02*
X1582Y1959D01*
X1580Y1959D01*
X1580Y1957D01*
X1578Y1957D01*
X1578Y1955D01*
X1574Y1955D01*
X1574Y1953D01*
X1572Y1953D01*
X1572Y1951D01*
X1568Y1951D01*
X1568Y1949D01*
X1564Y1949D01*
X1564Y1947D01*
X1556Y1947D01*
X1556Y1945D01*
X1628Y1945D01*
X1628Y1947D01*
X1622Y1947D01*
X1622Y1949D01*
X1616Y1949D01*
X1616Y1951D01*
X1612Y1951D01*
X1612Y1953D01*
X1610Y1953D01*
X1610Y1955D01*
X1608Y1955D01*
X1608Y1957D01*
X1604Y1957D01*
X1604Y1959D01*
X1602Y1959D01*
X1602Y1961D01*
X1582Y1961D01*
G37*
D02*
G36*
X1842Y1961D02*
X1842Y1959D01*
X1840Y1959D01*
X1840Y1957D01*
X1838Y1957D01*
X1838Y1955D01*
X1834Y1955D01*
X1834Y1953D01*
X1832Y1953D01*
X1832Y1951D01*
X1828Y1951D01*
X1828Y1949D01*
X1824Y1949D01*
X1824Y1947D01*
X1816Y1947D01*
X1816Y1945D01*
X1888Y1945D01*
X1888Y1947D01*
X1882Y1947D01*
X1882Y1949D01*
X1876Y1949D01*
X1876Y1951D01*
X1874Y1951D01*
X1874Y1953D01*
X1870Y1953D01*
X1870Y1955D01*
X1868Y1955D01*
X1868Y1957D01*
X1864Y1957D01*
X1864Y1959D01*
X1862Y1959D01*
X1862Y1961D01*
X1842Y1961D01*
G37*
D02*
G36*
X1942Y1961D02*
X1942Y1959D01*
X1940Y1959D01*
X1940Y1957D01*
X1938Y1957D01*
X1938Y1955D01*
X1934Y1955D01*
X1934Y1953D01*
X1932Y1953D01*
X1932Y1951D01*
X1928Y1951D01*
X1928Y1949D01*
X1924Y1949D01*
X1924Y1947D01*
X1916Y1947D01*
X1916Y1945D01*
X1988Y1945D01*
X1988Y1947D01*
X1982Y1947D01*
X1982Y1949D01*
X1976Y1949D01*
X1976Y1951D01*
X1974Y1951D01*
X1974Y1953D01*
X1970Y1953D01*
X1970Y1955D01*
X1968Y1955D01*
X1968Y1957D01*
X1964Y1957D01*
X1964Y1959D01*
X1962Y1959D01*
X1962Y1961D01*
X1942Y1961D01*
G37*
D02*
G36*
X2042Y1961D02*
X2042Y1959D01*
X2040Y1959D01*
X2040Y1957D01*
X2038Y1957D01*
X2038Y1955D01*
X2034Y1955D01*
X2034Y1953D01*
X2032Y1953D01*
X2032Y1951D01*
X2028Y1951D01*
X2028Y1949D01*
X2024Y1949D01*
X2024Y1947D01*
X2016Y1947D01*
X2016Y1945D01*
X2088Y1945D01*
X2088Y1947D01*
X2082Y1947D01*
X2082Y1949D01*
X2076Y1949D01*
X2076Y1951D01*
X2074Y1951D01*
X2074Y1953D01*
X2070Y1953D01*
X2070Y1955D01*
X2068Y1955D01*
X2068Y1957D01*
X2064Y1957D01*
X2064Y1959D01*
X2062Y1959D01*
X2062Y1961D01*
X2042Y1961D01*
G37*
D02*
G36*
X2142Y1961D02*
X2142Y1959D01*
X2140Y1959D01*
X2140Y1957D01*
X2138Y1957D01*
X2138Y1955D01*
X2134Y1955D01*
X2134Y1953D01*
X2132Y1953D01*
X2132Y1951D01*
X2128Y1951D01*
X2128Y1949D01*
X2124Y1949D01*
X2124Y1947D01*
X2116Y1947D01*
X2116Y1945D01*
X2188Y1945D01*
X2188Y1947D01*
X2182Y1947D01*
X2182Y1949D01*
X2176Y1949D01*
X2176Y1951D01*
X2172Y1951D01*
X2172Y1953D01*
X2170Y1953D01*
X2170Y1955D01*
X2168Y1955D01*
X2168Y1957D01*
X2164Y1957D01*
X2164Y1959D01*
X2162Y1959D01*
X2162Y1961D01*
X2142Y1961D01*
G37*
D02*
G36*
X2242Y1961D02*
X2242Y1959D01*
X2240Y1959D01*
X2240Y1957D01*
X2236Y1957D01*
X2236Y1955D01*
X2234Y1955D01*
X2234Y1953D01*
X2232Y1953D01*
X2232Y1951D01*
X2228Y1951D01*
X2228Y1949D01*
X2224Y1949D01*
X2224Y1947D01*
X2216Y1947D01*
X2216Y1945D01*
X2264Y1945D01*
X2264Y1959D01*
X2262Y1959D01*
X2262Y1961D01*
X2242Y1961D01*
G37*
D02*
G36*
X1184Y1959D02*
X1184Y1945D01*
X1228Y1945D01*
X1228Y1947D01*
X1222Y1947D01*
X1222Y1949D01*
X1216Y1949D01*
X1216Y1951D01*
X1214Y1951D01*
X1214Y1953D01*
X1210Y1953D01*
X1210Y1955D01*
X1208Y1955D01*
X1208Y1957D01*
X1204Y1957D01*
X1204Y1959D01*
X1184Y1959D01*
G37*
D02*
G36*
X1184Y1945D02*
X1184Y1943D01*
X2264Y1943D01*
X2264Y1945D01*
X1184Y1945D01*
G37*
D02*
G36*
X1184Y1945D02*
X1184Y1943D01*
X2264Y1943D01*
X2264Y1945D01*
X1184Y1945D01*
G37*
D02*
G36*
X1184Y1945D02*
X1184Y1943D01*
X2264Y1943D01*
X2264Y1945D01*
X1184Y1945D01*
G37*
D02*
G36*
X1184Y1945D02*
X1184Y1943D01*
X2264Y1943D01*
X2264Y1945D01*
X1184Y1945D01*
G37*
D02*
G36*
X1184Y1945D02*
X1184Y1943D01*
X2264Y1943D01*
X2264Y1945D01*
X1184Y1945D01*
G37*
D02*
G36*
X1184Y1945D02*
X1184Y1943D01*
X2264Y1943D01*
X2264Y1945D01*
X1184Y1945D01*
G37*
D02*
G36*
X1184Y1945D02*
X1184Y1943D01*
X2264Y1943D01*
X2264Y1945D01*
X1184Y1945D01*
G37*
D02*
G36*
X1184Y1945D02*
X1184Y1943D01*
X2264Y1943D01*
X2264Y1945D01*
X1184Y1945D01*
G37*
D02*
G36*
X1184Y1945D02*
X1184Y1943D01*
X2264Y1943D01*
X2264Y1945D01*
X1184Y1945D01*
G37*
D02*
G36*
X1184Y1945D02*
X1184Y1943D01*
X2264Y1943D01*
X2264Y1945D01*
X1184Y1945D01*
G37*
D02*
G36*
X1184Y1945D02*
X1184Y1943D01*
X2264Y1943D01*
X2264Y1945D01*
X1184Y1945D01*
G37*
D02*
G36*
X1184Y1943D02*
X1184Y1923D01*
X1186Y1923D01*
X1186Y1897D01*
X1188Y1897D01*
X1188Y1889D01*
X1660Y1889D01*
X1660Y1887D01*
X1666Y1887D01*
X1666Y1885D01*
X1670Y1885D01*
X1670Y1883D01*
X1672Y1883D01*
X1672Y1881D01*
X1674Y1881D01*
X1674Y1879D01*
X1678Y1879D01*
X1678Y1875D01*
X1680Y1875D01*
X1680Y1873D01*
X1682Y1873D01*
X1682Y1871D01*
X1684Y1871D01*
X1684Y1867D01*
X1686Y1867D01*
X1686Y1861D01*
X1688Y1861D01*
X1688Y1817D01*
X2068Y1817D01*
X2068Y1687D01*
X1938Y1687D01*
X1938Y1563D01*
X2096Y1563D01*
X2096Y1339D01*
X2112Y1339D01*
X2112Y1337D01*
X2118Y1337D01*
X2118Y1335D01*
X2122Y1335D01*
X2122Y1333D01*
X2124Y1333D01*
X2124Y1331D01*
X2126Y1331D01*
X2126Y1329D01*
X2130Y1329D01*
X2130Y1327D01*
X2132Y1327D01*
X2132Y1325D01*
X2134Y1325D01*
X2134Y1321D01*
X2136Y1321D01*
X2136Y1319D01*
X2138Y1319D01*
X2138Y1317D01*
X2140Y1317D01*
X2140Y1315D01*
X2142Y1315D01*
X2142Y1313D01*
X2144Y1313D01*
X2144Y1311D01*
X2146Y1311D01*
X2146Y1309D01*
X2148Y1309D01*
X2148Y1307D01*
X2150Y1307D01*
X2150Y1305D01*
X2152Y1305D01*
X2152Y1303D01*
X2154Y1303D01*
X2154Y1301D01*
X2156Y1301D01*
X2156Y1299D01*
X2158Y1299D01*
X2158Y1297D01*
X2160Y1297D01*
X2160Y1295D01*
X2162Y1295D01*
X2162Y1293D01*
X2164Y1293D01*
X2164Y1291D01*
X2166Y1291D01*
X2166Y1289D01*
X2168Y1289D01*
X2168Y1287D01*
X2170Y1287D01*
X2170Y1285D01*
X2172Y1285D01*
X2172Y1283D01*
X2174Y1283D01*
X2174Y1281D01*
X2176Y1281D01*
X2176Y1279D01*
X2178Y1279D01*
X2178Y1275D01*
X2180Y1275D01*
X2180Y1273D01*
X2182Y1273D01*
X2182Y1271D01*
X2184Y1271D01*
X2184Y1267D01*
X2186Y1267D01*
X2186Y1263D01*
X2188Y1263D01*
X2188Y1251D01*
X2190Y1251D01*
X2190Y1209D01*
X2188Y1209D01*
X2188Y1153D01*
X2208Y1153D01*
X2208Y1165D01*
X2210Y1165D01*
X2210Y1171D01*
X2212Y1171D01*
X2212Y1173D01*
X2214Y1173D01*
X2214Y1191D01*
X2216Y1191D01*
X2216Y1213D01*
X2218Y1213D01*
X2218Y1217D01*
X2220Y1217D01*
X2220Y1221D01*
X2222Y1221D01*
X2222Y1225D01*
X2224Y1225D01*
X2224Y1227D01*
X2226Y1227D01*
X2226Y1229D01*
X2228Y1229D01*
X2228Y1231D01*
X2232Y1231D01*
X2232Y1233D01*
X2234Y1233D01*
X2234Y1235D01*
X2238Y1235D01*
X2238Y1237D01*
X2242Y1237D01*
X2242Y1239D01*
X2246Y1239D01*
X2246Y1241D01*
X2250Y1241D01*
X2250Y1243D01*
X2254Y1243D01*
X2254Y1245D01*
X2258Y1245D01*
X2258Y1247D01*
X2262Y1247D01*
X2262Y1249D01*
X2266Y1249D01*
X2266Y1251D01*
X2270Y1251D01*
X2270Y1253D01*
X2272Y1253D01*
X2272Y1255D01*
X2276Y1255D01*
X2276Y1257D01*
X2280Y1257D01*
X2280Y1259D01*
X2284Y1259D01*
X2284Y1261D01*
X2288Y1261D01*
X2288Y1263D01*
X2292Y1263D01*
X2292Y1265D01*
X2296Y1265D01*
X2296Y1267D01*
X2300Y1267D01*
X2300Y1269D01*
X2304Y1269D01*
X2304Y1271D01*
X2308Y1271D01*
X2308Y1273D01*
X2312Y1273D01*
X2312Y1275D01*
X2314Y1275D01*
X2314Y1339D01*
X2158Y1339D01*
X2158Y1563D01*
X2244Y1563D01*
X2244Y1583D01*
X2238Y1583D01*
X2238Y1585D01*
X2232Y1585D01*
X2232Y1587D01*
X2228Y1587D01*
X2228Y1589D01*
X2222Y1589D01*
X2222Y1591D01*
X2216Y1591D01*
X2216Y1593D01*
X2210Y1593D01*
X2210Y1595D01*
X2204Y1595D01*
X2204Y1597D01*
X2198Y1597D01*
X2198Y1599D01*
X2192Y1599D01*
X2192Y1601D01*
X2186Y1601D01*
X2186Y1603D01*
X2180Y1603D01*
X2180Y1605D01*
X2174Y1605D01*
X2174Y1607D01*
X2168Y1607D01*
X2168Y1609D01*
X2162Y1609D01*
X2162Y1611D01*
X2156Y1611D01*
X2156Y1613D01*
X2150Y1613D01*
X2150Y1615D01*
X2144Y1615D01*
X2144Y1617D01*
X2140Y1617D01*
X2140Y1619D01*
X2134Y1619D01*
X2134Y1621D01*
X2132Y1621D01*
X2132Y1623D01*
X2128Y1623D01*
X2128Y1625D01*
X2126Y1625D01*
X2126Y1627D01*
X2124Y1627D01*
X2124Y1631D01*
X2122Y1631D01*
X2122Y1633D01*
X2120Y1633D01*
X2120Y1637D01*
X2118Y1637D01*
X2118Y1643D01*
X2116Y1643D01*
X2116Y1861D01*
X2118Y1861D01*
X2118Y1867D01*
X2120Y1867D01*
X2120Y1871D01*
X2122Y1871D01*
X2122Y1873D01*
X2124Y1873D01*
X2124Y1875D01*
X2126Y1875D01*
X2126Y1879D01*
X2130Y1879D01*
X2130Y1881D01*
X2132Y1881D01*
X2132Y1883D01*
X2136Y1883D01*
X2136Y1885D01*
X2140Y1885D01*
X2140Y1887D01*
X2148Y1887D01*
X2148Y1889D01*
X2230Y1889D01*
X2230Y1891D01*
X2232Y1891D01*
X2232Y1893D01*
X2238Y1893D01*
X2238Y1895D01*
X2246Y1895D01*
X2246Y1897D01*
X2264Y1897D01*
X2264Y1943D01*
X1184Y1943D01*
G37*
D02*
G36*
X1688Y1817D02*
X1688Y1687D01*
X1792Y1687D01*
X1792Y1689D01*
X1784Y1689D01*
X1784Y1691D01*
X1778Y1691D01*
X1778Y1693D01*
X1774Y1693D01*
X1774Y1695D01*
X1770Y1695D01*
X1770Y1697D01*
X1766Y1697D01*
X1766Y1699D01*
X1764Y1699D01*
X1764Y1701D01*
X1760Y1701D01*
X1760Y1703D01*
X1758Y1703D01*
X1758Y1705D01*
X1756Y1705D01*
X1756Y1707D01*
X1754Y1707D01*
X1754Y1709D01*
X1752Y1709D01*
X1752Y1713D01*
X1750Y1713D01*
X1750Y1715D01*
X1748Y1715D01*
X1748Y1719D01*
X1746Y1719D01*
X1746Y1721D01*
X1744Y1721D01*
X1744Y1725D01*
X1742Y1725D01*
X1742Y1731D01*
X1740Y1731D01*
X1740Y1737D01*
X1738Y1737D01*
X1738Y1767D01*
X1740Y1767D01*
X1740Y1773D01*
X1742Y1773D01*
X1742Y1779D01*
X1744Y1779D01*
X1744Y1783D01*
X1746Y1783D01*
X1746Y1787D01*
X1748Y1787D01*
X1748Y1789D01*
X1750Y1789D01*
X1750Y1791D01*
X1752Y1791D01*
X1752Y1795D01*
X1754Y1795D01*
X1754Y1797D01*
X1756Y1797D01*
X1756Y1799D01*
X1758Y1799D01*
X1758Y1801D01*
X1760Y1801D01*
X1760Y1803D01*
X1764Y1803D01*
X1764Y1805D01*
X1766Y1805D01*
X1766Y1807D01*
X1770Y1807D01*
X1770Y1809D01*
X1772Y1809D01*
X1772Y1811D01*
X1776Y1811D01*
X1776Y1813D01*
X1782Y1813D01*
X1782Y1815D01*
X1790Y1815D01*
X1790Y1817D01*
X1688Y1817D01*
G37*
D02*
G36*
X1814Y1817D02*
X1814Y1815D01*
X1822Y1815D01*
X1822Y1813D01*
X1828Y1813D01*
X1828Y1811D01*
X1832Y1811D01*
X1832Y1809D01*
X1834Y1809D01*
X1834Y1807D01*
X1838Y1807D01*
X1838Y1805D01*
X1840Y1805D01*
X1840Y1803D01*
X1844Y1803D01*
X1844Y1801D01*
X1846Y1801D01*
X1846Y1799D01*
X1848Y1799D01*
X1848Y1797D01*
X1850Y1797D01*
X1850Y1795D01*
X1852Y1795D01*
X1852Y1793D01*
X1854Y1793D01*
X1854Y1789D01*
X1856Y1789D01*
X1856Y1787D01*
X1858Y1787D01*
X1858Y1783D01*
X1860Y1783D01*
X1860Y1781D01*
X1880Y1781D01*
X1880Y1783D01*
X1882Y1783D01*
X1882Y1785D01*
X1886Y1785D01*
X1886Y1787D01*
X1892Y1787D01*
X1892Y1789D01*
X1938Y1789D01*
X1938Y1817D01*
X1814Y1817D01*
G37*
D02*
G36*
X1844Y1703D02*
X1844Y1701D01*
X1840Y1701D01*
X1840Y1699D01*
X1838Y1699D01*
X1838Y1697D01*
X1834Y1697D01*
X1834Y1695D01*
X1832Y1695D01*
X1832Y1693D01*
X1826Y1693D01*
X1826Y1691D01*
X1822Y1691D01*
X1822Y1689D01*
X1812Y1689D01*
X1812Y1687D01*
X1864Y1687D01*
X1864Y1703D01*
X1844Y1703D01*
G37*
D02*
G36*
X1688Y1687D02*
X1688Y1685D01*
X1864Y1685D01*
X1864Y1687D01*
X1688Y1687D01*
G37*
D02*
G36*
X1688Y1687D02*
X1688Y1685D01*
X1864Y1685D01*
X1864Y1687D01*
X1688Y1687D01*
G37*
D02*
G36*
X1688Y1685D02*
X1688Y1647D01*
X1806Y1647D01*
X1806Y1645D01*
X1816Y1645D01*
X1816Y1643D01*
X1820Y1643D01*
X1820Y1641D01*
X1824Y1641D01*
X1824Y1639D01*
X1828Y1639D01*
X1828Y1637D01*
X1830Y1637D01*
X1830Y1635D01*
X1832Y1635D01*
X1832Y1633D01*
X1834Y1633D01*
X1834Y1631D01*
X1836Y1631D01*
X1836Y1629D01*
X1838Y1629D01*
X1838Y1625D01*
X1840Y1625D01*
X1840Y1623D01*
X1842Y1623D01*
X1842Y1619D01*
X1844Y1619D01*
X1844Y1611D01*
X1864Y1611D01*
X1864Y1685D01*
X1688Y1685D01*
G37*
D02*
G36*
X1688Y1647D02*
X1688Y1321D01*
X1690Y1321D01*
X1690Y1319D01*
X1692Y1319D01*
X1692Y1317D01*
X1696Y1317D01*
X1696Y1315D01*
X1698Y1315D01*
X1698Y1313D01*
X1702Y1313D01*
X1702Y1311D01*
X1704Y1311D01*
X1704Y1309D01*
X1708Y1309D01*
X1708Y1307D01*
X1710Y1307D01*
X1710Y1305D01*
X1714Y1305D01*
X1714Y1303D01*
X1716Y1303D01*
X1716Y1301D01*
X1720Y1301D01*
X1720Y1299D01*
X1722Y1299D01*
X1722Y1297D01*
X1726Y1297D01*
X1726Y1295D01*
X1728Y1295D01*
X1728Y1293D01*
X1732Y1293D01*
X1732Y1291D01*
X1734Y1291D01*
X1734Y1289D01*
X1738Y1289D01*
X1738Y1287D01*
X1740Y1287D01*
X1740Y1285D01*
X1744Y1285D01*
X1744Y1283D01*
X1746Y1283D01*
X1746Y1281D01*
X1750Y1281D01*
X1750Y1279D01*
X1752Y1279D01*
X1752Y1277D01*
X1756Y1277D01*
X1756Y1275D01*
X1758Y1275D01*
X1758Y1273D01*
X1762Y1273D01*
X1762Y1271D01*
X1764Y1271D01*
X1764Y1269D01*
X1768Y1269D01*
X1768Y1267D01*
X1770Y1267D01*
X1770Y1265D01*
X1774Y1265D01*
X1774Y1263D01*
X1776Y1263D01*
X1776Y1261D01*
X1780Y1261D01*
X1780Y1259D01*
X1782Y1259D01*
X1782Y1257D01*
X1786Y1257D01*
X1786Y1255D01*
X1788Y1255D01*
X1788Y1253D01*
X1808Y1253D01*
X1808Y1265D01*
X1810Y1265D01*
X1810Y1271D01*
X1812Y1271D01*
X1812Y1273D01*
X1814Y1273D01*
X1814Y1277D01*
X1816Y1277D01*
X1816Y1279D01*
X1818Y1279D01*
X1818Y1283D01*
X1820Y1283D01*
X1820Y1285D01*
X1824Y1285D01*
X1824Y1287D01*
X1826Y1287D01*
X1826Y1289D01*
X1830Y1289D01*
X1830Y1291D01*
X1832Y1291D01*
X1832Y1293D01*
X1838Y1293D01*
X1838Y1295D01*
X1846Y1295D01*
X1846Y1297D01*
X1864Y1297D01*
X1864Y1339D01*
X1708Y1339D01*
X1708Y1563D01*
X1762Y1563D01*
X1762Y1583D01*
X1760Y1583D01*
X1760Y1589D01*
X1758Y1589D01*
X1758Y1601D01*
X1756Y1601D01*
X1756Y1603D01*
X1758Y1603D01*
X1758Y1615D01*
X1760Y1615D01*
X1760Y1621D01*
X1762Y1621D01*
X1762Y1623D01*
X1764Y1623D01*
X1764Y1627D01*
X1766Y1627D01*
X1766Y1629D01*
X1768Y1629D01*
X1768Y1633D01*
X1770Y1633D01*
X1770Y1635D01*
X1774Y1635D01*
X1774Y1637D01*
X1776Y1637D01*
X1776Y1639D01*
X1780Y1639D01*
X1780Y1641D01*
X1782Y1641D01*
X1782Y1643D01*
X1788Y1643D01*
X1788Y1645D01*
X1796Y1645D01*
X1796Y1647D01*
X1688Y1647D01*
G37*
D02*
G36*
X1406Y1717D02*
X1406Y1715D01*
X1404Y1715D01*
X1404Y1713D01*
X1402Y1713D01*
X1402Y1709D01*
X1400Y1709D01*
X1400Y1707D01*
X1444Y1707D01*
X1444Y1709D01*
X1436Y1709D01*
X1436Y1711D01*
X1432Y1711D01*
X1432Y1713D01*
X1428Y1713D01*
X1428Y1715D01*
X1426Y1715D01*
X1426Y1717D01*
X1406Y1717D01*
G37*
D02*
G36*
X1238Y1715D02*
X1238Y1687D01*
X1338Y1687D01*
X1338Y1689D01*
X1332Y1689D01*
X1332Y1691D01*
X1326Y1691D01*
X1326Y1693D01*
X1322Y1693D01*
X1322Y1695D01*
X1318Y1695D01*
X1318Y1697D01*
X1316Y1697D01*
X1316Y1699D01*
X1312Y1699D01*
X1312Y1701D01*
X1310Y1701D01*
X1310Y1703D01*
X1308Y1703D01*
X1308Y1705D01*
X1306Y1705D01*
X1306Y1707D01*
X1304Y1707D01*
X1304Y1709D01*
X1302Y1709D01*
X1302Y1711D01*
X1300Y1711D01*
X1300Y1713D01*
X1298Y1713D01*
X1298Y1715D01*
X1238Y1715D01*
G37*
D02*
G36*
X1460Y1709D02*
X1460Y1707D01*
X1486Y1707D01*
X1486Y1709D01*
X1460Y1709D01*
G37*
D02*
G36*
X1398Y1707D02*
X1398Y1705D01*
X1486Y1705D01*
X1486Y1707D01*
X1398Y1707D01*
G37*
D02*
G36*
X1398Y1707D02*
X1398Y1705D01*
X1486Y1705D01*
X1486Y1707D01*
X1398Y1707D01*
G37*
D02*
G36*
X1396Y1705D02*
X1396Y1703D01*
X1394Y1703D01*
X1394Y1701D01*
X1390Y1701D01*
X1390Y1699D01*
X1388Y1699D01*
X1388Y1697D01*
X1384Y1697D01*
X1384Y1695D01*
X1382Y1695D01*
X1382Y1693D01*
X1378Y1693D01*
X1378Y1691D01*
X1372Y1691D01*
X1372Y1689D01*
X1364Y1689D01*
X1364Y1687D01*
X1486Y1687D01*
X1486Y1705D01*
X1396Y1705D01*
G37*
D02*
G36*
X1238Y1687D02*
X1238Y1685D01*
X1614Y1685D01*
X1614Y1687D01*
X1238Y1687D01*
G37*
D02*
G36*
X1238Y1687D02*
X1238Y1685D01*
X1614Y1685D01*
X1614Y1687D01*
X1238Y1687D01*
G37*
D02*
G36*
X1238Y1685D02*
X1238Y1593D01*
X1236Y1593D01*
X1236Y1587D01*
X1234Y1587D01*
X1234Y1585D01*
X1232Y1585D01*
X1232Y1581D01*
X1230Y1581D01*
X1230Y1579D01*
X1228Y1579D01*
X1228Y1577D01*
X1226Y1577D01*
X1226Y1575D01*
X1224Y1575D01*
X1224Y1573D01*
X1222Y1573D01*
X1222Y1571D01*
X1218Y1571D01*
X1218Y1569D01*
X1214Y1569D01*
X1214Y1567D01*
X1204Y1567D01*
X1204Y1565D01*
X1196Y1565D01*
X1196Y1341D01*
X1194Y1341D01*
X1194Y1339D01*
X1038Y1339D01*
X1038Y1289D01*
X1404Y1289D01*
X1404Y1287D01*
X1414Y1287D01*
X1414Y1285D01*
X1420Y1285D01*
X1420Y1283D01*
X1424Y1283D01*
X1424Y1281D01*
X1426Y1281D01*
X1426Y1279D01*
X1428Y1279D01*
X1428Y1277D01*
X1430Y1277D01*
X1430Y1275D01*
X1432Y1275D01*
X1432Y1273D01*
X1434Y1273D01*
X1434Y1269D01*
X1436Y1269D01*
X1436Y1265D01*
X1438Y1265D01*
X1438Y1259D01*
X1440Y1259D01*
X1440Y1215D01*
X1564Y1215D01*
X1564Y1185D01*
X1584Y1185D01*
X1584Y1187D01*
X1586Y1187D01*
X1586Y1189D01*
X1588Y1189D01*
X1588Y1191D01*
X1590Y1191D01*
X1590Y1193D01*
X1592Y1193D01*
X1592Y1195D01*
X1594Y1195D01*
X1594Y1197D01*
X1596Y1197D01*
X1596Y1199D01*
X1598Y1199D01*
X1598Y1201D01*
X1600Y1201D01*
X1600Y1203D01*
X1602Y1203D01*
X1602Y1205D01*
X1604Y1205D01*
X1604Y1207D01*
X1606Y1207D01*
X1606Y1209D01*
X1608Y1209D01*
X1608Y1211D01*
X1610Y1211D01*
X1610Y1213D01*
X1612Y1213D01*
X1612Y1215D01*
X1614Y1215D01*
X1614Y1217D01*
X1616Y1217D01*
X1616Y1219D01*
X1618Y1219D01*
X1618Y1221D01*
X1620Y1221D01*
X1620Y1223D01*
X1622Y1223D01*
X1622Y1225D01*
X1624Y1225D01*
X1624Y1227D01*
X1626Y1227D01*
X1626Y1229D01*
X1628Y1229D01*
X1628Y1231D01*
X1630Y1231D01*
X1630Y1233D01*
X1634Y1233D01*
X1634Y1235D01*
X1638Y1235D01*
X1638Y1237D01*
X1646Y1237D01*
X1646Y1239D01*
X1650Y1239D01*
X1650Y1259D01*
X1646Y1259D01*
X1646Y1261D01*
X1644Y1261D01*
X1644Y1263D01*
X1640Y1263D01*
X1640Y1265D01*
X1638Y1265D01*
X1638Y1267D01*
X1634Y1267D01*
X1634Y1269D01*
X1632Y1269D01*
X1632Y1271D01*
X1628Y1271D01*
X1628Y1273D01*
X1626Y1273D01*
X1626Y1275D01*
X1624Y1275D01*
X1624Y1277D01*
X1622Y1277D01*
X1622Y1279D01*
X1620Y1279D01*
X1620Y1283D01*
X1618Y1283D01*
X1618Y1287D01*
X1616Y1287D01*
X1616Y1295D01*
X1614Y1295D01*
X1614Y1339D01*
X1258Y1339D01*
X1258Y1563D01*
X1614Y1563D01*
X1614Y1685D01*
X1238Y1685D01*
G37*
D02*
G36*
X1038Y1289D02*
X1038Y1275D01*
X1040Y1275D01*
X1040Y1273D01*
X1042Y1273D01*
X1042Y1269D01*
X1044Y1269D01*
X1044Y1261D01*
X1046Y1261D01*
X1046Y1241D01*
X1044Y1241D01*
X1044Y1235D01*
X1042Y1235D01*
X1042Y1231D01*
X1040Y1231D01*
X1040Y1227D01*
X1038Y1227D01*
X1038Y1225D01*
X1036Y1225D01*
X1036Y1223D01*
X1034Y1223D01*
X1034Y1221D01*
X1032Y1221D01*
X1032Y1219D01*
X1030Y1219D01*
X1030Y1217D01*
X1028Y1217D01*
X1028Y1215D01*
X1026Y1215D01*
X1026Y1213D01*
X1022Y1213D01*
X1022Y1211D01*
X1020Y1211D01*
X1020Y1191D01*
X1024Y1191D01*
X1024Y1189D01*
X1028Y1189D01*
X1028Y1187D01*
X1030Y1187D01*
X1030Y1185D01*
X1032Y1185D01*
X1032Y1183D01*
X1034Y1183D01*
X1034Y1181D01*
X1036Y1181D01*
X1036Y1179D01*
X1038Y1179D01*
X1038Y1175D01*
X1040Y1175D01*
X1040Y1173D01*
X1044Y1173D01*
X1044Y1171D01*
X1048Y1171D01*
X1048Y1169D01*
X1052Y1169D01*
X1052Y1167D01*
X1056Y1167D01*
X1056Y1165D01*
X1060Y1165D01*
X1060Y1163D01*
X1064Y1163D01*
X1064Y1161D01*
X1068Y1161D01*
X1068Y1159D01*
X1072Y1159D01*
X1072Y1157D01*
X1076Y1157D01*
X1076Y1155D01*
X1080Y1155D01*
X1080Y1153D01*
X1084Y1153D01*
X1084Y1151D01*
X1088Y1151D01*
X1088Y1149D01*
X1092Y1149D01*
X1092Y1147D01*
X1106Y1147D01*
X1106Y1145D01*
X1116Y1145D01*
X1116Y1143D01*
X1120Y1143D01*
X1120Y1141D01*
X1124Y1141D01*
X1124Y1139D01*
X1128Y1139D01*
X1128Y1137D01*
X1130Y1137D01*
X1130Y1135D01*
X1132Y1135D01*
X1132Y1133D01*
X1134Y1133D01*
X1134Y1131D01*
X1136Y1131D01*
X1136Y1129D01*
X1138Y1129D01*
X1138Y1125D01*
X1140Y1125D01*
X1140Y1123D01*
X1142Y1123D01*
X1142Y1119D01*
X1144Y1119D01*
X1144Y1111D01*
X1146Y1111D01*
X1146Y1105D01*
X1166Y1105D01*
X1166Y1115D01*
X1168Y1115D01*
X1168Y1121D01*
X1170Y1121D01*
X1170Y1127D01*
X1172Y1127D01*
X1172Y1133D01*
X1174Y1133D01*
X1174Y1139D01*
X1176Y1139D01*
X1176Y1145D01*
X1178Y1145D01*
X1178Y1151D01*
X1180Y1151D01*
X1180Y1157D01*
X1182Y1157D01*
X1182Y1163D01*
X1184Y1163D01*
X1184Y1171D01*
X1186Y1171D01*
X1186Y1177D01*
X1188Y1177D01*
X1188Y1183D01*
X1190Y1183D01*
X1190Y1189D01*
X1192Y1189D01*
X1192Y1195D01*
X1194Y1195D01*
X1194Y1201D01*
X1196Y1201D01*
X1196Y1207D01*
X1198Y1207D01*
X1198Y1213D01*
X1200Y1213D01*
X1200Y1219D01*
X1202Y1219D01*
X1202Y1225D01*
X1204Y1225D01*
X1204Y1231D01*
X1206Y1231D01*
X1206Y1239D01*
X1208Y1239D01*
X1208Y1245D01*
X1210Y1245D01*
X1210Y1251D01*
X1212Y1251D01*
X1212Y1257D01*
X1214Y1257D01*
X1214Y1263D01*
X1216Y1263D01*
X1216Y1269D01*
X1218Y1269D01*
X1218Y1271D01*
X1220Y1271D01*
X1220Y1275D01*
X1222Y1275D01*
X1222Y1277D01*
X1224Y1277D01*
X1224Y1279D01*
X1226Y1279D01*
X1226Y1281D01*
X1228Y1281D01*
X1228Y1283D01*
X1230Y1283D01*
X1230Y1285D01*
X1234Y1285D01*
X1234Y1287D01*
X1240Y1287D01*
X1240Y1289D01*
X1038Y1289D01*
G37*
D02*
G36*
X1906Y1265D02*
X1906Y1245D01*
X1916Y1245D01*
X1916Y1243D01*
X1920Y1243D01*
X1920Y1241D01*
X1924Y1241D01*
X1924Y1239D01*
X2006Y1239D01*
X2006Y1265D01*
X1906Y1265D01*
G37*
D02*
G36*
X76Y2059D02*
X76Y2057D01*
X70Y2057D01*
X70Y2055D01*
X68Y2055D01*
X68Y2053D01*
X64Y2053D01*
X64Y2051D01*
X62Y2051D01*
X62Y2049D01*
X60Y2049D01*
X60Y2047D01*
X58Y2047D01*
X58Y2043D01*
X56Y2043D01*
X56Y2041D01*
X54Y2041D01*
X54Y2035D01*
X52Y2035D01*
X52Y1945D01*
X728Y1945D01*
X728Y1947D01*
X722Y1947D01*
X722Y1949D01*
X716Y1949D01*
X716Y1951D01*
X712Y1951D01*
X712Y1953D01*
X710Y1953D01*
X710Y1955D01*
X708Y1955D01*
X708Y1957D01*
X704Y1957D01*
X704Y1959D01*
X702Y1959D01*
X702Y1961D01*
X700Y1961D01*
X700Y1963D01*
X698Y1963D01*
X698Y1967D01*
X696Y1967D01*
X696Y1969D01*
X694Y1969D01*
X694Y1971D01*
X692Y1971D01*
X692Y1975D01*
X690Y1975D01*
X690Y1979D01*
X688Y1979D01*
X688Y1983D01*
X686Y1983D01*
X686Y1993D01*
X684Y1993D01*
X684Y2011D01*
X686Y2011D01*
X686Y2021D01*
X688Y2021D01*
X688Y2025D01*
X690Y2025D01*
X690Y2029D01*
X692Y2029D01*
X692Y2033D01*
X694Y2033D01*
X694Y2035D01*
X696Y2035D01*
X696Y2039D01*
X698Y2039D01*
X698Y2059D01*
X76Y2059D01*
G37*
D02*
G36*
X782Y1961D02*
X782Y1959D01*
X780Y1959D01*
X780Y1957D01*
X776Y1957D01*
X776Y1955D01*
X774Y1955D01*
X774Y1953D01*
X772Y1953D01*
X772Y1951D01*
X768Y1951D01*
X768Y1949D01*
X764Y1949D01*
X764Y1947D01*
X756Y1947D01*
X756Y1945D01*
X828Y1945D01*
X828Y1947D01*
X822Y1947D01*
X822Y1949D01*
X816Y1949D01*
X816Y1951D01*
X814Y1951D01*
X814Y1953D01*
X810Y1953D01*
X810Y1955D01*
X808Y1955D01*
X808Y1957D01*
X804Y1957D01*
X804Y1959D01*
X802Y1959D01*
X802Y1961D01*
X782Y1961D01*
G37*
D02*
G36*
X882Y1961D02*
X882Y1959D01*
X880Y1959D01*
X880Y1957D01*
X878Y1957D01*
X878Y1955D01*
X874Y1955D01*
X874Y1953D01*
X872Y1953D01*
X872Y1951D01*
X868Y1951D01*
X868Y1949D01*
X864Y1949D01*
X864Y1947D01*
X856Y1947D01*
X856Y1945D01*
X928Y1945D01*
X928Y1947D01*
X922Y1947D01*
X922Y1949D01*
X916Y1949D01*
X916Y1951D01*
X914Y1951D01*
X914Y1953D01*
X910Y1953D01*
X910Y1955D01*
X908Y1955D01*
X908Y1957D01*
X904Y1957D01*
X904Y1959D01*
X902Y1959D01*
X902Y1961D01*
X882Y1961D01*
G37*
D02*
G36*
X982Y1961D02*
X982Y1959D01*
X980Y1959D01*
X980Y1957D01*
X978Y1957D01*
X978Y1955D01*
X974Y1955D01*
X974Y1953D01*
X972Y1953D01*
X972Y1951D01*
X968Y1951D01*
X968Y1949D01*
X964Y1949D01*
X964Y1947D01*
X956Y1947D01*
X956Y1945D01*
X1028Y1945D01*
X1028Y1947D01*
X1022Y1947D01*
X1022Y1949D01*
X1016Y1949D01*
X1016Y1951D01*
X1014Y1951D01*
X1014Y1953D01*
X1010Y1953D01*
X1010Y1955D01*
X1008Y1955D01*
X1008Y1957D01*
X1004Y1957D01*
X1004Y1959D01*
X1002Y1959D01*
X1002Y1961D01*
X982Y1961D01*
G37*
D02*
G36*
X1082Y1961D02*
X1082Y1959D01*
X1080Y1959D01*
X1080Y1957D01*
X1078Y1957D01*
X1078Y1955D01*
X1074Y1955D01*
X1074Y1953D01*
X1072Y1953D01*
X1072Y1951D01*
X1068Y1951D01*
X1068Y1949D01*
X1064Y1949D01*
X1064Y1947D01*
X1056Y1947D01*
X1056Y1945D01*
X1110Y1945D01*
X1110Y1947D01*
X1108Y1947D01*
X1108Y1957D01*
X1104Y1957D01*
X1104Y1959D01*
X1102Y1959D01*
X1102Y1961D01*
X1082Y1961D01*
G37*
D02*
G36*
X52Y1945D02*
X52Y1943D01*
X1110Y1943D01*
X1110Y1945D01*
X52Y1945D01*
G37*
D02*
G36*
X52Y1945D02*
X52Y1943D01*
X1110Y1943D01*
X1110Y1945D01*
X52Y1945D01*
G37*
D02*
G36*
X52Y1945D02*
X52Y1943D01*
X1110Y1943D01*
X1110Y1945D01*
X52Y1945D01*
G37*
D02*
G36*
X52Y1945D02*
X52Y1943D01*
X1110Y1943D01*
X1110Y1945D01*
X52Y1945D01*
G37*
D02*
G36*
X52Y1945D02*
X52Y1943D01*
X1110Y1943D01*
X1110Y1945D01*
X52Y1945D01*
G37*
D02*
G36*
X52Y1943D02*
X52Y1917D01*
X466Y1917D01*
X466Y1817D01*
X910Y1817D01*
X910Y1815D01*
X920Y1815D01*
X920Y1813D01*
X926Y1813D01*
X926Y1811D01*
X930Y1811D01*
X930Y1809D01*
X934Y1809D01*
X934Y1807D01*
X938Y1807D01*
X938Y1805D01*
X940Y1805D01*
X940Y1803D01*
X942Y1803D01*
X942Y1801D01*
X944Y1801D01*
X944Y1799D01*
X948Y1799D01*
X948Y1797D01*
X950Y1797D01*
X950Y1793D01*
X952Y1793D01*
X952Y1791D01*
X954Y1791D01*
X954Y1789D01*
X956Y1789D01*
X956Y1785D01*
X958Y1785D01*
X958Y1783D01*
X982Y1783D01*
X982Y1785D01*
X986Y1785D01*
X986Y1787D01*
X990Y1787D01*
X990Y1789D01*
X1036Y1789D01*
X1036Y1817D01*
X1120Y1817D01*
X1120Y1839D01*
X1118Y1839D01*
X1118Y1845D01*
X1116Y1845D01*
X1116Y1865D01*
X1114Y1865D01*
X1114Y1893D01*
X1112Y1893D01*
X1112Y1921D01*
X1110Y1921D01*
X1110Y1943D01*
X52Y1943D01*
G37*
D02*
G36*
X52Y1917D02*
X52Y1401D01*
X106Y1401D01*
X106Y1403D01*
X108Y1403D01*
X108Y1415D01*
X110Y1415D01*
X110Y1439D01*
X108Y1439D01*
X108Y1663D01*
X162Y1663D01*
X162Y1683D01*
X160Y1683D01*
X160Y1689D01*
X158Y1689D01*
X158Y1701D01*
X156Y1701D01*
X156Y1703D01*
X158Y1703D01*
X158Y1715D01*
X160Y1715D01*
X160Y1803D01*
X158Y1803D01*
X158Y1805D01*
X156Y1805D01*
X156Y1807D01*
X154Y1807D01*
X154Y1809D01*
X152Y1809D01*
X152Y1811D01*
X150Y1811D01*
X150Y1813D01*
X148Y1813D01*
X148Y1817D01*
X146Y1817D01*
X146Y1821D01*
X144Y1821D01*
X144Y1823D01*
X142Y1823D01*
X142Y1829D01*
X140Y1829D01*
X140Y1835D01*
X138Y1835D01*
X138Y1845D01*
X136Y1845D01*
X136Y1859D01*
X138Y1859D01*
X138Y1869D01*
X140Y1869D01*
X140Y1875D01*
X142Y1875D01*
X142Y1879D01*
X144Y1879D01*
X144Y1883D01*
X146Y1883D01*
X146Y1887D01*
X148Y1887D01*
X148Y1889D01*
X150Y1889D01*
X150Y1893D01*
X152Y1893D01*
X152Y1895D01*
X154Y1895D01*
X154Y1897D01*
X156Y1897D01*
X156Y1899D01*
X158Y1899D01*
X158Y1901D01*
X160Y1901D01*
X160Y1903D01*
X164Y1903D01*
X164Y1905D01*
X166Y1905D01*
X166Y1907D01*
X170Y1907D01*
X170Y1909D01*
X174Y1909D01*
X174Y1911D01*
X178Y1911D01*
X178Y1913D01*
X184Y1913D01*
X184Y1915D01*
X192Y1915D01*
X192Y1917D01*
X52Y1917D01*
G37*
D02*
G36*
X210Y1917D02*
X210Y1915D01*
X220Y1915D01*
X220Y1913D01*
X226Y1913D01*
X226Y1911D01*
X230Y1911D01*
X230Y1909D01*
X234Y1909D01*
X234Y1907D01*
X238Y1907D01*
X238Y1905D01*
X240Y1905D01*
X240Y1903D01*
X242Y1903D01*
X242Y1901D01*
X244Y1901D01*
X244Y1899D01*
X248Y1899D01*
X248Y1897D01*
X250Y1897D01*
X250Y1893D01*
X252Y1893D01*
X252Y1891D01*
X254Y1891D01*
X254Y1889D01*
X256Y1889D01*
X256Y1885D01*
X258Y1885D01*
X258Y1883D01*
X260Y1883D01*
X260Y1879D01*
X262Y1879D01*
X262Y1873D01*
X264Y1873D01*
X264Y1865D01*
X266Y1865D01*
X266Y1837D01*
X264Y1837D01*
X264Y1831D01*
X262Y1831D01*
X262Y1825D01*
X260Y1825D01*
X260Y1821D01*
X258Y1821D01*
X258Y1819D01*
X256Y1819D01*
X256Y1815D01*
X254Y1815D01*
X254Y1813D01*
X252Y1813D01*
X252Y1809D01*
X250Y1809D01*
X250Y1807D01*
X248Y1807D01*
X248Y1805D01*
X246Y1805D01*
X246Y1803D01*
X244Y1803D01*
X244Y1801D01*
X242Y1801D01*
X242Y1787D01*
X336Y1787D01*
X336Y1917D01*
X210Y1917D01*
G37*
D02*
G36*
X466Y1817D02*
X466Y1787D01*
X848Y1787D01*
X848Y1789D01*
X850Y1789D01*
X850Y1793D01*
X852Y1793D01*
X852Y1795D01*
X854Y1795D01*
X854Y1797D01*
X856Y1797D01*
X856Y1799D01*
X858Y1799D01*
X858Y1801D01*
X860Y1801D01*
X860Y1803D01*
X864Y1803D01*
X864Y1805D01*
X866Y1805D01*
X866Y1807D01*
X870Y1807D01*
X870Y1809D01*
X874Y1809D01*
X874Y1811D01*
X878Y1811D01*
X878Y1813D01*
X884Y1813D01*
X884Y1815D01*
X892Y1815D01*
X892Y1817D01*
X466Y1817D01*
G37*
D02*
G36*
X242Y1787D02*
X242Y1785D01*
X846Y1785D01*
X846Y1787D01*
X242Y1787D01*
G37*
D02*
G36*
X242Y1787D02*
X242Y1785D01*
X846Y1785D01*
X846Y1787D01*
X242Y1787D01*
G37*
D02*
G36*
X242Y1785D02*
X242Y1747D01*
X606Y1747D01*
X606Y1745D01*
X616Y1745D01*
X616Y1743D01*
X620Y1743D01*
X620Y1741D01*
X624Y1741D01*
X624Y1739D01*
X628Y1739D01*
X628Y1737D01*
X630Y1737D01*
X630Y1735D01*
X632Y1735D01*
X632Y1733D01*
X634Y1733D01*
X634Y1731D01*
X636Y1731D01*
X636Y1729D01*
X638Y1729D01*
X638Y1725D01*
X640Y1725D01*
X640Y1723D01*
X642Y1723D01*
X642Y1719D01*
X644Y1719D01*
X644Y1711D01*
X646Y1711D01*
X646Y1691D01*
X644Y1691D01*
X644Y1685D01*
X642Y1685D01*
X642Y1681D01*
X640Y1681D01*
X640Y1677D01*
X638Y1677D01*
X638Y1675D01*
X636Y1675D01*
X636Y1673D01*
X634Y1673D01*
X634Y1671D01*
X632Y1671D01*
X632Y1669D01*
X630Y1669D01*
X630Y1667D01*
X628Y1667D01*
X628Y1665D01*
X626Y1665D01*
X626Y1663D01*
X622Y1663D01*
X622Y1661D01*
X618Y1661D01*
X618Y1659D01*
X610Y1659D01*
X610Y1657D01*
X864Y1657D01*
X864Y1699D01*
X862Y1699D01*
X862Y1701D01*
X860Y1701D01*
X860Y1703D01*
X858Y1703D01*
X858Y1705D01*
X856Y1705D01*
X856Y1707D01*
X854Y1707D01*
X854Y1709D01*
X852Y1709D01*
X852Y1711D01*
X850Y1711D01*
X850Y1713D01*
X848Y1713D01*
X848Y1717D01*
X846Y1717D01*
X846Y1721D01*
X844Y1721D01*
X844Y1723D01*
X842Y1723D01*
X842Y1729D01*
X840Y1729D01*
X840Y1735D01*
X838Y1735D01*
X838Y1745D01*
X836Y1745D01*
X836Y1759D01*
X838Y1759D01*
X838Y1769D01*
X840Y1769D01*
X840Y1775D01*
X842Y1775D01*
X842Y1779D01*
X844Y1779D01*
X844Y1783D01*
X846Y1783D01*
X846Y1785D01*
X242Y1785D01*
G37*
D02*
G36*
X242Y1747D02*
X242Y1719D01*
X244Y1719D01*
X244Y1711D01*
X246Y1711D01*
X246Y1691D01*
X244Y1691D01*
X244Y1685D01*
X242Y1685D01*
X242Y1663D01*
X496Y1663D01*
X496Y1657D01*
X594Y1657D01*
X594Y1659D01*
X586Y1659D01*
X586Y1661D01*
X582Y1661D01*
X582Y1663D01*
X578Y1663D01*
X578Y1665D01*
X576Y1665D01*
X576Y1667D01*
X572Y1667D01*
X572Y1669D01*
X570Y1669D01*
X570Y1671D01*
X568Y1671D01*
X568Y1673D01*
X566Y1673D01*
X566Y1677D01*
X564Y1677D01*
X564Y1679D01*
X562Y1679D01*
X562Y1683D01*
X560Y1683D01*
X560Y1689D01*
X558Y1689D01*
X558Y1701D01*
X556Y1701D01*
X556Y1703D01*
X558Y1703D01*
X558Y1715D01*
X560Y1715D01*
X560Y1721D01*
X562Y1721D01*
X562Y1723D01*
X564Y1723D01*
X564Y1727D01*
X566Y1727D01*
X566Y1729D01*
X568Y1729D01*
X568Y1733D01*
X570Y1733D01*
X570Y1735D01*
X574Y1735D01*
X574Y1737D01*
X576Y1737D01*
X576Y1739D01*
X580Y1739D01*
X580Y1741D01*
X582Y1741D01*
X582Y1743D01*
X588Y1743D01*
X588Y1745D01*
X596Y1745D01*
X596Y1747D01*
X242Y1747D01*
G37*
D02*
G36*
X496Y1657D02*
X496Y1655D01*
X864Y1655D01*
X864Y1657D01*
X496Y1657D01*
G37*
D02*
G36*
X496Y1657D02*
X496Y1655D01*
X864Y1655D01*
X864Y1657D01*
X496Y1657D01*
G37*
D02*
G36*
X496Y1655D02*
X496Y1497D01*
X606Y1497D01*
X606Y1495D01*
X616Y1495D01*
X616Y1493D01*
X620Y1493D01*
X620Y1491D01*
X624Y1491D01*
X624Y1489D01*
X628Y1489D01*
X628Y1487D01*
X630Y1487D01*
X630Y1485D01*
X632Y1485D01*
X632Y1483D01*
X634Y1483D01*
X634Y1481D01*
X636Y1481D01*
X636Y1479D01*
X638Y1479D01*
X638Y1475D01*
X640Y1475D01*
X640Y1473D01*
X642Y1473D01*
X642Y1469D01*
X644Y1469D01*
X644Y1461D01*
X646Y1461D01*
X646Y1441D01*
X644Y1441D01*
X644Y1435D01*
X642Y1435D01*
X642Y1431D01*
X640Y1431D01*
X640Y1427D01*
X638Y1427D01*
X638Y1425D01*
X636Y1425D01*
X636Y1423D01*
X634Y1423D01*
X634Y1421D01*
X632Y1421D01*
X632Y1419D01*
X630Y1419D01*
X630Y1417D01*
X628Y1417D01*
X628Y1415D01*
X626Y1415D01*
X626Y1413D01*
X622Y1413D01*
X622Y1411D01*
X618Y1411D01*
X618Y1409D01*
X610Y1409D01*
X610Y1407D01*
X808Y1407D01*
X808Y1563D01*
X864Y1563D01*
X864Y1655D01*
X496Y1655D01*
G37*
D02*
G36*
X496Y1497D02*
X496Y1441D01*
X494Y1441D01*
X494Y1439D01*
X344Y1439D01*
X344Y1435D01*
X342Y1435D01*
X342Y1431D01*
X340Y1431D01*
X340Y1427D01*
X338Y1427D01*
X338Y1407D01*
X594Y1407D01*
X594Y1409D01*
X586Y1409D01*
X586Y1411D01*
X582Y1411D01*
X582Y1413D01*
X578Y1413D01*
X578Y1415D01*
X576Y1415D01*
X576Y1417D01*
X572Y1417D01*
X572Y1419D01*
X570Y1419D01*
X570Y1421D01*
X568Y1421D01*
X568Y1423D01*
X566Y1423D01*
X566Y1427D01*
X564Y1427D01*
X564Y1429D01*
X562Y1429D01*
X562Y1433D01*
X560Y1433D01*
X560Y1439D01*
X558Y1439D01*
X558Y1451D01*
X556Y1451D01*
X556Y1453D01*
X558Y1453D01*
X558Y1465D01*
X560Y1465D01*
X560Y1471D01*
X562Y1471D01*
X562Y1473D01*
X564Y1473D01*
X564Y1477D01*
X566Y1477D01*
X566Y1479D01*
X568Y1479D01*
X568Y1483D01*
X570Y1483D01*
X570Y1485D01*
X574Y1485D01*
X574Y1487D01*
X576Y1487D01*
X576Y1489D01*
X580Y1489D01*
X580Y1491D01*
X582Y1491D01*
X582Y1493D01*
X588Y1493D01*
X588Y1495D01*
X596Y1495D01*
X596Y1497D01*
X496Y1497D01*
G37*
D02*
G36*
X338Y1407D02*
X338Y1405D01*
X808Y1405D01*
X808Y1407D01*
X338Y1407D01*
G37*
D02*
G36*
X338Y1407D02*
X338Y1405D01*
X808Y1405D01*
X808Y1407D01*
X338Y1407D01*
G37*
D02*
G36*
X338Y1405D02*
X338Y1401D01*
X486Y1401D01*
X486Y1397D01*
X506Y1397D01*
X506Y1395D01*
X516Y1395D01*
X516Y1393D01*
X520Y1393D01*
X520Y1391D01*
X524Y1391D01*
X524Y1389D01*
X528Y1389D01*
X528Y1387D01*
X530Y1387D01*
X530Y1385D01*
X532Y1385D01*
X532Y1383D01*
X534Y1383D01*
X534Y1381D01*
X536Y1381D01*
X536Y1379D01*
X538Y1379D01*
X538Y1375D01*
X540Y1375D01*
X540Y1373D01*
X542Y1373D01*
X542Y1369D01*
X544Y1369D01*
X544Y1361D01*
X546Y1361D01*
X546Y1341D01*
X544Y1341D01*
X544Y1335D01*
X542Y1335D01*
X542Y1331D01*
X540Y1331D01*
X540Y1327D01*
X538Y1327D01*
X538Y1325D01*
X536Y1325D01*
X536Y1323D01*
X534Y1323D01*
X534Y1321D01*
X532Y1321D01*
X532Y1319D01*
X530Y1319D01*
X530Y1317D01*
X528Y1317D01*
X528Y1315D01*
X526Y1315D01*
X526Y1313D01*
X522Y1313D01*
X522Y1311D01*
X518Y1311D01*
X518Y1309D01*
X510Y1309D01*
X510Y1307D01*
X486Y1307D01*
X486Y1247D01*
X856Y1247D01*
X856Y1245D01*
X866Y1245D01*
X866Y1243D01*
X870Y1243D01*
X870Y1241D01*
X874Y1241D01*
X874Y1239D01*
X878Y1239D01*
X878Y1237D01*
X880Y1237D01*
X880Y1235D01*
X882Y1235D01*
X882Y1233D01*
X884Y1233D01*
X884Y1231D01*
X886Y1231D01*
X886Y1229D01*
X888Y1229D01*
X888Y1225D01*
X890Y1225D01*
X890Y1223D01*
X892Y1223D01*
X892Y1219D01*
X894Y1219D01*
X894Y1211D01*
X914Y1211D01*
X914Y1301D01*
X912Y1301D01*
X912Y1307D01*
X910Y1307D01*
X910Y1313D01*
X908Y1313D01*
X908Y1319D01*
X906Y1319D01*
X906Y1325D01*
X904Y1325D01*
X904Y1331D01*
X902Y1331D01*
X902Y1337D01*
X900Y1337D01*
X900Y1339D01*
X808Y1339D01*
X808Y1405D01*
X338Y1405D01*
G37*
D02*
G36*
X486Y1247D02*
X486Y1203D01*
X508Y1203D01*
X508Y1215D01*
X510Y1215D01*
X510Y1221D01*
X512Y1221D01*
X512Y1223D01*
X514Y1223D01*
X514Y1227D01*
X516Y1227D01*
X516Y1229D01*
X518Y1229D01*
X518Y1233D01*
X520Y1233D01*
X520Y1235D01*
X524Y1235D01*
X524Y1237D01*
X526Y1237D01*
X526Y1239D01*
X530Y1239D01*
X530Y1241D01*
X532Y1241D01*
X532Y1243D01*
X538Y1243D01*
X538Y1245D01*
X546Y1245D01*
X546Y1247D01*
X486Y1247D01*
G37*
D02*
G36*
X556Y1247D02*
X556Y1245D01*
X566Y1245D01*
X566Y1243D01*
X570Y1243D01*
X570Y1241D01*
X574Y1241D01*
X574Y1239D01*
X578Y1239D01*
X578Y1237D01*
X580Y1237D01*
X580Y1235D01*
X582Y1235D01*
X582Y1233D01*
X584Y1233D01*
X584Y1231D01*
X586Y1231D01*
X586Y1229D01*
X588Y1229D01*
X588Y1225D01*
X590Y1225D01*
X590Y1223D01*
X592Y1223D01*
X592Y1219D01*
X594Y1219D01*
X594Y1211D01*
X596Y1211D01*
X596Y1197D01*
X756Y1197D01*
X756Y1195D01*
X766Y1195D01*
X766Y1193D01*
X770Y1193D01*
X770Y1191D01*
X774Y1191D01*
X774Y1189D01*
X778Y1189D01*
X778Y1187D01*
X780Y1187D01*
X780Y1185D01*
X782Y1185D01*
X782Y1183D01*
X784Y1183D01*
X784Y1181D01*
X786Y1181D01*
X786Y1179D01*
X788Y1179D01*
X788Y1175D01*
X790Y1175D01*
X790Y1173D01*
X792Y1173D01*
X792Y1169D01*
X794Y1169D01*
X794Y1161D01*
X814Y1161D01*
X814Y1179D01*
X812Y1179D01*
X812Y1183D01*
X810Y1183D01*
X810Y1189D01*
X808Y1189D01*
X808Y1201D01*
X806Y1201D01*
X806Y1203D01*
X808Y1203D01*
X808Y1215D01*
X810Y1215D01*
X810Y1221D01*
X812Y1221D01*
X812Y1223D01*
X814Y1223D01*
X814Y1227D01*
X816Y1227D01*
X816Y1229D01*
X818Y1229D01*
X818Y1233D01*
X820Y1233D01*
X820Y1235D01*
X824Y1235D01*
X824Y1237D01*
X826Y1237D01*
X826Y1239D01*
X830Y1239D01*
X830Y1241D01*
X832Y1241D01*
X832Y1243D01*
X838Y1243D01*
X838Y1245D01*
X846Y1245D01*
X846Y1247D01*
X556Y1247D01*
G37*
D02*
G36*
X258Y1215D02*
X258Y1207D01*
X260Y1207D01*
X260Y1205D01*
X262Y1205D01*
X262Y1203D01*
X316Y1203D01*
X316Y1207D01*
X294Y1207D01*
X294Y1209D01*
X286Y1209D01*
X286Y1211D01*
X282Y1211D01*
X282Y1213D01*
X278Y1213D01*
X278Y1215D01*
X258Y1215D01*
G37*
D02*
G36*
X52Y1203D02*
X52Y137D01*
X186Y137D01*
X186Y267D01*
X214Y267D01*
X214Y389D01*
X158Y389D01*
X158Y613D01*
X162Y613D01*
X162Y633D01*
X160Y633D01*
X160Y639D01*
X158Y639D01*
X158Y651D01*
X156Y651D01*
X156Y657D01*
X144Y657D01*
X144Y659D01*
X136Y659D01*
X136Y661D01*
X132Y661D01*
X132Y663D01*
X128Y663D01*
X128Y665D01*
X126Y665D01*
X126Y667D01*
X122Y667D01*
X122Y669D01*
X120Y669D01*
X120Y671D01*
X118Y671D01*
X118Y673D01*
X116Y673D01*
X116Y677D01*
X114Y677D01*
X114Y679D01*
X112Y679D01*
X112Y683D01*
X110Y683D01*
X110Y689D01*
X108Y689D01*
X108Y701D01*
X106Y701D01*
X106Y703D01*
X108Y703D01*
X108Y715D01*
X110Y715D01*
X110Y721D01*
X112Y721D01*
X112Y723D01*
X114Y723D01*
X114Y1203D01*
X52Y1203D01*
G37*
D02*
G36*
X262Y1203D02*
X262Y1201D01*
X506Y1201D01*
X506Y1203D01*
X262Y1203D01*
G37*
D02*
G36*
X262Y1203D02*
X262Y1201D01*
X506Y1201D01*
X506Y1203D01*
X262Y1203D01*
G37*
D02*
G36*
X264Y1201D02*
X264Y1199D01*
X266Y1199D01*
X266Y1195D01*
X268Y1195D01*
X268Y1193D01*
X270Y1193D01*
X270Y1189D01*
X272Y1189D01*
X272Y1187D01*
X274Y1187D01*
X274Y1183D01*
X276Y1183D01*
X276Y1181D01*
X278Y1181D01*
X278Y1177D01*
X280Y1177D01*
X280Y1175D01*
X282Y1175D01*
X282Y1171D01*
X284Y1171D01*
X284Y1169D01*
X286Y1169D01*
X286Y1165D01*
X288Y1165D01*
X288Y1157D01*
X544Y1157D01*
X544Y1159D01*
X536Y1159D01*
X536Y1161D01*
X532Y1161D01*
X532Y1163D01*
X528Y1163D01*
X528Y1165D01*
X526Y1165D01*
X526Y1167D01*
X522Y1167D01*
X522Y1169D01*
X520Y1169D01*
X520Y1171D01*
X518Y1171D01*
X518Y1173D01*
X516Y1173D01*
X516Y1177D01*
X514Y1177D01*
X514Y1179D01*
X512Y1179D01*
X512Y1183D01*
X510Y1183D01*
X510Y1189D01*
X508Y1189D01*
X508Y1201D01*
X264Y1201D01*
G37*
D02*
G36*
X596Y1197D02*
X596Y1191D01*
X594Y1191D01*
X594Y1185D01*
X592Y1185D01*
X592Y1181D01*
X590Y1181D01*
X590Y1177D01*
X588Y1177D01*
X588Y1175D01*
X586Y1175D01*
X586Y1173D01*
X584Y1173D01*
X584Y1171D01*
X582Y1171D01*
X582Y1169D01*
X580Y1169D01*
X580Y1167D01*
X578Y1167D01*
X578Y1165D01*
X576Y1165D01*
X576Y1163D01*
X572Y1163D01*
X572Y1161D01*
X568Y1161D01*
X568Y1159D01*
X560Y1159D01*
X560Y1157D01*
X708Y1157D01*
X708Y1165D01*
X710Y1165D01*
X710Y1171D01*
X712Y1171D01*
X712Y1173D01*
X714Y1173D01*
X714Y1177D01*
X716Y1177D01*
X716Y1179D01*
X718Y1179D01*
X718Y1183D01*
X720Y1183D01*
X720Y1185D01*
X724Y1185D01*
X724Y1187D01*
X726Y1187D01*
X726Y1189D01*
X730Y1189D01*
X730Y1191D01*
X732Y1191D01*
X732Y1193D01*
X738Y1193D01*
X738Y1195D01*
X746Y1195D01*
X746Y1197D01*
X596Y1197D01*
G37*
D02*
G36*
X290Y1157D02*
X290Y1155D01*
X708Y1155D01*
X708Y1157D01*
X290Y1157D01*
G37*
D02*
G36*
X290Y1157D02*
X290Y1155D01*
X708Y1155D01*
X708Y1157D01*
X290Y1157D01*
G37*
D02*
G36*
X290Y1155D02*
X290Y1147D01*
X506Y1147D01*
X506Y1145D01*
X516Y1145D01*
X516Y1143D01*
X520Y1143D01*
X520Y1141D01*
X524Y1141D01*
X524Y1139D01*
X528Y1139D01*
X528Y1137D01*
X530Y1137D01*
X530Y1135D01*
X532Y1135D01*
X532Y1133D01*
X534Y1133D01*
X534Y1131D01*
X536Y1131D01*
X536Y1129D01*
X538Y1129D01*
X538Y1125D01*
X540Y1125D01*
X540Y1123D01*
X542Y1123D01*
X542Y1119D01*
X544Y1119D01*
X544Y1111D01*
X546Y1111D01*
X546Y1097D01*
X556Y1097D01*
X556Y1095D01*
X566Y1095D01*
X566Y1093D01*
X570Y1093D01*
X570Y1091D01*
X574Y1091D01*
X574Y1089D01*
X578Y1089D01*
X578Y1087D01*
X580Y1087D01*
X580Y1085D01*
X582Y1085D01*
X582Y1083D01*
X584Y1083D01*
X584Y1081D01*
X586Y1081D01*
X586Y1079D01*
X588Y1079D01*
X588Y1075D01*
X590Y1075D01*
X590Y1073D01*
X592Y1073D01*
X592Y1069D01*
X594Y1069D01*
X594Y1061D01*
X596Y1061D01*
X596Y1041D01*
X594Y1041D01*
X594Y1035D01*
X592Y1035D01*
X592Y1031D01*
X590Y1031D01*
X590Y1027D01*
X588Y1027D01*
X588Y1025D01*
X586Y1025D01*
X586Y1023D01*
X584Y1023D01*
X584Y1021D01*
X582Y1021D01*
X582Y1019D01*
X580Y1019D01*
X580Y1017D01*
X578Y1017D01*
X578Y1015D01*
X576Y1015D01*
X576Y1013D01*
X572Y1013D01*
X572Y1011D01*
X568Y1011D01*
X568Y1009D01*
X560Y1009D01*
X560Y1007D01*
X714Y1007D01*
X714Y1129D01*
X712Y1129D01*
X712Y1133D01*
X710Y1133D01*
X710Y1139D01*
X708Y1139D01*
X708Y1151D01*
X706Y1151D01*
X706Y1153D01*
X708Y1153D01*
X708Y1155D01*
X290Y1155D01*
G37*
D02*
G36*
X290Y1147D02*
X290Y1061D01*
X288Y1061D01*
X288Y1047D01*
X406Y1047D01*
X406Y1045D01*
X416Y1045D01*
X416Y1043D01*
X420Y1043D01*
X420Y1041D01*
X424Y1041D01*
X424Y1039D01*
X428Y1039D01*
X428Y1037D01*
X430Y1037D01*
X430Y1035D01*
X432Y1035D01*
X432Y1033D01*
X434Y1033D01*
X434Y1031D01*
X436Y1031D01*
X436Y1029D01*
X438Y1029D01*
X438Y1025D01*
X440Y1025D01*
X440Y1023D01*
X442Y1023D01*
X442Y1019D01*
X444Y1019D01*
X444Y1011D01*
X446Y1011D01*
X446Y1007D01*
X544Y1007D01*
X544Y1009D01*
X536Y1009D01*
X536Y1011D01*
X532Y1011D01*
X532Y1013D01*
X528Y1013D01*
X528Y1015D01*
X526Y1015D01*
X526Y1017D01*
X522Y1017D01*
X522Y1019D01*
X520Y1019D01*
X520Y1021D01*
X518Y1021D01*
X518Y1023D01*
X516Y1023D01*
X516Y1027D01*
X514Y1027D01*
X514Y1029D01*
X512Y1029D01*
X512Y1033D01*
X510Y1033D01*
X510Y1039D01*
X508Y1039D01*
X508Y1051D01*
X506Y1051D01*
X506Y1057D01*
X494Y1057D01*
X494Y1059D01*
X486Y1059D01*
X486Y1061D01*
X482Y1061D01*
X482Y1063D01*
X478Y1063D01*
X478Y1065D01*
X476Y1065D01*
X476Y1067D01*
X472Y1067D01*
X472Y1069D01*
X470Y1069D01*
X470Y1071D01*
X468Y1071D01*
X468Y1073D01*
X466Y1073D01*
X466Y1077D01*
X464Y1077D01*
X464Y1079D01*
X462Y1079D01*
X462Y1083D01*
X460Y1083D01*
X460Y1089D01*
X458Y1089D01*
X458Y1101D01*
X456Y1101D01*
X456Y1103D01*
X458Y1103D01*
X458Y1115D01*
X460Y1115D01*
X460Y1121D01*
X462Y1121D01*
X462Y1123D01*
X464Y1123D01*
X464Y1127D01*
X466Y1127D01*
X466Y1129D01*
X468Y1129D01*
X468Y1133D01*
X470Y1133D01*
X470Y1135D01*
X474Y1135D01*
X474Y1137D01*
X476Y1137D01*
X476Y1139D01*
X480Y1139D01*
X480Y1141D01*
X482Y1141D01*
X482Y1143D01*
X488Y1143D01*
X488Y1145D01*
X496Y1145D01*
X496Y1147D01*
X290Y1147D01*
G37*
D02*
G36*
X288Y1047D02*
X288Y1025D01*
X290Y1025D01*
X290Y1023D01*
X292Y1023D01*
X292Y1019D01*
X294Y1019D01*
X294Y1011D01*
X296Y1011D01*
X296Y991D01*
X294Y991D01*
X294Y985D01*
X292Y985D01*
X292Y981D01*
X290Y981D01*
X290Y977D01*
X288Y977D01*
X288Y975D01*
X286Y975D01*
X286Y973D01*
X284Y973D01*
X284Y971D01*
X282Y971D01*
X282Y969D01*
X280Y969D01*
X280Y967D01*
X278Y967D01*
X278Y965D01*
X276Y965D01*
X276Y963D01*
X272Y963D01*
X272Y961D01*
X268Y961D01*
X268Y959D01*
X260Y959D01*
X260Y957D01*
X394Y957D01*
X394Y959D01*
X386Y959D01*
X386Y961D01*
X382Y961D01*
X382Y963D01*
X378Y963D01*
X378Y965D01*
X376Y965D01*
X376Y967D01*
X372Y967D01*
X372Y969D01*
X370Y969D01*
X370Y971D01*
X368Y971D01*
X368Y973D01*
X366Y973D01*
X366Y977D01*
X364Y977D01*
X364Y979D01*
X362Y979D01*
X362Y983D01*
X360Y983D01*
X360Y989D01*
X358Y989D01*
X358Y1001D01*
X356Y1001D01*
X356Y1003D01*
X358Y1003D01*
X358Y1015D01*
X360Y1015D01*
X360Y1021D01*
X362Y1021D01*
X362Y1023D01*
X364Y1023D01*
X364Y1027D01*
X366Y1027D01*
X366Y1029D01*
X368Y1029D01*
X368Y1033D01*
X370Y1033D01*
X370Y1035D01*
X374Y1035D01*
X374Y1037D01*
X376Y1037D01*
X376Y1039D01*
X380Y1039D01*
X380Y1041D01*
X382Y1041D01*
X382Y1043D01*
X388Y1043D01*
X388Y1045D01*
X396Y1045D01*
X396Y1047D01*
X288Y1047D01*
G37*
D02*
G36*
X446Y1007D02*
X446Y1005D01*
X714Y1005D01*
X714Y1007D01*
X446Y1007D01*
G37*
D02*
G36*
X446Y1007D02*
X446Y1005D01*
X714Y1005D01*
X714Y1007D01*
X446Y1007D01*
G37*
D02*
G36*
X446Y1005D02*
X446Y991D01*
X444Y991D01*
X444Y985D01*
X442Y985D01*
X442Y981D01*
X440Y981D01*
X440Y977D01*
X438Y977D01*
X438Y975D01*
X436Y975D01*
X436Y973D01*
X434Y973D01*
X434Y971D01*
X432Y971D01*
X432Y969D01*
X430Y969D01*
X430Y967D01*
X428Y967D01*
X428Y965D01*
X426Y965D01*
X426Y963D01*
X422Y963D01*
X422Y961D01*
X418Y961D01*
X418Y959D01*
X410Y959D01*
X410Y957D01*
X714Y957D01*
X714Y1005D01*
X446Y1005D01*
G37*
D02*
G36*
X240Y957D02*
X240Y955D01*
X714Y955D01*
X714Y957D01*
X240Y957D01*
G37*
D02*
G36*
X240Y957D02*
X240Y955D01*
X714Y955D01*
X714Y957D01*
X240Y957D01*
G37*
D02*
G36*
X240Y955D02*
X240Y847D01*
X456Y847D01*
X456Y845D01*
X466Y845D01*
X466Y843D01*
X470Y843D01*
X470Y841D01*
X474Y841D01*
X474Y839D01*
X478Y839D01*
X478Y837D01*
X480Y837D01*
X480Y835D01*
X482Y835D01*
X482Y833D01*
X484Y833D01*
X484Y831D01*
X486Y831D01*
X486Y829D01*
X488Y829D01*
X488Y825D01*
X490Y825D01*
X490Y823D01*
X492Y823D01*
X492Y819D01*
X494Y819D01*
X494Y811D01*
X496Y811D01*
X496Y791D01*
X494Y791D01*
X494Y785D01*
X492Y785D01*
X492Y781D01*
X490Y781D01*
X490Y777D01*
X488Y777D01*
X488Y657D01*
X744Y657D01*
X744Y659D01*
X736Y659D01*
X736Y661D01*
X732Y661D01*
X732Y663D01*
X728Y663D01*
X728Y665D01*
X726Y665D01*
X726Y667D01*
X722Y667D01*
X722Y669D01*
X720Y669D01*
X720Y671D01*
X718Y671D01*
X718Y673D01*
X716Y673D01*
X716Y677D01*
X714Y677D01*
X714Y679D01*
X712Y679D01*
X712Y683D01*
X710Y683D01*
X710Y689D01*
X708Y689D01*
X708Y701D01*
X706Y701D01*
X706Y703D01*
X708Y703D01*
X708Y715D01*
X710Y715D01*
X710Y721D01*
X712Y721D01*
X712Y723D01*
X714Y723D01*
X714Y955D01*
X240Y955D01*
G37*
D02*
G36*
X240Y847D02*
X240Y825D01*
X238Y825D01*
X238Y747D01*
X306Y747D01*
X306Y745D01*
X316Y745D01*
X316Y743D01*
X320Y743D01*
X320Y741D01*
X324Y741D01*
X324Y739D01*
X328Y739D01*
X328Y737D01*
X330Y737D01*
X330Y735D01*
X332Y735D01*
X332Y733D01*
X334Y733D01*
X334Y731D01*
X336Y731D01*
X336Y729D01*
X338Y729D01*
X338Y725D01*
X340Y725D01*
X340Y723D01*
X342Y723D01*
X342Y719D01*
X344Y719D01*
X344Y711D01*
X346Y711D01*
X346Y691D01*
X344Y691D01*
X344Y685D01*
X342Y685D01*
X342Y681D01*
X340Y681D01*
X340Y677D01*
X338Y677D01*
X338Y675D01*
X336Y675D01*
X336Y673D01*
X334Y673D01*
X334Y671D01*
X332Y671D01*
X332Y669D01*
X330Y669D01*
X330Y667D01*
X328Y667D01*
X328Y665D01*
X326Y665D01*
X326Y663D01*
X322Y663D01*
X322Y661D01*
X318Y661D01*
X318Y659D01*
X310Y659D01*
X310Y657D01*
X308Y657D01*
X308Y655D01*
X306Y655D01*
X306Y653D01*
X304Y653D01*
X304Y651D01*
X302Y651D01*
X302Y649D01*
X300Y649D01*
X300Y647D01*
X298Y647D01*
X298Y645D01*
X296Y645D01*
X296Y643D01*
X294Y643D01*
X294Y641D01*
X292Y641D01*
X292Y639D01*
X290Y639D01*
X290Y637D01*
X288Y637D01*
X288Y613D01*
X414Y613D01*
X414Y779D01*
X412Y779D01*
X412Y783D01*
X410Y783D01*
X410Y789D01*
X408Y789D01*
X408Y801D01*
X406Y801D01*
X406Y803D01*
X408Y803D01*
X408Y815D01*
X410Y815D01*
X410Y821D01*
X412Y821D01*
X412Y823D01*
X414Y823D01*
X414Y827D01*
X416Y827D01*
X416Y829D01*
X418Y829D01*
X418Y833D01*
X420Y833D01*
X420Y835D01*
X424Y835D01*
X424Y837D01*
X426Y837D01*
X426Y839D01*
X430Y839D01*
X430Y841D01*
X432Y841D01*
X432Y843D01*
X438Y843D01*
X438Y845D01*
X446Y845D01*
X446Y847D01*
X240Y847D01*
G37*
D02*
G36*
X238Y747D02*
X238Y709D01*
X258Y709D01*
X258Y715D01*
X260Y715D01*
X260Y721D01*
X262Y721D01*
X262Y723D01*
X264Y723D01*
X264Y727D01*
X266Y727D01*
X266Y729D01*
X268Y729D01*
X268Y733D01*
X270Y733D01*
X270Y735D01*
X274Y735D01*
X274Y737D01*
X276Y737D01*
X276Y739D01*
X280Y739D01*
X280Y741D01*
X282Y741D01*
X282Y743D01*
X288Y743D01*
X288Y745D01*
X296Y745D01*
X296Y747D01*
X238Y747D01*
G37*
D02*
G36*
X996Y721D02*
X996Y691D01*
X994Y691D01*
X994Y685D01*
X992Y685D01*
X992Y681D01*
X990Y681D01*
X990Y677D01*
X988Y677D01*
X988Y675D01*
X986Y675D01*
X986Y673D01*
X984Y673D01*
X984Y671D01*
X982Y671D01*
X982Y669D01*
X980Y669D01*
X980Y667D01*
X978Y667D01*
X978Y665D01*
X976Y665D01*
X976Y663D01*
X972Y663D01*
X972Y661D01*
X968Y661D01*
X968Y659D01*
X960Y659D01*
X960Y657D01*
X1106Y657D01*
X1106Y665D01*
X1092Y665D01*
X1092Y667D01*
X1086Y667D01*
X1086Y669D01*
X1082Y669D01*
X1082Y671D01*
X1080Y671D01*
X1080Y673D01*
X1078Y673D01*
X1078Y675D01*
X1076Y675D01*
X1076Y677D01*
X1074Y677D01*
X1074Y679D01*
X1072Y679D01*
X1072Y681D01*
X1070Y681D01*
X1070Y685D01*
X1068Y685D01*
X1068Y689D01*
X1066Y689D01*
X1066Y699D01*
X1064Y699D01*
X1064Y721D01*
X996Y721D01*
G37*
D02*
G36*
X888Y701D02*
X888Y675D01*
X890Y675D01*
X890Y673D01*
X892Y673D01*
X892Y669D01*
X894Y669D01*
X894Y661D01*
X896Y661D01*
X896Y657D01*
X944Y657D01*
X944Y659D01*
X936Y659D01*
X936Y661D01*
X932Y661D01*
X932Y663D01*
X928Y663D01*
X928Y665D01*
X926Y665D01*
X926Y667D01*
X922Y667D01*
X922Y669D01*
X920Y669D01*
X920Y671D01*
X918Y671D01*
X918Y673D01*
X916Y673D01*
X916Y677D01*
X914Y677D01*
X914Y679D01*
X912Y679D01*
X912Y683D01*
X910Y683D01*
X910Y689D01*
X908Y689D01*
X908Y701D01*
X888Y701D01*
G37*
D02*
G36*
X794Y691D02*
X794Y685D01*
X792Y685D01*
X792Y681D01*
X790Y681D01*
X790Y677D01*
X788Y677D01*
X788Y675D01*
X786Y675D01*
X786Y673D01*
X784Y673D01*
X784Y671D01*
X782Y671D01*
X782Y669D01*
X780Y669D01*
X780Y667D01*
X778Y667D01*
X778Y665D01*
X776Y665D01*
X776Y663D01*
X772Y663D01*
X772Y661D01*
X768Y661D01*
X768Y659D01*
X760Y659D01*
X760Y657D01*
X808Y657D01*
X808Y665D01*
X810Y665D01*
X810Y671D01*
X812Y671D01*
X812Y673D01*
X814Y673D01*
X814Y691D01*
X794Y691D01*
G37*
D02*
G36*
X488Y657D02*
X488Y655D01*
X808Y655D01*
X808Y657D01*
X488Y657D01*
G37*
D02*
G36*
X488Y657D02*
X488Y655D01*
X808Y655D01*
X808Y657D01*
X488Y657D01*
G37*
D02*
G36*
X896Y657D02*
X896Y655D01*
X1106Y655D01*
X1106Y657D01*
X896Y657D01*
G37*
D02*
G36*
X896Y657D02*
X896Y655D01*
X1106Y655D01*
X1106Y657D01*
X896Y657D01*
G37*
D02*
G36*
X488Y655D02*
X488Y613D01*
X546Y613D01*
X546Y391D01*
X544Y391D01*
X544Y389D01*
X608Y389D01*
X608Y613D01*
X812Y613D01*
X812Y633D01*
X810Y633D01*
X810Y639D01*
X808Y639D01*
X808Y651D01*
X806Y651D01*
X806Y653D01*
X808Y653D01*
X808Y655D01*
X488Y655D01*
G37*
D02*
G36*
X896Y655D02*
X896Y641D01*
X894Y641D01*
X894Y635D01*
X892Y635D01*
X892Y613D01*
X996Y613D01*
X996Y397D01*
X1106Y397D01*
X1106Y395D01*
X1116Y395D01*
X1116Y393D01*
X1120Y393D01*
X1120Y391D01*
X1124Y391D01*
X1124Y389D01*
X1144Y389D01*
X1144Y409D01*
X1136Y409D01*
X1136Y411D01*
X1132Y411D01*
X1132Y413D01*
X1128Y413D01*
X1128Y415D01*
X1126Y415D01*
X1126Y417D01*
X1122Y417D01*
X1122Y419D01*
X1120Y419D01*
X1120Y421D01*
X1118Y421D01*
X1118Y423D01*
X1116Y423D01*
X1116Y427D01*
X1114Y427D01*
X1114Y429D01*
X1112Y429D01*
X1112Y433D01*
X1110Y433D01*
X1110Y439D01*
X1108Y439D01*
X1108Y451D01*
X1106Y451D01*
X1106Y457D01*
X1094Y457D01*
X1094Y459D01*
X1086Y459D01*
X1086Y461D01*
X1082Y461D01*
X1082Y463D01*
X1078Y463D01*
X1078Y465D01*
X1076Y465D01*
X1076Y467D01*
X1072Y467D01*
X1072Y469D01*
X1070Y469D01*
X1070Y471D01*
X1068Y471D01*
X1068Y473D01*
X1066Y473D01*
X1066Y477D01*
X1064Y477D01*
X1064Y479D01*
X1062Y479D01*
X1062Y483D01*
X1060Y483D01*
X1060Y489D01*
X1058Y489D01*
X1058Y501D01*
X1056Y501D01*
X1056Y503D01*
X1058Y503D01*
X1058Y515D01*
X1060Y515D01*
X1060Y521D01*
X1062Y521D01*
X1062Y523D01*
X1064Y523D01*
X1064Y527D01*
X1066Y527D01*
X1066Y529D01*
X1068Y529D01*
X1068Y533D01*
X1070Y533D01*
X1070Y535D01*
X1074Y535D01*
X1074Y539D01*
X1076Y539D01*
X1076Y545D01*
X1078Y545D01*
X1078Y551D01*
X1080Y551D01*
X1080Y557D01*
X1082Y557D01*
X1082Y563D01*
X1084Y563D01*
X1084Y569D01*
X1086Y569D01*
X1086Y575D01*
X1088Y575D01*
X1088Y581D01*
X1090Y581D01*
X1090Y587D01*
X1092Y587D01*
X1092Y593D01*
X1094Y593D01*
X1094Y599D01*
X1096Y599D01*
X1096Y605D01*
X1098Y605D01*
X1098Y611D01*
X1100Y611D01*
X1100Y617D01*
X1102Y617D01*
X1102Y623D01*
X1104Y623D01*
X1104Y629D01*
X1106Y629D01*
X1106Y655D01*
X896Y655D01*
G37*
D02*
G36*
X996Y397D02*
X996Y391D01*
X994Y391D01*
X994Y389D01*
X1080Y389D01*
X1080Y391D01*
X1082Y391D01*
X1082Y393D01*
X1088Y393D01*
X1088Y395D01*
X1096Y395D01*
X1096Y397D01*
X996Y397D01*
G37*
D02*
G36*
X288Y389D02*
X288Y267D01*
X316Y267D01*
X316Y137D01*
X438Y137D01*
X438Y139D01*
X432Y139D01*
X432Y141D01*
X426Y141D01*
X426Y143D01*
X422Y143D01*
X422Y145D01*
X418Y145D01*
X418Y147D01*
X416Y147D01*
X416Y149D01*
X412Y149D01*
X412Y151D01*
X410Y151D01*
X410Y153D01*
X408Y153D01*
X408Y155D01*
X406Y155D01*
X406Y157D01*
X404Y157D01*
X404Y159D01*
X402Y159D01*
X402Y161D01*
X400Y161D01*
X400Y163D01*
X398Y163D01*
X398Y167D01*
X396Y167D01*
X396Y171D01*
X394Y171D01*
X394Y173D01*
X392Y173D01*
X392Y179D01*
X390Y179D01*
X390Y185D01*
X388Y185D01*
X388Y195D01*
X386Y195D01*
X386Y209D01*
X388Y209D01*
X388Y219D01*
X390Y219D01*
X390Y225D01*
X392Y225D01*
X392Y229D01*
X394Y229D01*
X394Y233D01*
X396Y233D01*
X396Y237D01*
X398Y237D01*
X398Y239D01*
X400Y239D01*
X400Y243D01*
X402Y243D01*
X402Y245D01*
X404Y245D01*
X404Y247D01*
X406Y247D01*
X406Y249D01*
X408Y249D01*
X408Y251D01*
X410Y251D01*
X410Y253D01*
X414Y253D01*
X414Y389D01*
X288Y389D01*
G37*
D02*
G36*
X488Y389D02*
X488Y387D01*
X1076Y387D01*
X1076Y389D01*
X488Y389D01*
G37*
D02*
G36*
X488Y389D02*
X488Y387D01*
X1076Y387D01*
X1076Y389D01*
X488Y389D01*
G37*
D02*
G36*
X488Y387D02*
X488Y267D01*
X910Y267D01*
X910Y265D01*
X920Y265D01*
X920Y263D01*
X926Y263D01*
X926Y261D01*
X930Y261D01*
X930Y259D01*
X934Y259D01*
X934Y257D01*
X938Y257D01*
X938Y255D01*
X940Y255D01*
X940Y253D01*
X942Y253D01*
X942Y251D01*
X944Y251D01*
X944Y249D01*
X948Y249D01*
X948Y247D01*
X950Y247D01*
X950Y243D01*
X952Y243D01*
X952Y241D01*
X954Y241D01*
X954Y239D01*
X1144Y239D01*
X1144Y259D01*
X1136Y259D01*
X1136Y261D01*
X1132Y261D01*
X1132Y263D01*
X1128Y263D01*
X1128Y265D01*
X1126Y265D01*
X1126Y267D01*
X1122Y267D01*
X1122Y269D01*
X1120Y269D01*
X1120Y271D01*
X1118Y271D01*
X1118Y273D01*
X1116Y273D01*
X1116Y277D01*
X1114Y277D01*
X1114Y279D01*
X1112Y279D01*
X1112Y283D01*
X1110Y283D01*
X1110Y289D01*
X1108Y289D01*
X1108Y301D01*
X1106Y301D01*
X1106Y307D01*
X1094Y307D01*
X1094Y309D01*
X1086Y309D01*
X1086Y311D01*
X1082Y311D01*
X1082Y313D01*
X1078Y313D01*
X1078Y315D01*
X1076Y315D01*
X1076Y317D01*
X1072Y317D01*
X1072Y319D01*
X1070Y319D01*
X1070Y321D01*
X1068Y321D01*
X1068Y323D01*
X1066Y323D01*
X1066Y327D01*
X1064Y327D01*
X1064Y329D01*
X1062Y329D01*
X1062Y333D01*
X1060Y333D01*
X1060Y339D01*
X1058Y339D01*
X1058Y351D01*
X1056Y351D01*
X1056Y353D01*
X1058Y353D01*
X1058Y365D01*
X1060Y365D01*
X1060Y371D01*
X1062Y371D01*
X1062Y373D01*
X1064Y373D01*
X1064Y377D01*
X1066Y377D01*
X1066Y379D01*
X1068Y379D01*
X1068Y383D01*
X1070Y383D01*
X1070Y385D01*
X1074Y385D01*
X1074Y387D01*
X488Y387D01*
G37*
D02*
G36*
X488Y267D02*
X488Y255D01*
X490Y255D01*
X490Y253D01*
X492Y253D01*
X492Y251D01*
X494Y251D01*
X494Y249D01*
X498Y249D01*
X498Y247D01*
X500Y247D01*
X500Y243D01*
X502Y243D01*
X502Y241D01*
X504Y241D01*
X504Y239D01*
X506Y239D01*
X506Y235D01*
X508Y235D01*
X508Y233D01*
X510Y233D01*
X510Y229D01*
X512Y229D01*
X512Y223D01*
X514Y223D01*
X514Y215D01*
X516Y215D01*
X516Y187D01*
X514Y187D01*
X514Y181D01*
X512Y181D01*
X512Y175D01*
X510Y175D01*
X510Y171D01*
X508Y171D01*
X508Y169D01*
X506Y169D01*
X506Y165D01*
X504Y165D01*
X504Y163D01*
X502Y163D01*
X502Y159D01*
X500Y159D01*
X500Y157D01*
X498Y157D01*
X498Y155D01*
X496Y155D01*
X496Y153D01*
X494Y153D01*
X494Y151D01*
X490Y151D01*
X490Y149D01*
X488Y149D01*
X488Y147D01*
X484Y147D01*
X484Y145D01*
X482Y145D01*
X482Y143D01*
X478Y143D01*
X478Y141D01*
X472Y141D01*
X472Y139D01*
X464Y139D01*
X464Y137D01*
X636Y137D01*
X636Y267D01*
X488Y267D01*
G37*
D02*
G36*
X766Y267D02*
X766Y137D01*
X888Y137D01*
X888Y139D01*
X882Y139D01*
X882Y141D01*
X876Y141D01*
X876Y143D01*
X872Y143D01*
X872Y145D01*
X868Y145D01*
X868Y147D01*
X866Y147D01*
X866Y149D01*
X862Y149D01*
X862Y151D01*
X860Y151D01*
X860Y153D01*
X858Y153D01*
X858Y155D01*
X856Y155D01*
X856Y157D01*
X854Y157D01*
X854Y159D01*
X852Y159D01*
X852Y161D01*
X850Y161D01*
X850Y163D01*
X848Y163D01*
X848Y167D01*
X846Y167D01*
X846Y171D01*
X844Y171D01*
X844Y173D01*
X842Y173D01*
X842Y179D01*
X840Y179D01*
X840Y185D01*
X838Y185D01*
X838Y195D01*
X836Y195D01*
X836Y209D01*
X838Y209D01*
X838Y219D01*
X840Y219D01*
X840Y225D01*
X842Y225D01*
X842Y229D01*
X844Y229D01*
X844Y233D01*
X846Y233D01*
X846Y237D01*
X848Y237D01*
X848Y239D01*
X850Y239D01*
X850Y243D01*
X852Y243D01*
X852Y245D01*
X854Y245D01*
X854Y247D01*
X856Y247D01*
X856Y249D01*
X858Y249D01*
X858Y251D01*
X860Y251D01*
X860Y253D01*
X864Y253D01*
X864Y255D01*
X866Y255D01*
X866Y257D01*
X870Y257D01*
X870Y259D01*
X874Y259D01*
X874Y261D01*
X878Y261D01*
X878Y263D01*
X884Y263D01*
X884Y265D01*
X892Y265D01*
X892Y267D01*
X766Y267D01*
G37*
D02*
G36*
X954Y165D02*
X954Y163D01*
X952Y163D01*
X952Y159D01*
X950Y159D01*
X950Y157D01*
X948Y157D01*
X948Y155D01*
X946Y155D01*
X946Y153D01*
X944Y153D01*
X944Y151D01*
X940Y151D01*
X940Y149D01*
X938Y149D01*
X938Y147D01*
X934Y147D01*
X934Y145D01*
X932Y145D01*
X932Y143D01*
X928Y143D01*
X928Y141D01*
X922Y141D01*
X922Y139D01*
X914Y139D01*
X914Y137D01*
X1056Y137D01*
X1056Y139D01*
X1058Y139D01*
X1058Y141D01*
X1060Y141D01*
X1060Y143D01*
X1062Y143D01*
X1062Y145D01*
X1064Y145D01*
X1064Y165D01*
X954Y165D01*
G37*
D02*
G36*
X52Y137D02*
X52Y135D01*
X1056Y135D01*
X1056Y137D01*
X52Y137D01*
G37*
D02*
G36*
X52Y137D02*
X52Y135D01*
X1056Y135D01*
X1056Y137D01*
X52Y137D01*
G37*
D02*
G36*
X52Y137D02*
X52Y135D01*
X1056Y135D01*
X1056Y137D01*
X52Y137D01*
G37*
D02*
G36*
X52Y137D02*
X52Y135D01*
X1056Y135D01*
X1056Y137D01*
X52Y137D01*
G37*
D02*
G36*
X52Y137D02*
X52Y135D01*
X1056Y135D01*
X1056Y137D01*
X52Y137D01*
G37*
D02*
G36*
X52Y135D02*
X52Y71D01*
X54Y71D01*
X54Y67D01*
X56Y67D01*
X56Y63D01*
X58Y63D01*
X58Y61D01*
X60Y61D01*
X60Y59D01*
X62Y59D01*
X62Y57D01*
X64Y57D01*
X64Y55D01*
X66Y55D01*
X66Y53D01*
X70Y53D01*
X70Y51D01*
X74Y51D01*
X74Y49D01*
X80Y49D01*
X80Y47D01*
X1058Y47D01*
X1058Y67D01*
X1056Y67D01*
X1056Y69D01*
X1054Y69D01*
X1054Y71D01*
X1052Y71D01*
X1052Y75D01*
X1050Y75D01*
X1050Y79D01*
X1048Y79D01*
X1048Y85D01*
X1046Y85D01*
X1046Y93D01*
X1044Y93D01*
X1044Y111D01*
X1046Y111D01*
X1046Y121D01*
X1048Y121D01*
X1048Y125D01*
X1050Y125D01*
X1050Y129D01*
X1052Y129D01*
X1052Y133D01*
X1054Y133D01*
X1054Y135D01*
X52Y135D01*
G37*
D02*
G36*
X1926Y1165D02*
X1926Y1163D01*
X1922Y1163D01*
X1922Y1161D01*
X1918Y1161D01*
X1918Y1159D01*
X1910Y1159D01*
X1910Y1157D01*
X2094Y1157D01*
X2094Y1159D01*
X2086Y1159D01*
X2086Y1161D01*
X2082Y1161D01*
X2082Y1163D01*
X2078Y1163D01*
X2078Y1165D01*
X1926Y1165D01*
G37*
D02*
G36*
X1868Y1159D02*
X1868Y1157D01*
X1894Y1157D01*
X1894Y1159D01*
X1868Y1159D01*
G37*
D02*
G36*
X1868Y1157D02*
X1868Y1155D01*
X2114Y1155D01*
X2114Y1157D01*
X1868Y1157D01*
G37*
D02*
G36*
X1868Y1157D02*
X1868Y1155D01*
X2114Y1155D01*
X2114Y1157D01*
X1868Y1157D01*
G37*
D02*
G36*
X1868Y1155D02*
X1868Y1151D01*
X1870Y1151D01*
X1870Y1147D01*
X1872Y1147D01*
X1872Y1143D01*
X1874Y1143D01*
X1874Y1139D01*
X1876Y1139D01*
X1876Y1135D01*
X1878Y1135D01*
X1878Y1131D01*
X1880Y1131D01*
X1880Y1129D01*
X1882Y1129D01*
X1882Y1125D01*
X1884Y1125D01*
X1884Y1121D01*
X1886Y1121D01*
X1886Y1117D01*
X1888Y1117D01*
X1888Y1109D01*
X1890Y1109D01*
X1890Y1033D01*
X2114Y1033D01*
X2114Y1155D01*
X1868Y1155D01*
G37*
D02*
G36*
X2314Y1093D02*
X2314Y1091D01*
X2310Y1091D01*
X2310Y1089D01*
X2342Y1089D01*
X2342Y1091D01*
X2334Y1091D01*
X2334Y1093D01*
X2314Y1093D01*
G37*
D02*
G36*
X2370Y1093D02*
X2370Y1091D01*
X2360Y1091D01*
X2360Y1089D01*
X2390Y1089D01*
X2390Y1093D01*
X2370Y1093D01*
G37*
D02*
G36*
X2306Y1089D02*
X2306Y1087D01*
X2516Y1087D01*
X2516Y1089D01*
X2306Y1089D01*
G37*
D02*
G36*
X2306Y1089D02*
X2306Y1087D01*
X2516Y1087D01*
X2516Y1089D01*
X2306Y1089D01*
G37*
D02*
G36*
X2302Y1087D02*
X2302Y1085D01*
X2298Y1085D01*
X2298Y1083D01*
X2294Y1083D01*
X2294Y1081D01*
X2290Y1081D01*
X2290Y919D01*
X2288Y919D01*
X2288Y915D01*
X2356Y915D01*
X2356Y913D01*
X2368Y913D01*
X2368Y911D01*
X2374Y911D01*
X2374Y909D01*
X2378Y909D01*
X2378Y907D01*
X2382Y907D01*
X2382Y905D01*
X2386Y905D01*
X2386Y903D01*
X2388Y903D01*
X2388Y901D01*
X2392Y901D01*
X2392Y899D01*
X2412Y899D01*
X2412Y901D01*
X2414Y901D01*
X2414Y903D01*
X2418Y903D01*
X2418Y905D01*
X2420Y905D01*
X2420Y907D01*
X2424Y907D01*
X2424Y909D01*
X2430Y909D01*
X2430Y911D01*
X2436Y911D01*
X2436Y913D01*
X2448Y913D01*
X2448Y915D01*
X2464Y915D01*
X2464Y917D01*
X2466Y917D01*
X2466Y919D01*
X2468Y919D01*
X2468Y921D01*
X2470Y921D01*
X2470Y923D01*
X2472Y923D01*
X2472Y925D01*
X2474Y925D01*
X2474Y927D01*
X2476Y927D01*
X2476Y929D01*
X2478Y929D01*
X2478Y931D01*
X2480Y931D01*
X2480Y933D01*
X2482Y933D01*
X2482Y935D01*
X2484Y935D01*
X2484Y937D01*
X2486Y937D01*
X2486Y939D01*
X2488Y939D01*
X2488Y941D01*
X2490Y941D01*
X2490Y943D01*
X2492Y943D01*
X2492Y945D01*
X2494Y945D01*
X2494Y947D01*
X2496Y947D01*
X2496Y949D01*
X2498Y949D01*
X2498Y951D01*
X2500Y951D01*
X2500Y953D01*
X2502Y953D01*
X2502Y955D01*
X2504Y955D01*
X2504Y957D01*
X2506Y957D01*
X2506Y959D01*
X2508Y959D01*
X2508Y961D01*
X2510Y961D01*
X2510Y963D01*
X2512Y963D01*
X2512Y965D01*
X2514Y965D01*
X2514Y967D01*
X2516Y967D01*
X2516Y1087D01*
X2302Y1087D01*
G37*
D02*
G36*
X2288Y915D02*
X2288Y895D01*
X2308Y895D01*
X2308Y897D01*
X2310Y897D01*
X2310Y899D01*
X2312Y899D01*
X2312Y901D01*
X2314Y901D01*
X2314Y903D01*
X2318Y903D01*
X2318Y905D01*
X2320Y905D01*
X2320Y907D01*
X2324Y907D01*
X2324Y909D01*
X2330Y909D01*
X2330Y911D01*
X2336Y911D01*
X2336Y913D01*
X2348Y913D01*
X2348Y915D01*
X2288Y915D01*
G37*
D02*
G36*
X1238Y1057D02*
X1238Y997D01*
X1264Y997D01*
X1264Y1057D01*
X1238Y1057D01*
G37*
D02*
G36*
X888Y941D02*
X888Y841D01*
X1164Y841D01*
X1164Y941D01*
X888Y941D01*
G37*
D02*
G36*
X1640Y911D02*
X1640Y813D01*
X1812Y813D01*
X1812Y835D01*
X1810Y835D01*
X1810Y841D01*
X1808Y841D01*
X1808Y861D01*
X1810Y861D01*
X1810Y867D01*
X1812Y867D01*
X1812Y871D01*
X1814Y871D01*
X1814Y875D01*
X1816Y875D01*
X1816Y877D01*
X1818Y877D01*
X1818Y881D01*
X1820Y881D01*
X1820Y883D01*
X1822Y883D01*
X1822Y885D01*
X1826Y885D01*
X1826Y887D01*
X1828Y887D01*
X1828Y889D01*
X1832Y889D01*
X1832Y891D01*
X1836Y891D01*
X1836Y911D01*
X1640Y911D01*
G37*
D02*
G36*
X2288Y809D02*
X2288Y789D01*
X2342Y789D01*
X2342Y791D01*
X2334Y791D01*
X2334Y793D01*
X2328Y793D01*
X2328Y795D01*
X2324Y795D01*
X2324Y797D01*
X2320Y797D01*
X2320Y799D01*
X2316Y799D01*
X2316Y801D01*
X2314Y801D01*
X2314Y803D01*
X2312Y803D01*
X2312Y805D01*
X2310Y805D01*
X2310Y807D01*
X2308Y807D01*
X2308Y809D01*
X2288Y809D01*
G37*
D02*
G36*
X2392Y805D02*
X2392Y803D01*
X2390Y803D01*
X2390Y801D01*
X2386Y801D01*
X2386Y799D01*
X2384Y799D01*
X2384Y797D01*
X2380Y797D01*
X2380Y795D01*
X2376Y795D01*
X2376Y793D01*
X2370Y793D01*
X2370Y791D01*
X2360Y791D01*
X2360Y789D01*
X2414Y789D01*
X2414Y803D01*
X2412Y803D01*
X2412Y805D01*
X2392Y805D01*
G37*
D02*
G36*
X2288Y789D02*
X2288Y787D01*
X2414Y787D01*
X2414Y789D01*
X2288Y789D01*
G37*
D02*
G36*
X2288Y789D02*
X2288Y787D01*
X2414Y787D01*
X2414Y789D01*
X2288Y789D01*
G37*
D02*
G36*
X2288Y787D02*
X2288Y647D01*
X2312Y647D01*
X2312Y645D01*
X2320Y645D01*
X2320Y643D01*
X2324Y643D01*
X2324Y641D01*
X2326Y641D01*
X2326Y639D01*
X2330Y639D01*
X2330Y637D01*
X2332Y637D01*
X2332Y635D01*
X2334Y635D01*
X2334Y633D01*
X2336Y633D01*
X2336Y631D01*
X2338Y631D01*
X2338Y629D01*
X2340Y629D01*
X2340Y625D01*
X2342Y625D01*
X2342Y621D01*
X2344Y621D01*
X2344Y615D01*
X2346Y615D01*
X2346Y605D01*
X2348Y605D01*
X2348Y589D01*
X2452Y589D01*
X2452Y587D01*
X2464Y587D01*
X2464Y585D01*
X2468Y585D01*
X2468Y583D01*
X2472Y583D01*
X2472Y581D01*
X2474Y581D01*
X2474Y579D01*
X2496Y579D01*
X2496Y659D01*
X2500Y659D01*
X2500Y679D01*
X2498Y679D01*
X2498Y687D01*
X2494Y687D01*
X2494Y689D01*
X2490Y689D01*
X2490Y691D01*
X2488Y691D01*
X2488Y693D01*
X2484Y693D01*
X2484Y695D01*
X2480Y695D01*
X2480Y697D01*
X2476Y697D01*
X2476Y699D01*
X2472Y699D01*
X2472Y701D01*
X2468Y701D01*
X2468Y703D01*
X2464Y703D01*
X2464Y705D01*
X2460Y705D01*
X2460Y707D01*
X2456Y707D01*
X2456Y709D01*
X2452Y709D01*
X2452Y711D01*
X2448Y711D01*
X2448Y713D01*
X2444Y713D01*
X2444Y715D01*
X2440Y715D01*
X2440Y717D01*
X2438Y717D01*
X2438Y719D01*
X2434Y719D01*
X2434Y721D01*
X2430Y721D01*
X2430Y723D01*
X2428Y723D01*
X2428Y725D01*
X2426Y725D01*
X2426Y727D01*
X2424Y727D01*
X2424Y729D01*
X2422Y729D01*
X2422Y731D01*
X2420Y731D01*
X2420Y733D01*
X2418Y733D01*
X2418Y737D01*
X2416Y737D01*
X2416Y743D01*
X2414Y743D01*
X2414Y787D01*
X2288Y787D01*
G37*
D02*
G36*
X1376Y515D02*
X1376Y513D01*
X1372Y513D01*
X1372Y511D01*
X1368Y511D01*
X1368Y509D01*
X1360Y509D01*
X1360Y507D01*
X1338Y507D01*
X1338Y419D01*
X1340Y419D01*
X1340Y349D01*
X1338Y349D01*
X1338Y339D01*
X1336Y339D01*
X1336Y335D01*
X1334Y335D01*
X1334Y331D01*
X1332Y331D01*
X1332Y329D01*
X1330Y329D01*
X1330Y327D01*
X1328Y327D01*
X1328Y325D01*
X1326Y325D01*
X1326Y323D01*
X1324Y323D01*
X1324Y321D01*
X1322Y321D01*
X1322Y319D01*
X1320Y319D01*
X1320Y317D01*
X1318Y317D01*
X1318Y315D01*
X1316Y315D01*
X1316Y313D01*
X1314Y313D01*
X1314Y311D01*
X1312Y311D01*
X1312Y309D01*
X1310Y309D01*
X1310Y307D01*
X1308Y307D01*
X1308Y305D01*
X1306Y305D01*
X1306Y303D01*
X1304Y303D01*
X1304Y301D01*
X1302Y301D01*
X1302Y299D01*
X1300Y299D01*
X1300Y297D01*
X1298Y297D01*
X1298Y295D01*
X1296Y295D01*
X1296Y293D01*
X1294Y293D01*
X1294Y291D01*
X1292Y291D01*
X1292Y289D01*
X1290Y289D01*
X1290Y287D01*
X1288Y287D01*
X1288Y285D01*
X1286Y285D01*
X1286Y283D01*
X1284Y283D01*
X1284Y281D01*
X1282Y281D01*
X1282Y279D01*
X1280Y279D01*
X1280Y277D01*
X1278Y277D01*
X1278Y275D01*
X1276Y275D01*
X1276Y273D01*
X1274Y273D01*
X1274Y271D01*
X1270Y271D01*
X1270Y269D01*
X1266Y269D01*
X1266Y267D01*
X1260Y267D01*
X1260Y265D01*
X1176Y265D01*
X1176Y263D01*
X1172Y263D01*
X1172Y261D01*
X1168Y261D01*
X1168Y259D01*
X1160Y259D01*
X1160Y239D01*
X1438Y239D01*
X1438Y241D01*
X1440Y241D01*
X1440Y243D01*
X1442Y243D01*
X1442Y245D01*
X1444Y245D01*
X1444Y247D01*
X1446Y247D01*
X1446Y249D01*
X1448Y249D01*
X1448Y251D01*
X1450Y251D01*
X1450Y253D01*
X1452Y253D01*
X1452Y255D01*
X1454Y255D01*
X1454Y257D01*
X1456Y257D01*
X1456Y259D01*
X1458Y259D01*
X1458Y261D01*
X1460Y261D01*
X1460Y263D01*
X1462Y263D01*
X1462Y265D01*
X1464Y265D01*
X1464Y267D01*
X1466Y267D01*
X1466Y269D01*
X1468Y269D01*
X1468Y271D01*
X1470Y271D01*
X1470Y273D01*
X1472Y273D01*
X1472Y275D01*
X1474Y275D01*
X1474Y279D01*
X1476Y279D01*
X1476Y281D01*
X1478Y281D01*
X1478Y285D01*
X1480Y285D01*
X1480Y287D01*
X1482Y287D01*
X1482Y291D01*
X1484Y291D01*
X1484Y311D01*
X1482Y311D01*
X1482Y313D01*
X1478Y313D01*
X1478Y315D01*
X1476Y315D01*
X1476Y317D01*
X1472Y317D01*
X1472Y319D01*
X1470Y319D01*
X1470Y321D01*
X1468Y321D01*
X1468Y323D01*
X1466Y323D01*
X1466Y327D01*
X1464Y327D01*
X1464Y329D01*
X1462Y329D01*
X1462Y333D01*
X1460Y333D01*
X1460Y339D01*
X1458Y339D01*
X1458Y351D01*
X1456Y351D01*
X1456Y353D01*
X1458Y353D01*
X1458Y365D01*
X1460Y365D01*
X1460Y371D01*
X1462Y371D01*
X1462Y373D01*
X1464Y373D01*
X1464Y377D01*
X1466Y377D01*
X1466Y379D01*
X1468Y379D01*
X1468Y383D01*
X1470Y383D01*
X1470Y385D01*
X1474Y385D01*
X1474Y387D01*
X1476Y387D01*
X1476Y389D01*
X1480Y389D01*
X1480Y391D01*
X1482Y391D01*
X1482Y393D01*
X1486Y393D01*
X1486Y395D01*
X1488Y395D01*
X1488Y397D01*
X1490Y397D01*
X1490Y399D01*
X1492Y399D01*
X1492Y403D01*
X1494Y403D01*
X1494Y405D01*
X1496Y405D01*
X1496Y407D01*
X1498Y407D01*
X1498Y411D01*
X1500Y411D01*
X1500Y413D01*
X1502Y413D01*
X1502Y415D01*
X1504Y415D01*
X1504Y419D01*
X1506Y419D01*
X1506Y421D01*
X1508Y421D01*
X1508Y423D01*
X1510Y423D01*
X1510Y427D01*
X1512Y427D01*
X1512Y429D01*
X1514Y429D01*
X1514Y431D01*
X1516Y431D01*
X1516Y435D01*
X1518Y435D01*
X1518Y437D01*
X1520Y437D01*
X1520Y439D01*
X1522Y439D01*
X1522Y443D01*
X1524Y443D01*
X1524Y445D01*
X1526Y445D01*
X1526Y447D01*
X1528Y447D01*
X1528Y451D01*
X1530Y451D01*
X1530Y453D01*
X1532Y453D01*
X1532Y455D01*
X1534Y455D01*
X1534Y459D01*
X1536Y459D01*
X1536Y461D01*
X1538Y461D01*
X1538Y463D01*
X1540Y463D01*
X1540Y467D01*
X1542Y467D01*
X1542Y469D01*
X1544Y469D01*
X1544Y471D01*
X1546Y471D01*
X1546Y475D01*
X1548Y475D01*
X1548Y477D01*
X1550Y477D01*
X1550Y479D01*
X1552Y479D01*
X1552Y483D01*
X1554Y483D01*
X1554Y485D01*
X1556Y485D01*
X1556Y487D01*
X1558Y487D01*
X1558Y507D01*
X1544Y507D01*
X1544Y509D01*
X1536Y509D01*
X1536Y511D01*
X1532Y511D01*
X1532Y513D01*
X1528Y513D01*
X1528Y515D01*
X1376Y515D01*
G37*
D02*
G36*
X2546Y1551D02*
X2546Y1341D01*
X2544Y1341D01*
X2544Y1339D01*
X2536Y1339D01*
X2536Y1319D01*
X2538Y1319D01*
X2538Y1317D01*
X2540Y1317D01*
X2540Y1315D01*
X2542Y1315D01*
X2542Y1313D01*
X2544Y1313D01*
X2544Y1311D01*
X2546Y1311D01*
X2546Y1309D01*
X2548Y1309D01*
X2548Y1307D01*
X2550Y1307D01*
X2550Y1305D01*
X2552Y1305D01*
X2552Y1303D01*
X2554Y1303D01*
X2554Y1301D01*
X2556Y1301D01*
X2556Y1299D01*
X2558Y1299D01*
X2558Y1297D01*
X2560Y1297D01*
X2560Y1295D01*
X2562Y1295D01*
X2562Y1293D01*
X2564Y1293D01*
X2564Y1291D01*
X2566Y1291D01*
X2566Y1289D01*
X2568Y1289D01*
X2568Y1287D01*
X2570Y1287D01*
X2570Y1285D01*
X2572Y1285D01*
X2572Y1283D01*
X2574Y1283D01*
X2574Y1281D01*
X2576Y1281D01*
X2576Y1279D01*
X2578Y1279D01*
X2578Y1277D01*
X2580Y1277D01*
X2580Y1275D01*
X2582Y1275D01*
X2582Y1271D01*
X2584Y1271D01*
X2584Y1267D01*
X2586Y1267D01*
X2586Y1263D01*
X2588Y1263D01*
X2588Y1251D01*
X2590Y1251D01*
X2590Y953D01*
X2588Y953D01*
X2588Y941D01*
X2586Y941D01*
X2586Y937D01*
X2584Y937D01*
X2584Y933D01*
X2582Y933D01*
X2582Y929D01*
X2580Y929D01*
X2580Y927D01*
X2578Y927D01*
X2578Y925D01*
X2576Y925D01*
X2576Y923D01*
X2574Y923D01*
X2574Y921D01*
X2572Y921D01*
X2572Y919D01*
X2570Y919D01*
X2570Y917D01*
X2568Y917D01*
X2568Y915D01*
X2566Y915D01*
X2566Y893D01*
X2570Y893D01*
X2570Y891D01*
X2574Y891D01*
X2574Y889D01*
X2578Y889D01*
X2578Y887D01*
X2580Y887D01*
X2580Y885D01*
X2582Y885D01*
X2582Y883D01*
X2584Y883D01*
X2584Y881D01*
X2586Y881D01*
X2586Y879D01*
X2588Y879D01*
X2588Y875D01*
X2590Y875D01*
X2590Y873D01*
X2592Y873D01*
X2592Y869D01*
X2594Y869D01*
X2594Y861D01*
X2596Y861D01*
X2596Y841D01*
X2594Y841D01*
X2594Y835D01*
X2592Y835D01*
X2592Y831D01*
X2590Y831D01*
X2590Y827D01*
X2588Y827D01*
X2588Y825D01*
X2586Y825D01*
X2586Y823D01*
X2584Y823D01*
X2584Y821D01*
X2582Y821D01*
X2582Y819D01*
X2580Y819D01*
X2580Y817D01*
X2578Y817D01*
X2578Y815D01*
X2576Y815D01*
X2576Y813D01*
X2572Y813D01*
X2572Y811D01*
X2568Y811D01*
X2568Y809D01*
X2560Y809D01*
X2560Y807D01*
X2664Y807D01*
X2664Y1453D01*
X2662Y1453D01*
X2662Y1455D01*
X2660Y1455D01*
X2660Y1457D01*
X2658Y1457D01*
X2658Y1459D01*
X2656Y1459D01*
X2656Y1461D01*
X2654Y1461D01*
X2654Y1463D01*
X2652Y1463D01*
X2652Y1465D01*
X2650Y1465D01*
X2650Y1467D01*
X2648Y1467D01*
X2648Y1469D01*
X2646Y1469D01*
X2646Y1471D01*
X2644Y1471D01*
X2644Y1473D01*
X2642Y1473D01*
X2642Y1475D01*
X2640Y1475D01*
X2640Y1477D01*
X2638Y1477D01*
X2638Y1479D01*
X2636Y1479D01*
X2636Y1481D01*
X2634Y1481D01*
X2634Y1483D01*
X2632Y1483D01*
X2632Y1485D01*
X2630Y1485D01*
X2630Y1487D01*
X2628Y1487D01*
X2628Y1489D01*
X2626Y1489D01*
X2626Y1491D01*
X2624Y1491D01*
X2624Y1493D01*
X2622Y1493D01*
X2622Y1495D01*
X2620Y1495D01*
X2620Y1497D01*
X2618Y1497D01*
X2618Y1499D01*
X2616Y1499D01*
X2616Y1501D01*
X2614Y1501D01*
X2614Y1503D01*
X2612Y1503D01*
X2612Y1505D01*
X2610Y1505D01*
X2610Y1507D01*
X2608Y1507D01*
X2608Y1509D01*
X2606Y1509D01*
X2606Y1511D01*
X2604Y1511D01*
X2604Y1513D01*
X2602Y1513D01*
X2602Y1515D01*
X2600Y1515D01*
X2600Y1517D01*
X2598Y1517D01*
X2598Y1519D01*
X2596Y1519D01*
X2596Y1521D01*
X2594Y1521D01*
X2594Y1523D01*
X2592Y1523D01*
X2592Y1525D01*
X2590Y1525D01*
X2590Y1527D01*
X2588Y1527D01*
X2588Y1529D01*
X2586Y1529D01*
X2586Y1531D01*
X2584Y1531D01*
X2584Y1533D01*
X2582Y1533D01*
X2582Y1535D01*
X2580Y1535D01*
X2580Y1537D01*
X2578Y1537D01*
X2578Y1539D01*
X2576Y1539D01*
X2576Y1541D01*
X2574Y1541D01*
X2574Y1543D01*
X2572Y1543D01*
X2572Y1545D01*
X2570Y1545D01*
X2570Y1547D01*
X2568Y1547D01*
X2568Y1549D01*
X2566Y1549D01*
X2566Y1551D01*
X2546Y1551D01*
G37*
D02*
G36*
X2502Y817D02*
X2502Y813D01*
X2500Y813D01*
X2500Y811D01*
X2498Y811D01*
X2498Y809D01*
X2496Y809D01*
X2496Y807D01*
X2544Y807D01*
X2544Y809D01*
X2536Y809D01*
X2536Y811D01*
X2532Y811D01*
X2532Y813D01*
X2528Y813D01*
X2528Y815D01*
X2526Y815D01*
X2526Y817D01*
X2502Y817D01*
G37*
D02*
G36*
X2494Y807D02*
X2494Y805D01*
X2664Y805D01*
X2664Y807D01*
X2494Y807D01*
G37*
D02*
G36*
X2494Y807D02*
X2494Y805D01*
X2664Y805D01*
X2664Y807D01*
X2494Y807D01*
G37*
D02*
G36*
X2492Y805D02*
X2492Y803D01*
X2490Y803D01*
X2490Y801D01*
X2488Y801D01*
X2488Y775D01*
X2490Y775D01*
X2490Y773D01*
X2494Y773D01*
X2494Y771D01*
X2498Y771D01*
X2498Y769D01*
X2502Y769D01*
X2502Y767D01*
X2506Y767D01*
X2506Y765D01*
X2510Y765D01*
X2510Y763D01*
X2512Y763D01*
X2512Y761D01*
X2516Y761D01*
X2516Y759D01*
X2520Y759D01*
X2520Y757D01*
X2560Y757D01*
X2560Y755D01*
X2568Y755D01*
X2568Y753D01*
X2574Y753D01*
X2574Y751D01*
X2578Y751D01*
X2578Y749D01*
X2582Y749D01*
X2582Y747D01*
X2584Y747D01*
X2584Y745D01*
X2586Y745D01*
X2586Y743D01*
X2590Y743D01*
X2590Y741D01*
X2592Y741D01*
X2592Y739D01*
X2594Y739D01*
X2594Y735D01*
X2596Y735D01*
X2596Y733D01*
X2598Y733D01*
X2598Y731D01*
X2600Y731D01*
X2600Y727D01*
X2602Y727D01*
X2602Y723D01*
X2604Y723D01*
X2604Y719D01*
X2606Y719D01*
X2606Y711D01*
X2608Y711D01*
X2608Y689D01*
X2606Y689D01*
X2606Y681D01*
X2604Y681D01*
X2604Y659D01*
X2608Y659D01*
X2608Y545D01*
X2530Y545D01*
X2530Y525D01*
X2532Y525D01*
X2532Y523D01*
X2534Y523D01*
X2534Y521D01*
X2536Y521D01*
X2536Y519D01*
X2538Y519D01*
X2538Y517D01*
X2540Y517D01*
X2540Y515D01*
X2542Y515D01*
X2542Y513D01*
X2544Y513D01*
X2544Y511D01*
X2546Y511D01*
X2546Y509D01*
X2560Y509D01*
X2560Y507D01*
X2568Y507D01*
X2568Y505D01*
X2574Y505D01*
X2574Y503D01*
X2578Y503D01*
X2578Y501D01*
X2582Y501D01*
X2582Y499D01*
X2584Y499D01*
X2584Y497D01*
X2588Y497D01*
X2588Y495D01*
X2590Y495D01*
X2590Y493D01*
X2592Y493D01*
X2592Y491D01*
X2594Y491D01*
X2594Y489D01*
X2596Y489D01*
X2596Y485D01*
X2598Y485D01*
X2598Y483D01*
X2600Y483D01*
X2600Y479D01*
X2602Y479D01*
X2602Y477D01*
X2604Y477D01*
X2604Y471D01*
X2606Y471D01*
X2606Y465D01*
X2608Y465D01*
X2608Y439D01*
X2606Y439D01*
X2606Y433D01*
X2604Y433D01*
X2604Y411D01*
X2608Y411D01*
X2608Y297D01*
X2664Y297D01*
X2664Y805D01*
X2492Y805D01*
G37*
D02*
G36*
X2524Y757D02*
X2524Y755D01*
X2544Y755D01*
X2544Y757D01*
X2524Y757D01*
G37*
D02*
G36*
X1970Y611D02*
X1970Y591D01*
X1974Y591D01*
X1974Y589D01*
X1978Y589D01*
X1978Y587D01*
X1980Y587D01*
X1980Y585D01*
X1982Y585D01*
X1982Y583D01*
X1984Y583D01*
X1984Y581D01*
X1986Y581D01*
X1986Y579D01*
X1988Y579D01*
X1988Y575D01*
X1990Y575D01*
X1990Y573D01*
X1992Y573D01*
X1992Y569D01*
X1994Y569D01*
X1994Y561D01*
X1996Y561D01*
X1996Y547D01*
X2006Y547D01*
X2006Y545D01*
X2016Y545D01*
X2016Y543D01*
X2020Y543D01*
X2020Y541D01*
X2024Y541D01*
X2024Y539D01*
X2028Y539D01*
X2028Y537D01*
X2030Y537D01*
X2030Y535D01*
X2032Y535D01*
X2032Y533D01*
X2034Y533D01*
X2034Y531D01*
X2036Y531D01*
X2036Y529D01*
X2038Y529D01*
X2038Y525D01*
X2040Y525D01*
X2040Y523D01*
X2042Y523D01*
X2042Y519D01*
X2044Y519D01*
X2044Y511D01*
X2046Y511D01*
X2046Y491D01*
X2044Y491D01*
X2044Y485D01*
X2042Y485D01*
X2042Y481D01*
X2040Y481D01*
X2040Y477D01*
X2038Y477D01*
X2038Y325D01*
X2040Y325D01*
X2040Y323D01*
X2042Y323D01*
X2042Y319D01*
X2044Y319D01*
X2044Y311D01*
X2046Y311D01*
X2046Y297D01*
X2496Y297D01*
X2496Y411D01*
X2500Y411D01*
X2500Y433D01*
X2498Y433D01*
X2498Y439D01*
X2496Y439D01*
X2496Y457D01*
X2494Y457D01*
X2494Y459D01*
X2492Y459D01*
X2492Y461D01*
X2490Y461D01*
X2490Y463D01*
X2488Y463D01*
X2488Y465D01*
X2486Y465D01*
X2486Y467D01*
X2484Y467D01*
X2484Y469D01*
X2482Y469D01*
X2482Y471D01*
X2480Y471D01*
X2480Y473D01*
X2478Y473D01*
X2478Y475D01*
X2476Y475D01*
X2476Y477D01*
X2474Y477D01*
X2474Y479D01*
X2472Y479D01*
X2472Y481D01*
X2470Y481D01*
X2470Y483D01*
X2468Y483D01*
X2468Y485D01*
X2466Y485D01*
X2466Y487D01*
X2464Y487D01*
X2464Y489D01*
X2462Y489D01*
X2462Y491D01*
X2460Y491D01*
X2460Y493D01*
X2458Y493D01*
X2458Y495D01*
X2456Y495D01*
X2456Y497D01*
X2454Y497D01*
X2454Y499D01*
X2450Y499D01*
X2450Y501D01*
X2448Y501D01*
X2448Y503D01*
X2446Y503D01*
X2446Y505D01*
X2444Y505D01*
X2444Y507D01*
X2442Y507D01*
X2442Y509D01*
X2440Y509D01*
X2440Y511D01*
X2438Y511D01*
X2438Y513D01*
X2436Y513D01*
X2436Y515D01*
X2102Y515D01*
X2102Y517D01*
X2090Y517D01*
X2090Y519D01*
X2084Y519D01*
X2084Y521D01*
X2080Y521D01*
X2080Y523D01*
X2078Y523D01*
X2078Y525D01*
X2076Y525D01*
X2076Y527D01*
X2074Y527D01*
X2074Y529D01*
X2072Y529D01*
X2072Y531D01*
X2070Y531D01*
X2070Y533D01*
X2068Y533D01*
X2068Y535D01*
X2066Y535D01*
X2066Y537D01*
X2064Y537D01*
X2064Y539D01*
X2062Y539D01*
X2062Y541D01*
X2060Y541D01*
X2060Y543D01*
X2058Y543D01*
X2058Y545D01*
X2056Y545D01*
X2056Y547D01*
X2054Y547D01*
X2054Y549D01*
X2052Y549D01*
X2052Y551D01*
X2048Y551D01*
X2048Y553D01*
X2046Y553D01*
X2046Y555D01*
X2044Y555D01*
X2044Y557D01*
X2042Y557D01*
X2042Y559D01*
X2040Y559D01*
X2040Y561D01*
X2038Y561D01*
X2038Y563D01*
X2036Y563D01*
X2036Y565D01*
X2034Y565D01*
X2034Y567D01*
X2032Y567D01*
X2032Y569D01*
X2030Y569D01*
X2030Y571D01*
X2028Y571D01*
X2028Y573D01*
X2026Y573D01*
X2026Y575D01*
X2024Y575D01*
X2024Y577D01*
X2022Y577D01*
X2022Y579D01*
X2020Y579D01*
X2020Y581D01*
X2018Y581D01*
X2018Y583D01*
X2016Y583D01*
X2016Y585D01*
X2014Y585D01*
X2014Y587D01*
X2012Y587D01*
X2012Y589D01*
X2010Y589D01*
X2010Y591D01*
X2008Y591D01*
X2008Y593D01*
X2006Y593D01*
X2006Y595D01*
X2004Y595D01*
X2004Y597D01*
X2002Y597D01*
X2002Y599D01*
X2000Y599D01*
X2000Y601D01*
X1998Y601D01*
X1998Y603D01*
X1996Y603D01*
X1996Y605D01*
X1994Y605D01*
X1994Y607D01*
X1992Y607D01*
X1992Y609D01*
X1990Y609D01*
X1990Y611D01*
X1970Y611D01*
G37*
D02*
G36*
X1838Y301D02*
X1838Y257D01*
X1894Y257D01*
X1894Y259D01*
X1886Y259D01*
X1886Y261D01*
X1882Y261D01*
X1882Y263D01*
X1878Y263D01*
X1878Y265D01*
X1876Y265D01*
X1876Y267D01*
X1872Y267D01*
X1872Y269D01*
X1870Y269D01*
X1870Y271D01*
X1868Y271D01*
X1868Y273D01*
X1866Y273D01*
X1866Y277D01*
X1864Y277D01*
X1864Y279D01*
X1862Y279D01*
X1862Y283D01*
X1860Y283D01*
X1860Y289D01*
X1858Y289D01*
X1858Y301D01*
X1838Y301D01*
G37*
D02*
G36*
X2046Y297D02*
X2046Y295D01*
X2664Y295D01*
X2664Y297D01*
X2046Y297D01*
G37*
D02*
G36*
X2046Y297D02*
X2046Y295D01*
X2664Y295D01*
X2664Y297D01*
X2046Y297D01*
G37*
D02*
G36*
X2046Y295D02*
X2046Y291D01*
X2044Y291D01*
X2044Y285D01*
X2042Y285D01*
X2042Y281D01*
X2040Y281D01*
X2040Y277D01*
X2038Y277D01*
X2038Y275D01*
X2036Y275D01*
X2036Y273D01*
X2034Y273D01*
X2034Y271D01*
X2032Y271D01*
X2032Y269D01*
X2030Y269D01*
X2030Y267D01*
X2028Y267D01*
X2028Y265D01*
X2026Y265D01*
X2026Y263D01*
X2022Y263D01*
X2022Y261D01*
X2018Y261D01*
X2018Y259D01*
X2010Y259D01*
X2010Y257D01*
X2664Y257D01*
X2664Y295D01*
X2046Y295D01*
G37*
D02*
G36*
X1942Y283D02*
X1942Y281D01*
X1940Y281D01*
X1940Y277D01*
X1938Y277D01*
X1938Y275D01*
X1936Y275D01*
X1936Y273D01*
X1934Y273D01*
X1934Y271D01*
X1932Y271D01*
X1932Y269D01*
X1930Y269D01*
X1930Y267D01*
X1928Y267D01*
X1928Y265D01*
X1926Y265D01*
X1926Y263D01*
X1922Y263D01*
X1922Y261D01*
X1918Y261D01*
X1918Y259D01*
X1910Y259D01*
X1910Y257D01*
X1994Y257D01*
X1994Y259D01*
X1986Y259D01*
X1986Y261D01*
X1982Y261D01*
X1982Y263D01*
X1978Y263D01*
X1978Y265D01*
X1976Y265D01*
X1976Y267D01*
X1972Y267D01*
X1972Y269D01*
X1970Y269D01*
X1970Y271D01*
X1968Y271D01*
X1968Y273D01*
X1966Y273D01*
X1966Y277D01*
X1964Y277D01*
X1964Y279D01*
X1962Y279D01*
X1962Y283D01*
X1942Y283D01*
G37*
D02*
G36*
X1838Y257D02*
X1838Y255D01*
X2664Y255D01*
X2664Y257D01*
X1838Y257D01*
G37*
D02*
G36*
X1838Y257D02*
X1838Y255D01*
X2664Y255D01*
X2664Y257D01*
X1838Y257D01*
G37*
D02*
G36*
X1838Y257D02*
X1838Y255D01*
X2664Y255D01*
X2664Y257D01*
X1838Y257D01*
G37*
D02*
G36*
X1838Y255D02*
X1838Y175D01*
X1840Y175D01*
X1840Y161D01*
X2506Y161D01*
X2506Y159D01*
X2518Y159D01*
X2518Y157D01*
X2524Y157D01*
X2524Y155D01*
X2528Y155D01*
X2528Y153D01*
X2532Y153D01*
X2532Y151D01*
X2534Y151D01*
X2534Y149D01*
X2538Y149D01*
X2538Y147D01*
X2540Y147D01*
X2540Y145D01*
X2542Y145D01*
X2542Y143D01*
X2544Y143D01*
X2544Y141D01*
X2564Y141D01*
X2564Y147D01*
X2566Y147D01*
X2566Y149D01*
X2568Y149D01*
X2568Y151D01*
X2570Y151D01*
X2570Y153D01*
X2572Y153D01*
X2572Y155D01*
X2574Y155D01*
X2574Y157D01*
X2576Y157D01*
X2576Y159D01*
X2578Y159D01*
X2578Y161D01*
X2580Y161D01*
X2580Y163D01*
X2582Y163D01*
X2582Y165D01*
X2584Y165D01*
X2584Y167D01*
X2586Y167D01*
X2586Y169D01*
X2588Y169D01*
X2588Y171D01*
X2590Y171D01*
X2590Y173D01*
X2592Y173D01*
X2592Y175D01*
X2594Y175D01*
X2594Y177D01*
X2596Y177D01*
X2596Y179D01*
X2598Y179D01*
X2598Y181D01*
X2600Y181D01*
X2600Y183D01*
X2602Y183D01*
X2602Y185D01*
X2604Y185D01*
X2604Y187D01*
X2606Y187D01*
X2606Y189D01*
X2608Y189D01*
X2608Y191D01*
X2610Y191D01*
X2610Y193D01*
X2612Y193D01*
X2612Y195D01*
X2614Y195D01*
X2614Y197D01*
X2616Y197D01*
X2616Y199D01*
X2618Y199D01*
X2618Y201D01*
X2620Y201D01*
X2620Y203D01*
X2622Y203D01*
X2622Y205D01*
X2624Y205D01*
X2624Y207D01*
X2626Y207D01*
X2626Y209D01*
X2628Y209D01*
X2628Y211D01*
X2630Y211D01*
X2630Y213D01*
X2632Y213D01*
X2632Y215D01*
X2634Y215D01*
X2634Y217D01*
X2636Y217D01*
X2636Y219D01*
X2638Y219D01*
X2638Y221D01*
X2640Y221D01*
X2640Y223D01*
X2642Y223D01*
X2642Y225D01*
X2644Y225D01*
X2644Y227D01*
X2646Y227D01*
X2646Y229D01*
X2648Y229D01*
X2648Y231D01*
X2650Y231D01*
X2650Y233D01*
X2652Y233D01*
X2652Y235D01*
X2654Y235D01*
X2654Y237D01*
X2656Y237D01*
X2656Y239D01*
X2658Y239D01*
X2658Y241D01*
X2660Y241D01*
X2660Y243D01*
X2662Y243D01*
X2662Y245D01*
X2664Y245D01*
X2664Y255D01*
X1838Y255D01*
G37*
D02*
G36*
X1840Y161D02*
X1840Y145D01*
X1842Y145D01*
X1842Y143D01*
X1844Y143D01*
X1844Y141D01*
X1846Y141D01*
X1846Y139D01*
X1848Y139D01*
X1848Y137D01*
X1850Y137D01*
X1850Y133D01*
X1852Y133D01*
X1852Y129D01*
X1854Y129D01*
X1854Y127D01*
X1856Y127D01*
X1856Y121D01*
X1858Y121D01*
X1858Y113D01*
X1860Y113D01*
X1860Y91D01*
X1858Y91D01*
X1858Y83D01*
X1856Y83D01*
X1856Y79D01*
X1854Y79D01*
X1854Y75D01*
X1852Y75D01*
X1852Y71D01*
X1850Y71D01*
X1850Y69D01*
X1848Y69D01*
X1848Y47D01*
X1958Y47D01*
X1958Y67D01*
X1956Y67D01*
X1956Y69D01*
X1954Y69D01*
X1954Y71D01*
X1952Y71D01*
X1952Y75D01*
X1950Y75D01*
X1950Y79D01*
X1948Y79D01*
X1948Y85D01*
X1946Y85D01*
X1946Y93D01*
X1944Y93D01*
X1944Y111D01*
X1946Y111D01*
X1946Y121D01*
X1948Y121D01*
X1948Y125D01*
X1950Y125D01*
X1950Y129D01*
X1952Y129D01*
X1952Y133D01*
X1954Y133D01*
X1954Y135D01*
X1956Y135D01*
X1956Y139D01*
X1958Y139D01*
X1958Y141D01*
X1960Y141D01*
X1960Y143D01*
X1962Y143D01*
X1962Y145D01*
X1964Y145D01*
X1964Y147D01*
X1968Y147D01*
X1968Y149D01*
X1970Y149D01*
X1970Y151D01*
X1972Y151D01*
X1972Y153D01*
X1976Y153D01*
X1976Y155D01*
X1980Y155D01*
X1980Y157D01*
X1988Y157D01*
X1988Y159D01*
X2000Y159D01*
X2000Y161D01*
X1840Y161D01*
G37*
D02*
G36*
X2006Y161D02*
X2006Y159D01*
X2018Y159D01*
X2018Y157D01*
X2024Y157D01*
X2024Y155D01*
X2028Y155D01*
X2028Y153D01*
X2032Y153D01*
X2032Y151D01*
X2034Y151D01*
X2034Y149D01*
X2038Y149D01*
X2038Y147D01*
X2040Y147D01*
X2040Y145D01*
X2042Y145D01*
X2042Y143D01*
X2062Y143D01*
X2062Y145D01*
X2064Y145D01*
X2064Y147D01*
X2068Y147D01*
X2068Y149D01*
X2070Y149D01*
X2070Y151D01*
X2072Y151D01*
X2072Y153D01*
X2076Y153D01*
X2076Y155D01*
X2080Y155D01*
X2080Y157D01*
X2088Y157D01*
X2088Y159D01*
X2100Y159D01*
X2100Y161D01*
X2006Y161D01*
G37*
D02*
G36*
X2106Y161D02*
X2106Y159D01*
X2118Y159D01*
X2118Y157D01*
X2124Y157D01*
X2124Y155D01*
X2128Y155D01*
X2128Y153D01*
X2132Y153D01*
X2132Y151D01*
X2134Y151D01*
X2134Y149D01*
X2138Y149D01*
X2138Y147D01*
X2140Y147D01*
X2140Y145D01*
X2142Y145D01*
X2142Y143D01*
X2162Y143D01*
X2162Y145D01*
X2164Y145D01*
X2164Y147D01*
X2168Y147D01*
X2168Y149D01*
X2170Y149D01*
X2170Y151D01*
X2172Y151D01*
X2172Y153D01*
X2176Y153D01*
X2176Y155D01*
X2180Y155D01*
X2180Y157D01*
X2188Y157D01*
X2188Y159D01*
X2200Y159D01*
X2200Y161D01*
X2106Y161D01*
G37*
D02*
G36*
X2206Y161D02*
X2206Y159D01*
X2218Y159D01*
X2218Y157D01*
X2224Y157D01*
X2224Y155D01*
X2228Y155D01*
X2228Y153D01*
X2232Y153D01*
X2232Y151D01*
X2234Y151D01*
X2234Y149D01*
X2238Y149D01*
X2238Y147D01*
X2240Y147D01*
X2240Y145D01*
X2242Y145D01*
X2242Y143D01*
X2262Y143D01*
X2262Y145D01*
X2264Y145D01*
X2264Y147D01*
X2268Y147D01*
X2268Y149D01*
X2270Y149D01*
X2270Y151D01*
X2272Y151D01*
X2272Y153D01*
X2276Y153D01*
X2276Y155D01*
X2280Y155D01*
X2280Y157D01*
X2288Y157D01*
X2288Y159D01*
X2300Y159D01*
X2300Y161D01*
X2206Y161D01*
G37*
D02*
G36*
X2306Y161D02*
X2306Y159D01*
X2318Y159D01*
X2318Y157D01*
X2324Y157D01*
X2324Y155D01*
X2328Y155D01*
X2328Y153D01*
X2332Y153D01*
X2332Y151D01*
X2334Y151D01*
X2334Y149D01*
X2338Y149D01*
X2338Y147D01*
X2340Y147D01*
X2340Y145D01*
X2342Y145D01*
X2342Y143D01*
X2362Y143D01*
X2362Y145D01*
X2364Y145D01*
X2364Y147D01*
X2368Y147D01*
X2368Y149D01*
X2370Y149D01*
X2370Y151D01*
X2372Y151D01*
X2372Y153D01*
X2376Y153D01*
X2376Y155D01*
X2380Y155D01*
X2380Y157D01*
X2388Y157D01*
X2388Y159D01*
X2400Y159D01*
X2400Y161D01*
X2306Y161D01*
G37*
D02*
G36*
X2406Y161D02*
X2406Y159D01*
X2418Y159D01*
X2418Y157D01*
X2424Y157D01*
X2424Y155D01*
X2428Y155D01*
X2428Y153D01*
X2432Y153D01*
X2432Y151D01*
X2434Y151D01*
X2434Y149D01*
X2438Y149D01*
X2438Y147D01*
X2440Y147D01*
X2440Y145D01*
X2442Y145D01*
X2442Y143D01*
X2462Y143D01*
X2462Y145D01*
X2464Y145D01*
X2464Y147D01*
X2468Y147D01*
X2468Y149D01*
X2470Y149D01*
X2470Y151D01*
X2472Y151D01*
X2472Y153D01*
X2476Y153D01*
X2476Y155D01*
X2480Y155D01*
X2480Y157D01*
X2488Y157D01*
X2488Y159D01*
X2500Y159D01*
X2500Y161D01*
X2406Y161D01*
G37*
D02*
G36*
X1580Y87D02*
X1619Y87D01*
X1619Y47D01*
X1580Y47D01*
X1580Y87D01*
G37*
D02*
G36*
X1680Y87D02*
X1719Y87D01*
X1719Y47D01*
X1680Y47D01*
X1680Y87D01*
G37*
D02*
G36*
X1020Y2063D02*
X1059Y2063D01*
X1059Y2023D01*
X1020Y2023D01*
X1020Y2063D01*
G37*
D02*
G36*
X1687Y351D02*
X1712Y351D01*
X1712Y311D01*
X1687Y311D01*
X1687Y351D01*
G37*
D02*
G36*
X1706Y316D02*
X1746Y316D01*
X1746Y291D01*
X1706Y291D01*
X1706Y316D01*
G37*
D02*
G36*
X1706Y466D02*
X1746Y466D01*
X1746Y441D01*
X1706Y441D01*
X1706Y466D01*
G37*
D02*
G36*
X2531Y341D02*
X2568Y341D01*
X2568Y297D01*
X2531Y297D01*
X2531Y341D01*
G37*
D02*
G36*
X2492Y374D02*
X2534Y374D01*
X2534Y337D01*
X2492Y337D01*
X2492Y374D01*
G37*
D02*
G36*
X2564Y374D02*
X2608Y374D01*
X2608Y337D01*
X2564Y337D01*
X2564Y374D01*
G37*
D02*
G36*
X1887Y297D02*
X1912Y297D01*
X1912Y257D01*
X1887Y257D01*
X1887Y297D01*
G37*
D02*
G36*
X1852Y316D02*
X1892Y316D01*
X1892Y291D01*
X1852Y291D01*
X1852Y316D01*
G37*
D02*
G36*
X1137Y447D02*
X1162Y447D01*
X1162Y407D01*
X1137Y407D01*
X1137Y447D01*
G37*
D02*
G36*
X1156Y466D02*
X1196Y466D01*
X1196Y441D01*
X1156Y441D01*
X1156Y466D01*
G37*
D02*
G36*
X1906Y466D02*
X1946Y466D01*
X1946Y441D01*
X1906Y441D01*
X1906Y466D01*
G37*
D02*
G36*
X1378Y919D02*
X1421Y919D01*
X1421Y871D01*
X1378Y871D01*
X1378Y919D01*
G37*
D02*
G36*
X677Y187D02*
X722Y187D01*
X722Y137D01*
X677Y137D01*
X677Y187D01*
G37*
D02*
G36*
X632Y228D02*
X680Y228D01*
X680Y183D01*
X632Y183D01*
X632Y228D01*
G37*
D02*
G36*
X718Y228D02*
X766Y228D01*
X766Y183D01*
X718Y183D01*
X718Y228D01*
G37*
D02*
G36*
X2306Y618D02*
X2348Y618D01*
X2348Y593D01*
X2306Y593D01*
X2306Y618D01*
G37*
D02*
G36*
X537Y1047D02*
X562Y1047D01*
X562Y1007D01*
X537Y1007D01*
X537Y1047D01*
G37*
D02*
G36*
X556Y1066D02*
X596Y1066D01*
X596Y1041D01*
X556Y1041D01*
X556Y1066D01*
G37*
D02*
G36*
X2492Y622D02*
X2534Y622D01*
X2534Y585D01*
X2492Y585D01*
X2492Y622D01*
G37*
D02*
G36*
X2564Y622D02*
X2608Y622D01*
X2608Y585D01*
X2564Y585D01*
X2564Y622D01*
G37*
D02*
G36*
X387Y997D02*
X412Y997D01*
X412Y957D01*
X387Y957D01*
X387Y997D01*
G37*
D02*
G36*
X352Y1016D02*
X392Y1016D01*
X392Y991D01*
X352Y991D01*
X352Y1016D01*
G37*
D02*
G36*
X406Y1016D02*
X446Y1016D01*
X446Y991D01*
X406Y991D01*
X406Y1016D01*
G37*
D02*
G36*
X506Y1366D02*
X546Y1366D01*
X546Y1341D01*
X506Y1341D01*
X506Y1366D01*
G37*
D02*
G36*
X537Y1251D02*
X562Y1251D01*
X562Y1211D01*
X537Y1211D01*
X537Y1251D01*
G37*
D02*
G36*
X502Y1216D02*
X542Y1216D01*
X542Y1191D01*
X502Y1191D01*
X502Y1216D01*
G37*
D02*
G36*
X556Y1216D02*
X596Y1216D01*
X596Y1191D01*
X556Y1191D01*
X556Y1216D01*
G37*
D02*
G36*
X2328Y919D02*
X2371Y919D01*
X2371Y871D01*
X2328Y871D01*
X2328Y919D01*
G37*
D02*
G36*
X377Y1921D02*
X422Y1921D01*
X422Y1873D01*
X377Y1873D01*
X377Y1921D01*
G37*
D02*
G36*
X332Y1876D02*
X380Y1876D01*
X380Y1831D01*
X332Y1831D01*
X332Y1876D01*
G37*
D02*
G36*
X1237Y947D02*
X1262Y947D01*
X1262Y907D01*
X1237Y907D01*
X1237Y947D01*
G37*
D02*
G36*
X487Y1151D02*
X512Y1151D01*
X512Y1111D01*
X487Y1111D01*
X487Y1151D01*
G37*
D02*
G36*
X452Y1116D02*
X492Y1116D01*
X492Y1091D01*
X452Y1091D01*
X452Y1116D01*
G37*
D02*
G36*
X1256Y1116D02*
X1296Y1116D01*
X1296Y1091D01*
X1256Y1091D01*
X1256Y1116D01*
G37*
D02*
G36*
X587Y1751D02*
X612Y1751D01*
X612Y1711D01*
X587Y1711D01*
X587Y1751D01*
G37*
D02*
G36*
X1752Y1616D02*
X1792Y1616D01*
X1792Y1591D01*
X1752Y1591D01*
X1752Y1616D01*
G37*
D02*
G36*
X1806Y1616D02*
X1846Y1616D01*
X1846Y1591D01*
X1806Y1591D01*
X1806Y1616D01*
G37*
D02*
G36*
X1837Y1301D02*
X1862Y1301D01*
X1862Y1261D01*
X1837Y1261D01*
X1837Y1301D01*
G37*
D02*
G36*
X1777Y1821D02*
X1822Y1821D01*
X1822Y1773D01*
X1777Y1773D01*
X1777Y1821D01*
G37*
D02*
G36*
X1734Y1776D02*
X1780Y1776D01*
X1780Y1731D01*
X1734Y1731D01*
X1734Y1776D01*
G37*
D02*
G36*
X2427Y1821D02*
X2472Y1821D01*
X2472Y1773D01*
X2427Y1773D01*
X2427Y1821D01*
G37*
D02*
G36*
X2427Y1735D02*
X2472Y1735D01*
X2472Y1687D01*
X2427Y1687D01*
X2427Y1735D01*
G37*
D02*
G36*
X2468Y1776D02*
X2518Y1776D01*
X2518Y1731D01*
X2468Y1731D01*
X2468Y1776D01*
G37*
D02*
G54D24*
X1132Y1722D02*
X1072Y1722D01*
X1072Y1782D01*
X1132Y1782D01*
X1132Y1722D01*
D02*
X222Y232D02*
X282Y232D01*
X282Y172D01*
X222Y172D01*
X222Y232D01*
D02*
X672Y232D02*
X732Y232D01*
X732Y172D01*
X672Y172D01*
X672Y232D01*
D02*
G04 End of Copper1*
M02*