G04 MADE WITH FRITZING*
G04 WWW.FRITZING.ORG*
G04 DOUBLE SIDED*
G04 HOLES PLATED*
G04 CONTOUR ON CENTER OF CONTOUR VECTOR*
%ASAXBY*%
%FSLAX23Y23*%
%MOIN*%
%OFA0B0*%
%SFA1.0B1.0*%
%ADD10C,0.049370*%
%ADD11C,0.076194*%
%ADD12C,0.076222*%
%ADD13C,0.090000*%
%ADD14C,0.085000*%
%ADD15C,0.072992*%
%ADD16R,0.121721X0.160623*%
%ADD17R,0.090000X0.090000*%
%ADD18R,0.085000X0.085000*%
%ADD19R,0.072992X0.072992*%
%ADD20C,0.030000*%
%LNMASK0*%
G90*
G70*
G54D10*
X1702Y452D03*
X1252Y952D03*
X1252Y1102D03*
X1452Y1752D03*
X302Y1452D03*
X302Y1252D03*
X552Y1202D03*
X552Y1052D03*
X602Y1452D03*
X602Y1702D03*
X202Y1702D03*
X152Y1402D03*
X252Y1002D03*
X502Y1352D03*
X2252Y1152D03*
X1502Y352D03*
X2552Y852D03*
X1702Y1102D03*
X2303Y603D03*
X1552Y703D03*
X1802Y552D03*
X502Y1102D03*
X1802Y1602D03*
X402Y1002D03*
X252Y1352D03*
X1702Y302D03*
X1902Y302D03*
X1902Y452D03*
G54D11*
X2102Y103D03*
X2202Y103D03*
X2302Y103D03*
X2402Y103D03*
X2502Y103D03*
G54D12*
X1642Y2003D03*
X1542Y2003D03*
X1442Y2003D03*
X1342Y2003D03*
X1242Y2003D03*
X1142Y2003D03*
X1042Y2003D03*
X942Y2003D03*
X842Y2003D03*
X742Y2003D03*
X2502Y2003D03*
X2402Y2003D03*
X2302Y2003D03*
X2202Y2003D03*
X2102Y2003D03*
X2002Y2003D03*
X1902Y2003D03*
X1802Y2003D03*
G54D11*
X1202Y103D03*
X1102Y103D03*
X1302Y103D03*
X1402Y103D03*
X1502Y103D03*
X1602Y103D03*
X1702Y103D03*
X1802Y103D03*
X2002Y103D03*
G54D13*
X2452Y1753D03*
X2252Y1753D03*
X1552Y1752D03*
X1352Y1752D03*
X252Y202D03*
X452Y202D03*
X702Y202D03*
X902Y202D03*
X1102Y1752D03*
X902Y1752D03*
X2002Y1753D03*
X1802Y1753D03*
X402Y1852D03*
X202Y1852D03*
G54D14*
X2452Y1152D03*
X2452Y852D03*
X2352Y1152D03*
X2352Y852D03*
X1502Y1152D03*
X1502Y852D03*
X1402Y1152D03*
X1402Y852D03*
G54D15*
X2552Y602D03*
X2552Y701D03*
X2552Y354D03*
X2552Y453D03*
G54D10*
X1852Y851D03*
X2152Y852D03*
X1102Y1602D03*
X1102Y1102D03*
X952Y702D03*
X1002Y1252D03*
X852Y1202D03*
X852Y652D03*
X2002Y302D03*
X2002Y502D03*
X1852Y502D03*
X1552Y552D03*
X1352Y552D03*
X1002Y1152D03*
X752Y1152D03*
X752Y702D03*
X152Y702D03*
X202Y652D03*
X1102Y352D03*
X1152Y302D03*
X1152Y452D03*
X2252Y1852D03*
X2302Y1602D03*
X1852Y1252D03*
X2102Y1202D03*
X2052Y1252D03*
X1902Y1202D03*
X1952Y652D03*
X1952Y552D03*
X1752Y602D03*
X1452Y602D03*
X1352Y652D03*
X1152Y652D03*
X1102Y502D03*
X302Y702D03*
X1852Y552D03*
X1452Y752D03*
X1352Y752D03*
X452Y802D03*
G54D16*
X1602Y353D03*
G54D17*
X2452Y1753D03*
X1552Y1752D03*
X2002Y1753D03*
X402Y1852D03*
G54D18*
X2452Y1152D03*
X1502Y1152D03*
G54D19*
X2552Y602D03*
X2552Y354D03*
G54D20*
G36*
X222Y232D02*
X282Y232D01*
X282Y172D01*
X222Y172D01*
X222Y232D01*
G37*
D02*
G36*
X672Y232D02*
X732Y232D01*
X732Y172D01*
X672Y172D01*
X672Y232D01*
G37*
D02*
G36*
X1132Y1722D02*
X1072Y1722D01*
X1072Y1782D01*
X1132Y1782D01*
X1132Y1722D01*
G37*
D02*
G04 End of Mask0*
M02*