G04 MADE WITH FRITZING*
G04 WWW.FRITZING.ORG*
G04 DOUBLE SIDED*
G04 HOLES PLATED*
G04 CONTOUR ON CENTER OF CONTOUR VECTOR*
%ASAXBY*%
%FSLAX23Y23*%
%MOIN*%
%OFA0B0*%
%SFA1.0B1.0*%
%ADD10C,0.075000*%
%ADD11C,0.039370*%
%ADD12C,0.066194*%
%ADD13C,0.066222*%
%ADD14C,0.080000*%
%ADD15C,0.062992*%
%ADD16R,0.111721X0.150623*%
%ADD17R,0.080000X0.080000*%
%ADD18R,0.075000X0.075000*%
%ADD19R,0.062992X0.062992*%
%ADD20C,0.024000*%
%ADD21C,0.032000*%
%ADD22C,0.020000*%
%LNCOPPER0*%
G90*
G70*
G54D10*
X1224Y1756D03*
X1824Y1092D03*
X2357Y1021D03*
X1616Y902D03*
X2457Y1608D03*
X131Y2006D03*
G54D11*
X1702Y452D03*
X1252Y952D03*
X1252Y1102D03*
X1452Y1752D03*
X302Y1452D03*
X302Y1252D03*
X552Y1202D03*
X552Y1052D03*
X602Y1452D03*
X602Y1702D03*
X202Y1702D03*
X152Y1402D03*
X252Y1002D03*
X502Y1352D03*
X2252Y1152D03*
X1502Y352D03*
X2552Y852D03*
X1702Y1102D03*
X2303Y603D03*
X1552Y703D03*
X1802Y552D03*
X502Y1102D03*
X1802Y1602D03*
X402Y1002D03*
X252Y1352D03*
X1702Y302D03*
X1902Y302D03*
X1902Y452D03*
G54D12*
X2102Y103D03*
X2202Y103D03*
X2302Y103D03*
X2402Y103D03*
X2502Y103D03*
G54D13*
X1642Y2003D03*
X1542Y2003D03*
X1442Y2003D03*
X1342Y2003D03*
X1242Y2003D03*
X1142Y2003D03*
X1042Y2003D03*
X942Y2003D03*
X842Y2003D03*
X742Y2003D03*
X2502Y2003D03*
X2402Y2003D03*
X2302Y2003D03*
X2202Y2003D03*
X2102Y2003D03*
X2002Y2003D03*
X1902Y2003D03*
X1802Y2003D03*
G54D12*
X1202Y103D03*
X1102Y103D03*
X1302Y103D03*
X1402Y103D03*
X1502Y103D03*
X1602Y103D03*
X1702Y103D03*
X1802Y103D03*
X2002Y103D03*
G54D14*
X2452Y1753D03*
X2252Y1753D03*
X1552Y1752D03*
X1352Y1752D03*
X252Y202D03*
X452Y202D03*
X702Y202D03*
X902Y202D03*
X1102Y1752D03*
X902Y1752D03*
X2002Y1753D03*
X1802Y1753D03*
X402Y1852D03*
X202Y1852D03*
G54D10*
X2452Y1152D03*
X2452Y852D03*
X2352Y1152D03*
X2352Y852D03*
X1502Y1152D03*
X1502Y852D03*
X1402Y1152D03*
X1402Y852D03*
G54D15*
X2552Y602D03*
X2552Y701D03*
X2552Y354D03*
X2552Y453D03*
G54D11*
X1852Y851D03*
X2152Y852D03*
X1102Y1602D03*
X1102Y1102D03*
X952Y702D03*
X1002Y1252D03*
X852Y1202D03*
X852Y652D03*
X2002Y302D03*
X2002Y502D03*
X1852Y502D03*
X1552Y552D03*
X1352Y552D03*
X1002Y1152D03*
X752Y1152D03*
X752Y702D03*
X152Y702D03*
X202Y652D03*
X1102Y352D03*
X1152Y302D03*
X1152Y452D03*
X2252Y1852D03*
X2302Y1602D03*
X1852Y1252D03*
X2102Y1202D03*
X2052Y1252D03*
X1902Y1202D03*
X1952Y652D03*
X1952Y552D03*
X1752Y602D03*
X1452Y602D03*
X1352Y652D03*
X1152Y652D03*
X1102Y502D03*
X302Y702D03*
X1852Y552D03*
X1452Y752D03*
X1352Y752D03*
X452Y802D03*
G54D16*
X1602Y353D03*
G54D17*
X2452Y1753D03*
X1552Y1752D03*
X2002Y1753D03*
X402Y1852D03*
G54D18*
X2452Y1152D03*
X1502Y1152D03*
G54D19*
X2552Y602D03*
X2552Y354D03*
G54D20*
X1883Y452D02*
X1721Y452D01*
D02*
X1296Y1234D02*
X1258Y1120D01*
D02*
X1401Y1851D02*
X1443Y1769D01*
D02*
X1151Y1851D02*
X1401Y1851D01*
D02*
X1002Y1803D02*
X1151Y1851D01*
D02*
X1002Y1652D02*
X1002Y1803D01*
D02*
X802Y1652D02*
X1002Y1652D01*
D02*
X702Y1654D02*
X802Y1652D01*
D02*
X602Y1602D02*
X702Y1654D01*
D02*
X501Y1553D02*
X602Y1602D01*
D02*
X452Y1453D02*
X501Y1553D01*
D02*
X321Y1452D02*
X452Y1453D01*
D02*
X553Y1352D02*
X552Y1221D01*
D02*
X593Y1435D02*
X553Y1352D01*
D02*
X502Y1852D02*
X603Y1802D01*
D02*
X603Y1802D02*
X602Y1721D01*
D02*
X433Y1852D02*
X502Y1852D01*
G54D21*
D02*
X202Y1502D02*
X202Y1678D01*
D02*
X163Y1424D02*
X202Y1502D01*
G54D20*
D02*
X1701Y1003D02*
X1351Y1003D01*
D02*
X1351Y1003D02*
X1300Y852D01*
D02*
X1300Y852D02*
X1107Y873D01*
D02*
X1839Y865D02*
X1701Y1003D01*
D02*
X1107Y873D02*
X251Y903D01*
D02*
X251Y903D02*
X251Y983D01*
D02*
X2252Y903D02*
X2169Y861D01*
D02*
X2252Y1133D02*
X2252Y903D01*
D02*
X502Y1121D02*
X502Y1333D01*
D02*
X1502Y333D02*
X1502Y133D01*
D02*
X2453Y1252D02*
X2201Y1202D01*
D02*
X2201Y1202D02*
X2121Y1202D01*
D02*
X2552Y1252D02*
X2453Y1252D01*
D02*
X1802Y1201D02*
X1715Y1116D01*
D02*
X1883Y1202D02*
X1802Y1201D01*
D02*
X2552Y871D02*
X2552Y1252D01*
D02*
X2480Y852D02*
X2533Y852D01*
D02*
X2301Y503D02*
X2302Y584D01*
D02*
X2201Y453D02*
X2301Y503D01*
D02*
X2002Y453D02*
X2201Y453D01*
D02*
X1921Y452D02*
X2002Y453D01*
D02*
X2402Y602D02*
X2525Y602D01*
D02*
X2402Y502D02*
X2402Y602D01*
D02*
X2253Y403D02*
X2402Y502D01*
D02*
X2001Y403D02*
X2253Y403D01*
D02*
X1919Y444D02*
X2001Y403D01*
D02*
X1652Y702D02*
X1752Y702D01*
D02*
X1752Y702D02*
X1802Y652D01*
D02*
X1802Y652D02*
X1802Y571D01*
D02*
X1571Y702D02*
X1652Y702D01*
D02*
X2351Y1301D02*
X2205Y1257D01*
D02*
X1833Y1252D02*
X1302Y1252D01*
D02*
X1233Y953D02*
X421Y1001D01*
D02*
X2403Y1352D02*
X2351Y1301D01*
D02*
X2453Y1452D02*
X2403Y1352D01*
D02*
X2452Y1721D02*
X2453Y1452D01*
D02*
X1602Y283D02*
X1602Y133D01*
D02*
X1602Y451D02*
X1403Y554D01*
D02*
X1403Y554D02*
X1402Y824D01*
D02*
X1602Y422D02*
X1602Y451D01*
D02*
X1652Y353D02*
X2525Y354D01*
D02*
X303Y1401D02*
X265Y1365D01*
D02*
X852Y1602D02*
X751Y1602D01*
D02*
X751Y1602D02*
X651Y1553D01*
D02*
X1002Y1602D02*
X951Y1602D01*
D02*
X1051Y1652D02*
X1002Y1602D01*
D02*
X1401Y1652D02*
X1051Y1652D01*
D02*
X951Y1602D02*
X852Y1602D01*
D02*
X1452Y1652D02*
X1401Y1652D01*
D02*
X2251Y1651D02*
X1452Y1652D01*
D02*
X2252Y1721D02*
X2251Y1651D01*
D02*
X651Y1553D02*
X553Y1501D01*
D02*
X501Y1401D02*
X303Y1401D01*
D02*
X553Y1501D02*
X501Y1401D01*
D02*
X1883Y302D02*
X1721Y302D01*
D02*
X571Y1051D02*
X1140Y1004D01*
D02*
X1140Y1004D02*
X1251Y1053D01*
D02*
X1251Y1053D02*
X1751Y1053D01*
D02*
X1751Y1053D02*
X1901Y903D01*
D02*
X1901Y903D02*
X1902Y471D01*
D02*
X1150Y1053D02*
X1251Y1303D01*
D02*
X1251Y1303D02*
X1803Y1303D01*
D02*
X1803Y1303D02*
X1802Y1583D01*
D02*
X521Y1101D02*
X1150Y1053D01*
D02*
X1102Y1121D02*
X1102Y1583D01*
D02*
X870Y1208D02*
X984Y1246D01*
D02*
X2002Y283D02*
X2002Y133D01*
D02*
X1651Y502D02*
X1833Y502D01*
D02*
X1569Y544D02*
X1651Y502D01*
D02*
X1051Y553D02*
X1333Y552D01*
D02*
X869Y644D02*
X1051Y553D01*
D02*
X771Y1152D02*
X983Y1152D01*
D02*
X933Y702D02*
X771Y702D01*
D02*
X251Y352D02*
X1083Y352D01*
D02*
X202Y451D02*
X251Y352D01*
D02*
X202Y633D02*
X202Y451D01*
D02*
X151Y403D02*
X202Y303D01*
D02*
X152Y683D02*
X151Y403D01*
D02*
X202Y303D02*
X1133Y302D01*
D02*
X1451Y452D02*
X1171Y452D01*
D02*
X1552Y386D02*
X1451Y452D01*
D02*
X1952Y753D02*
X1951Y1302D01*
D02*
X1951Y1402D02*
X2202Y1402D01*
D02*
X2202Y1402D02*
X2302Y1453D01*
D02*
X1951Y1302D02*
X1951Y1402D01*
D02*
X2402Y1902D02*
X2402Y1972D01*
D02*
X2270Y1858D02*
X2402Y1902D01*
D02*
X1952Y671D02*
X1952Y753D01*
D02*
X2251Y1353D02*
X2351Y1402D01*
D02*
X2002Y602D02*
X2002Y1253D01*
D02*
X2002Y1253D02*
X2002Y1353D01*
D02*
X1965Y565D02*
X2002Y602D01*
D02*
X2501Y1852D02*
X2502Y1972D01*
D02*
X2002Y1353D02*
X2251Y1353D01*
D02*
X2352Y1802D02*
X2501Y1852D01*
D02*
X2351Y1402D02*
X2352Y1802D01*
D02*
X2302Y1453D02*
X2302Y1583D01*
D02*
X2205Y1257D02*
X2071Y1253D01*
D02*
X1471Y602D02*
X1733Y602D01*
D02*
X1171Y652D02*
X1333Y652D01*
D02*
X701Y653D02*
X951Y502D01*
D02*
X652Y702D02*
X701Y653D01*
D02*
X951Y502D02*
X1083Y502D01*
D02*
X321Y702D02*
X652Y702D01*
D02*
X1852Y703D02*
X1852Y571D01*
D02*
X1801Y752D02*
X1852Y703D01*
D02*
X1471Y752D02*
X1801Y752D01*
D02*
X1251Y753D02*
X1333Y752D01*
D02*
X1102Y802D02*
X1251Y753D01*
D02*
X471Y802D02*
X1102Y802D01*
G36*
X1166Y1813D02*
X1166Y1689D01*
X1304Y1689D01*
X1304Y1709D01*
X1302Y1709D01*
X1302Y1711D01*
X1300Y1711D01*
X1300Y1713D01*
X1298Y1713D01*
X1298Y1717D01*
X1296Y1717D01*
X1296Y1721D01*
X1294Y1721D01*
X1294Y1723D01*
X1292Y1723D01*
X1292Y1729D01*
X1290Y1729D01*
X1290Y1735D01*
X1288Y1735D01*
X1288Y1745D01*
X1286Y1745D01*
X1286Y1759D01*
X1288Y1759D01*
X1288Y1769D01*
X1290Y1769D01*
X1290Y1775D01*
X1292Y1775D01*
X1292Y1779D01*
X1294Y1779D01*
X1294Y1783D01*
X1296Y1783D01*
X1296Y1787D01*
X1298Y1787D01*
X1298Y1789D01*
X1300Y1789D01*
X1300Y1793D01*
X1302Y1793D01*
X1302Y1813D01*
X1166Y1813D01*
G37*
D02*
G36*
X1816Y1165D02*
X1816Y1163D01*
X1814Y1163D01*
X1814Y1161D01*
X1812Y1161D01*
X1812Y1159D01*
X1810Y1159D01*
X1810Y1157D01*
X1808Y1157D01*
X1808Y1155D01*
X1806Y1155D01*
X1806Y1153D01*
X1804Y1153D01*
X1804Y1151D01*
X1802Y1151D01*
X1802Y1149D01*
X1800Y1149D01*
X1800Y1147D01*
X1798Y1147D01*
X1798Y1145D01*
X1796Y1145D01*
X1796Y1143D01*
X1794Y1143D01*
X1794Y1141D01*
X1792Y1141D01*
X1792Y1139D01*
X1790Y1139D01*
X1790Y1137D01*
X1788Y1137D01*
X1788Y1135D01*
X1786Y1135D01*
X1786Y1133D01*
X1784Y1133D01*
X1784Y1131D01*
X1782Y1131D01*
X1782Y1129D01*
X1780Y1129D01*
X1780Y1127D01*
X1778Y1127D01*
X1778Y1125D01*
X1776Y1125D01*
X1776Y1123D01*
X1774Y1123D01*
X1774Y1121D01*
X1772Y1121D01*
X1772Y1119D01*
X1770Y1119D01*
X1770Y1117D01*
X1768Y1117D01*
X1768Y1115D01*
X1766Y1115D01*
X1766Y1113D01*
X1764Y1113D01*
X1764Y1111D01*
X1762Y1111D01*
X1762Y1109D01*
X1760Y1109D01*
X1760Y1107D01*
X1758Y1107D01*
X1758Y1105D01*
X1756Y1105D01*
X1756Y1103D01*
X1754Y1103D01*
X1754Y1101D01*
X1752Y1101D01*
X1752Y1099D01*
X1750Y1099D01*
X1750Y1097D01*
X1748Y1097D01*
X1748Y1095D01*
X1746Y1095D01*
X1746Y1091D01*
X1744Y1091D01*
X1744Y1085D01*
X1742Y1085D01*
X1742Y1081D01*
X1740Y1081D01*
X1740Y1077D01*
X1738Y1077D01*
X1738Y1075D01*
X1736Y1075D01*
X1736Y1073D01*
X1734Y1073D01*
X1734Y1071D01*
X1732Y1071D01*
X1732Y1069D01*
X1730Y1069D01*
X1730Y1067D01*
X1728Y1067D01*
X1728Y1065D01*
X1726Y1065D01*
X1726Y1063D01*
X1722Y1063D01*
X1722Y1061D01*
X1718Y1061D01*
X1718Y1059D01*
X1710Y1059D01*
X1710Y1039D01*
X1712Y1039D01*
X1712Y1037D01*
X1716Y1037D01*
X1716Y1035D01*
X1720Y1035D01*
X1720Y1033D01*
X1724Y1033D01*
X1724Y1031D01*
X1726Y1031D01*
X1726Y1029D01*
X1728Y1029D01*
X1728Y1027D01*
X1730Y1027D01*
X1730Y1025D01*
X1732Y1025D01*
X1732Y1023D01*
X1734Y1023D01*
X1734Y1021D01*
X1736Y1021D01*
X1736Y1019D01*
X1738Y1019D01*
X1738Y1017D01*
X1740Y1017D01*
X1740Y1015D01*
X1742Y1015D01*
X1742Y1013D01*
X1744Y1013D01*
X1744Y1011D01*
X1746Y1011D01*
X1746Y1009D01*
X1748Y1009D01*
X1748Y1007D01*
X1750Y1007D01*
X1750Y1005D01*
X1752Y1005D01*
X1752Y1003D01*
X1754Y1003D01*
X1754Y1001D01*
X1756Y1001D01*
X1756Y999D01*
X1758Y999D01*
X1758Y997D01*
X1760Y997D01*
X1760Y995D01*
X1762Y995D01*
X1762Y993D01*
X1764Y993D01*
X1764Y991D01*
X1766Y991D01*
X1766Y989D01*
X1768Y989D01*
X1768Y987D01*
X1770Y987D01*
X1770Y985D01*
X1772Y985D01*
X1772Y983D01*
X1774Y983D01*
X1774Y981D01*
X1776Y981D01*
X1776Y979D01*
X1778Y979D01*
X1778Y977D01*
X1780Y977D01*
X1780Y975D01*
X1782Y975D01*
X1782Y973D01*
X1784Y973D01*
X1784Y971D01*
X1786Y971D01*
X1786Y969D01*
X1788Y969D01*
X1788Y967D01*
X1790Y967D01*
X1790Y965D01*
X1792Y965D01*
X1792Y963D01*
X1794Y963D01*
X1794Y961D01*
X1796Y961D01*
X1796Y959D01*
X1798Y959D01*
X1798Y957D01*
X1800Y957D01*
X1800Y955D01*
X1802Y955D01*
X1802Y953D01*
X1804Y953D01*
X1804Y951D01*
X1806Y951D01*
X1806Y949D01*
X1808Y949D01*
X1808Y947D01*
X1810Y947D01*
X1810Y945D01*
X1812Y945D01*
X1812Y943D01*
X1814Y943D01*
X1814Y941D01*
X1816Y941D01*
X1816Y939D01*
X1818Y939D01*
X1818Y937D01*
X1820Y937D01*
X1820Y935D01*
X1822Y935D01*
X1822Y933D01*
X1824Y933D01*
X1824Y931D01*
X1826Y931D01*
X1826Y929D01*
X1828Y929D01*
X1828Y927D01*
X1830Y927D01*
X1830Y925D01*
X1832Y925D01*
X1832Y923D01*
X1834Y923D01*
X1834Y921D01*
X1836Y921D01*
X1836Y919D01*
X1838Y919D01*
X1838Y917D01*
X1840Y917D01*
X1840Y915D01*
X1842Y915D01*
X1842Y913D01*
X1844Y913D01*
X1844Y911D01*
X1846Y911D01*
X1846Y909D01*
X1848Y909D01*
X1848Y907D01*
X1850Y907D01*
X1850Y905D01*
X1852Y905D01*
X1852Y903D01*
X1854Y903D01*
X1854Y901D01*
X1856Y901D01*
X1856Y899D01*
X1858Y899D01*
X1858Y897D01*
X1860Y897D01*
X1860Y895D01*
X1864Y895D01*
X1864Y893D01*
X1870Y893D01*
X1870Y891D01*
X1874Y891D01*
X1874Y889D01*
X1878Y889D01*
X1878Y887D01*
X1880Y887D01*
X1880Y885D01*
X1882Y885D01*
X1882Y883D01*
X1884Y883D01*
X1884Y881D01*
X1886Y881D01*
X1886Y879D01*
X1888Y879D01*
X1888Y877D01*
X1890Y877D01*
X1890Y873D01*
X1892Y873D01*
X1892Y869D01*
X1894Y869D01*
X1894Y863D01*
X1914Y863D01*
X1914Y1157D01*
X1894Y1157D01*
X1894Y1159D01*
X1886Y1159D01*
X1886Y1161D01*
X1882Y1161D01*
X1882Y1163D01*
X1878Y1163D01*
X1878Y1165D01*
X1816Y1165D01*
G37*
D02*
G36*
X2288Y1109D02*
X2288Y1089D01*
X2342Y1089D01*
X2342Y1091D01*
X2334Y1091D01*
X2334Y1093D01*
X2328Y1093D01*
X2328Y1095D01*
X2324Y1095D01*
X2324Y1097D01*
X2320Y1097D01*
X2320Y1099D01*
X2316Y1099D01*
X2316Y1101D01*
X2314Y1101D01*
X2314Y1103D01*
X2312Y1103D01*
X2312Y1105D01*
X2310Y1105D01*
X2310Y1107D01*
X2308Y1107D01*
X2308Y1109D01*
X2288Y1109D01*
G37*
D02*
G36*
X2370Y1093D02*
X2370Y1091D01*
X2360Y1091D01*
X2360Y1089D01*
X2390Y1089D01*
X2390Y1093D01*
X2370Y1093D01*
G37*
D02*
G36*
X2288Y1089D02*
X2288Y1087D01*
X2514Y1087D01*
X2514Y1089D01*
X2288Y1089D01*
G37*
D02*
G36*
X2288Y1089D02*
X2288Y1087D01*
X2514Y1087D01*
X2514Y1089D01*
X2288Y1089D01*
G37*
D02*
G36*
X2288Y1087D02*
X2288Y965D01*
X2290Y965D01*
X2290Y915D01*
X2456Y915D01*
X2456Y913D01*
X2468Y913D01*
X2468Y911D01*
X2474Y911D01*
X2474Y909D01*
X2478Y909D01*
X2478Y907D01*
X2482Y907D01*
X2482Y905D01*
X2486Y905D01*
X2486Y903D01*
X2488Y903D01*
X2488Y901D01*
X2492Y901D01*
X2492Y899D01*
X2494Y899D01*
X2494Y897D01*
X2514Y897D01*
X2514Y1087D01*
X2288Y1087D01*
G37*
D02*
G36*
X2290Y915D02*
X2290Y901D01*
X2288Y901D01*
X2288Y895D01*
X2308Y895D01*
X2308Y897D01*
X2310Y897D01*
X2310Y899D01*
X2312Y899D01*
X2312Y901D01*
X2314Y901D01*
X2314Y903D01*
X2318Y903D01*
X2318Y905D01*
X2320Y905D01*
X2320Y907D01*
X2324Y907D01*
X2324Y909D01*
X2330Y909D01*
X2330Y911D01*
X2336Y911D01*
X2336Y913D01*
X2348Y913D01*
X2348Y915D01*
X2290Y915D01*
G37*
D02*
G36*
X2356Y915D02*
X2356Y913D01*
X2368Y913D01*
X2368Y911D01*
X2374Y911D01*
X2374Y909D01*
X2378Y909D01*
X2378Y907D01*
X2382Y907D01*
X2382Y905D01*
X2386Y905D01*
X2386Y903D01*
X2388Y903D01*
X2388Y901D01*
X2392Y901D01*
X2392Y899D01*
X2412Y899D01*
X2412Y901D01*
X2414Y901D01*
X2414Y903D01*
X2418Y903D01*
X2418Y905D01*
X2420Y905D01*
X2420Y907D01*
X2424Y907D01*
X2424Y909D01*
X2430Y909D01*
X2430Y911D01*
X2436Y911D01*
X2436Y913D01*
X2448Y913D01*
X2448Y915D01*
X2356Y915D01*
G37*
D02*
G36*
X1376Y965D02*
X1376Y959D01*
X1374Y959D01*
X1374Y953D01*
X1372Y953D01*
X1372Y947D01*
X1370Y947D01*
X1370Y941D01*
X1368Y941D01*
X1368Y935D01*
X1366Y935D01*
X1366Y929D01*
X1364Y929D01*
X1364Y923D01*
X1362Y923D01*
X1362Y915D01*
X1506Y915D01*
X1506Y913D01*
X1518Y913D01*
X1518Y911D01*
X1524Y911D01*
X1524Y909D01*
X1528Y909D01*
X1528Y907D01*
X1532Y907D01*
X1532Y905D01*
X1536Y905D01*
X1536Y903D01*
X1538Y903D01*
X1538Y901D01*
X1542Y901D01*
X1542Y899D01*
X1544Y899D01*
X1544Y897D01*
X1546Y897D01*
X1546Y895D01*
X1548Y895D01*
X1548Y893D01*
X1550Y893D01*
X1550Y889D01*
X1552Y889D01*
X1552Y887D01*
X1554Y887D01*
X1554Y883D01*
X1556Y883D01*
X1556Y881D01*
X1558Y881D01*
X1558Y877D01*
X1560Y877D01*
X1560Y871D01*
X1562Y871D01*
X1562Y863D01*
X1564Y863D01*
X1564Y841D01*
X1562Y841D01*
X1562Y833D01*
X1560Y833D01*
X1560Y827D01*
X1558Y827D01*
X1558Y823D01*
X1556Y823D01*
X1556Y819D01*
X1554Y819D01*
X1554Y817D01*
X1552Y817D01*
X1552Y813D01*
X1550Y813D01*
X1550Y811D01*
X1548Y811D01*
X1548Y809D01*
X1546Y809D01*
X1546Y807D01*
X1840Y807D01*
X1840Y809D01*
X1834Y809D01*
X1834Y811D01*
X1832Y811D01*
X1832Y813D01*
X1828Y813D01*
X1828Y815D01*
X1824Y815D01*
X1824Y817D01*
X1822Y817D01*
X1822Y819D01*
X1820Y819D01*
X1820Y821D01*
X1818Y821D01*
X1818Y825D01*
X1816Y825D01*
X1816Y827D01*
X1814Y827D01*
X1814Y831D01*
X1812Y831D01*
X1812Y835D01*
X1810Y835D01*
X1810Y841D01*
X1808Y841D01*
X1808Y845D01*
X1806Y845D01*
X1806Y847D01*
X1804Y847D01*
X1804Y849D01*
X1802Y849D01*
X1802Y851D01*
X1800Y851D01*
X1800Y853D01*
X1798Y853D01*
X1798Y855D01*
X1796Y855D01*
X1796Y857D01*
X1794Y857D01*
X1794Y859D01*
X1792Y859D01*
X1792Y861D01*
X1790Y861D01*
X1790Y863D01*
X1788Y863D01*
X1788Y865D01*
X1786Y865D01*
X1786Y867D01*
X1784Y867D01*
X1784Y869D01*
X1782Y869D01*
X1782Y871D01*
X1780Y871D01*
X1780Y873D01*
X1778Y873D01*
X1778Y875D01*
X1776Y875D01*
X1776Y877D01*
X1774Y877D01*
X1774Y879D01*
X1772Y879D01*
X1772Y881D01*
X1770Y881D01*
X1770Y883D01*
X1768Y883D01*
X1768Y885D01*
X1766Y885D01*
X1766Y887D01*
X1764Y887D01*
X1764Y889D01*
X1762Y889D01*
X1762Y891D01*
X1760Y891D01*
X1760Y893D01*
X1758Y893D01*
X1758Y895D01*
X1756Y895D01*
X1756Y897D01*
X1754Y897D01*
X1754Y899D01*
X1752Y899D01*
X1752Y901D01*
X1750Y901D01*
X1750Y903D01*
X1748Y903D01*
X1748Y905D01*
X1746Y905D01*
X1746Y907D01*
X1744Y907D01*
X1744Y909D01*
X1742Y909D01*
X1742Y911D01*
X1740Y911D01*
X1740Y913D01*
X1738Y913D01*
X1738Y915D01*
X1736Y915D01*
X1736Y917D01*
X1734Y917D01*
X1734Y919D01*
X1732Y919D01*
X1732Y921D01*
X1730Y921D01*
X1730Y923D01*
X1728Y923D01*
X1728Y925D01*
X1726Y925D01*
X1726Y927D01*
X1724Y927D01*
X1724Y929D01*
X1722Y929D01*
X1722Y931D01*
X1720Y931D01*
X1720Y933D01*
X1718Y933D01*
X1718Y935D01*
X1716Y935D01*
X1716Y937D01*
X1714Y937D01*
X1714Y939D01*
X1712Y939D01*
X1712Y941D01*
X1710Y941D01*
X1710Y943D01*
X1708Y943D01*
X1708Y945D01*
X1706Y945D01*
X1706Y947D01*
X1704Y947D01*
X1704Y949D01*
X1702Y949D01*
X1702Y951D01*
X1700Y951D01*
X1700Y953D01*
X1698Y953D01*
X1698Y955D01*
X1696Y955D01*
X1696Y957D01*
X1694Y957D01*
X1694Y959D01*
X1692Y959D01*
X1692Y961D01*
X1690Y961D01*
X1690Y963D01*
X1688Y963D01*
X1688Y965D01*
X1376Y965D01*
G37*
D02*
G36*
X1362Y915D02*
X1362Y911D01*
X1386Y911D01*
X1386Y913D01*
X1398Y913D01*
X1398Y915D01*
X1362Y915D01*
G37*
D02*
G36*
X1406Y915D02*
X1406Y913D01*
X1418Y913D01*
X1418Y911D01*
X1424Y911D01*
X1424Y909D01*
X1428Y909D01*
X1428Y907D01*
X1432Y907D01*
X1432Y905D01*
X1436Y905D01*
X1436Y903D01*
X1438Y903D01*
X1438Y901D01*
X1442Y901D01*
X1442Y899D01*
X1462Y899D01*
X1462Y901D01*
X1464Y901D01*
X1464Y903D01*
X1468Y903D01*
X1468Y905D01*
X1470Y905D01*
X1470Y907D01*
X1474Y907D01*
X1474Y909D01*
X1480Y909D01*
X1480Y911D01*
X1486Y911D01*
X1486Y913D01*
X1498Y913D01*
X1498Y915D01*
X1406Y915D01*
G37*
D02*
G36*
X1894Y839D02*
X1894Y833D01*
X1892Y833D01*
X1892Y829D01*
X1890Y829D01*
X1890Y825D01*
X1888Y825D01*
X1888Y823D01*
X1886Y823D01*
X1886Y821D01*
X1884Y821D01*
X1884Y819D01*
X1882Y819D01*
X1882Y817D01*
X1880Y817D01*
X1880Y815D01*
X1878Y815D01*
X1878Y813D01*
X1874Y813D01*
X1874Y811D01*
X1870Y811D01*
X1870Y809D01*
X1864Y809D01*
X1864Y807D01*
X1914Y807D01*
X1914Y839D01*
X1894Y839D01*
G37*
D02*
G36*
X1546Y807D02*
X1546Y805D01*
X1914Y805D01*
X1914Y807D01*
X1546Y807D01*
G37*
D02*
G36*
X1546Y807D02*
X1546Y805D01*
X1914Y805D01*
X1914Y807D01*
X1546Y807D01*
G37*
D02*
G36*
X1546Y805D02*
X1546Y789D01*
X1810Y789D01*
X1810Y787D01*
X1816Y787D01*
X1816Y785D01*
X1820Y785D01*
X1820Y783D01*
X1822Y783D01*
X1822Y781D01*
X1826Y781D01*
X1826Y779D01*
X1828Y779D01*
X1828Y777D01*
X1830Y777D01*
X1830Y775D01*
X1832Y775D01*
X1832Y773D01*
X1834Y773D01*
X1834Y771D01*
X1836Y771D01*
X1836Y769D01*
X1838Y769D01*
X1838Y767D01*
X1840Y767D01*
X1840Y765D01*
X1842Y765D01*
X1842Y763D01*
X1844Y763D01*
X1844Y761D01*
X1846Y761D01*
X1846Y759D01*
X1848Y759D01*
X1848Y757D01*
X1850Y757D01*
X1850Y755D01*
X1852Y755D01*
X1852Y753D01*
X1854Y753D01*
X1854Y751D01*
X1856Y751D01*
X1856Y749D01*
X1858Y749D01*
X1858Y747D01*
X1860Y747D01*
X1860Y745D01*
X1862Y745D01*
X1862Y743D01*
X1864Y743D01*
X1864Y741D01*
X1866Y741D01*
X1866Y739D01*
X1868Y739D01*
X1868Y737D01*
X1870Y737D01*
X1870Y735D01*
X1872Y735D01*
X1872Y733D01*
X1874Y733D01*
X1874Y731D01*
X1876Y731D01*
X1876Y729D01*
X1878Y729D01*
X1878Y727D01*
X1880Y727D01*
X1880Y725D01*
X1882Y725D01*
X1882Y723D01*
X1884Y723D01*
X1884Y719D01*
X1886Y719D01*
X1886Y713D01*
X1888Y713D01*
X1888Y703D01*
X1890Y703D01*
X1890Y689D01*
X1888Y689D01*
X1888Y653D01*
X1908Y653D01*
X1908Y665D01*
X1910Y665D01*
X1910Y671D01*
X1912Y671D01*
X1912Y673D01*
X1914Y673D01*
X1914Y729D01*
X1916Y729D01*
X1916Y797D01*
X1914Y797D01*
X1914Y805D01*
X1546Y805D01*
G37*
D02*
G36*
X2544Y1963D02*
X2544Y1961D01*
X2542Y1961D01*
X2542Y1959D01*
X2540Y1959D01*
X2540Y1957D01*
X2538Y1957D01*
X2538Y1843D01*
X2536Y1843D01*
X2536Y1837D01*
X2534Y1837D01*
X2534Y1833D01*
X2532Y1833D01*
X2532Y1829D01*
X2530Y1829D01*
X2530Y1827D01*
X2528Y1827D01*
X2528Y1825D01*
X2526Y1825D01*
X2526Y1823D01*
X2524Y1823D01*
X2524Y1821D01*
X2520Y1821D01*
X2520Y1819D01*
X2518Y1819D01*
X2518Y1687D01*
X2388Y1687D01*
X2388Y1395D01*
X2386Y1395D01*
X2386Y1387D01*
X2384Y1387D01*
X2384Y1383D01*
X2382Y1383D01*
X2382Y1381D01*
X2380Y1381D01*
X2380Y1377D01*
X2378Y1377D01*
X2378Y1375D01*
X2376Y1375D01*
X2376Y1373D01*
X2372Y1373D01*
X2372Y1371D01*
X2370Y1371D01*
X2370Y1369D01*
X2366Y1369D01*
X2366Y1367D01*
X2362Y1367D01*
X2362Y1365D01*
X2358Y1365D01*
X2358Y1363D01*
X2354Y1363D01*
X2354Y1361D01*
X2350Y1361D01*
X2350Y1359D01*
X2346Y1359D01*
X2346Y1357D01*
X2342Y1357D01*
X2342Y1355D01*
X2338Y1355D01*
X2338Y1353D01*
X2334Y1353D01*
X2334Y1351D01*
X2330Y1351D01*
X2330Y1349D01*
X2326Y1349D01*
X2326Y1347D01*
X2322Y1347D01*
X2322Y1345D01*
X2316Y1345D01*
X2316Y1343D01*
X2312Y1343D01*
X2312Y1341D01*
X2308Y1341D01*
X2308Y1339D01*
X2304Y1339D01*
X2304Y1337D01*
X2300Y1337D01*
X2300Y1335D01*
X2296Y1335D01*
X2296Y1333D01*
X2292Y1333D01*
X2292Y1331D01*
X2288Y1331D01*
X2288Y1329D01*
X2284Y1329D01*
X2284Y1327D01*
X2280Y1327D01*
X2280Y1325D01*
X2276Y1325D01*
X2276Y1323D01*
X2272Y1323D01*
X2272Y1321D01*
X2268Y1321D01*
X2268Y1319D01*
X2262Y1319D01*
X2262Y1317D01*
X2254Y1317D01*
X2254Y1315D01*
X2056Y1315D01*
X2056Y1295D01*
X2066Y1295D01*
X2066Y1293D01*
X2070Y1293D01*
X2070Y1291D01*
X2074Y1291D01*
X2074Y1289D01*
X2554Y1289D01*
X2554Y1287D01*
X2564Y1287D01*
X2564Y1285D01*
X2568Y1285D01*
X2568Y1283D01*
X2572Y1283D01*
X2572Y1281D01*
X2576Y1281D01*
X2576Y1279D01*
X2578Y1279D01*
X2578Y1277D01*
X2580Y1277D01*
X2580Y1275D01*
X2582Y1275D01*
X2582Y1271D01*
X2584Y1271D01*
X2584Y1267D01*
X2586Y1267D01*
X2586Y1263D01*
X2588Y1263D01*
X2588Y1251D01*
X2590Y1251D01*
X2590Y1191D01*
X2588Y1191D01*
X2588Y875D01*
X2590Y875D01*
X2590Y873D01*
X2592Y873D01*
X2592Y869D01*
X2594Y869D01*
X2594Y861D01*
X2596Y861D01*
X2596Y841D01*
X2594Y841D01*
X2594Y835D01*
X2592Y835D01*
X2592Y831D01*
X2590Y831D01*
X2590Y827D01*
X2588Y827D01*
X2588Y825D01*
X2586Y825D01*
X2586Y823D01*
X2584Y823D01*
X2584Y821D01*
X2582Y821D01*
X2582Y819D01*
X2580Y819D01*
X2580Y817D01*
X2578Y817D01*
X2578Y815D01*
X2576Y815D01*
X2576Y813D01*
X2572Y813D01*
X2572Y811D01*
X2568Y811D01*
X2568Y809D01*
X2560Y809D01*
X2560Y807D01*
X2664Y807D01*
X2664Y1453D01*
X2662Y1453D01*
X2662Y1455D01*
X2660Y1455D01*
X2660Y1457D01*
X2658Y1457D01*
X2658Y1459D01*
X2656Y1459D01*
X2656Y1461D01*
X2654Y1461D01*
X2654Y1463D01*
X2652Y1463D01*
X2652Y1465D01*
X2650Y1465D01*
X2650Y1467D01*
X2648Y1467D01*
X2648Y1469D01*
X2646Y1469D01*
X2646Y1471D01*
X2644Y1471D01*
X2644Y1473D01*
X2642Y1473D01*
X2642Y1475D01*
X2640Y1475D01*
X2640Y1477D01*
X2638Y1477D01*
X2638Y1479D01*
X2636Y1479D01*
X2636Y1481D01*
X2634Y1481D01*
X2634Y1483D01*
X2632Y1483D01*
X2632Y1485D01*
X2630Y1485D01*
X2630Y1487D01*
X2628Y1487D01*
X2628Y1489D01*
X2626Y1489D01*
X2626Y1491D01*
X2624Y1491D01*
X2624Y1493D01*
X2622Y1493D01*
X2622Y1495D01*
X2620Y1495D01*
X2620Y1497D01*
X2618Y1497D01*
X2618Y1499D01*
X2616Y1499D01*
X2616Y1501D01*
X2614Y1501D01*
X2614Y1503D01*
X2612Y1503D01*
X2612Y1505D01*
X2610Y1505D01*
X2610Y1507D01*
X2608Y1507D01*
X2608Y1509D01*
X2606Y1509D01*
X2606Y1511D01*
X2604Y1511D01*
X2604Y1513D01*
X2602Y1513D01*
X2602Y1515D01*
X2600Y1515D01*
X2600Y1517D01*
X2598Y1517D01*
X2598Y1519D01*
X2596Y1519D01*
X2596Y1521D01*
X2594Y1521D01*
X2594Y1523D01*
X2592Y1523D01*
X2592Y1525D01*
X2590Y1525D01*
X2590Y1527D01*
X2588Y1527D01*
X2588Y1529D01*
X2586Y1529D01*
X2586Y1531D01*
X2584Y1531D01*
X2584Y1533D01*
X2582Y1533D01*
X2582Y1535D01*
X2580Y1535D01*
X2580Y1537D01*
X2578Y1537D01*
X2578Y1539D01*
X2576Y1539D01*
X2576Y1541D01*
X2574Y1541D01*
X2574Y1543D01*
X2572Y1543D01*
X2572Y1545D01*
X2570Y1545D01*
X2570Y1547D01*
X2568Y1547D01*
X2568Y1549D01*
X2566Y1549D01*
X2566Y1551D01*
X2564Y1551D01*
X2564Y1963D01*
X2544Y1963D01*
G37*
D02*
G36*
X2078Y1289D02*
X2078Y1287D01*
X2080Y1287D01*
X2080Y1285D01*
X2082Y1285D01*
X2082Y1283D01*
X2084Y1283D01*
X2084Y1281D01*
X2086Y1281D01*
X2086Y1279D01*
X2088Y1279D01*
X2088Y1275D01*
X2090Y1275D01*
X2090Y1273D01*
X2092Y1273D01*
X2092Y1269D01*
X2094Y1269D01*
X2094Y1261D01*
X2096Y1261D01*
X2096Y1247D01*
X2106Y1247D01*
X2106Y1245D01*
X2116Y1245D01*
X2116Y1243D01*
X2120Y1243D01*
X2120Y1241D01*
X2124Y1241D01*
X2124Y1239D01*
X2206Y1239D01*
X2206Y1241D01*
X2216Y1241D01*
X2216Y1243D01*
X2226Y1243D01*
X2226Y1245D01*
X2236Y1245D01*
X2236Y1247D01*
X2246Y1247D01*
X2246Y1249D01*
X2256Y1249D01*
X2256Y1251D01*
X2266Y1251D01*
X2266Y1253D01*
X2276Y1253D01*
X2276Y1255D01*
X2286Y1255D01*
X2286Y1257D01*
X2296Y1257D01*
X2296Y1259D01*
X2306Y1259D01*
X2306Y1261D01*
X2316Y1261D01*
X2316Y1263D01*
X2326Y1263D01*
X2326Y1265D01*
X2336Y1265D01*
X2336Y1267D01*
X2346Y1267D01*
X2346Y1269D01*
X2356Y1269D01*
X2356Y1271D01*
X2366Y1271D01*
X2366Y1273D01*
X2376Y1273D01*
X2376Y1275D01*
X2386Y1275D01*
X2386Y1277D01*
X2396Y1277D01*
X2396Y1279D01*
X2408Y1279D01*
X2408Y1281D01*
X2418Y1281D01*
X2418Y1283D01*
X2428Y1283D01*
X2428Y1285D01*
X2438Y1285D01*
X2438Y1287D01*
X2450Y1287D01*
X2450Y1289D01*
X2078Y1289D01*
G37*
D02*
G36*
X2038Y1201D02*
X2038Y1157D01*
X2094Y1157D01*
X2094Y1159D01*
X2086Y1159D01*
X2086Y1161D01*
X2082Y1161D01*
X2082Y1163D01*
X2078Y1163D01*
X2078Y1165D01*
X2076Y1165D01*
X2076Y1167D01*
X2072Y1167D01*
X2072Y1169D01*
X2070Y1169D01*
X2070Y1171D01*
X2068Y1171D01*
X2068Y1173D01*
X2066Y1173D01*
X2066Y1177D01*
X2064Y1177D01*
X2064Y1179D01*
X2062Y1179D01*
X2062Y1183D01*
X2060Y1183D01*
X2060Y1189D01*
X2058Y1189D01*
X2058Y1201D01*
X2038Y1201D01*
G37*
D02*
G36*
X2126Y1165D02*
X2126Y1163D01*
X2122Y1163D01*
X2122Y1161D01*
X2118Y1161D01*
X2118Y1159D01*
X2110Y1159D01*
X2110Y1157D01*
X2206Y1157D01*
X2206Y1165D01*
X2126Y1165D01*
G37*
D02*
G36*
X2038Y1157D02*
X2038Y1155D01*
X2206Y1155D01*
X2206Y1157D01*
X2038Y1157D01*
G37*
D02*
G36*
X2038Y1157D02*
X2038Y1155D01*
X2206Y1155D01*
X2206Y1157D01*
X2038Y1157D01*
G37*
D02*
G36*
X2038Y1155D02*
X2038Y1123D01*
X2040Y1123D01*
X2040Y807D01*
X2144Y807D01*
X2144Y809D01*
X2136Y809D01*
X2136Y811D01*
X2132Y811D01*
X2132Y813D01*
X2128Y813D01*
X2128Y815D01*
X2126Y815D01*
X2126Y817D01*
X2122Y817D01*
X2122Y819D01*
X2120Y819D01*
X2120Y821D01*
X2118Y821D01*
X2118Y823D01*
X2116Y823D01*
X2116Y827D01*
X2114Y827D01*
X2114Y829D01*
X2112Y829D01*
X2112Y833D01*
X2110Y833D01*
X2110Y839D01*
X2108Y839D01*
X2108Y851D01*
X2106Y851D01*
X2106Y853D01*
X2108Y853D01*
X2108Y865D01*
X2110Y865D01*
X2110Y871D01*
X2112Y871D01*
X2112Y873D01*
X2114Y873D01*
X2114Y877D01*
X2116Y877D01*
X2116Y879D01*
X2118Y879D01*
X2118Y883D01*
X2120Y883D01*
X2120Y885D01*
X2124Y885D01*
X2124Y887D01*
X2126Y887D01*
X2126Y889D01*
X2130Y889D01*
X2130Y891D01*
X2132Y891D01*
X2132Y893D01*
X2138Y893D01*
X2138Y895D01*
X2146Y895D01*
X2146Y897D01*
X2162Y897D01*
X2162Y899D01*
X2164Y899D01*
X2164Y901D01*
X2168Y901D01*
X2168Y903D01*
X2172Y903D01*
X2172Y905D01*
X2176Y905D01*
X2176Y907D01*
X2180Y907D01*
X2180Y909D01*
X2184Y909D01*
X2184Y911D01*
X2188Y911D01*
X2188Y913D01*
X2192Y913D01*
X2192Y915D01*
X2196Y915D01*
X2196Y917D01*
X2200Y917D01*
X2200Y919D01*
X2204Y919D01*
X2204Y921D01*
X2208Y921D01*
X2208Y923D01*
X2212Y923D01*
X2212Y925D01*
X2216Y925D01*
X2216Y959D01*
X2214Y959D01*
X2214Y1129D01*
X2212Y1129D01*
X2212Y1133D01*
X2210Y1133D01*
X2210Y1139D01*
X2208Y1139D01*
X2208Y1151D01*
X2206Y1151D01*
X2206Y1155D01*
X2038Y1155D01*
G37*
D02*
G36*
X2272Y873D02*
X2272Y871D01*
X2270Y871D01*
X2270Y869D01*
X2266Y869D01*
X2266Y867D01*
X2262Y867D01*
X2262Y865D01*
X2258Y865D01*
X2258Y863D01*
X2254Y863D01*
X2254Y861D01*
X2250Y861D01*
X2250Y859D01*
X2246Y859D01*
X2246Y857D01*
X2242Y857D01*
X2242Y855D01*
X2238Y855D01*
X2238Y853D01*
X2234Y853D01*
X2234Y851D01*
X2230Y851D01*
X2230Y849D01*
X2226Y849D01*
X2226Y847D01*
X2222Y847D01*
X2222Y845D01*
X2218Y845D01*
X2218Y843D01*
X2214Y843D01*
X2214Y841D01*
X2210Y841D01*
X2210Y839D01*
X2206Y839D01*
X2206Y837D01*
X2202Y837D01*
X2202Y835D01*
X2198Y835D01*
X2198Y833D01*
X2194Y833D01*
X2194Y831D01*
X2190Y831D01*
X2190Y827D01*
X2188Y827D01*
X2188Y825D01*
X2186Y825D01*
X2186Y823D01*
X2184Y823D01*
X2184Y821D01*
X2182Y821D01*
X2182Y819D01*
X2180Y819D01*
X2180Y817D01*
X2178Y817D01*
X2178Y815D01*
X2176Y815D01*
X2176Y813D01*
X2172Y813D01*
X2172Y811D01*
X2168Y811D01*
X2168Y809D01*
X2160Y809D01*
X2160Y807D01*
X2308Y807D01*
X2308Y809D01*
X2306Y809D01*
X2306Y811D01*
X2304Y811D01*
X2304Y813D01*
X2302Y813D01*
X2302Y815D01*
X2300Y815D01*
X2300Y819D01*
X2298Y819D01*
X2298Y821D01*
X2296Y821D01*
X2296Y825D01*
X2294Y825D01*
X2294Y831D01*
X2292Y831D01*
X2292Y837D01*
X2290Y837D01*
X2290Y867D01*
X2292Y867D01*
X2292Y873D01*
X2272Y873D01*
G37*
D02*
G36*
X2502Y815D02*
X2502Y813D01*
X2500Y813D01*
X2500Y811D01*
X2498Y811D01*
X2498Y809D01*
X2496Y809D01*
X2496Y807D01*
X2544Y807D01*
X2544Y809D01*
X2536Y809D01*
X2536Y811D01*
X2532Y811D01*
X2532Y813D01*
X2528Y813D01*
X2528Y815D01*
X2502Y815D01*
G37*
D02*
G36*
X2040Y807D02*
X2040Y805D01*
X2310Y805D01*
X2310Y807D01*
X2040Y807D01*
G37*
D02*
G36*
X2040Y807D02*
X2040Y805D01*
X2310Y805D01*
X2310Y807D01*
X2040Y807D01*
G37*
D02*
G36*
X2494Y807D02*
X2494Y805D01*
X2664Y805D01*
X2664Y807D01*
X2494Y807D01*
G37*
D02*
G36*
X2494Y807D02*
X2494Y805D01*
X2664Y805D01*
X2664Y807D01*
X2494Y807D01*
G37*
D02*
G36*
X2040Y805D02*
X2040Y789D01*
X2342Y789D01*
X2342Y791D01*
X2334Y791D01*
X2334Y793D01*
X2328Y793D01*
X2328Y795D01*
X2324Y795D01*
X2324Y797D01*
X2320Y797D01*
X2320Y799D01*
X2316Y799D01*
X2316Y801D01*
X2314Y801D01*
X2314Y803D01*
X2312Y803D01*
X2312Y805D01*
X2040Y805D01*
G37*
D02*
G36*
X2392Y805D02*
X2392Y803D01*
X2390Y803D01*
X2390Y801D01*
X2386Y801D01*
X2386Y799D01*
X2384Y799D01*
X2384Y797D01*
X2380Y797D01*
X2380Y795D01*
X2376Y795D01*
X2376Y793D01*
X2370Y793D01*
X2370Y791D01*
X2360Y791D01*
X2360Y789D01*
X2442Y789D01*
X2442Y791D01*
X2434Y791D01*
X2434Y793D01*
X2428Y793D01*
X2428Y795D01*
X2424Y795D01*
X2424Y797D01*
X2420Y797D01*
X2420Y799D01*
X2416Y799D01*
X2416Y801D01*
X2414Y801D01*
X2414Y803D01*
X2412Y803D01*
X2412Y805D01*
X2392Y805D01*
G37*
D02*
G36*
X2492Y805D02*
X2492Y803D01*
X2490Y803D01*
X2490Y801D01*
X2486Y801D01*
X2486Y799D01*
X2484Y799D01*
X2484Y797D01*
X2480Y797D01*
X2480Y795D01*
X2476Y795D01*
X2476Y793D01*
X2470Y793D01*
X2470Y791D01*
X2460Y791D01*
X2460Y789D01*
X2664Y789D01*
X2664Y805D01*
X2492Y805D01*
G37*
D02*
G36*
X2040Y789D02*
X2040Y787D01*
X2664Y787D01*
X2664Y789D01*
X2040Y789D01*
G37*
D02*
G36*
X2040Y789D02*
X2040Y787D01*
X2664Y787D01*
X2664Y789D01*
X2040Y789D01*
G37*
D02*
G36*
X2040Y789D02*
X2040Y787D01*
X2664Y787D01*
X2664Y789D01*
X2040Y789D01*
G37*
D02*
G36*
X2040Y787D02*
X2040Y757D01*
X2560Y757D01*
X2560Y755D01*
X2568Y755D01*
X2568Y753D01*
X2574Y753D01*
X2574Y751D01*
X2578Y751D01*
X2578Y749D01*
X2582Y749D01*
X2582Y747D01*
X2584Y747D01*
X2584Y745D01*
X2586Y745D01*
X2586Y743D01*
X2590Y743D01*
X2590Y741D01*
X2592Y741D01*
X2592Y739D01*
X2594Y739D01*
X2594Y735D01*
X2596Y735D01*
X2596Y733D01*
X2598Y733D01*
X2598Y731D01*
X2600Y731D01*
X2600Y727D01*
X2602Y727D01*
X2602Y723D01*
X2604Y723D01*
X2604Y719D01*
X2606Y719D01*
X2606Y711D01*
X2608Y711D01*
X2608Y689D01*
X2606Y689D01*
X2606Y681D01*
X2604Y681D01*
X2604Y659D01*
X2608Y659D01*
X2608Y545D01*
X2664Y545D01*
X2664Y787D01*
X2040Y787D01*
G37*
D02*
G36*
X2040Y757D02*
X2040Y647D01*
X2312Y647D01*
X2312Y645D01*
X2320Y645D01*
X2320Y643D01*
X2324Y643D01*
X2324Y641D01*
X2326Y641D01*
X2326Y639D01*
X2330Y639D01*
X2330Y637D01*
X2332Y637D01*
X2332Y635D01*
X2334Y635D01*
X2334Y633D01*
X2336Y633D01*
X2336Y631D01*
X2338Y631D01*
X2338Y629D01*
X2340Y629D01*
X2340Y625D01*
X2342Y625D01*
X2342Y621D01*
X2344Y621D01*
X2344Y615D01*
X2346Y615D01*
X2346Y605D01*
X2348Y605D01*
X2348Y599D01*
X2346Y599D01*
X2346Y589D01*
X2344Y589D01*
X2344Y585D01*
X2342Y585D01*
X2342Y581D01*
X2340Y581D01*
X2340Y577D01*
X2338Y577D01*
X2338Y575D01*
X2336Y575D01*
X2336Y573D01*
X2334Y573D01*
X2334Y571D01*
X2332Y571D01*
X2332Y569D01*
X2330Y569D01*
X2330Y567D01*
X2328Y567D01*
X2328Y565D01*
X2324Y565D01*
X2324Y563D01*
X2320Y563D01*
X2320Y561D01*
X2314Y561D01*
X2314Y559D01*
X2496Y559D01*
X2496Y659D01*
X2500Y659D01*
X2500Y679D01*
X2498Y679D01*
X2498Y687D01*
X2496Y687D01*
X2496Y715D01*
X2498Y715D01*
X2498Y721D01*
X2500Y721D01*
X2500Y725D01*
X2502Y725D01*
X2502Y729D01*
X2504Y729D01*
X2504Y731D01*
X2506Y731D01*
X2506Y735D01*
X2508Y735D01*
X2508Y737D01*
X2510Y737D01*
X2510Y739D01*
X2512Y739D01*
X2512Y741D01*
X2514Y741D01*
X2514Y743D01*
X2516Y743D01*
X2516Y745D01*
X2520Y745D01*
X2520Y747D01*
X2522Y747D01*
X2522Y749D01*
X2526Y749D01*
X2526Y751D01*
X2530Y751D01*
X2530Y753D01*
X2534Y753D01*
X2534Y755D01*
X2544Y755D01*
X2544Y757D01*
X2040Y757D01*
G37*
D02*
G36*
X2040Y647D02*
X2040Y597D01*
X2038Y597D01*
X2038Y589D01*
X2036Y589D01*
X2036Y585D01*
X2034Y585D01*
X2034Y581D01*
X2032Y581D01*
X2032Y579D01*
X2030Y579D01*
X2030Y575D01*
X2028Y575D01*
X2028Y573D01*
X2026Y573D01*
X2026Y571D01*
X2024Y571D01*
X2024Y569D01*
X2020Y569D01*
X2020Y567D01*
X2018Y567D01*
X2018Y565D01*
X2016Y565D01*
X2016Y559D01*
X2290Y559D01*
X2290Y561D01*
X2284Y561D01*
X2284Y563D01*
X2280Y563D01*
X2280Y565D01*
X2278Y565D01*
X2278Y567D01*
X2274Y567D01*
X2274Y569D01*
X2272Y569D01*
X2272Y571D01*
X2270Y571D01*
X2270Y573D01*
X2268Y573D01*
X2268Y577D01*
X2266Y577D01*
X2266Y579D01*
X2264Y579D01*
X2264Y583D01*
X2262Y583D01*
X2262Y587D01*
X2260Y587D01*
X2260Y593D01*
X2258Y593D01*
X2258Y613D01*
X2260Y613D01*
X2260Y619D01*
X2262Y619D01*
X2262Y623D01*
X2264Y623D01*
X2264Y627D01*
X2266Y627D01*
X2266Y629D01*
X2268Y629D01*
X2268Y631D01*
X2270Y631D01*
X2270Y635D01*
X2272Y635D01*
X2272Y637D01*
X2276Y637D01*
X2276Y639D01*
X2278Y639D01*
X2278Y641D01*
X2282Y641D01*
X2282Y643D01*
X2286Y643D01*
X2286Y645D01*
X2292Y645D01*
X2292Y647D01*
X2040Y647D01*
G37*
D02*
G36*
X2016Y559D02*
X2016Y557D01*
X2496Y557D01*
X2496Y559D01*
X2016Y559D01*
G37*
D02*
G36*
X2016Y559D02*
X2016Y557D01*
X2496Y557D01*
X2496Y559D01*
X2016Y559D01*
G37*
D02*
G36*
X2016Y557D02*
X2016Y545D01*
X2496Y545D01*
X2496Y557D01*
X2016Y557D01*
G37*
D02*
G36*
X2016Y545D02*
X2016Y543D01*
X2664Y543D01*
X2664Y545D01*
X2016Y545D01*
G37*
D02*
G36*
X2016Y545D02*
X2016Y543D01*
X2664Y543D01*
X2664Y545D01*
X2016Y545D01*
G37*
D02*
G36*
X2020Y543D02*
X2020Y541D01*
X2024Y541D01*
X2024Y539D01*
X2028Y539D01*
X2028Y537D01*
X2030Y537D01*
X2030Y535D01*
X2032Y535D01*
X2032Y533D01*
X2034Y533D01*
X2034Y531D01*
X2036Y531D01*
X2036Y529D01*
X2038Y529D01*
X2038Y525D01*
X2040Y525D01*
X2040Y523D01*
X2042Y523D01*
X2042Y519D01*
X2044Y519D01*
X2044Y511D01*
X2046Y511D01*
X2046Y509D01*
X2560Y509D01*
X2560Y507D01*
X2568Y507D01*
X2568Y505D01*
X2574Y505D01*
X2574Y503D01*
X2578Y503D01*
X2578Y501D01*
X2582Y501D01*
X2582Y499D01*
X2584Y499D01*
X2584Y497D01*
X2588Y497D01*
X2588Y495D01*
X2590Y495D01*
X2590Y493D01*
X2592Y493D01*
X2592Y491D01*
X2594Y491D01*
X2594Y489D01*
X2596Y489D01*
X2596Y485D01*
X2598Y485D01*
X2598Y483D01*
X2600Y483D01*
X2600Y479D01*
X2602Y479D01*
X2602Y477D01*
X2604Y477D01*
X2604Y471D01*
X2606Y471D01*
X2606Y465D01*
X2608Y465D01*
X2608Y439D01*
X2606Y439D01*
X2606Y433D01*
X2604Y433D01*
X2604Y411D01*
X2608Y411D01*
X2608Y297D01*
X2664Y297D01*
X2664Y543D01*
X2020Y543D01*
G37*
D02*
G36*
X1894Y529D02*
X1894Y511D01*
X1896Y511D01*
X1896Y497D01*
X1906Y497D01*
X1906Y495D01*
X1916Y495D01*
X1916Y493D01*
X1920Y493D01*
X1920Y491D01*
X1924Y491D01*
X1924Y489D01*
X1928Y489D01*
X1928Y487D01*
X1930Y487D01*
X1930Y485D01*
X1932Y485D01*
X1932Y483D01*
X1934Y483D01*
X1934Y481D01*
X1936Y481D01*
X1936Y479D01*
X1938Y479D01*
X1938Y475D01*
X1940Y475D01*
X1940Y473D01*
X1942Y473D01*
X1942Y469D01*
X1944Y469D01*
X1944Y461D01*
X1946Y461D01*
X1946Y457D01*
X1994Y457D01*
X1994Y459D01*
X1986Y459D01*
X1986Y461D01*
X1982Y461D01*
X1982Y463D01*
X1978Y463D01*
X1978Y465D01*
X1976Y465D01*
X1976Y467D01*
X1972Y467D01*
X1972Y469D01*
X1970Y469D01*
X1970Y471D01*
X1968Y471D01*
X1968Y473D01*
X1966Y473D01*
X1966Y477D01*
X1964Y477D01*
X1964Y479D01*
X1962Y479D01*
X1962Y483D01*
X1960Y483D01*
X1960Y489D01*
X1958Y489D01*
X1958Y501D01*
X1956Y501D01*
X1956Y507D01*
X1944Y507D01*
X1944Y509D01*
X1936Y509D01*
X1936Y511D01*
X1932Y511D01*
X1932Y513D01*
X1928Y513D01*
X1928Y515D01*
X1926Y515D01*
X1926Y517D01*
X1922Y517D01*
X1922Y519D01*
X1920Y519D01*
X1920Y521D01*
X1918Y521D01*
X1918Y523D01*
X1916Y523D01*
X1916Y527D01*
X1914Y527D01*
X1914Y529D01*
X1894Y529D01*
G37*
D02*
G36*
X2046Y509D02*
X2046Y491D01*
X2044Y491D01*
X2044Y485D01*
X2042Y485D01*
X2042Y481D01*
X2040Y481D01*
X2040Y477D01*
X2038Y477D01*
X2038Y475D01*
X2036Y475D01*
X2036Y473D01*
X2034Y473D01*
X2034Y471D01*
X2032Y471D01*
X2032Y469D01*
X2030Y469D01*
X2030Y467D01*
X2028Y467D01*
X2028Y465D01*
X2026Y465D01*
X2026Y463D01*
X2022Y463D01*
X2022Y461D01*
X2018Y461D01*
X2018Y459D01*
X2010Y459D01*
X2010Y457D01*
X2496Y457D01*
X2496Y465D01*
X2498Y465D01*
X2498Y471D01*
X2500Y471D01*
X2500Y475D01*
X2502Y475D01*
X2502Y479D01*
X2504Y479D01*
X2504Y483D01*
X2506Y483D01*
X2506Y485D01*
X2508Y485D01*
X2508Y489D01*
X2510Y489D01*
X2510Y491D01*
X2512Y491D01*
X2512Y493D01*
X2514Y493D01*
X2514Y495D01*
X2518Y495D01*
X2518Y497D01*
X2520Y497D01*
X2520Y499D01*
X2522Y499D01*
X2522Y501D01*
X2526Y501D01*
X2526Y503D01*
X2530Y503D01*
X2530Y505D01*
X2536Y505D01*
X2536Y507D01*
X2544Y507D01*
X2544Y509D01*
X2046Y509D01*
G37*
D02*
G36*
X1746Y465D02*
X1746Y441D01*
X1744Y441D01*
X1744Y435D01*
X1742Y435D01*
X1742Y431D01*
X1740Y431D01*
X1740Y427D01*
X1738Y427D01*
X1738Y425D01*
X1736Y425D01*
X1736Y423D01*
X1734Y423D01*
X1734Y421D01*
X1732Y421D01*
X1732Y419D01*
X1730Y419D01*
X1730Y417D01*
X1728Y417D01*
X1728Y415D01*
X1726Y415D01*
X1726Y413D01*
X1722Y413D01*
X1722Y411D01*
X1718Y411D01*
X1718Y409D01*
X1710Y409D01*
X1710Y407D01*
X1894Y407D01*
X1894Y409D01*
X1886Y409D01*
X1886Y411D01*
X1882Y411D01*
X1882Y413D01*
X1878Y413D01*
X1878Y415D01*
X1876Y415D01*
X1876Y417D01*
X1872Y417D01*
X1872Y419D01*
X1870Y419D01*
X1870Y421D01*
X1868Y421D01*
X1868Y423D01*
X1866Y423D01*
X1866Y427D01*
X1864Y427D01*
X1864Y429D01*
X1862Y429D01*
X1862Y433D01*
X1860Y433D01*
X1860Y439D01*
X1858Y439D01*
X1858Y451D01*
X1856Y451D01*
X1856Y457D01*
X1844Y457D01*
X1844Y459D01*
X1836Y459D01*
X1836Y461D01*
X1832Y461D01*
X1832Y463D01*
X1828Y463D01*
X1828Y465D01*
X1746Y465D01*
G37*
D02*
G36*
X1946Y457D02*
X1946Y455D01*
X2496Y455D01*
X2496Y457D01*
X1946Y457D01*
G37*
D02*
G36*
X1946Y457D02*
X1946Y455D01*
X2496Y455D01*
X2496Y457D01*
X1946Y457D01*
G37*
D02*
G36*
X1946Y455D02*
X1946Y441D01*
X1944Y441D01*
X1944Y435D01*
X1942Y435D01*
X1942Y431D01*
X1940Y431D01*
X1940Y427D01*
X1938Y427D01*
X1938Y425D01*
X1936Y425D01*
X1936Y423D01*
X1934Y423D01*
X1934Y421D01*
X1932Y421D01*
X1932Y419D01*
X1930Y419D01*
X1930Y417D01*
X1928Y417D01*
X1928Y415D01*
X1926Y415D01*
X1926Y413D01*
X1922Y413D01*
X1922Y411D01*
X1918Y411D01*
X1918Y409D01*
X1910Y409D01*
X1910Y407D01*
X2496Y407D01*
X2496Y411D01*
X2500Y411D01*
X2500Y433D01*
X2498Y433D01*
X2498Y439D01*
X2496Y439D01*
X2496Y455D01*
X1946Y455D01*
G37*
D02*
G36*
X1684Y407D02*
X1684Y405D01*
X2496Y405D01*
X2496Y407D01*
X1684Y407D01*
G37*
D02*
G36*
X1684Y407D02*
X1684Y405D01*
X2496Y405D01*
X2496Y407D01*
X1684Y407D01*
G37*
D02*
G36*
X1684Y405D02*
X1684Y347D01*
X2006Y347D01*
X2006Y345D01*
X2016Y345D01*
X2016Y343D01*
X2020Y343D01*
X2020Y341D01*
X2024Y341D01*
X2024Y339D01*
X2028Y339D01*
X2028Y337D01*
X2030Y337D01*
X2030Y335D01*
X2032Y335D01*
X2032Y333D01*
X2034Y333D01*
X2034Y331D01*
X2036Y331D01*
X2036Y329D01*
X2038Y329D01*
X2038Y325D01*
X2040Y325D01*
X2040Y323D01*
X2042Y323D01*
X2042Y319D01*
X2044Y319D01*
X2044Y311D01*
X2046Y311D01*
X2046Y297D01*
X2496Y297D01*
X2496Y405D01*
X1684Y405D01*
G37*
D02*
G36*
X1706Y347D02*
X1706Y345D01*
X1716Y345D01*
X1716Y343D01*
X1720Y343D01*
X1720Y341D01*
X1724Y341D01*
X1724Y339D01*
X1728Y339D01*
X1728Y337D01*
X1730Y337D01*
X1730Y335D01*
X1732Y335D01*
X1732Y333D01*
X1734Y333D01*
X1734Y331D01*
X1736Y331D01*
X1736Y329D01*
X1738Y329D01*
X1738Y325D01*
X1740Y325D01*
X1740Y323D01*
X1742Y323D01*
X1742Y319D01*
X1744Y319D01*
X1744Y311D01*
X1746Y311D01*
X1746Y291D01*
X1744Y291D01*
X1744Y285D01*
X1742Y285D01*
X1742Y281D01*
X1740Y281D01*
X1740Y277D01*
X1738Y277D01*
X1738Y275D01*
X1736Y275D01*
X1736Y273D01*
X1734Y273D01*
X1734Y271D01*
X1732Y271D01*
X1732Y269D01*
X1730Y269D01*
X1730Y267D01*
X1728Y267D01*
X1728Y265D01*
X1726Y265D01*
X1726Y263D01*
X1722Y263D01*
X1722Y261D01*
X1718Y261D01*
X1718Y259D01*
X1710Y259D01*
X1710Y257D01*
X1894Y257D01*
X1894Y259D01*
X1886Y259D01*
X1886Y261D01*
X1882Y261D01*
X1882Y263D01*
X1878Y263D01*
X1878Y265D01*
X1876Y265D01*
X1876Y267D01*
X1872Y267D01*
X1872Y269D01*
X1870Y269D01*
X1870Y271D01*
X1868Y271D01*
X1868Y273D01*
X1866Y273D01*
X1866Y277D01*
X1864Y277D01*
X1864Y279D01*
X1862Y279D01*
X1862Y283D01*
X1860Y283D01*
X1860Y289D01*
X1858Y289D01*
X1858Y301D01*
X1856Y301D01*
X1856Y303D01*
X1858Y303D01*
X1858Y315D01*
X1860Y315D01*
X1860Y321D01*
X1862Y321D01*
X1862Y323D01*
X1864Y323D01*
X1864Y327D01*
X1866Y327D01*
X1866Y329D01*
X1868Y329D01*
X1868Y333D01*
X1870Y333D01*
X1870Y335D01*
X1874Y335D01*
X1874Y337D01*
X1876Y337D01*
X1876Y339D01*
X1880Y339D01*
X1880Y341D01*
X1882Y341D01*
X1882Y343D01*
X1888Y343D01*
X1888Y345D01*
X1896Y345D01*
X1896Y347D01*
X1706Y347D01*
G37*
D02*
G36*
X1906Y347D02*
X1906Y345D01*
X1916Y345D01*
X1916Y343D01*
X1920Y343D01*
X1920Y341D01*
X1924Y341D01*
X1924Y339D01*
X1928Y339D01*
X1928Y337D01*
X1930Y337D01*
X1930Y335D01*
X1932Y335D01*
X1932Y333D01*
X1934Y333D01*
X1934Y331D01*
X1936Y331D01*
X1936Y329D01*
X1938Y329D01*
X1938Y325D01*
X1940Y325D01*
X1940Y323D01*
X1942Y323D01*
X1942Y321D01*
X1962Y321D01*
X1962Y323D01*
X1964Y323D01*
X1964Y327D01*
X1966Y327D01*
X1966Y329D01*
X1968Y329D01*
X1968Y333D01*
X1970Y333D01*
X1970Y335D01*
X1974Y335D01*
X1974Y337D01*
X1976Y337D01*
X1976Y339D01*
X1980Y339D01*
X1980Y341D01*
X1982Y341D01*
X1982Y343D01*
X1988Y343D01*
X1988Y345D01*
X1996Y345D01*
X1996Y347D01*
X1906Y347D01*
G37*
D02*
G36*
X2046Y297D02*
X2046Y295D01*
X2664Y295D01*
X2664Y297D01*
X2046Y297D01*
G37*
D02*
G36*
X2046Y297D02*
X2046Y295D01*
X2664Y295D01*
X2664Y297D01*
X2046Y297D01*
G37*
D02*
G36*
X2046Y295D02*
X2046Y291D01*
X2044Y291D01*
X2044Y285D01*
X2042Y285D01*
X2042Y281D01*
X2040Y281D01*
X2040Y277D01*
X2038Y277D01*
X2038Y169D01*
X2040Y169D01*
X2040Y161D01*
X2506Y161D01*
X2506Y159D01*
X2518Y159D01*
X2518Y157D01*
X2524Y157D01*
X2524Y155D01*
X2528Y155D01*
X2528Y153D01*
X2532Y153D01*
X2532Y151D01*
X2534Y151D01*
X2534Y149D01*
X2538Y149D01*
X2538Y147D01*
X2540Y147D01*
X2540Y145D01*
X2542Y145D01*
X2542Y143D01*
X2544Y143D01*
X2544Y141D01*
X2564Y141D01*
X2564Y147D01*
X2566Y147D01*
X2566Y149D01*
X2568Y149D01*
X2568Y151D01*
X2570Y151D01*
X2570Y153D01*
X2572Y153D01*
X2572Y155D01*
X2574Y155D01*
X2574Y157D01*
X2576Y157D01*
X2576Y159D01*
X2578Y159D01*
X2578Y161D01*
X2580Y161D01*
X2580Y163D01*
X2582Y163D01*
X2582Y165D01*
X2584Y165D01*
X2584Y167D01*
X2586Y167D01*
X2586Y169D01*
X2588Y169D01*
X2588Y171D01*
X2590Y171D01*
X2590Y173D01*
X2592Y173D01*
X2592Y175D01*
X2594Y175D01*
X2594Y177D01*
X2596Y177D01*
X2596Y179D01*
X2598Y179D01*
X2598Y181D01*
X2600Y181D01*
X2600Y183D01*
X2602Y183D01*
X2602Y185D01*
X2604Y185D01*
X2604Y187D01*
X2606Y187D01*
X2606Y189D01*
X2608Y189D01*
X2608Y191D01*
X2610Y191D01*
X2610Y193D01*
X2612Y193D01*
X2612Y195D01*
X2614Y195D01*
X2614Y197D01*
X2616Y197D01*
X2616Y199D01*
X2618Y199D01*
X2618Y201D01*
X2620Y201D01*
X2620Y203D01*
X2622Y203D01*
X2622Y205D01*
X2624Y205D01*
X2624Y207D01*
X2626Y207D01*
X2626Y209D01*
X2628Y209D01*
X2628Y211D01*
X2630Y211D01*
X2630Y213D01*
X2632Y213D01*
X2632Y215D01*
X2634Y215D01*
X2634Y217D01*
X2636Y217D01*
X2636Y219D01*
X2638Y219D01*
X2638Y221D01*
X2640Y221D01*
X2640Y223D01*
X2642Y223D01*
X2642Y225D01*
X2644Y225D01*
X2644Y227D01*
X2646Y227D01*
X2646Y229D01*
X2648Y229D01*
X2648Y231D01*
X2650Y231D01*
X2650Y233D01*
X2652Y233D01*
X2652Y235D01*
X2654Y235D01*
X2654Y237D01*
X2656Y237D01*
X2656Y239D01*
X2658Y239D01*
X2658Y241D01*
X2660Y241D01*
X2660Y243D01*
X2662Y243D01*
X2662Y245D01*
X2664Y245D01*
X2664Y295D01*
X2046Y295D01*
G37*
D02*
G36*
X1942Y283D02*
X1942Y281D01*
X1940Y281D01*
X1940Y277D01*
X1938Y277D01*
X1938Y275D01*
X1936Y275D01*
X1936Y273D01*
X1934Y273D01*
X1934Y271D01*
X1932Y271D01*
X1932Y269D01*
X1930Y269D01*
X1930Y267D01*
X1928Y267D01*
X1928Y265D01*
X1926Y265D01*
X1926Y263D01*
X1922Y263D01*
X1922Y261D01*
X1918Y261D01*
X1918Y259D01*
X1910Y259D01*
X1910Y257D01*
X1964Y257D01*
X1964Y279D01*
X1962Y279D01*
X1962Y283D01*
X1942Y283D01*
G37*
D02*
G36*
X1684Y257D02*
X1684Y255D01*
X1964Y255D01*
X1964Y257D01*
X1684Y257D01*
G37*
D02*
G36*
X1684Y257D02*
X1684Y255D01*
X1964Y255D01*
X1964Y257D01*
X1684Y257D01*
G37*
D02*
G36*
X1684Y255D02*
X1684Y253D01*
X1682Y253D01*
X1682Y251D01*
X1538Y251D01*
X1538Y177D01*
X1540Y177D01*
X1540Y161D01*
X1806Y161D01*
X1806Y159D01*
X1818Y159D01*
X1818Y157D01*
X1824Y157D01*
X1824Y155D01*
X1828Y155D01*
X1828Y153D01*
X1832Y153D01*
X1832Y151D01*
X1834Y151D01*
X1834Y149D01*
X1838Y149D01*
X1838Y147D01*
X1840Y147D01*
X1840Y145D01*
X1842Y145D01*
X1842Y143D01*
X1844Y143D01*
X1844Y141D01*
X1846Y141D01*
X1846Y139D01*
X1848Y139D01*
X1848Y137D01*
X1850Y137D01*
X1850Y133D01*
X1852Y133D01*
X1852Y129D01*
X1854Y129D01*
X1854Y127D01*
X1856Y127D01*
X1856Y121D01*
X1858Y121D01*
X1858Y113D01*
X1860Y113D01*
X1860Y91D01*
X1858Y91D01*
X1858Y83D01*
X1856Y83D01*
X1856Y79D01*
X1854Y79D01*
X1854Y75D01*
X1852Y75D01*
X1852Y71D01*
X1850Y71D01*
X1850Y69D01*
X1848Y69D01*
X1848Y47D01*
X1958Y47D01*
X1958Y67D01*
X1956Y67D01*
X1956Y69D01*
X1954Y69D01*
X1954Y71D01*
X1952Y71D01*
X1952Y75D01*
X1950Y75D01*
X1950Y79D01*
X1948Y79D01*
X1948Y85D01*
X1946Y85D01*
X1946Y93D01*
X1944Y93D01*
X1944Y111D01*
X1946Y111D01*
X1946Y121D01*
X1948Y121D01*
X1948Y125D01*
X1950Y125D01*
X1950Y129D01*
X1952Y129D01*
X1952Y133D01*
X1954Y133D01*
X1954Y135D01*
X1956Y135D01*
X1956Y139D01*
X1958Y139D01*
X1958Y141D01*
X1960Y141D01*
X1960Y143D01*
X1962Y143D01*
X1962Y145D01*
X1964Y145D01*
X1964Y255D01*
X1684Y255D01*
G37*
D02*
G36*
X1540Y161D02*
X1540Y145D01*
X1542Y145D01*
X1542Y143D01*
X1562Y143D01*
X1562Y145D01*
X1564Y145D01*
X1564Y147D01*
X1568Y147D01*
X1568Y149D01*
X1570Y149D01*
X1570Y151D01*
X1572Y151D01*
X1572Y153D01*
X1576Y153D01*
X1576Y155D01*
X1580Y155D01*
X1580Y157D01*
X1588Y157D01*
X1588Y159D01*
X1600Y159D01*
X1600Y161D01*
X1540Y161D01*
G37*
D02*
G36*
X1606Y161D02*
X1606Y159D01*
X1618Y159D01*
X1618Y157D01*
X1624Y157D01*
X1624Y155D01*
X1628Y155D01*
X1628Y153D01*
X1632Y153D01*
X1632Y151D01*
X1634Y151D01*
X1634Y149D01*
X1638Y149D01*
X1638Y147D01*
X1640Y147D01*
X1640Y145D01*
X1642Y145D01*
X1642Y143D01*
X1662Y143D01*
X1662Y145D01*
X1664Y145D01*
X1664Y147D01*
X1668Y147D01*
X1668Y149D01*
X1670Y149D01*
X1670Y151D01*
X1672Y151D01*
X1672Y153D01*
X1676Y153D01*
X1676Y155D01*
X1680Y155D01*
X1680Y157D01*
X1688Y157D01*
X1688Y159D01*
X1700Y159D01*
X1700Y161D01*
X1606Y161D01*
G37*
D02*
G36*
X1706Y161D02*
X1706Y159D01*
X1718Y159D01*
X1718Y157D01*
X1724Y157D01*
X1724Y155D01*
X1728Y155D01*
X1728Y153D01*
X1732Y153D01*
X1732Y151D01*
X1734Y151D01*
X1734Y149D01*
X1738Y149D01*
X1738Y147D01*
X1740Y147D01*
X1740Y145D01*
X1742Y145D01*
X1742Y143D01*
X1762Y143D01*
X1762Y145D01*
X1764Y145D01*
X1764Y147D01*
X1768Y147D01*
X1768Y149D01*
X1770Y149D01*
X1770Y151D01*
X1772Y151D01*
X1772Y153D01*
X1776Y153D01*
X1776Y155D01*
X1780Y155D01*
X1780Y157D01*
X1788Y157D01*
X1788Y159D01*
X1800Y159D01*
X1800Y161D01*
X1706Y161D01*
G37*
D02*
G36*
X2040Y161D02*
X2040Y145D01*
X2042Y145D01*
X2042Y143D01*
X2062Y143D01*
X2062Y145D01*
X2064Y145D01*
X2064Y147D01*
X2068Y147D01*
X2068Y149D01*
X2070Y149D01*
X2070Y151D01*
X2072Y151D01*
X2072Y153D01*
X2076Y153D01*
X2076Y155D01*
X2080Y155D01*
X2080Y157D01*
X2088Y157D01*
X2088Y159D01*
X2100Y159D01*
X2100Y161D01*
X2040Y161D01*
G37*
D02*
G36*
X2106Y161D02*
X2106Y159D01*
X2118Y159D01*
X2118Y157D01*
X2124Y157D01*
X2124Y155D01*
X2128Y155D01*
X2128Y153D01*
X2132Y153D01*
X2132Y151D01*
X2134Y151D01*
X2134Y149D01*
X2138Y149D01*
X2138Y147D01*
X2140Y147D01*
X2140Y145D01*
X2142Y145D01*
X2142Y143D01*
X2162Y143D01*
X2162Y145D01*
X2164Y145D01*
X2164Y147D01*
X2168Y147D01*
X2168Y149D01*
X2170Y149D01*
X2170Y151D01*
X2172Y151D01*
X2172Y153D01*
X2176Y153D01*
X2176Y155D01*
X2180Y155D01*
X2180Y157D01*
X2188Y157D01*
X2188Y159D01*
X2200Y159D01*
X2200Y161D01*
X2106Y161D01*
G37*
D02*
G36*
X2206Y161D02*
X2206Y159D01*
X2218Y159D01*
X2218Y157D01*
X2224Y157D01*
X2224Y155D01*
X2228Y155D01*
X2228Y153D01*
X2232Y153D01*
X2232Y151D01*
X2234Y151D01*
X2234Y149D01*
X2238Y149D01*
X2238Y147D01*
X2240Y147D01*
X2240Y145D01*
X2242Y145D01*
X2242Y143D01*
X2262Y143D01*
X2262Y145D01*
X2264Y145D01*
X2264Y147D01*
X2268Y147D01*
X2268Y149D01*
X2270Y149D01*
X2270Y151D01*
X2272Y151D01*
X2272Y153D01*
X2276Y153D01*
X2276Y155D01*
X2280Y155D01*
X2280Y157D01*
X2288Y157D01*
X2288Y159D01*
X2300Y159D01*
X2300Y161D01*
X2206Y161D01*
G37*
D02*
G36*
X2306Y161D02*
X2306Y159D01*
X2318Y159D01*
X2318Y157D01*
X2324Y157D01*
X2324Y155D01*
X2328Y155D01*
X2328Y153D01*
X2332Y153D01*
X2332Y151D01*
X2334Y151D01*
X2334Y149D01*
X2338Y149D01*
X2338Y147D01*
X2340Y147D01*
X2340Y145D01*
X2342Y145D01*
X2342Y143D01*
X2362Y143D01*
X2362Y145D01*
X2364Y145D01*
X2364Y147D01*
X2368Y147D01*
X2368Y149D01*
X2370Y149D01*
X2370Y151D01*
X2372Y151D01*
X2372Y153D01*
X2376Y153D01*
X2376Y155D01*
X2380Y155D01*
X2380Y157D01*
X2388Y157D01*
X2388Y159D01*
X2400Y159D01*
X2400Y161D01*
X2306Y161D01*
G37*
D02*
G36*
X2406Y161D02*
X2406Y159D01*
X2418Y159D01*
X2418Y157D01*
X2424Y157D01*
X2424Y155D01*
X2428Y155D01*
X2428Y153D01*
X2432Y153D01*
X2432Y151D01*
X2434Y151D01*
X2434Y149D01*
X2438Y149D01*
X2438Y147D01*
X2440Y147D01*
X2440Y145D01*
X2442Y145D01*
X2442Y143D01*
X2462Y143D01*
X2462Y145D01*
X2464Y145D01*
X2464Y147D01*
X2468Y147D01*
X2468Y149D01*
X2470Y149D01*
X2470Y151D01*
X2472Y151D01*
X2472Y153D01*
X2476Y153D01*
X2476Y155D01*
X2480Y155D01*
X2480Y157D01*
X2488Y157D01*
X2488Y159D01*
X2500Y159D01*
X2500Y161D01*
X2406Y161D01*
G37*
D02*
G36*
X76Y2059D02*
X76Y2057D01*
X70Y2057D01*
X70Y2055D01*
X68Y2055D01*
X68Y2053D01*
X64Y2053D01*
X64Y2051D01*
X62Y2051D01*
X62Y2049D01*
X60Y2049D01*
X60Y2047D01*
X58Y2047D01*
X58Y2043D01*
X56Y2043D01*
X56Y2041D01*
X54Y2041D01*
X54Y2035D01*
X52Y2035D01*
X52Y1945D01*
X728Y1945D01*
X728Y1947D01*
X722Y1947D01*
X722Y1949D01*
X716Y1949D01*
X716Y1951D01*
X712Y1951D01*
X712Y1953D01*
X710Y1953D01*
X710Y1955D01*
X708Y1955D01*
X708Y1957D01*
X704Y1957D01*
X704Y1959D01*
X702Y1959D01*
X702Y1961D01*
X700Y1961D01*
X700Y1963D01*
X698Y1963D01*
X698Y1967D01*
X696Y1967D01*
X696Y1969D01*
X694Y1969D01*
X694Y1971D01*
X692Y1971D01*
X692Y1975D01*
X690Y1975D01*
X690Y1979D01*
X688Y1979D01*
X688Y1983D01*
X686Y1983D01*
X686Y1993D01*
X684Y1993D01*
X684Y2011D01*
X686Y2011D01*
X686Y2021D01*
X688Y2021D01*
X688Y2025D01*
X690Y2025D01*
X690Y2029D01*
X692Y2029D01*
X692Y2033D01*
X694Y2033D01*
X694Y2035D01*
X696Y2035D01*
X696Y2039D01*
X698Y2039D01*
X698Y2059D01*
X76Y2059D01*
G37*
D02*
G36*
X1686Y2059D02*
X1686Y2039D01*
X1688Y2039D01*
X1688Y2037D01*
X1690Y2037D01*
X1690Y2033D01*
X1692Y2033D01*
X1692Y2029D01*
X1694Y2029D01*
X1694Y2027D01*
X1696Y2027D01*
X1696Y2021D01*
X1698Y2021D01*
X1698Y2013D01*
X1700Y2013D01*
X1700Y1991D01*
X1698Y1991D01*
X1698Y1983D01*
X1696Y1983D01*
X1696Y1979D01*
X1694Y1979D01*
X1694Y1975D01*
X1692Y1975D01*
X1692Y1971D01*
X1690Y1971D01*
X1690Y1969D01*
X1688Y1969D01*
X1688Y1965D01*
X1686Y1965D01*
X1686Y1963D01*
X1684Y1963D01*
X1684Y1961D01*
X1682Y1961D01*
X1682Y1959D01*
X1680Y1959D01*
X1680Y1957D01*
X1676Y1957D01*
X1676Y1955D01*
X1674Y1955D01*
X1674Y1953D01*
X1672Y1953D01*
X1672Y1951D01*
X1668Y1951D01*
X1668Y1949D01*
X1664Y1949D01*
X1664Y1947D01*
X1656Y1947D01*
X1656Y1945D01*
X1788Y1945D01*
X1788Y1947D01*
X1782Y1947D01*
X1782Y1949D01*
X1776Y1949D01*
X1776Y1951D01*
X1774Y1951D01*
X1774Y1953D01*
X1770Y1953D01*
X1770Y1955D01*
X1768Y1955D01*
X1768Y1957D01*
X1764Y1957D01*
X1764Y1959D01*
X1762Y1959D01*
X1762Y1961D01*
X1760Y1961D01*
X1760Y1963D01*
X1758Y1963D01*
X1758Y1967D01*
X1756Y1967D01*
X1756Y1969D01*
X1754Y1969D01*
X1754Y1971D01*
X1752Y1971D01*
X1752Y1975D01*
X1750Y1975D01*
X1750Y1979D01*
X1748Y1979D01*
X1748Y1985D01*
X1746Y1985D01*
X1746Y1993D01*
X1744Y1993D01*
X1744Y2011D01*
X1746Y2011D01*
X1746Y2021D01*
X1748Y2021D01*
X1748Y2025D01*
X1750Y2025D01*
X1750Y2029D01*
X1752Y2029D01*
X1752Y2033D01*
X1754Y2033D01*
X1754Y2035D01*
X1756Y2035D01*
X1756Y2039D01*
X1758Y2039D01*
X1758Y2059D01*
X1686Y2059D01*
G37*
D02*
G36*
X782Y1961D02*
X782Y1959D01*
X780Y1959D01*
X780Y1957D01*
X776Y1957D01*
X776Y1955D01*
X774Y1955D01*
X774Y1953D01*
X772Y1953D01*
X772Y1951D01*
X768Y1951D01*
X768Y1949D01*
X764Y1949D01*
X764Y1947D01*
X756Y1947D01*
X756Y1945D01*
X828Y1945D01*
X828Y1947D01*
X822Y1947D01*
X822Y1949D01*
X816Y1949D01*
X816Y1951D01*
X814Y1951D01*
X814Y1953D01*
X810Y1953D01*
X810Y1955D01*
X808Y1955D01*
X808Y1957D01*
X804Y1957D01*
X804Y1959D01*
X802Y1959D01*
X802Y1961D01*
X782Y1961D01*
G37*
D02*
G36*
X882Y1961D02*
X882Y1959D01*
X880Y1959D01*
X880Y1957D01*
X878Y1957D01*
X878Y1955D01*
X874Y1955D01*
X874Y1953D01*
X872Y1953D01*
X872Y1951D01*
X868Y1951D01*
X868Y1949D01*
X864Y1949D01*
X864Y1947D01*
X856Y1947D01*
X856Y1945D01*
X928Y1945D01*
X928Y1947D01*
X922Y1947D01*
X922Y1949D01*
X916Y1949D01*
X916Y1951D01*
X914Y1951D01*
X914Y1953D01*
X910Y1953D01*
X910Y1955D01*
X908Y1955D01*
X908Y1957D01*
X904Y1957D01*
X904Y1959D01*
X902Y1959D01*
X902Y1961D01*
X882Y1961D01*
G37*
D02*
G36*
X982Y1961D02*
X982Y1959D01*
X980Y1959D01*
X980Y1957D01*
X978Y1957D01*
X978Y1955D01*
X974Y1955D01*
X974Y1953D01*
X972Y1953D01*
X972Y1951D01*
X968Y1951D01*
X968Y1949D01*
X964Y1949D01*
X964Y1947D01*
X956Y1947D01*
X956Y1945D01*
X1028Y1945D01*
X1028Y1947D01*
X1022Y1947D01*
X1022Y1949D01*
X1016Y1949D01*
X1016Y1951D01*
X1014Y1951D01*
X1014Y1953D01*
X1010Y1953D01*
X1010Y1955D01*
X1008Y1955D01*
X1008Y1957D01*
X1004Y1957D01*
X1004Y1959D01*
X1002Y1959D01*
X1002Y1961D01*
X982Y1961D01*
G37*
D02*
G36*
X1082Y1961D02*
X1082Y1959D01*
X1080Y1959D01*
X1080Y1957D01*
X1078Y1957D01*
X1078Y1955D01*
X1074Y1955D01*
X1074Y1953D01*
X1072Y1953D01*
X1072Y1951D01*
X1068Y1951D01*
X1068Y1949D01*
X1064Y1949D01*
X1064Y1947D01*
X1056Y1947D01*
X1056Y1945D01*
X1128Y1945D01*
X1128Y1947D01*
X1122Y1947D01*
X1122Y1949D01*
X1116Y1949D01*
X1116Y1951D01*
X1114Y1951D01*
X1114Y1953D01*
X1110Y1953D01*
X1110Y1955D01*
X1108Y1955D01*
X1108Y1957D01*
X1104Y1957D01*
X1104Y1959D01*
X1102Y1959D01*
X1102Y1961D01*
X1082Y1961D01*
G37*
D02*
G36*
X1182Y1961D02*
X1182Y1959D01*
X1180Y1959D01*
X1180Y1957D01*
X1178Y1957D01*
X1178Y1955D01*
X1174Y1955D01*
X1174Y1953D01*
X1172Y1953D01*
X1172Y1951D01*
X1168Y1951D01*
X1168Y1949D01*
X1164Y1949D01*
X1164Y1947D01*
X1156Y1947D01*
X1156Y1945D01*
X1228Y1945D01*
X1228Y1947D01*
X1222Y1947D01*
X1222Y1949D01*
X1216Y1949D01*
X1216Y1951D01*
X1214Y1951D01*
X1214Y1953D01*
X1210Y1953D01*
X1210Y1955D01*
X1208Y1955D01*
X1208Y1957D01*
X1204Y1957D01*
X1204Y1959D01*
X1202Y1959D01*
X1202Y1961D01*
X1182Y1961D01*
G37*
D02*
G36*
X1282Y1961D02*
X1282Y1959D01*
X1280Y1959D01*
X1280Y1957D01*
X1278Y1957D01*
X1278Y1955D01*
X1274Y1955D01*
X1274Y1953D01*
X1272Y1953D01*
X1272Y1951D01*
X1268Y1951D01*
X1268Y1949D01*
X1264Y1949D01*
X1264Y1947D01*
X1256Y1947D01*
X1256Y1945D01*
X1328Y1945D01*
X1328Y1947D01*
X1322Y1947D01*
X1322Y1949D01*
X1316Y1949D01*
X1316Y1951D01*
X1314Y1951D01*
X1314Y1953D01*
X1310Y1953D01*
X1310Y1955D01*
X1308Y1955D01*
X1308Y1957D01*
X1304Y1957D01*
X1304Y1959D01*
X1302Y1959D01*
X1302Y1961D01*
X1282Y1961D01*
G37*
D02*
G36*
X1382Y1961D02*
X1382Y1959D01*
X1380Y1959D01*
X1380Y1957D01*
X1378Y1957D01*
X1378Y1955D01*
X1374Y1955D01*
X1374Y1953D01*
X1372Y1953D01*
X1372Y1951D01*
X1368Y1951D01*
X1368Y1949D01*
X1364Y1949D01*
X1364Y1947D01*
X1356Y1947D01*
X1356Y1945D01*
X1428Y1945D01*
X1428Y1947D01*
X1422Y1947D01*
X1422Y1949D01*
X1416Y1949D01*
X1416Y1951D01*
X1414Y1951D01*
X1414Y1953D01*
X1410Y1953D01*
X1410Y1955D01*
X1408Y1955D01*
X1408Y1957D01*
X1404Y1957D01*
X1404Y1959D01*
X1402Y1959D01*
X1402Y1961D01*
X1382Y1961D01*
G37*
D02*
G36*
X1482Y1961D02*
X1482Y1959D01*
X1480Y1959D01*
X1480Y1957D01*
X1478Y1957D01*
X1478Y1955D01*
X1474Y1955D01*
X1474Y1953D01*
X1472Y1953D01*
X1472Y1951D01*
X1468Y1951D01*
X1468Y1949D01*
X1464Y1949D01*
X1464Y1947D01*
X1456Y1947D01*
X1456Y1945D01*
X1528Y1945D01*
X1528Y1947D01*
X1522Y1947D01*
X1522Y1949D01*
X1516Y1949D01*
X1516Y1951D01*
X1514Y1951D01*
X1514Y1953D01*
X1510Y1953D01*
X1510Y1955D01*
X1508Y1955D01*
X1508Y1957D01*
X1504Y1957D01*
X1504Y1959D01*
X1502Y1959D01*
X1502Y1961D01*
X1482Y1961D01*
G37*
D02*
G36*
X1582Y1961D02*
X1582Y1959D01*
X1580Y1959D01*
X1580Y1957D01*
X1578Y1957D01*
X1578Y1955D01*
X1574Y1955D01*
X1574Y1953D01*
X1572Y1953D01*
X1572Y1951D01*
X1568Y1951D01*
X1568Y1949D01*
X1564Y1949D01*
X1564Y1947D01*
X1556Y1947D01*
X1556Y1945D01*
X1628Y1945D01*
X1628Y1947D01*
X1622Y1947D01*
X1622Y1949D01*
X1616Y1949D01*
X1616Y1951D01*
X1612Y1951D01*
X1612Y1953D01*
X1610Y1953D01*
X1610Y1955D01*
X1608Y1955D01*
X1608Y1957D01*
X1604Y1957D01*
X1604Y1959D01*
X1602Y1959D01*
X1602Y1961D01*
X1582Y1961D01*
G37*
D02*
G36*
X1842Y1961D02*
X1842Y1959D01*
X1840Y1959D01*
X1840Y1957D01*
X1838Y1957D01*
X1838Y1955D01*
X1834Y1955D01*
X1834Y1953D01*
X1832Y1953D01*
X1832Y1951D01*
X1828Y1951D01*
X1828Y1949D01*
X1824Y1949D01*
X1824Y1947D01*
X1816Y1947D01*
X1816Y1945D01*
X1888Y1945D01*
X1888Y1947D01*
X1882Y1947D01*
X1882Y1949D01*
X1876Y1949D01*
X1876Y1951D01*
X1874Y1951D01*
X1874Y1953D01*
X1870Y1953D01*
X1870Y1955D01*
X1868Y1955D01*
X1868Y1957D01*
X1864Y1957D01*
X1864Y1959D01*
X1862Y1959D01*
X1862Y1961D01*
X1842Y1961D01*
G37*
D02*
G36*
X1942Y1961D02*
X1942Y1959D01*
X1940Y1959D01*
X1940Y1957D01*
X1938Y1957D01*
X1938Y1955D01*
X1934Y1955D01*
X1934Y1953D01*
X1932Y1953D01*
X1932Y1951D01*
X1928Y1951D01*
X1928Y1949D01*
X1924Y1949D01*
X1924Y1947D01*
X1916Y1947D01*
X1916Y1945D01*
X1988Y1945D01*
X1988Y1947D01*
X1982Y1947D01*
X1982Y1949D01*
X1976Y1949D01*
X1976Y1951D01*
X1974Y1951D01*
X1974Y1953D01*
X1970Y1953D01*
X1970Y1955D01*
X1968Y1955D01*
X1968Y1957D01*
X1964Y1957D01*
X1964Y1959D01*
X1962Y1959D01*
X1962Y1961D01*
X1942Y1961D01*
G37*
D02*
G36*
X2042Y1961D02*
X2042Y1959D01*
X2040Y1959D01*
X2040Y1957D01*
X2038Y1957D01*
X2038Y1955D01*
X2034Y1955D01*
X2034Y1953D01*
X2032Y1953D01*
X2032Y1951D01*
X2028Y1951D01*
X2028Y1949D01*
X2024Y1949D01*
X2024Y1947D01*
X2016Y1947D01*
X2016Y1945D01*
X2088Y1945D01*
X2088Y1947D01*
X2082Y1947D01*
X2082Y1949D01*
X2076Y1949D01*
X2076Y1951D01*
X2074Y1951D01*
X2074Y1953D01*
X2070Y1953D01*
X2070Y1955D01*
X2068Y1955D01*
X2068Y1957D01*
X2064Y1957D01*
X2064Y1959D01*
X2062Y1959D01*
X2062Y1961D01*
X2042Y1961D01*
G37*
D02*
G36*
X2142Y1961D02*
X2142Y1959D01*
X2140Y1959D01*
X2140Y1957D01*
X2138Y1957D01*
X2138Y1955D01*
X2134Y1955D01*
X2134Y1953D01*
X2132Y1953D01*
X2132Y1951D01*
X2128Y1951D01*
X2128Y1949D01*
X2124Y1949D01*
X2124Y1947D01*
X2116Y1947D01*
X2116Y1945D01*
X2188Y1945D01*
X2188Y1947D01*
X2182Y1947D01*
X2182Y1949D01*
X2176Y1949D01*
X2176Y1951D01*
X2172Y1951D01*
X2172Y1953D01*
X2170Y1953D01*
X2170Y1955D01*
X2168Y1955D01*
X2168Y1957D01*
X2164Y1957D01*
X2164Y1959D01*
X2162Y1959D01*
X2162Y1961D01*
X2142Y1961D01*
G37*
D02*
G36*
X2242Y1961D02*
X2242Y1959D01*
X2240Y1959D01*
X2240Y1957D01*
X2236Y1957D01*
X2236Y1955D01*
X2234Y1955D01*
X2234Y1953D01*
X2232Y1953D01*
X2232Y1951D01*
X2228Y1951D01*
X2228Y1949D01*
X2224Y1949D01*
X2224Y1947D01*
X2216Y1947D01*
X2216Y1945D01*
X2288Y1945D01*
X2288Y1947D01*
X2282Y1947D01*
X2282Y1949D01*
X2276Y1949D01*
X2276Y1951D01*
X2274Y1951D01*
X2274Y1953D01*
X2270Y1953D01*
X2270Y1955D01*
X2268Y1955D01*
X2268Y1957D01*
X2264Y1957D01*
X2264Y1959D01*
X2262Y1959D01*
X2262Y1961D01*
X2242Y1961D01*
G37*
D02*
G36*
X2342Y1961D02*
X2342Y1959D01*
X2340Y1959D01*
X2340Y1957D01*
X2338Y1957D01*
X2338Y1955D01*
X2334Y1955D01*
X2334Y1953D01*
X2332Y1953D01*
X2332Y1951D01*
X2328Y1951D01*
X2328Y1949D01*
X2324Y1949D01*
X2324Y1947D01*
X2316Y1947D01*
X2316Y1945D01*
X2366Y1945D01*
X2366Y1957D01*
X2364Y1957D01*
X2364Y1959D01*
X2362Y1959D01*
X2362Y1961D01*
X2342Y1961D01*
G37*
D02*
G36*
X52Y1945D02*
X52Y1943D01*
X2366Y1943D01*
X2366Y1945D01*
X52Y1945D01*
G37*
D02*
G36*
X52Y1945D02*
X52Y1943D01*
X2366Y1943D01*
X2366Y1945D01*
X52Y1945D01*
G37*
D02*
G36*
X52Y1945D02*
X52Y1943D01*
X2366Y1943D01*
X2366Y1945D01*
X52Y1945D01*
G37*
D02*
G36*
X52Y1945D02*
X52Y1943D01*
X2366Y1943D01*
X2366Y1945D01*
X52Y1945D01*
G37*
D02*
G36*
X52Y1945D02*
X52Y1943D01*
X2366Y1943D01*
X2366Y1945D01*
X52Y1945D01*
G37*
D02*
G36*
X52Y1945D02*
X52Y1943D01*
X2366Y1943D01*
X2366Y1945D01*
X52Y1945D01*
G37*
D02*
G36*
X52Y1945D02*
X52Y1943D01*
X2366Y1943D01*
X2366Y1945D01*
X52Y1945D01*
G37*
D02*
G36*
X52Y1945D02*
X52Y1943D01*
X2366Y1943D01*
X2366Y1945D01*
X52Y1945D01*
G37*
D02*
G36*
X52Y1945D02*
X52Y1943D01*
X2366Y1943D01*
X2366Y1945D01*
X52Y1945D01*
G37*
D02*
G36*
X52Y1945D02*
X52Y1943D01*
X2366Y1943D01*
X2366Y1945D01*
X52Y1945D01*
G37*
D02*
G36*
X52Y1945D02*
X52Y1943D01*
X2366Y1943D01*
X2366Y1945D01*
X52Y1945D01*
G37*
D02*
G36*
X52Y1945D02*
X52Y1943D01*
X2366Y1943D01*
X2366Y1945D01*
X52Y1945D01*
G37*
D02*
G36*
X52Y1945D02*
X52Y1943D01*
X2366Y1943D01*
X2366Y1945D01*
X52Y1945D01*
G37*
D02*
G36*
X52Y1945D02*
X52Y1943D01*
X2366Y1943D01*
X2366Y1945D01*
X52Y1945D01*
G37*
D02*
G36*
X52Y1945D02*
X52Y1943D01*
X2366Y1943D01*
X2366Y1945D01*
X52Y1945D01*
G37*
D02*
G36*
X52Y1945D02*
X52Y1943D01*
X2366Y1943D01*
X2366Y1945D01*
X52Y1945D01*
G37*
D02*
G36*
X52Y1945D02*
X52Y1943D01*
X2366Y1943D01*
X2366Y1945D01*
X52Y1945D01*
G37*
D02*
G36*
X52Y1943D02*
X52Y1917D01*
X466Y1917D01*
X466Y1887D01*
X1412Y1887D01*
X1412Y1885D01*
X1418Y1885D01*
X1418Y1883D01*
X1422Y1883D01*
X1422Y1881D01*
X1424Y1881D01*
X1424Y1879D01*
X1426Y1879D01*
X1426Y1877D01*
X1428Y1877D01*
X1428Y1875D01*
X1430Y1875D01*
X1430Y1873D01*
X1432Y1873D01*
X1432Y1869D01*
X1434Y1869D01*
X1434Y1865D01*
X1436Y1865D01*
X1436Y1861D01*
X1438Y1861D01*
X1438Y1857D01*
X1440Y1857D01*
X1440Y1855D01*
X1442Y1855D01*
X1442Y1851D01*
X1444Y1851D01*
X1444Y1847D01*
X1446Y1847D01*
X1446Y1843D01*
X1448Y1843D01*
X1448Y1839D01*
X1450Y1839D01*
X1450Y1835D01*
X1452Y1835D01*
X1452Y1831D01*
X1454Y1831D01*
X1454Y1827D01*
X1456Y1827D01*
X1456Y1823D01*
X1458Y1823D01*
X1458Y1819D01*
X1460Y1819D01*
X1460Y1817D01*
X2068Y1817D01*
X2068Y1687D01*
X2206Y1687D01*
X2206Y1707D01*
X2204Y1707D01*
X2204Y1709D01*
X2202Y1709D01*
X2202Y1713D01*
X2200Y1713D01*
X2200Y1715D01*
X2198Y1715D01*
X2198Y1719D01*
X2196Y1719D01*
X2196Y1721D01*
X2194Y1721D01*
X2194Y1725D01*
X2192Y1725D01*
X2192Y1731D01*
X2190Y1731D01*
X2190Y1737D01*
X2188Y1737D01*
X2188Y1767D01*
X2190Y1767D01*
X2190Y1773D01*
X2192Y1773D01*
X2192Y1779D01*
X2194Y1779D01*
X2194Y1783D01*
X2196Y1783D01*
X2196Y1787D01*
X2198Y1787D01*
X2198Y1789D01*
X2200Y1789D01*
X2200Y1791D01*
X2202Y1791D01*
X2202Y1795D01*
X2204Y1795D01*
X2204Y1797D01*
X2206Y1797D01*
X2206Y1799D01*
X2208Y1799D01*
X2208Y1801D01*
X2210Y1801D01*
X2210Y1803D01*
X2214Y1803D01*
X2214Y1805D01*
X2216Y1805D01*
X2216Y1827D01*
X2214Y1827D01*
X2214Y1829D01*
X2212Y1829D01*
X2212Y1833D01*
X2210Y1833D01*
X2210Y1839D01*
X2208Y1839D01*
X2208Y1851D01*
X2206Y1851D01*
X2206Y1853D01*
X2208Y1853D01*
X2208Y1865D01*
X2210Y1865D01*
X2210Y1871D01*
X2212Y1871D01*
X2212Y1873D01*
X2214Y1873D01*
X2214Y1877D01*
X2216Y1877D01*
X2216Y1879D01*
X2218Y1879D01*
X2218Y1883D01*
X2220Y1883D01*
X2220Y1885D01*
X2224Y1885D01*
X2224Y1887D01*
X2226Y1887D01*
X2226Y1889D01*
X2230Y1889D01*
X2230Y1891D01*
X2232Y1891D01*
X2232Y1893D01*
X2238Y1893D01*
X2238Y1895D01*
X2246Y1895D01*
X2246Y1897D01*
X2274Y1897D01*
X2274Y1899D01*
X2280Y1899D01*
X2280Y1901D01*
X2286Y1901D01*
X2286Y1903D01*
X2292Y1903D01*
X2292Y1905D01*
X2298Y1905D01*
X2298Y1907D01*
X2304Y1907D01*
X2304Y1909D01*
X2310Y1909D01*
X2310Y1911D01*
X2316Y1911D01*
X2316Y1913D01*
X2322Y1913D01*
X2322Y1915D01*
X2328Y1915D01*
X2328Y1917D01*
X2334Y1917D01*
X2334Y1919D01*
X2340Y1919D01*
X2340Y1921D01*
X2346Y1921D01*
X2346Y1923D01*
X2352Y1923D01*
X2352Y1925D01*
X2358Y1925D01*
X2358Y1927D01*
X2364Y1927D01*
X2364Y1929D01*
X2366Y1929D01*
X2366Y1943D01*
X52Y1943D01*
G37*
D02*
G36*
X52Y1917D02*
X52Y1787D01*
X188Y1787D01*
X188Y1789D01*
X182Y1789D01*
X182Y1791D01*
X176Y1791D01*
X176Y1793D01*
X172Y1793D01*
X172Y1795D01*
X168Y1795D01*
X168Y1797D01*
X166Y1797D01*
X166Y1799D01*
X162Y1799D01*
X162Y1801D01*
X160Y1801D01*
X160Y1803D01*
X158Y1803D01*
X158Y1805D01*
X156Y1805D01*
X156Y1807D01*
X154Y1807D01*
X154Y1809D01*
X152Y1809D01*
X152Y1811D01*
X150Y1811D01*
X150Y1813D01*
X148Y1813D01*
X148Y1817D01*
X146Y1817D01*
X146Y1821D01*
X144Y1821D01*
X144Y1823D01*
X142Y1823D01*
X142Y1829D01*
X140Y1829D01*
X140Y1835D01*
X138Y1835D01*
X138Y1845D01*
X136Y1845D01*
X136Y1859D01*
X138Y1859D01*
X138Y1869D01*
X140Y1869D01*
X140Y1875D01*
X142Y1875D01*
X142Y1879D01*
X144Y1879D01*
X144Y1883D01*
X146Y1883D01*
X146Y1887D01*
X148Y1887D01*
X148Y1889D01*
X150Y1889D01*
X150Y1893D01*
X152Y1893D01*
X152Y1895D01*
X154Y1895D01*
X154Y1897D01*
X156Y1897D01*
X156Y1899D01*
X158Y1899D01*
X158Y1901D01*
X160Y1901D01*
X160Y1903D01*
X164Y1903D01*
X164Y1905D01*
X166Y1905D01*
X166Y1907D01*
X170Y1907D01*
X170Y1909D01*
X174Y1909D01*
X174Y1911D01*
X178Y1911D01*
X178Y1913D01*
X184Y1913D01*
X184Y1915D01*
X192Y1915D01*
X192Y1917D01*
X52Y1917D01*
G37*
D02*
G36*
X210Y1917D02*
X210Y1915D01*
X220Y1915D01*
X220Y1913D01*
X226Y1913D01*
X226Y1911D01*
X230Y1911D01*
X230Y1909D01*
X234Y1909D01*
X234Y1907D01*
X238Y1907D01*
X238Y1905D01*
X240Y1905D01*
X240Y1903D01*
X242Y1903D01*
X242Y1901D01*
X244Y1901D01*
X244Y1899D01*
X248Y1899D01*
X248Y1897D01*
X250Y1897D01*
X250Y1893D01*
X252Y1893D01*
X252Y1891D01*
X254Y1891D01*
X254Y1889D01*
X256Y1889D01*
X256Y1885D01*
X258Y1885D01*
X258Y1883D01*
X260Y1883D01*
X260Y1879D01*
X262Y1879D01*
X262Y1873D01*
X264Y1873D01*
X264Y1865D01*
X266Y1865D01*
X266Y1837D01*
X264Y1837D01*
X264Y1831D01*
X262Y1831D01*
X262Y1825D01*
X260Y1825D01*
X260Y1821D01*
X258Y1821D01*
X258Y1819D01*
X256Y1819D01*
X256Y1815D01*
X254Y1815D01*
X254Y1813D01*
X252Y1813D01*
X252Y1809D01*
X250Y1809D01*
X250Y1807D01*
X248Y1807D01*
X248Y1805D01*
X246Y1805D01*
X246Y1803D01*
X244Y1803D01*
X244Y1801D01*
X240Y1801D01*
X240Y1799D01*
X238Y1799D01*
X238Y1797D01*
X234Y1797D01*
X234Y1795D01*
X232Y1795D01*
X232Y1793D01*
X228Y1793D01*
X228Y1791D01*
X222Y1791D01*
X222Y1789D01*
X214Y1789D01*
X214Y1787D01*
X336Y1787D01*
X336Y1917D01*
X210Y1917D01*
G37*
D02*
G36*
X466Y1887D02*
X466Y1817D01*
X910Y1817D01*
X910Y1815D01*
X920Y1815D01*
X920Y1813D01*
X926Y1813D01*
X926Y1811D01*
X930Y1811D01*
X930Y1809D01*
X934Y1809D01*
X934Y1807D01*
X938Y1807D01*
X938Y1805D01*
X940Y1805D01*
X940Y1803D01*
X942Y1803D01*
X942Y1801D01*
X944Y1801D01*
X944Y1799D01*
X966Y1799D01*
X966Y1813D01*
X968Y1813D01*
X968Y1819D01*
X970Y1819D01*
X970Y1823D01*
X972Y1823D01*
X972Y1825D01*
X974Y1825D01*
X974Y1827D01*
X976Y1827D01*
X976Y1829D01*
X978Y1829D01*
X978Y1831D01*
X980Y1831D01*
X980Y1833D01*
X984Y1833D01*
X984Y1835D01*
X988Y1835D01*
X988Y1837D01*
X992Y1837D01*
X992Y1839D01*
X998Y1839D01*
X998Y1841D01*
X1004Y1841D01*
X1004Y1843D01*
X1010Y1843D01*
X1010Y1845D01*
X1016Y1845D01*
X1016Y1847D01*
X1022Y1847D01*
X1022Y1849D01*
X1028Y1849D01*
X1028Y1851D01*
X1036Y1851D01*
X1036Y1853D01*
X1042Y1853D01*
X1042Y1855D01*
X1048Y1855D01*
X1048Y1857D01*
X1054Y1857D01*
X1054Y1859D01*
X1060Y1859D01*
X1060Y1861D01*
X1066Y1861D01*
X1066Y1863D01*
X1072Y1863D01*
X1072Y1865D01*
X1078Y1865D01*
X1078Y1867D01*
X1084Y1867D01*
X1084Y1869D01*
X1090Y1869D01*
X1090Y1871D01*
X1096Y1871D01*
X1096Y1873D01*
X1102Y1873D01*
X1102Y1875D01*
X1108Y1875D01*
X1108Y1877D01*
X1114Y1877D01*
X1114Y1879D01*
X1120Y1879D01*
X1120Y1881D01*
X1128Y1881D01*
X1128Y1883D01*
X1134Y1883D01*
X1134Y1885D01*
X1140Y1885D01*
X1140Y1887D01*
X466Y1887D01*
G37*
D02*
G36*
X466Y1817D02*
X466Y1787D01*
X848Y1787D01*
X848Y1789D01*
X850Y1789D01*
X850Y1793D01*
X852Y1793D01*
X852Y1795D01*
X854Y1795D01*
X854Y1797D01*
X856Y1797D01*
X856Y1799D01*
X858Y1799D01*
X858Y1801D01*
X860Y1801D01*
X860Y1803D01*
X864Y1803D01*
X864Y1805D01*
X866Y1805D01*
X866Y1807D01*
X870Y1807D01*
X870Y1809D01*
X874Y1809D01*
X874Y1811D01*
X878Y1811D01*
X878Y1813D01*
X884Y1813D01*
X884Y1815D01*
X892Y1815D01*
X892Y1817D01*
X466Y1817D01*
G37*
D02*
G36*
X1460Y1817D02*
X1460Y1815D01*
X1462Y1815D01*
X1462Y1811D01*
X1464Y1811D01*
X1464Y1807D01*
X1466Y1807D01*
X1466Y1803D01*
X1486Y1803D01*
X1486Y1817D01*
X1460Y1817D01*
G37*
D02*
G36*
X1616Y1817D02*
X1616Y1689D01*
X1754Y1689D01*
X1754Y1709D01*
X1752Y1709D01*
X1752Y1713D01*
X1750Y1713D01*
X1750Y1715D01*
X1748Y1715D01*
X1748Y1719D01*
X1746Y1719D01*
X1746Y1721D01*
X1744Y1721D01*
X1744Y1725D01*
X1742Y1725D01*
X1742Y1731D01*
X1740Y1731D01*
X1740Y1737D01*
X1738Y1737D01*
X1738Y1767D01*
X1740Y1767D01*
X1740Y1773D01*
X1742Y1773D01*
X1742Y1779D01*
X1744Y1779D01*
X1744Y1783D01*
X1746Y1783D01*
X1746Y1787D01*
X1748Y1787D01*
X1748Y1789D01*
X1750Y1789D01*
X1750Y1791D01*
X1752Y1791D01*
X1752Y1795D01*
X1754Y1795D01*
X1754Y1797D01*
X1756Y1797D01*
X1756Y1799D01*
X1758Y1799D01*
X1758Y1801D01*
X1760Y1801D01*
X1760Y1803D01*
X1764Y1803D01*
X1764Y1805D01*
X1766Y1805D01*
X1766Y1807D01*
X1770Y1807D01*
X1770Y1809D01*
X1772Y1809D01*
X1772Y1811D01*
X1776Y1811D01*
X1776Y1813D01*
X1782Y1813D01*
X1782Y1815D01*
X1790Y1815D01*
X1790Y1817D01*
X1616Y1817D01*
G37*
D02*
G36*
X1814Y1817D02*
X1814Y1815D01*
X1822Y1815D01*
X1822Y1813D01*
X1828Y1813D01*
X1828Y1811D01*
X1832Y1811D01*
X1832Y1809D01*
X1834Y1809D01*
X1834Y1807D01*
X1838Y1807D01*
X1838Y1805D01*
X1840Y1805D01*
X1840Y1803D01*
X1844Y1803D01*
X1844Y1801D01*
X1846Y1801D01*
X1846Y1799D01*
X1848Y1799D01*
X1848Y1797D01*
X1850Y1797D01*
X1850Y1795D01*
X1852Y1795D01*
X1852Y1793D01*
X1854Y1793D01*
X1854Y1789D01*
X1856Y1789D01*
X1856Y1787D01*
X1858Y1787D01*
X1858Y1783D01*
X1860Y1783D01*
X1860Y1779D01*
X1862Y1779D01*
X1862Y1775D01*
X1864Y1775D01*
X1864Y1769D01*
X1866Y1769D01*
X1866Y1755D01*
X1868Y1755D01*
X1868Y1749D01*
X1866Y1749D01*
X1866Y1735D01*
X1864Y1735D01*
X1864Y1729D01*
X1862Y1729D01*
X1862Y1725D01*
X1860Y1725D01*
X1860Y1721D01*
X1858Y1721D01*
X1858Y1717D01*
X1856Y1717D01*
X1856Y1715D01*
X1854Y1715D01*
X1854Y1711D01*
X1852Y1711D01*
X1852Y1709D01*
X1850Y1709D01*
X1850Y1689D01*
X1938Y1689D01*
X1938Y1817D01*
X1814Y1817D01*
G37*
D02*
G36*
X52Y1787D02*
X52Y1785D01*
X846Y1785D01*
X846Y1787D01*
X52Y1787D01*
G37*
D02*
G36*
X52Y1787D02*
X52Y1785D01*
X846Y1785D01*
X846Y1787D01*
X52Y1787D01*
G37*
D02*
G36*
X52Y1787D02*
X52Y1785D01*
X846Y1785D01*
X846Y1787D01*
X52Y1787D01*
G37*
D02*
G36*
X52Y1785D02*
X52Y1747D01*
X606Y1747D01*
X606Y1745D01*
X616Y1745D01*
X616Y1743D01*
X620Y1743D01*
X620Y1741D01*
X624Y1741D01*
X624Y1739D01*
X628Y1739D01*
X628Y1737D01*
X630Y1737D01*
X630Y1735D01*
X632Y1735D01*
X632Y1733D01*
X634Y1733D01*
X634Y1731D01*
X636Y1731D01*
X636Y1729D01*
X638Y1729D01*
X638Y1725D01*
X640Y1725D01*
X640Y1723D01*
X642Y1723D01*
X642Y1719D01*
X644Y1719D01*
X644Y1711D01*
X646Y1711D01*
X646Y1691D01*
X706Y1691D01*
X706Y1689D01*
X854Y1689D01*
X854Y1709D01*
X852Y1709D01*
X852Y1711D01*
X850Y1711D01*
X850Y1713D01*
X848Y1713D01*
X848Y1717D01*
X846Y1717D01*
X846Y1721D01*
X844Y1721D01*
X844Y1723D01*
X842Y1723D01*
X842Y1729D01*
X840Y1729D01*
X840Y1735D01*
X838Y1735D01*
X838Y1745D01*
X836Y1745D01*
X836Y1759D01*
X838Y1759D01*
X838Y1769D01*
X840Y1769D01*
X840Y1775D01*
X842Y1775D01*
X842Y1779D01*
X844Y1779D01*
X844Y1783D01*
X846Y1783D01*
X846Y1785D01*
X52Y1785D01*
G37*
D02*
G36*
X52Y1747D02*
X52Y1357D01*
X144Y1357D01*
X144Y1359D01*
X136Y1359D01*
X136Y1361D01*
X132Y1361D01*
X132Y1363D01*
X128Y1363D01*
X128Y1365D01*
X126Y1365D01*
X126Y1367D01*
X122Y1367D01*
X122Y1369D01*
X120Y1369D01*
X120Y1371D01*
X118Y1371D01*
X118Y1373D01*
X116Y1373D01*
X116Y1377D01*
X114Y1377D01*
X114Y1379D01*
X112Y1379D01*
X112Y1383D01*
X110Y1383D01*
X110Y1389D01*
X108Y1389D01*
X108Y1401D01*
X106Y1401D01*
X106Y1403D01*
X108Y1403D01*
X108Y1415D01*
X110Y1415D01*
X110Y1421D01*
X112Y1421D01*
X112Y1423D01*
X114Y1423D01*
X114Y1427D01*
X116Y1427D01*
X116Y1429D01*
X118Y1429D01*
X118Y1433D01*
X120Y1433D01*
X120Y1435D01*
X124Y1435D01*
X124Y1439D01*
X126Y1439D01*
X126Y1443D01*
X128Y1443D01*
X128Y1447D01*
X130Y1447D01*
X130Y1451D01*
X132Y1451D01*
X132Y1455D01*
X134Y1455D01*
X134Y1459D01*
X136Y1459D01*
X136Y1463D01*
X138Y1463D01*
X138Y1467D01*
X140Y1467D01*
X140Y1471D01*
X142Y1471D01*
X142Y1475D01*
X144Y1475D01*
X144Y1479D01*
X146Y1479D01*
X146Y1483D01*
X148Y1483D01*
X148Y1487D01*
X150Y1487D01*
X150Y1491D01*
X152Y1491D01*
X152Y1495D01*
X154Y1495D01*
X154Y1499D01*
X156Y1499D01*
X156Y1503D01*
X158Y1503D01*
X158Y1507D01*
X160Y1507D01*
X160Y1511D01*
X162Y1511D01*
X162Y1537D01*
X160Y1537D01*
X160Y1689D01*
X158Y1689D01*
X158Y1701D01*
X156Y1701D01*
X156Y1703D01*
X158Y1703D01*
X158Y1715D01*
X160Y1715D01*
X160Y1721D01*
X162Y1721D01*
X162Y1723D01*
X164Y1723D01*
X164Y1727D01*
X166Y1727D01*
X166Y1729D01*
X168Y1729D01*
X168Y1733D01*
X170Y1733D01*
X170Y1735D01*
X174Y1735D01*
X174Y1737D01*
X176Y1737D01*
X176Y1739D01*
X180Y1739D01*
X180Y1741D01*
X182Y1741D01*
X182Y1743D01*
X188Y1743D01*
X188Y1745D01*
X196Y1745D01*
X196Y1747D01*
X52Y1747D01*
G37*
D02*
G36*
X206Y1747D02*
X206Y1745D01*
X216Y1745D01*
X216Y1743D01*
X220Y1743D01*
X220Y1741D01*
X224Y1741D01*
X224Y1739D01*
X228Y1739D01*
X228Y1737D01*
X230Y1737D01*
X230Y1735D01*
X232Y1735D01*
X232Y1733D01*
X234Y1733D01*
X234Y1731D01*
X236Y1731D01*
X236Y1729D01*
X238Y1729D01*
X238Y1725D01*
X240Y1725D01*
X240Y1723D01*
X242Y1723D01*
X242Y1719D01*
X244Y1719D01*
X244Y1711D01*
X246Y1711D01*
X246Y1691D01*
X244Y1691D01*
X244Y1685D01*
X242Y1685D01*
X242Y1543D01*
X244Y1543D01*
X244Y1499D01*
X242Y1499D01*
X242Y1497D01*
X306Y1497D01*
X306Y1495D01*
X316Y1495D01*
X316Y1493D01*
X320Y1493D01*
X320Y1491D01*
X324Y1491D01*
X324Y1489D01*
X430Y1489D01*
X430Y1493D01*
X432Y1493D01*
X432Y1497D01*
X434Y1497D01*
X434Y1501D01*
X436Y1501D01*
X436Y1505D01*
X438Y1505D01*
X438Y1509D01*
X440Y1509D01*
X440Y1513D01*
X442Y1513D01*
X442Y1517D01*
X444Y1517D01*
X444Y1521D01*
X446Y1521D01*
X446Y1525D01*
X448Y1525D01*
X448Y1529D01*
X450Y1529D01*
X450Y1535D01*
X452Y1535D01*
X452Y1539D01*
X454Y1539D01*
X454Y1543D01*
X456Y1543D01*
X456Y1547D01*
X458Y1547D01*
X458Y1551D01*
X460Y1551D01*
X460Y1555D01*
X462Y1555D01*
X462Y1559D01*
X464Y1559D01*
X464Y1563D01*
X466Y1563D01*
X466Y1567D01*
X468Y1567D01*
X468Y1571D01*
X470Y1571D01*
X470Y1573D01*
X472Y1573D01*
X472Y1577D01*
X474Y1577D01*
X474Y1579D01*
X476Y1579D01*
X476Y1581D01*
X478Y1581D01*
X478Y1583D01*
X482Y1583D01*
X482Y1585D01*
X486Y1585D01*
X486Y1587D01*
X490Y1587D01*
X490Y1589D01*
X494Y1589D01*
X494Y1591D01*
X498Y1591D01*
X498Y1593D01*
X502Y1593D01*
X502Y1595D01*
X506Y1595D01*
X506Y1597D01*
X510Y1597D01*
X510Y1599D01*
X514Y1599D01*
X514Y1601D01*
X518Y1601D01*
X518Y1603D01*
X522Y1603D01*
X522Y1605D01*
X526Y1605D01*
X526Y1607D01*
X530Y1607D01*
X530Y1609D01*
X534Y1609D01*
X534Y1611D01*
X538Y1611D01*
X538Y1613D01*
X542Y1613D01*
X542Y1615D01*
X548Y1615D01*
X548Y1617D01*
X552Y1617D01*
X552Y1619D01*
X556Y1619D01*
X556Y1621D01*
X560Y1621D01*
X560Y1623D01*
X564Y1623D01*
X564Y1625D01*
X568Y1625D01*
X568Y1627D01*
X572Y1627D01*
X572Y1629D01*
X576Y1629D01*
X576Y1631D01*
X580Y1631D01*
X580Y1633D01*
X584Y1633D01*
X584Y1635D01*
X588Y1635D01*
X588Y1637D01*
X592Y1637D01*
X592Y1639D01*
X594Y1639D01*
X594Y1659D01*
X586Y1659D01*
X586Y1661D01*
X582Y1661D01*
X582Y1663D01*
X578Y1663D01*
X578Y1665D01*
X576Y1665D01*
X576Y1667D01*
X572Y1667D01*
X572Y1669D01*
X570Y1669D01*
X570Y1671D01*
X568Y1671D01*
X568Y1673D01*
X566Y1673D01*
X566Y1677D01*
X564Y1677D01*
X564Y1679D01*
X562Y1679D01*
X562Y1683D01*
X560Y1683D01*
X560Y1689D01*
X558Y1689D01*
X558Y1701D01*
X556Y1701D01*
X556Y1703D01*
X558Y1703D01*
X558Y1715D01*
X560Y1715D01*
X560Y1721D01*
X562Y1721D01*
X562Y1723D01*
X564Y1723D01*
X564Y1727D01*
X566Y1727D01*
X566Y1729D01*
X568Y1729D01*
X568Y1733D01*
X570Y1733D01*
X570Y1735D01*
X574Y1735D01*
X574Y1737D01*
X576Y1737D01*
X576Y1739D01*
X580Y1739D01*
X580Y1741D01*
X582Y1741D01*
X582Y1743D01*
X588Y1743D01*
X588Y1745D01*
X596Y1745D01*
X596Y1747D01*
X206Y1747D01*
G37*
D02*
G36*
X644Y1691D02*
X644Y1685D01*
X642Y1685D01*
X642Y1673D01*
X662Y1673D01*
X662Y1675D01*
X666Y1675D01*
X666Y1677D01*
X670Y1677D01*
X670Y1679D01*
X674Y1679D01*
X674Y1681D01*
X678Y1681D01*
X678Y1683D01*
X682Y1683D01*
X682Y1685D01*
X686Y1685D01*
X686Y1687D01*
X690Y1687D01*
X690Y1689D01*
X702Y1689D01*
X702Y1691D01*
X644Y1691D01*
G37*
D02*
G36*
X1146Y1615D02*
X1146Y1591D01*
X1144Y1591D01*
X1144Y1585D01*
X1142Y1585D01*
X1142Y1581D01*
X1140Y1581D01*
X1140Y1577D01*
X1138Y1577D01*
X1138Y1557D01*
X1794Y1557D01*
X1794Y1559D01*
X1786Y1559D01*
X1786Y1561D01*
X1782Y1561D01*
X1782Y1563D01*
X1778Y1563D01*
X1778Y1565D01*
X1776Y1565D01*
X1776Y1567D01*
X1772Y1567D01*
X1772Y1569D01*
X1770Y1569D01*
X1770Y1571D01*
X1768Y1571D01*
X1768Y1573D01*
X1766Y1573D01*
X1766Y1577D01*
X1764Y1577D01*
X1764Y1579D01*
X1762Y1579D01*
X1762Y1583D01*
X1760Y1583D01*
X1760Y1589D01*
X1758Y1589D01*
X1758Y1601D01*
X1756Y1601D01*
X1756Y1615D01*
X1146Y1615D01*
G37*
D02*
G36*
X1846Y1615D02*
X1846Y1591D01*
X1844Y1591D01*
X1844Y1585D01*
X1842Y1585D01*
X1842Y1581D01*
X1840Y1581D01*
X1840Y1577D01*
X1838Y1577D01*
X1838Y1575D01*
X1836Y1575D01*
X1836Y1573D01*
X1834Y1573D01*
X1834Y1571D01*
X1832Y1571D01*
X1832Y1569D01*
X1830Y1569D01*
X1830Y1567D01*
X1828Y1567D01*
X1828Y1565D01*
X1826Y1565D01*
X1826Y1563D01*
X1822Y1563D01*
X1822Y1561D01*
X1818Y1561D01*
X1818Y1559D01*
X1810Y1559D01*
X1810Y1557D01*
X2264Y1557D01*
X2264Y1579D01*
X2262Y1579D01*
X2262Y1583D01*
X2260Y1583D01*
X2260Y1589D01*
X2258Y1589D01*
X2258Y1601D01*
X2256Y1601D01*
X2256Y1613D01*
X2004Y1613D01*
X2004Y1615D01*
X1846Y1615D01*
G37*
D02*
G36*
X1040Y1589D02*
X1040Y1587D01*
X1038Y1587D01*
X1038Y1585D01*
X1036Y1585D01*
X1036Y1583D01*
X1034Y1583D01*
X1034Y1581D01*
X1032Y1581D01*
X1032Y1579D01*
X1030Y1579D01*
X1030Y1577D01*
X1028Y1577D01*
X1028Y1575D01*
X1026Y1575D01*
X1026Y1573D01*
X1024Y1573D01*
X1024Y1571D01*
X1022Y1571D01*
X1022Y1569D01*
X1018Y1569D01*
X1018Y1567D01*
X1012Y1567D01*
X1012Y1565D01*
X758Y1565D01*
X758Y1563D01*
X754Y1563D01*
X754Y1561D01*
X750Y1561D01*
X750Y1559D01*
X746Y1559D01*
X746Y1557D01*
X742Y1557D01*
X742Y1555D01*
X738Y1555D01*
X738Y1553D01*
X734Y1553D01*
X734Y1551D01*
X730Y1551D01*
X730Y1549D01*
X726Y1549D01*
X726Y1547D01*
X722Y1547D01*
X722Y1545D01*
X718Y1545D01*
X718Y1543D01*
X714Y1543D01*
X714Y1541D01*
X710Y1541D01*
X710Y1539D01*
X706Y1539D01*
X706Y1537D01*
X702Y1537D01*
X702Y1535D01*
X698Y1535D01*
X698Y1533D01*
X692Y1533D01*
X692Y1531D01*
X688Y1531D01*
X688Y1529D01*
X684Y1529D01*
X684Y1527D01*
X680Y1527D01*
X680Y1525D01*
X676Y1525D01*
X676Y1523D01*
X672Y1523D01*
X672Y1521D01*
X668Y1521D01*
X668Y1519D01*
X664Y1519D01*
X664Y1517D01*
X660Y1517D01*
X660Y1515D01*
X656Y1515D01*
X656Y1513D01*
X654Y1513D01*
X654Y1511D01*
X650Y1511D01*
X650Y1509D01*
X646Y1509D01*
X646Y1507D01*
X642Y1507D01*
X642Y1505D01*
X638Y1505D01*
X638Y1503D01*
X634Y1503D01*
X634Y1481D01*
X636Y1481D01*
X636Y1479D01*
X638Y1479D01*
X638Y1475D01*
X640Y1475D01*
X640Y1473D01*
X642Y1473D01*
X642Y1469D01*
X644Y1469D01*
X644Y1461D01*
X646Y1461D01*
X646Y1441D01*
X644Y1441D01*
X644Y1435D01*
X642Y1435D01*
X642Y1431D01*
X640Y1431D01*
X640Y1427D01*
X638Y1427D01*
X638Y1425D01*
X636Y1425D01*
X636Y1423D01*
X634Y1423D01*
X634Y1421D01*
X632Y1421D01*
X632Y1419D01*
X630Y1419D01*
X630Y1417D01*
X628Y1417D01*
X628Y1415D01*
X626Y1415D01*
X626Y1413D01*
X622Y1413D01*
X622Y1411D01*
X618Y1411D01*
X618Y1409D01*
X610Y1409D01*
X610Y1407D01*
X1064Y1407D01*
X1064Y1579D01*
X1062Y1579D01*
X1062Y1583D01*
X1060Y1583D01*
X1060Y1589D01*
X1040Y1589D01*
G37*
D02*
G36*
X1138Y1557D02*
X1138Y1555D01*
X2264Y1555D01*
X2264Y1557D01*
X1138Y1557D01*
G37*
D02*
G36*
X1138Y1557D02*
X1138Y1555D01*
X2264Y1555D01*
X2264Y1557D01*
X1138Y1557D01*
G37*
D02*
G36*
X1138Y1555D02*
X1138Y1297D01*
X1856Y1297D01*
X1856Y1295D01*
X1866Y1295D01*
X1866Y1293D01*
X1870Y1293D01*
X1870Y1291D01*
X1874Y1291D01*
X1874Y1289D01*
X1878Y1289D01*
X1878Y1287D01*
X1880Y1287D01*
X1880Y1285D01*
X1882Y1285D01*
X1882Y1283D01*
X1884Y1283D01*
X1884Y1281D01*
X1886Y1281D01*
X1886Y1279D01*
X1888Y1279D01*
X1888Y1275D01*
X1890Y1275D01*
X1890Y1273D01*
X1892Y1273D01*
X1892Y1269D01*
X1894Y1269D01*
X1894Y1261D01*
X1914Y1261D01*
X1914Y1411D01*
X1916Y1411D01*
X1916Y1417D01*
X1918Y1417D01*
X1918Y1421D01*
X1920Y1421D01*
X1920Y1423D01*
X1922Y1423D01*
X1922Y1425D01*
X1924Y1425D01*
X1924Y1429D01*
X1928Y1429D01*
X1928Y1431D01*
X1930Y1431D01*
X1930Y1433D01*
X1934Y1433D01*
X1934Y1435D01*
X1938Y1435D01*
X1938Y1437D01*
X1944Y1437D01*
X1944Y1439D01*
X2196Y1439D01*
X2196Y1441D01*
X2200Y1441D01*
X2200Y1443D01*
X2204Y1443D01*
X2204Y1445D01*
X2208Y1445D01*
X2208Y1447D01*
X2212Y1447D01*
X2212Y1449D01*
X2216Y1449D01*
X2216Y1451D01*
X2220Y1451D01*
X2220Y1453D01*
X2222Y1453D01*
X2222Y1455D01*
X2226Y1455D01*
X2226Y1457D01*
X2230Y1457D01*
X2230Y1459D01*
X2234Y1459D01*
X2234Y1461D01*
X2238Y1461D01*
X2238Y1463D01*
X2242Y1463D01*
X2242Y1465D01*
X2246Y1465D01*
X2246Y1467D01*
X2250Y1467D01*
X2250Y1469D01*
X2254Y1469D01*
X2254Y1471D01*
X2258Y1471D01*
X2258Y1473D01*
X2262Y1473D01*
X2262Y1475D01*
X2264Y1475D01*
X2264Y1555D01*
X1138Y1555D01*
G37*
D02*
G36*
X242Y1497D02*
X242Y1489D01*
X240Y1489D01*
X240Y1483D01*
X238Y1483D01*
X238Y1479D01*
X236Y1479D01*
X236Y1475D01*
X234Y1475D01*
X234Y1471D01*
X232Y1471D01*
X232Y1467D01*
X230Y1467D01*
X230Y1463D01*
X228Y1463D01*
X228Y1459D01*
X226Y1459D01*
X226Y1455D01*
X224Y1455D01*
X224Y1451D01*
X222Y1451D01*
X222Y1447D01*
X220Y1447D01*
X220Y1443D01*
X218Y1443D01*
X218Y1441D01*
X216Y1441D01*
X216Y1437D01*
X214Y1437D01*
X214Y1433D01*
X212Y1433D01*
X212Y1429D01*
X210Y1429D01*
X210Y1425D01*
X208Y1425D01*
X208Y1421D01*
X206Y1421D01*
X206Y1417D01*
X204Y1417D01*
X204Y1413D01*
X202Y1413D01*
X202Y1409D01*
X200Y1409D01*
X200Y1405D01*
X198Y1405D01*
X198Y1401D01*
X196Y1401D01*
X196Y1391D01*
X194Y1391D01*
X194Y1385D01*
X192Y1385D01*
X192Y1381D01*
X190Y1381D01*
X190Y1377D01*
X188Y1377D01*
X188Y1375D01*
X186Y1375D01*
X186Y1373D01*
X184Y1373D01*
X184Y1371D01*
X182Y1371D01*
X182Y1369D01*
X180Y1369D01*
X180Y1367D01*
X178Y1367D01*
X178Y1365D01*
X176Y1365D01*
X176Y1363D01*
X172Y1363D01*
X172Y1361D01*
X168Y1361D01*
X168Y1359D01*
X160Y1359D01*
X160Y1357D01*
X208Y1357D01*
X208Y1365D01*
X210Y1365D01*
X210Y1371D01*
X212Y1371D01*
X212Y1373D01*
X214Y1373D01*
X214Y1377D01*
X216Y1377D01*
X216Y1379D01*
X218Y1379D01*
X218Y1383D01*
X220Y1383D01*
X220Y1385D01*
X224Y1385D01*
X224Y1387D01*
X226Y1387D01*
X226Y1389D01*
X230Y1389D01*
X230Y1391D01*
X232Y1391D01*
X232Y1393D01*
X238Y1393D01*
X238Y1395D01*
X244Y1395D01*
X244Y1397D01*
X246Y1397D01*
X246Y1399D01*
X248Y1399D01*
X248Y1401D01*
X250Y1401D01*
X250Y1403D01*
X252Y1403D01*
X252Y1405D01*
X256Y1405D01*
X256Y1407D01*
X258Y1407D01*
X258Y1409D01*
X260Y1409D01*
X260Y1411D01*
X262Y1411D01*
X262Y1433D01*
X260Y1433D01*
X260Y1439D01*
X258Y1439D01*
X258Y1451D01*
X256Y1451D01*
X256Y1453D01*
X258Y1453D01*
X258Y1465D01*
X260Y1465D01*
X260Y1471D01*
X262Y1471D01*
X262Y1473D01*
X264Y1473D01*
X264Y1477D01*
X266Y1477D01*
X266Y1479D01*
X268Y1479D01*
X268Y1483D01*
X270Y1483D01*
X270Y1485D01*
X274Y1485D01*
X274Y1487D01*
X276Y1487D01*
X276Y1489D01*
X280Y1489D01*
X280Y1491D01*
X282Y1491D01*
X282Y1493D01*
X288Y1493D01*
X288Y1495D01*
X296Y1495D01*
X296Y1497D01*
X242Y1497D01*
G37*
D02*
G36*
X552Y1419D02*
X552Y1417D01*
X550Y1417D01*
X550Y1413D01*
X548Y1413D01*
X548Y1409D01*
X546Y1409D01*
X546Y1407D01*
X594Y1407D01*
X594Y1409D01*
X586Y1409D01*
X586Y1411D01*
X582Y1411D01*
X582Y1413D01*
X578Y1413D01*
X578Y1415D01*
X576Y1415D01*
X576Y1417D01*
X572Y1417D01*
X572Y1419D01*
X552Y1419D01*
G37*
D02*
G36*
X546Y1407D02*
X546Y1405D01*
X1064Y1405D01*
X1064Y1407D01*
X546Y1407D01*
G37*
D02*
G36*
X546Y1407D02*
X546Y1405D01*
X1064Y1405D01*
X1064Y1407D01*
X546Y1407D01*
G37*
D02*
G36*
X544Y1405D02*
X544Y1401D01*
X542Y1401D01*
X542Y1397D01*
X540Y1397D01*
X540Y1373D01*
X542Y1373D01*
X542Y1369D01*
X544Y1369D01*
X544Y1361D01*
X546Y1361D01*
X546Y1341D01*
X544Y1341D01*
X544Y1335D01*
X542Y1335D01*
X542Y1331D01*
X540Y1331D01*
X540Y1327D01*
X538Y1327D01*
X538Y1325D01*
X536Y1325D01*
X536Y1323D01*
X534Y1323D01*
X534Y1321D01*
X532Y1321D01*
X532Y1319D01*
X530Y1319D01*
X530Y1317D01*
X528Y1317D01*
X528Y1315D01*
X526Y1315D01*
X526Y1313D01*
X522Y1313D01*
X522Y1311D01*
X518Y1311D01*
X518Y1309D01*
X510Y1309D01*
X510Y1307D01*
X1064Y1307D01*
X1064Y1405D01*
X544Y1405D01*
G37*
D02*
G36*
X316Y1363D02*
X316Y1361D01*
X314Y1361D01*
X314Y1359D01*
X312Y1359D01*
X312Y1357D01*
X310Y1357D01*
X310Y1355D01*
X308Y1355D01*
X308Y1353D01*
X306Y1353D01*
X306Y1351D01*
X304Y1351D01*
X304Y1349D01*
X302Y1349D01*
X302Y1347D01*
X300Y1347D01*
X300Y1345D01*
X298Y1345D01*
X298Y1343D01*
X296Y1343D01*
X296Y1341D01*
X294Y1341D01*
X294Y1335D01*
X292Y1335D01*
X292Y1331D01*
X290Y1331D01*
X290Y1327D01*
X288Y1327D01*
X288Y1325D01*
X286Y1325D01*
X286Y1323D01*
X284Y1323D01*
X284Y1321D01*
X282Y1321D01*
X282Y1319D01*
X280Y1319D01*
X280Y1317D01*
X278Y1317D01*
X278Y1315D01*
X276Y1315D01*
X276Y1313D01*
X272Y1313D01*
X272Y1311D01*
X268Y1311D01*
X268Y1309D01*
X260Y1309D01*
X260Y1307D01*
X494Y1307D01*
X494Y1309D01*
X486Y1309D01*
X486Y1311D01*
X482Y1311D01*
X482Y1313D01*
X478Y1313D01*
X478Y1315D01*
X476Y1315D01*
X476Y1317D01*
X472Y1317D01*
X472Y1319D01*
X470Y1319D01*
X470Y1321D01*
X468Y1321D01*
X468Y1323D01*
X466Y1323D01*
X466Y1327D01*
X464Y1327D01*
X464Y1329D01*
X462Y1329D01*
X462Y1333D01*
X460Y1333D01*
X460Y1339D01*
X458Y1339D01*
X458Y1351D01*
X456Y1351D01*
X456Y1363D01*
X316Y1363D01*
G37*
D02*
G36*
X52Y1357D02*
X52Y1355D01*
X208Y1355D01*
X208Y1357D01*
X52Y1357D01*
G37*
D02*
G36*
X52Y1357D02*
X52Y1355D01*
X208Y1355D01*
X208Y1357D01*
X52Y1357D01*
G37*
D02*
G36*
X52Y1355D02*
X52Y1307D01*
X244Y1307D01*
X244Y1309D01*
X236Y1309D01*
X236Y1311D01*
X232Y1311D01*
X232Y1313D01*
X228Y1313D01*
X228Y1315D01*
X226Y1315D01*
X226Y1317D01*
X222Y1317D01*
X222Y1319D01*
X220Y1319D01*
X220Y1321D01*
X218Y1321D01*
X218Y1323D01*
X216Y1323D01*
X216Y1327D01*
X214Y1327D01*
X214Y1329D01*
X212Y1329D01*
X212Y1333D01*
X210Y1333D01*
X210Y1339D01*
X208Y1339D01*
X208Y1351D01*
X206Y1351D01*
X206Y1353D01*
X208Y1353D01*
X208Y1355D01*
X52Y1355D01*
G37*
D02*
G36*
X52Y1307D02*
X52Y1305D01*
X1064Y1305D01*
X1064Y1307D01*
X52Y1307D01*
G37*
D02*
G36*
X52Y1307D02*
X52Y1305D01*
X1064Y1305D01*
X1064Y1307D01*
X52Y1307D01*
G37*
D02*
G36*
X52Y1307D02*
X52Y1305D01*
X1064Y1305D01*
X1064Y1307D01*
X52Y1307D01*
G37*
D02*
G36*
X52Y1305D02*
X52Y1297D01*
X1006Y1297D01*
X1006Y1295D01*
X1016Y1295D01*
X1016Y1293D01*
X1020Y1293D01*
X1020Y1291D01*
X1024Y1291D01*
X1024Y1289D01*
X1028Y1289D01*
X1028Y1287D01*
X1030Y1287D01*
X1030Y1285D01*
X1032Y1285D01*
X1032Y1283D01*
X1034Y1283D01*
X1034Y1281D01*
X1036Y1281D01*
X1036Y1279D01*
X1038Y1279D01*
X1038Y1275D01*
X1040Y1275D01*
X1040Y1273D01*
X1042Y1273D01*
X1042Y1269D01*
X1044Y1269D01*
X1044Y1261D01*
X1064Y1261D01*
X1064Y1305D01*
X52Y1305D01*
G37*
D02*
G36*
X52Y1297D02*
X52Y1207D01*
X294Y1207D01*
X294Y1209D01*
X286Y1209D01*
X286Y1211D01*
X282Y1211D01*
X282Y1213D01*
X278Y1213D01*
X278Y1215D01*
X276Y1215D01*
X276Y1217D01*
X272Y1217D01*
X272Y1219D01*
X270Y1219D01*
X270Y1221D01*
X268Y1221D01*
X268Y1223D01*
X266Y1223D01*
X266Y1227D01*
X264Y1227D01*
X264Y1229D01*
X262Y1229D01*
X262Y1233D01*
X260Y1233D01*
X260Y1239D01*
X258Y1239D01*
X258Y1251D01*
X256Y1251D01*
X256Y1253D01*
X258Y1253D01*
X258Y1265D01*
X260Y1265D01*
X260Y1271D01*
X262Y1271D01*
X262Y1273D01*
X264Y1273D01*
X264Y1277D01*
X266Y1277D01*
X266Y1279D01*
X268Y1279D01*
X268Y1283D01*
X270Y1283D01*
X270Y1285D01*
X274Y1285D01*
X274Y1287D01*
X276Y1287D01*
X276Y1289D01*
X280Y1289D01*
X280Y1291D01*
X282Y1291D01*
X282Y1293D01*
X288Y1293D01*
X288Y1295D01*
X296Y1295D01*
X296Y1297D01*
X52Y1297D01*
G37*
D02*
G36*
X306Y1297D02*
X306Y1295D01*
X316Y1295D01*
X316Y1293D01*
X320Y1293D01*
X320Y1291D01*
X324Y1291D01*
X324Y1289D01*
X328Y1289D01*
X328Y1287D01*
X330Y1287D01*
X330Y1285D01*
X332Y1285D01*
X332Y1283D01*
X334Y1283D01*
X334Y1281D01*
X336Y1281D01*
X336Y1279D01*
X338Y1279D01*
X338Y1275D01*
X340Y1275D01*
X340Y1273D01*
X342Y1273D01*
X342Y1269D01*
X344Y1269D01*
X344Y1261D01*
X346Y1261D01*
X346Y1247D01*
X556Y1247D01*
X556Y1245D01*
X566Y1245D01*
X566Y1243D01*
X570Y1243D01*
X570Y1241D01*
X574Y1241D01*
X574Y1239D01*
X578Y1239D01*
X578Y1237D01*
X580Y1237D01*
X580Y1235D01*
X582Y1235D01*
X582Y1233D01*
X584Y1233D01*
X584Y1231D01*
X586Y1231D01*
X586Y1229D01*
X588Y1229D01*
X588Y1225D01*
X590Y1225D01*
X590Y1223D01*
X592Y1223D01*
X592Y1219D01*
X594Y1219D01*
X594Y1211D01*
X596Y1211D01*
X596Y1197D01*
X756Y1197D01*
X756Y1195D01*
X766Y1195D01*
X766Y1193D01*
X770Y1193D01*
X770Y1191D01*
X774Y1191D01*
X774Y1189D01*
X806Y1189D01*
X806Y1203D01*
X808Y1203D01*
X808Y1215D01*
X810Y1215D01*
X810Y1221D01*
X812Y1221D01*
X812Y1223D01*
X814Y1223D01*
X814Y1227D01*
X816Y1227D01*
X816Y1229D01*
X818Y1229D01*
X818Y1233D01*
X820Y1233D01*
X820Y1235D01*
X824Y1235D01*
X824Y1237D01*
X826Y1237D01*
X826Y1239D01*
X830Y1239D01*
X830Y1241D01*
X832Y1241D01*
X832Y1243D01*
X838Y1243D01*
X838Y1245D01*
X846Y1245D01*
X846Y1247D01*
X874Y1247D01*
X874Y1249D01*
X880Y1249D01*
X880Y1251D01*
X886Y1251D01*
X886Y1253D01*
X892Y1253D01*
X892Y1255D01*
X898Y1255D01*
X898Y1257D01*
X904Y1257D01*
X904Y1259D01*
X910Y1259D01*
X910Y1261D01*
X916Y1261D01*
X916Y1263D01*
X922Y1263D01*
X922Y1265D01*
X928Y1265D01*
X928Y1267D01*
X934Y1267D01*
X934Y1269D01*
X940Y1269D01*
X940Y1271D01*
X946Y1271D01*
X946Y1273D01*
X952Y1273D01*
X952Y1275D01*
X958Y1275D01*
X958Y1277D01*
X964Y1277D01*
X964Y1279D01*
X968Y1279D01*
X968Y1283D01*
X970Y1283D01*
X970Y1285D01*
X974Y1285D01*
X974Y1287D01*
X976Y1287D01*
X976Y1289D01*
X980Y1289D01*
X980Y1291D01*
X982Y1291D01*
X982Y1293D01*
X988Y1293D01*
X988Y1295D01*
X996Y1295D01*
X996Y1297D01*
X306Y1297D01*
G37*
D02*
G36*
X1138Y1297D02*
X1138Y1215D01*
X1564Y1215D01*
X1564Y1089D01*
X1658Y1089D01*
X1658Y1101D01*
X1656Y1101D01*
X1656Y1103D01*
X1658Y1103D01*
X1658Y1115D01*
X1660Y1115D01*
X1660Y1121D01*
X1662Y1121D01*
X1662Y1123D01*
X1664Y1123D01*
X1664Y1127D01*
X1666Y1127D01*
X1666Y1129D01*
X1668Y1129D01*
X1668Y1133D01*
X1670Y1133D01*
X1670Y1135D01*
X1674Y1135D01*
X1674Y1137D01*
X1676Y1137D01*
X1676Y1139D01*
X1680Y1139D01*
X1680Y1141D01*
X1682Y1141D01*
X1682Y1143D01*
X1688Y1143D01*
X1688Y1145D01*
X1694Y1145D01*
X1694Y1147D01*
X1696Y1147D01*
X1696Y1149D01*
X1698Y1149D01*
X1698Y1151D01*
X1700Y1151D01*
X1700Y1153D01*
X1702Y1153D01*
X1702Y1155D01*
X1704Y1155D01*
X1704Y1157D01*
X1706Y1157D01*
X1706Y1159D01*
X1708Y1159D01*
X1708Y1161D01*
X1710Y1161D01*
X1710Y1163D01*
X1712Y1163D01*
X1712Y1165D01*
X1714Y1165D01*
X1714Y1167D01*
X1716Y1167D01*
X1716Y1169D01*
X1718Y1169D01*
X1718Y1171D01*
X1720Y1171D01*
X1720Y1173D01*
X1722Y1173D01*
X1722Y1175D01*
X1724Y1175D01*
X1724Y1177D01*
X1726Y1177D01*
X1726Y1179D01*
X1728Y1179D01*
X1728Y1181D01*
X1730Y1181D01*
X1730Y1183D01*
X1732Y1183D01*
X1732Y1185D01*
X1734Y1185D01*
X1734Y1187D01*
X1736Y1187D01*
X1736Y1189D01*
X1738Y1189D01*
X1738Y1191D01*
X1740Y1191D01*
X1740Y1193D01*
X1742Y1193D01*
X1742Y1195D01*
X1744Y1195D01*
X1744Y1197D01*
X1746Y1197D01*
X1746Y1199D01*
X1748Y1199D01*
X1748Y1201D01*
X1750Y1201D01*
X1750Y1203D01*
X1752Y1203D01*
X1752Y1205D01*
X1754Y1205D01*
X1754Y1207D01*
X1756Y1207D01*
X1756Y1209D01*
X1758Y1209D01*
X1758Y1211D01*
X1760Y1211D01*
X1760Y1213D01*
X1762Y1213D01*
X1762Y1215D01*
X1764Y1215D01*
X1764Y1217D01*
X1766Y1217D01*
X1766Y1219D01*
X1768Y1219D01*
X1768Y1221D01*
X1770Y1221D01*
X1770Y1223D01*
X1772Y1223D01*
X1772Y1225D01*
X1774Y1225D01*
X1774Y1227D01*
X1776Y1227D01*
X1776Y1229D01*
X1778Y1229D01*
X1778Y1231D01*
X1782Y1231D01*
X1782Y1233D01*
X1786Y1233D01*
X1786Y1235D01*
X1790Y1235D01*
X1790Y1237D01*
X1804Y1237D01*
X1804Y1239D01*
X1806Y1239D01*
X1806Y1253D01*
X1808Y1253D01*
X1808Y1265D01*
X1810Y1265D01*
X1810Y1271D01*
X1812Y1271D01*
X1812Y1273D01*
X1814Y1273D01*
X1814Y1277D01*
X1816Y1277D01*
X1816Y1279D01*
X1818Y1279D01*
X1818Y1283D01*
X1820Y1283D01*
X1820Y1285D01*
X1824Y1285D01*
X1824Y1287D01*
X1826Y1287D01*
X1826Y1289D01*
X1830Y1289D01*
X1830Y1291D01*
X1832Y1291D01*
X1832Y1293D01*
X1838Y1293D01*
X1838Y1295D01*
X1846Y1295D01*
X1846Y1297D01*
X1138Y1297D01*
G37*
D02*
G36*
X346Y1247D02*
X346Y1241D01*
X344Y1241D01*
X344Y1235D01*
X342Y1235D01*
X342Y1231D01*
X340Y1231D01*
X340Y1227D01*
X338Y1227D01*
X338Y1225D01*
X336Y1225D01*
X336Y1223D01*
X334Y1223D01*
X334Y1221D01*
X332Y1221D01*
X332Y1219D01*
X330Y1219D01*
X330Y1217D01*
X328Y1217D01*
X328Y1215D01*
X326Y1215D01*
X326Y1213D01*
X322Y1213D01*
X322Y1211D01*
X318Y1211D01*
X318Y1209D01*
X310Y1209D01*
X310Y1207D01*
X508Y1207D01*
X508Y1215D01*
X510Y1215D01*
X510Y1221D01*
X512Y1221D01*
X512Y1223D01*
X514Y1223D01*
X514Y1227D01*
X516Y1227D01*
X516Y1229D01*
X518Y1229D01*
X518Y1233D01*
X520Y1233D01*
X520Y1235D01*
X524Y1235D01*
X524Y1237D01*
X526Y1237D01*
X526Y1239D01*
X530Y1239D01*
X530Y1241D01*
X532Y1241D01*
X532Y1243D01*
X538Y1243D01*
X538Y1245D01*
X546Y1245D01*
X546Y1247D01*
X346Y1247D01*
G37*
D02*
G36*
X1138Y1215D02*
X1138Y1147D01*
X1256Y1147D01*
X1256Y1145D01*
X1266Y1145D01*
X1266Y1143D01*
X1270Y1143D01*
X1270Y1141D01*
X1274Y1141D01*
X1274Y1139D01*
X1278Y1139D01*
X1278Y1137D01*
X1280Y1137D01*
X1280Y1135D01*
X1282Y1135D01*
X1282Y1133D01*
X1284Y1133D01*
X1284Y1131D01*
X1286Y1131D01*
X1286Y1129D01*
X1288Y1129D01*
X1288Y1125D01*
X1290Y1125D01*
X1290Y1123D01*
X1292Y1123D01*
X1292Y1119D01*
X1294Y1119D01*
X1294Y1111D01*
X1296Y1111D01*
X1296Y1091D01*
X1294Y1091D01*
X1294Y1089D01*
X1392Y1089D01*
X1392Y1091D01*
X1384Y1091D01*
X1384Y1093D01*
X1378Y1093D01*
X1378Y1095D01*
X1374Y1095D01*
X1374Y1097D01*
X1370Y1097D01*
X1370Y1099D01*
X1366Y1099D01*
X1366Y1101D01*
X1364Y1101D01*
X1364Y1103D01*
X1362Y1103D01*
X1362Y1105D01*
X1360Y1105D01*
X1360Y1107D01*
X1358Y1107D01*
X1358Y1109D01*
X1356Y1109D01*
X1356Y1111D01*
X1354Y1111D01*
X1354Y1113D01*
X1352Y1113D01*
X1352Y1115D01*
X1350Y1115D01*
X1350Y1119D01*
X1348Y1119D01*
X1348Y1121D01*
X1346Y1121D01*
X1346Y1125D01*
X1344Y1125D01*
X1344Y1131D01*
X1342Y1131D01*
X1342Y1137D01*
X1340Y1137D01*
X1340Y1167D01*
X1342Y1167D01*
X1342Y1173D01*
X1344Y1173D01*
X1344Y1177D01*
X1346Y1177D01*
X1346Y1181D01*
X1348Y1181D01*
X1348Y1185D01*
X1350Y1185D01*
X1350Y1189D01*
X1352Y1189D01*
X1352Y1191D01*
X1354Y1191D01*
X1354Y1193D01*
X1356Y1193D01*
X1356Y1195D01*
X1358Y1195D01*
X1358Y1197D01*
X1360Y1197D01*
X1360Y1199D01*
X1362Y1199D01*
X1362Y1201D01*
X1364Y1201D01*
X1364Y1203D01*
X1368Y1203D01*
X1368Y1205D01*
X1370Y1205D01*
X1370Y1207D01*
X1374Y1207D01*
X1374Y1209D01*
X1380Y1209D01*
X1380Y1211D01*
X1386Y1211D01*
X1386Y1213D01*
X1398Y1213D01*
X1398Y1215D01*
X1138Y1215D01*
G37*
D02*
G36*
X1406Y1215D02*
X1406Y1213D01*
X1418Y1213D01*
X1418Y1211D01*
X1440Y1211D01*
X1440Y1215D01*
X1406Y1215D01*
G37*
D02*
G36*
X52Y1207D02*
X52Y1205D01*
X508Y1205D01*
X508Y1207D01*
X52Y1207D01*
G37*
D02*
G36*
X52Y1207D02*
X52Y1205D01*
X508Y1205D01*
X508Y1207D01*
X52Y1207D01*
G37*
D02*
G36*
X52Y1205D02*
X52Y1157D01*
X544Y1157D01*
X544Y1159D01*
X536Y1159D01*
X536Y1161D01*
X532Y1161D01*
X532Y1163D01*
X528Y1163D01*
X528Y1165D01*
X526Y1165D01*
X526Y1167D01*
X522Y1167D01*
X522Y1169D01*
X520Y1169D01*
X520Y1171D01*
X518Y1171D01*
X518Y1173D01*
X516Y1173D01*
X516Y1177D01*
X514Y1177D01*
X514Y1179D01*
X512Y1179D01*
X512Y1183D01*
X510Y1183D01*
X510Y1189D01*
X508Y1189D01*
X508Y1201D01*
X506Y1201D01*
X506Y1203D01*
X508Y1203D01*
X508Y1205D01*
X52Y1205D01*
G37*
D02*
G36*
X596Y1197D02*
X596Y1191D01*
X594Y1191D01*
X594Y1185D01*
X592Y1185D01*
X592Y1181D01*
X590Y1181D01*
X590Y1177D01*
X588Y1177D01*
X588Y1175D01*
X586Y1175D01*
X586Y1173D01*
X584Y1173D01*
X584Y1171D01*
X582Y1171D01*
X582Y1169D01*
X580Y1169D01*
X580Y1167D01*
X578Y1167D01*
X578Y1165D01*
X576Y1165D01*
X576Y1163D01*
X572Y1163D01*
X572Y1161D01*
X568Y1161D01*
X568Y1159D01*
X560Y1159D01*
X560Y1157D01*
X708Y1157D01*
X708Y1165D01*
X710Y1165D01*
X710Y1171D01*
X712Y1171D01*
X712Y1173D01*
X714Y1173D01*
X714Y1177D01*
X716Y1177D01*
X716Y1179D01*
X718Y1179D01*
X718Y1183D01*
X720Y1183D01*
X720Y1185D01*
X724Y1185D01*
X724Y1187D01*
X726Y1187D01*
X726Y1189D01*
X730Y1189D01*
X730Y1191D01*
X732Y1191D01*
X732Y1193D01*
X738Y1193D01*
X738Y1195D01*
X746Y1195D01*
X746Y1197D01*
X596Y1197D01*
G37*
D02*
G36*
X52Y1157D02*
X52Y1155D01*
X708Y1155D01*
X708Y1157D01*
X52Y1157D01*
G37*
D02*
G36*
X52Y1157D02*
X52Y1155D01*
X708Y1155D01*
X708Y1157D01*
X52Y1157D01*
G37*
D02*
G36*
X52Y1155D02*
X52Y1147D01*
X506Y1147D01*
X506Y1145D01*
X516Y1145D01*
X516Y1143D01*
X520Y1143D01*
X520Y1141D01*
X524Y1141D01*
X524Y1139D01*
X528Y1139D01*
X528Y1137D01*
X530Y1137D01*
X530Y1135D01*
X532Y1135D01*
X532Y1133D01*
X534Y1133D01*
X534Y1131D01*
X536Y1131D01*
X536Y1129D01*
X538Y1129D01*
X538Y1125D01*
X540Y1125D01*
X540Y1123D01*
X542Y1123D01*
X542Y1119D01*
X544Y1119D01*
X544Y1111D01*
X546Y1111D01*
X546Y1107D01*
X744Y1107D01*
X744Y1109D01*
X736Y1109D01*
X736Y1111D01*
X732Y1111D01*
X732Y1113D01*
X728Y1113D01*
X728Y1115D01*
X726Y1115D01*
X726Y1117D01*
X722Y1117D01*
X722Y1119D01*
X720Y1119D01*
X720Y1121D01*
X718Y1121D01*
X718Y1123D01*
X716Y1123D01*
X716Y1127D01*
X714Y1127D01*
X714Y1129D01*
X712Y1129D01*
X712Y1133D01*
X710Y1133D01*
X710Y1139D01*
X708Y1139D01*
X708Y1151D01*
X706Y1151D01*
X706Y1153D01*
X708Y1153D01*
X708Y1155D01*
X52Y1155D01*
G37*
D02*
G36*
X52Y1147D02*
X52Y1047D01*
X406Y1047D01*
X406Y1045D01*
X416Y1045D01*
X416Y1043D01*
X420Y1043D01*
X420Y1041D01*
X424Y1041D01*
X424Y1039D01*
X428Y1039D01*
X428Y1037D01*
X430Y1037D01*
X430Y1035D01*
X432Y1035D01*
X432Y1033D01*
X434Y1033D01*
X434Y1031D01*
X436Y1031D01*
X436Y1029D01*
X438Y1029D01*
X438Y1025D01*
X440Y1025D01*
X440Y1023D01*
X442Y1023D01*
X442Y1019D01*
X444Y1019D01*
X444Y1011D01*
X446Y1011D01*
X446Y1007D01*
X544Y1007D01*
X544Y1009D01*
X536Y1009D01*
X536Y1011D01*
X532Y1011D01*
X532Y1013D01*
X528Y1013D01*
X528Y1015D01*
X526Y1015D01*
X526Y1017D01*
X522Y1017D01*
X522Y1019D01*
X520Y1019D01*
X520Y1021D01*
X518Y1021D01*
X518Y1023D01*
X516Y1023D01*
X516Y1027D01*
X514Y1027D01*
X514Y1029D01*
X512Y1029D01*
X512Y1033D01*
X510Y1033D01*
X510Y1039D01*
X508Y1039D01*
X508Y1051D01*
X506Y1051D01*
X506Y1057D01*
X494Y1057D01*
X494Y1059D01*
X486Y1059D01*
X486Y1061D01*
X482Y1061D01*
X482Y1063D01*
X478Y1063D01*
X478Y1065D01*
X476Y1065D01*
X476Y1067D01*
X472Y1067D01*
X472Y1069D01*
X470Y1069D01*
X470Y1071D01*
X468Y1071D01*
X468Y1073D01*
X466Y1073D01*
X466Y1077D01*
X464Y1077D01*
X464Y1079D01*
X462Y1079D01*
X462Y1083D01*
X460Y1083D01*
X460Y1089D01*
X458Y1089D01*
X458Y1101D01*
X456Y1101D01*
X456Y1103D01*
X458Y1103D01*
X458Y1115D01*
X460Y1115D01*
X460Y1121D01*
X462Y1121D01*
X462Y1123D01*
X464Y1123D01*
X464Y1127D01*
X466Y1127D01*
X466Y1129D01*
X468Y1129D01*
X468Y1133D01*
X470Y1133D01*
X470Y1135D01*
X474Y1135D01*
X474Y1137D01*
X476Y1137D01*
X476Y1139D01*
X480Y1139D01*
X480Y1141D01*
X482Y1141D01*
X482Y1143D01*
X488Y1143D01*
X488Y1145D01*
X496Y1145D01*
X496Y1147D01*
X52Y1147D01*
G37*
D02*
G36*
X1138Y1147D02*
X1138Y1125D01*
X1140Y1125D01*
X1140Y1123D01*
X1142Y1123D01*
X1142Y1119D01*
X1144Y1119D01*
X1144Y1111D01*
X1146Y1111D01*
X1146Y1091D01*
X1144Y1091D01*
X1144Y1085D01*
X1142Y1085D01*
X1142Y1081D01*
X1140Y1081D01*
X1140Y1077D01*
X1138Y1077D01*
X1138Y1075D01*
X1136Y1075D01*
X1136Y1073D01*
X1134Y1073D01*
X1134Y1071D01*
X1132Y1071D01*
X1132Y1069D01*
X1130Y1069D01*
X1130Y1067D01*
X1128Y1067D01*
X1128Y1065D01*
X1126Y1065D01*
X1126Y1063D01*
X1122Y1063D01*
X1122Y1061D01*
X1118Y1061D01*
X1118Y1059D01*
X1110Y1059D01*
X1110Y1057D01*
X1244Y1057D01*
X1244Y1059D01*
X1236Y1059D01*
X1236Y1061D01*
X1232Y1061D01*
X1232Y1063D01*
X1228Y1063D01*
X1228Y1065D01*
X1226Y1065D01*
X1226Y1067D01*
X1222Y1067D01*
X1222Y1069D01*
X1220Y1069D01*
X1220Y1071D01*
X1218Y1071D01*
X1218Y1073D01*
X1216Y1073D01*
X1216Y1077D01*
X1214Y1077D01*
X1214Y1079D01*
X1212Y1079D01*
X1212Y1083D01*
X1210Y1083D01*
X1210Y1089D01*
X1208Y1089D01*
X1208Y1101D01*
X1206Y1101D01*
X1206Y1103D01*
X1208Y1103D01*
X1208Y1115D01*
X1210Y1115D01*
X1210Y1121D01*
X1212Y1121D01*
X1212Y1123D01*
X1214Y1123D01*
X1214Y1127D01*
X1216Y1127D01*
X1216Y1129D01*
X1218Y1129D01*
X1218Y1133D01*
X1220Y1133D01*
X1220Y1135D01*
X1224Y1135D01*
X1224Y1137D01*
X1226Y1137D01*
X1226Y1139D01*
X1230Y1139D01*
X1230Y1141D01*
X1232Y1141D01*
X1232Y1143D01*
X1238Y1143D01*
X1238Y1145D01*
X1246Y1145D01*
X1246Y1147D01*
X1138Y1147D01*
G37*
D02*
G36*
X1044Y1141D02*
X1044Y1135D01*
X1042Y1135D01*
X1042Y1131D01*
X1040Y1131D01*
X1040Y1127D01*
X1038Y1127D01*
X1038Y1125D01*
X1036Y1125D01*
X1036Y1123D01*
X1034Y1123D01*
X1034Y1121D01*
X1032Y1121D01*
X1032Y1119D01*
X1030Y1119D01*
X1030Y1117D01*
X1028Y1117D01*
X1028Y1115D01*
X1026Y1115D01*
X1026Y1113D01*
X1022Y1113D01*
X1022Y1111D01*
X1018Y1111D01*
X1018Y1109D01*
X1010Y1109D01*
X1010Y1107D01*
X1058Y1107D01*
X1058Y1115D01*
X1060Y1115D01*
X1060Y1121D01*
X1062Y1121D01*
X1062Y1123D01*
X1064Y1123D01*
X1064Y1141D01*
X1044Y1141D01*
G37*
D02*
G36*
X776Y1115D02*
X776Y1113D01*
X772Y1113D01*
X772Y1111D01*
X768Y1111D01*
X768Y1109D01*
X760Y1109D01*
X760Y1107D01*
X994Y1107D01*
X994Y1109D01*
X986Y1109D01*
X986Y1111D01*
X982Y1111D01*
X982Y1113D01*
X978Y1113D01*
X978Y1115D01*
X776Y1115D01*
G37*
D02*
G36*
X546Y1107D02*
X546Y1105D01*
X1058Y1105D01*
X1058Y1107D01*
X546Y1107D01*
G37*
D02*
G36*
X546Y1107D02*
X546Y1105D01*
X1058Y1105D01*
X1058Y1107D01*
X546Y1107D01*
G37*
D02*
G36*
X546Y1107D02*
X546Y1105D01*
X1058Y1105D01*
X1058Y1107D01*
X546Y1107D01*
G37*
D02*
G36*
X546Y1105D02*
X546Y1097D01*
X556Y1097D01*
X556Y1095D01*
X566Y1095D01*
X566Y1093D01*
X570Y1093D01*
X570Y1091D01*
X574Y1091D01*
X574Y1089D01*
X578Y1089D01*
X578Y1087D01*
X580Y1087D01*
X580Y1085D01*
X582Y1085D01*
X582Y1083D01*
X584Y1083D01*
X584Y1081D01*
X586Y1081D01*
X586Y1079D01*
X588Y1079D01*
X588Y1075D01*
X590Y1075D01*
X590Y1073D01*
X592Y1073D01*
X592Y1069D01*
X594Y1069D01*
X594Y1061D01*
X596Y1061D01*
X596Y1057D01*
X1094Y1057D01*
X1094Y1059D01*
X1086Y1059D01*
X1086Y1061D01*
X1082Y1061D01*
X1082Y1063D01*
X1078Y1063D01*
X1078Y1065D01*
X1076Y1065D01*
X1076Y1067D01*
X1072Y1067D01*
X1072Y1069D01*
X1070Y1069D01*
X1070Y1071D01*
X1068Y1071D01*
X1068Y1073D01*
X1066Y1073D01*
X1066Y1077D01*
X1064Y1077D01*
X1064Y1079D01*
X1062Y1079D01*
X1062Y1083D01*
X1060Y1083D01*
X1060Y1089D01*
X1058Y1089D01*
X1058Y1101D01*
X1056Y1101D01*
X1056Y1103D01*
X1058Y1103D01*
X1058Y1105D01*
X546Y1105D01*
G37*
D02*
G36*
X1420Y1093D02*
X1420Y1091D01*
X1410Y1091D01*
X1410Y1089D01*
X1440Y1089D01*
X1440Y1093D01*
X1420Y1093D01*
G37*
D02*
G36*
X1294Y1089D02*
X1294Y1087D01*
X1660Y1087D01*
X1660Y1089D01*
X1294Y1089D01*
G37*
D02*
G36*
X1294Y1089D02*
X1294Y1087D01*
X1660Y1087D01*
X1660Y1089D01*
X1294Y1089D01*
G37*
D02*
G36*
X1294Y1089D02*
X1294Y1087D01*
X1660Y1087D01*
X1660Y1089D01*
X1294Y1089D01*
G37*
D02*
G36*
X1294Y1087D02*
X1294Y1085D01*
X1292Y1085D01*
X1292Y1081D01*
X1290Y1081D01*
X1290Y1077D01*
X1288Y1077D01*
X1288Y1075D01*
X1286Y1075D01*
X1286Y1073D01*
X1284Y1073D01*
X1284Y1071D01*
X1282Y1071D01*
X1282Y1069D01*
X1280Y1069D01*
X1280Y1067D01*
X1278Y1067D01*
X1278Y1065D01*
X1276Y1065D01*
X1276Y1063D01*
X1272Y1063D01*
X1272Y1061D01*
X1268Y1061D01*
X1268Y1059D01*
X1260Y1059D01*
X1260Y1057D01*
X1694Y1057D01*
X1694Y1059D01*
X1686Y1059D01*
X1686Y1061D01*
X1682Y1061D01*
X1682Y1063D01*
X1678Y1063D01*
X1678Y1065D01*
X1676Y1065D01*
X1676Y1067D01*
X1672Y1067D01*
X1672Y1069D01*
X1670Y1069D01*
X1670Y1071D01*
X1668Y1071D01*
X1668Y1073D01*
X1666Y1073D01*
X1666Y1077D01*
X1664Y1077D01*
X1664Y1079D01*
X1662Y1079D01*
X1662Y1083D01*
X1660Y1083D01*
X1660Y1087D01*
X1294Y1087D01*
G37*
D02*
G36*
X596Y1057D02*
X596Y1055D01*
X1694Y1055D01*
X1694Y1057D01*
X596Y1057D01*
G37*
D02*
G36*
X596Y1057D02*
X596Y1055D01*
X1694Y1055D01*
X1694Y1057D01*
X596Y1057D01*
G37*
D02*
G36*
X596Y1057D02*
X596Y1055D01*
X1694Y1055D01*
X1694Y1057D01*
X596Y1057D01*
G37*
D02*
G36*
X596Y1055D02*
X596Y1041D01*
X594Y1041D01*
X594Y1035D01*
X592Y1035D01*
X592Y1031D01*
X590Y1031D01*
X590Y1027D01*
X588Y1027D01*
X588Y1025D01*
X586Y1025D01*
X586Y1023D01*
X584Y1023D01*
X584Y1021D01*
X582Y1021D01*
X582Y1019D01*
X580Y1019D01*
X580Y1017D01*
X578Y1017D01*
X578Y1015D01*
X576Y1015D01*
X576Y1013D01*
X572Y1013D01*
X572Y1011D01*
X568Y1011D01*
X568Y1009D01*
X560Y1009D01*
X560Y1007D01*
X1314Y1007D01*
X1314Y1013D01*
X1316Y1013D01*
X1316Y1017D01*
X1318Y1017D01*
X1318Y1021D01*
X1320Y1021D01*
X1320Y1025D01*
X1322Y1025D01*
X1322Y1027D01*
X1324Y1027D01*
X1324Y1029D01*
X1326Y1029D01*
X1326Y1031D01*
X1328Y1031D01*
X1328Y1033D01*
X1332Y1033D01*
X1332Y1035D01*
X1336Y1035D01*
X1336Y1037D01*
X1340Y1037D01*
X1340Y1039D01*
X1694Y1039D01*
X1694Y1055D01*
X596Y1055D01*
G37*
D02*
G36*
X52Y1047D02*
X52Y747D01*
X306Y747D01*
X306Y745D01*
X316Y745D01*
X316Y743D01*
X320Y743D01*
X320Y741D01*
X324Y741D01*
X324Y739D01*
X444Y739D01*
X444Y759D01*
X436Y759D01*
X436Y761D01*
X432Y761D01*
X432Y763D01*
X428Y763D01*
X428Y765D01*
X426Y765D01*
X426Y767D01*
X422Y767D01*
X422Y769D01*
X420Y769D01*
X420Y771D01*
X418Y771D01*
X418Y773D01*
X416Y773D01*
X416Y777D01*
X414Y777D01*
X414Y779D01*
X412Y779D01*
X412Y783D01*
X410Y783D01*
X410Y789D01*
X408Y789D01*
X408Y801D01*
X406Y801D01*
X406Y803D01*
X408Y803D01*
X408Y815D01*
X410Y815D01*
X410Y821D01*
X412Y821D01*
X412Y823D01*
X414Y823D01*
X414Y827D01*
X416Y827D01*
X416Y829D01*
X418Y829D01*
X418Y833D01*
X420Y833D01*
X420Y835D01*
X424Y835D01*
X424Y837D01*
X426Y837D01*
X426Y839D01*
X430Y839D01*
X430Y859D01*
X398Y859D01*
X398Y861D01*
X340Y861D01*
X340Y863D01*
X284Y863D01*
X284Y865D01*
X244Y865D01*
X244Y867D01*
X236Y867D01*
X236Y869D01*
X232Y869D01*
X232Y871D01*
X230Y871D01*
X230Y873D01*
X228Y873D01*
X228Y875D01*
X224Y875D01*
X224Y877D01*
X222Y877D01*
X222Y881D01*
X220Y881D01*
X220Y883D01*
X218Y883D01*
X218Y887D01*
X216Y887D01*
X216Y893D01*
X214Y893D01*
X214Y979D01*
X212Y979D01*
X212Y983D01*
X210Y983D01*
X210Y989D01*
X208Y989D01*
X208Y1001D01*
X206Y1001D01*
X206Y1003D01*
X208Y1003D01*
X208Y1015D01*
X210Y1015D01*
X210Y1021D01*
X212Y1021D01*
X212Y1023D01*
X214Y1023D01*
X214Y1027D01*
X216Y1027D01*
X216Y1029D01*
X218Y1029D01*
X218Y1033D01*
X220Y1033D01*
X220Y1035D01*
X224Y1035D01*
X224Y1037D01*
X226Y1037D01*
X226Y1039D01*
X230Y1039D01*
X230Y1041D01*
X232Y1041D01*
X232Y1043D01*
X238Y1043D01*
X238Y1045D01*
X246Y1045D01*
X246Y1047D01*
X52Y1047D01*
G37*
D02*
G36*
X256Y1047D02*
X256Y1045D01*
X266Y1045D01*
X266Y1043D01*
X270Y1043D01*
X270Y1041D01*
X274Y1041D01*
X274Y1039D01*
X278Y1039D01*
X278Y1037D01*
X280Y1037D01*
X280Y1035D01*
X282Y1035D01*
X282Y1033D01*
X284Y1033D01*
X284Y1031D01*
X286Y1031D01*
X286Y1029D01*
X288Y1029D01*
X288Y1025D01*
X290Y1025D01*
X290Y1023D01*
X292Y1023D01*
X292Y1019D01*
X294Y1019D01*
X294Y1011D01*
X296Y1011D01*
X296Y991D01*
X294Y991D01*
X294Y985D01*
X292Y985D01*
X292Y981D01*
X290Y981D01*
X290Y977D01*
X288Y977D01*
X288Y957D01*
X394Y957D01*
X394Y959D01*
X386Y959D01*
X386Y961D01*
X382Y961D01*
X382Y963D01*
X378Y963D01*
X378Y965D01*
X376Y965D01*
X376Y967D01*
X372Y967D01*
X372Y969D01*
X370Y969D01*
X370Y971D01*
X368Y971D01*
X368Y973D01*
X366Y973D01*
X366Y977D01*
X364Y977D01*
X364Y979D01*
X362Y979D01*
X362Y983D01*
X360Y983D01*
X360Y989D01*
X358Y989D01*
X358Y1001D01*
X356Y1001D01*
X356Y1003D01*
X358Y1003D01*
X358Y1015D01*
X360Y1015D01*
X360Y1021D01*
X362Y1021D01*
X362Y1023D01*
X364Y1023D01*
X364Y1027D01*
X366Y1027D01*
X366Y1029D01*
X368Y1029D01*
X368Y1033D01*
X370Y1033D01*
X370Y1035D01*
X374Y1035D01*
X374Y1037D01*
X376Y1037D01*
X376Y1039D01*
X380Y1039D01*
X380Y1041D01*
X382Y1041D01*
X382Y1043D01*
X388Y1043D01*
X388Y1045D01*
X396Y1045D01*
X396Y1047D01*
X256Y1047D01*
G37*
D02*
G36*
X446Y1007D02*
X446Y1005D01*
X1312Y1005D01*
X1312Y1007D01*
X446Y1007D01*
G37*
D02*
G36*
X446Y1007D02*
X446Y1005D01*
X1312Y1005D01*
X1312Y1007D01*
X446Y1007D01*
G37*
D02*
G36*
X446Y1005D02*
X446Y997D01*
X1256Y997D01*
X1256Y995D01*
X1266Y995D01*
X1266Y993D01*
X1270Y993D01*
X1270Y991D01*
X1274Y991D01*
X1274Y989D01*
X1278Y989D01*
X1278Y987D01*
X1280Y987D01*
X1280Y985D01*
X1282Y985D01*
X1282Y983D01*
X1284Y983D01*
X1284Y981D01*
X1304Y981D01*
X1304Y983D01*
X1306Y983D01*
X1306Y989D01*
X1308Y989D01*
X1308Y995D01*
X1310Y995D01*
X1310Y1001D01*
X1312Y1001D01*
X1312Y1005D01*
X446Y1005D01*
G37*
D02*
G36*
X446Y997D02*
X446Y991D01*
X444Y991D01*
X444Y985D01*
X442Y985D01*
X442Y981D01*
X440Y981D01*
X440Y977D01*
X438Y977D01*
X438Y975D01*
X436Y975D01*
X436Y973D01*
X434Y973D01*
X434Y971D01*
X432Y971D01*
X432Y969D01*
X430Y969D01*
X430Y967D01*
X428Y967D01*
X428Y965D01*
X426Y965D01*
X426Y963D01*
X422Y963D01*
X422Y961D01*
X418Y961D01*
X418Y959D01*
X410Y959D01*
X410Y957D01*
X1208Y957D01*
X1208Y965D01*
X1210Y965D01*
X1210Y971D01*
X1212Y971D01*
X1212Y973D01*
X1214Y973D01*
X1214Y977D01*
X1216Y977D01*
X1216Y979D01*
X1218Y979D01*
X1218Y983D01*
X1220Y983D01*
X1220Y985D01*
X1224Y985D01*
X1224Y987D01*
X1226Y987D01*
X1226Y989D01*
X1230Y989D01*
X1230Y991D01*
X1232Y991D01*
X1232Y993D01*
X1238Y993D01*
X1238Y995D01*
X1246Y995D01*
X1246Y997D01*
X446Y997D01*
G37*
D02*
G36*
X288Y957D02*
X288Y955D01*
X1208Y955D01*
X1208Y957D01*
X288Y957D01*
G37*
D02*
G36*
X288Y957D02*
X288Y955D01*
X1208Y955D01*
X1208Y957D01*
X288Y957D01*
G37*
D02*
G36*
X288Y955D02*
X288Y937D01*
X342Y937D01*
X342Y935D01*
X400Y935D01*
X400Y933D01*
X456Y933D01*
X456Y931D01*
X514Y931D01*
X514Y929D01*
X572Y929D01*
X572Y927D01*
X628Y927D01*
X628Y925D01*
X686Y925D01*
X686Y923D01*
X744Y923D01*
X744Y921D01*
X800Y921D01*
X800Y919D01*
X858Y919D01*
X858Y917D01*
X916Y917D01*
X916Y915D01*
X972Y915D01*
X972Y913D01*
X1030Y913D01*
X1030Y911D01*
X1088Y911D01*
X1088Y909D01*
X1120Y909D01*
X1120Y907D01*
X1140Y907D01*
X1140Y905D01*
X1158Y905D01*
X1158Y903D01*
X1176Y903D01*
X1176Y901D01*
X1194Y901D01*
X1194Y899D01*
X1226Y899D01*
X1226Y917D01*
X1222Y917D01*
X1222Y919D01*
X1220Y919D01*
X1220Y921D01*
X1218Y921D01*
X1218Y923D01*
X1216Y923D01*
X1216Y927D01*
X1214Y927D01*
X1214Y929D01*
X1212Y929D01*
X1212Y933D01*
X1210Y933D01*
X1210Y939D01*
X1208Y939D01*
X1208Y951D01*
X1206Y951D01*
X1206Y953D01*
X1208Y953D01*
X1208Y955D01*
X288Y955D01*
G37*
D02*
G36*
X52Y747D02*
X52Y137D01*
X186Y137D01*
X186Y269D01*
X184Y269D01*
X184Y271D01*
X180Y271D01*
X180Y273D01*
X178Y273D01*
X178Y275D01*
X176Y275D01*
X176Y277D01*
X174Y277D01*
X174Y279D01*
X172Y279D01*
X172Y283D01*
X170Y283D01*
X170Y285D01*
X168Y285D01*
X168Y289D01*
X166Y289D01*
X166Y293D01*
X164Y293D01*
X164Y297D01*
X162Y297D01*
X162Y301D01*
X160Y301D01*
X160Y305D01*
X158Y305D01*
X158Y309D01*
X156Y309D01*
X156Y313D01*
X154Y313D01*
X154Y317D01*
X152Y317D01*
X152Y321D01*
X150Y321D01*
X150Y325D01*
X148Y325D01*
X148Y329D01*
X146Y329D01*
X146Y333D01*
X144Y333D01*
X144Y337D01*
X142Y337D01*
X142Y341D01*
X140Y341D01*
X140Y345D01*
X138Y345D01*
X138Y349D01*
X136Y349D01*
X136Y353D01*
X134Y353D01*
X134Y357D01*
X132Y357D01*
X132Y359D01*
X130Y359D01*
X130Y363D01*
X128Y363D01*
X128Y367D01*
X126Y367D01*
X126Y371D01*
X124Y371D01*
X124Y375D01*
X122Y375D01*
X122Y379D01*
X120Y379D01*
X120Y383D01*
X118Y383D01*
X118Y387D01*
X116Y387D01*
X116Y395D01*
X114Y395D01*
X114Y679D01*
X112Y679D01*
X112Y683D01*
X110Y683D01*
X110Y689D01*
X108Y689D01*
X108Y701D01*
X106Y701D01*
X106Y703D01*
X108Y703D01*
X108Y715D01*
X110Y715D01*
X110Y721D01*
X112Y721D01*
X112Y723D01*
X114Y723D01*
X114Y727D01*
X116Y727D01*
X116Y729D01*
X118Y729D01*
X118Y733D01*
X120Y733D01*
X120Y735D01*
X124Y735D01*
X124Y737D01*
X126Y737D01*
X126Y739D01*
X130Y739D01*
X130Y741D01*
X132Y741D01*
X132Y743D01*
X138Y743D01*
X138Y745D01*
X146Y745D01*
X146Y747D01*
X52Y747D01*
G37*
D02*
G36*
X156Y747D02*
X156Y745D01*
X166Y745D01*
X166Y743D01*
X170Y743D01*
X170Y741D01*
X174Y741D01*
X174Y739D01*
X178Y739D01*
X178Y737D01*
X180Y737D01*
X180Y735D01*
X182Y735D01*
X182Y733D01*
X184Y733D01*
X184Y731D01*
X186Y731D01*
X186Y729D01*
X188Y729D01*
X188Y725D01*
X190Y725D01*
X190Y723D01*
X192Y723D01*
X192Y719D01*
X194Y719D01*
X194Y711D01*
X196Y711D01*
X196Y697D01*
X206Y697D01*
X206Y695D01*
X216Y695D01*
X216Y693D01*
X220Y693D01*
X220Y691D01*
X224Y691D01*
X224Y689D01*
X228Y689D01*
X228Y687D01*
X230Y687D01*
X230Y685D01*
X232Y685D01*
X232Y683D01*
X234Y683D01*
X234Y681D01*
X236Y681D01*
X236Y679D01*
X238Y679D01*
X238Y675D01*
X240Y675D01*
X240Y673D01*
X242Y673D01*
X242Y669D01*
X244Y669D01*
X244Y661D01*
X246Y661D01*
X246Y657D01*
X294Y657D01*
X294Y659D01*
X286Y659D01*
X286Y661D01*
X282Y661D01*
X282Y663D01*
X278Y663D01*
X278Y665D01*
X276Y665D01*
X276Y667D01*
X272Y667D01*
X272Y669D01*
X270Y669D01*
X270Y671D01*
X268Y671D01*
X268Y673D01*
X266Y673D01*
X266Y677D01*
X264Y677D01*
X264Y679D01*
X262Y679D01*
X262Y683D01*
X260Y683D01*
X260Y689D01*
X258Y689D01*
X258Y701D01*
X256Y701D01*
X256Y703D01*
X258Y703D01*
X258Y715D01*
X260Y715D01*
X260Y721D01*
X262Y721D01*
X262Y723D01*
X264Y723D01*
X264Y727D01*
X266Y727D01*
X266Y729D01*
X268Y729D01*
X268Y733D01*
X270Y733D01*
X270Y735D01*
X274Y735D01*
X274Y737D01*
X276Y737D01*
X276Y739D01*
X280Y739D01*
X280Y741D01*
X282Y741D01*
X282Y743D01*
X288Y743D01*
X288Y745D01*
X296Y745D01*
X296Y747D01*
X156Y747D01*
G37*
D02*
G36*
X1392Y733D02*
X1392Y731D01*
X1390Y731D01*
X1390Y727D01*
X1388Y727D01*
X1388Y725D01*
X1386Y725D01*
X1386Y723D01*
X1384Y723D01*
X1384Y721D01*
X1382Y721D01*
X1382Y719D01*
X1380Y719D01*
X1380Y717D01*
X1378Y717D01*
X1378Y715D01*
X1376Y715D01*
X1376Y713D01*
X1372Y713D01*
X1372Y711D01*
X1370Y711D01*
X1370Y707D01*
X1444Y707D01*
X1444Y709D01*
X1436Y709D01*
X1436Y711D01*
X1432Y711D01*
X1432Y713D01*
X1428Y713D01*
X1428Y715D01*
X1426Y715D01*
X1426Y717D01*
X1422Y717D01*
X1422Y719D01*
X1420Y719D01*
X1420Y721D01*
X1418Y721D01*
X1418Y723D01*
X1416Y723D01*
X1416Y727D01*
X1414Y727D01*
X1414Y729D01*
X1412Y729D01*
X1412Y733D01*
X1392Y733D01*
G37*
D02*
G36*
X1476Y715D02*
X1476Y713D01*
X1472Y713D01*
X1472Y711D01*
X1468Y711D01*
X1468Y709D01*
X1460Y709D01*
X1460Y707D01*
X1508Y707D01*
X1508Y715D01*
X1476Y715D01*
G37*
D02*
G36*
X1370Y707D02*
X1370Y705D01*
X1508Y705D01*
X1508Y707D01*
X1370Y707D01*
G37*
D02*
G36*
X1370Y707D02*
X1370Y705D01*
X1508Y705D01*
X1508Y707D01*
X1370Y707D01*
G37*
D02*
G36*
X1370Y705D02*
X1370Y691D01*
X1374Y691D01*
X1374Y689D01*
X1378Y689D01*
X1378Y687D01*
X1380Y687D01*
X1380Y685D01*
X1382Y685D01*
X1382Y683D01*
X1384Y683D01*
X1384Y681D01*
X1386Y681D01*
X1386Y679D01*
X1388Y679D01*
X1388Y675D01*
X1390Y675D01*
X1390Y673D01*
X1392Y673D01*
X1392Y669D01*
X1394Y669D01*
X1394Y661D01*
X1396Y661D01*
X1396Y647D01*
X1456Y647D01*
X1456Y645D01*
X1466Y645D01*
X1466Y643D01*
X1470Y643D01*
X1470Y641D01*
X1474Y641D01*
X1474Y639D01*
X1546Y639D01*
X1546Y659D01*
X1538Y659D01*
X1538Y661D01*
X1532Y661D01*
X1532Y663D01*
X1530Y663D01*
X1530Y665D01*
X1526Y665D01*
X1526Y667D01*
X1524Y667D01*
X1524Y669D01*
X1522Y669D01*
X1522Y671D01*
X1520Y671D01*
X1520Y673D01*
X1518Y673D01*
X1518Y675D01*
X1516Y675D01*
X1516Y677D01*
X1514Y677D01*
X1514Y681D01*
X1512Y681D01*
X1512Y685D01*
X1510Y685D01*
X1510Y691D01*
X1508Y691D01*
X1508Y705D01*
X1370Y705D01*
G37*
D02*
G36*
X326Y665D02*
X326Y663D01*
X322Y663D01*
X322Y661D01*
X318Y661D01*
X318Y659D01*
X310Y659D01*
X310Y657D01*
X642Y657D01*
X642Y659D01*
X640Y659D01*
X640Y661D01*
X638Y661D01*
X638Y663D01*
X636Y663D01*
X636Y665D01*
X326Y665D01*
G37*
D02*
G36*
X246Y657D02*
X246Y655D01*
X644Y655D01*
X644Y657D01*
X246Y657D01*
G37*
D02*
G36*
X246Y657D02*
X246Y655D01*
X644Y655D01*
X644Y657D01*
X246Y657D01*
G37*
D02*
G36*
X246Y655D02*
X246Y641D01*
X244Y641D01*
X244Y635D01*
X242Y635D01*
X242Y631D01*
X240Y631D01*
X240Y627D01*
X238Y627D01*
X238Y459D01*
X240Y459D01*
X240Y455D01*
X242Y455D01*
X242Y451D01*
X244Y451D01*
X244Y447D01*
X246Y447D01*
X246Y443D01*
X248Y443D01*
X248Y439D01*
X250Y439D01*
X250Y435D01*
X252Y435D01*
X252Y431D01*
X254Y431D01*
X254Y427D01*
X256Y427D01*
X256Y423D01*
X258Y423D01*
X258Y419D01*
X260Y419D01*
X260Y415D01*
X262Y415D01*
X262Y411D01*
X264Y411D01*
X264Y407D01*
X1144Y407D01*
X1144Y409D01*
X1136Y409D01*
X1136Y411D01*
X1132Y411D01*
X1132Y413D01*
X1128Y413D01*
X1128Y415D01*
X1126Y415D01*
X1126Y417D01*
X1122Y417D01*
X1122Y419D01*
X1120Y419D01*
X1120Y421D01*
X1118Y421D01*
X1118Y423D01*
X1116Y423D01*
X1116Y427D01*
X1114Y427D01*
X1114Y429D01*
X1112Y429D01*
X1112Y433D01*
X1110Y433D01*
X1110Y439D01*
X1108Y439D01*
X1108Y451D01*
X1106Y451D01*
X1106Y457D01*
X1094Y457D01*
X1094Y459D01*
X1086Y459D01*
X1086Y461D01*
X1082Y461D01*
X1082Y463D01*
X1078Y463D01*
X1078Y465D01*
X942Y465D01*
X942Y467D01*
X936Y467D01*
X936Y469D01*
X932Y469D01*
X932Y471D01*
X930Y471D01*
X930Y473D01*
X926Y473D01*
X926Y475D01*
X922Y475D01*
X922Y477D01*
X920Y477D01*
X920Y479D01*
X916Y479D01*
X916Y481D01*
X912Y481D01*
X912Y483D01*
X910Y483D01*
X910Y485D01*
X906Y485D01*
X906Y487D01*
X902Y487D01*
X902Y489D01*
X900Y489D01*
X900Y491D01*
X896Y491D01*
X896Y493D01*
X892Y493D01*
X892Y495D01*
X890Y495D01*
X890Y497D01*
X886Y497D01*
X886Y499D01*
X882Y499D01*
X882Y501D01*
X880Y501D01*
X880Y503D01*
X876Y503D01*
X876Y505D01*
X872Y505D01*
X872Y507D01*
X870Y507D01*
X870Y509D01*
X866Y509D01*
X866Y511D01*
X862Y511D01*
X862Y513D01*
X860Y513D01*
X860Y515D01*
X856Y515D01*
X856Y517D01*
X852Y517D01*
X852Y519D01*
X850Y519D01*
X850Y521D01*
X846Y521D01*
X846Y523D01*
X842Y523D01*
X842Y525D01*
X840Y525D01*
X840Y527D01*
X836Y527D01*
X836Y529D01*
X832Y529D01*
X832Y531D01*
X830Y531D01*
X830Y533D01*
X826Y533D01*
X826Y535D01*
X822Y535D01*
X822Y537D01*
X820Y537D01*
X820Y539D01*
X816Y539D01*
X816Y541D01*
X812Y541D01*
X812Y543D01*
X810Y543D01*
X810Y545D01*
X806Y545D01*
X806Y547D01*
X802Y547D01*
X802Y549D01*
X800Y549D01*
X800Y551D01*
X796Y551D01*
X796Y553D01*
X792Y553D01*
X792Y555D01*
X790Y555D01*
X790Y557D01*
X786Y557D01*
X786Y559D01*
X782Y559D01*
X782Y561D01*
X780Y561D01*
X780Y563D01*
X776Y563D01*
X776Y565D01*
X772Y565D01*
X772Y567D01*
X770Y567D01*
X770Y569D01*
X766Y569D01*
X766Y571D01*
X762Y571D01*
X762Y573D01*
X760Y573D01*
X760Y575D01*
X756Y575D01*
X756Y577D01*
X752Y577D01*
X752Y579D01*
X750Y579D01*
X750Y581D01*
X746Y581D01*
X746Y583D01*
X742Y583D01*
X742Y585D01*
X740Y585D01*
X740Y587D01*
X736Y587D01*
X736Y589D01*
X732Y589D01*
X732Y591D01*
X730Y591D01*
X730Y593D01*
X726Y593D01*
X726Y595D01*
X722Y595D01*
X722Y597D01*
X720Y597D01*
X720Y599D01*
X716Y599D01*
X716Y601D01*
X712Y601D01*
X712Y603D01*
X710Y603D01*
X710Y605D01*
X706Y605D01*
X706Y607D01*
X702Y607D01*
X702Y609D01*
X700Y609D01*
X700Y611D01*
X696Y611D01*
X696Y613D01*
X692Y613D01*
X692Y615D01*
X690Y615D01*
X690Y617D01*
X686Y617D01*
X686Y619D01*
X682Y619D01*
X682Y621D01*
X680Y621D01*
X680Y623D01*
X678Y623D01*
X678Y625D01*
X674Y625D01*
X674Y627D01*
X672Y627D01*
X672Y629D01*
X670Y629D01*
X670Y631D01*
X668Y631D01*
X668Y633D01*
X666Y633D01*
X666Y635D01*
X664Y635D01*
X664Y637D01*
X662Y637D01*
X662Y639D01*
X660Y639D01*
X660Y641D01*
X658Y641D01*
X658Y643D01*
X656Y643D01*
X656Y645D01*
X654Y645D01*
X654Y647D01*
X652Y647D01*
X652Y649D01*
X650Y649D01*
X650Y651D01*
X648Y651D01*
X648Y653D01*
X646Y653D01*
X646Y655D01*
X246Y655D01*
G37*
D02*
G36*
X1396Y647D02*
X1396Y641D01*
X1394Y641D01*
X1394Y635D01*
X1392Y635D01*
X1392Y631D01*
X1390Y631D01*
X1390Y627D01*
X1388Y627D01*
X1388Y625D01*
X1386Y625D01*
X1386Y623D01*
X1384Y623D01*
X1384Y621D01*
X1382Y621D01*
X1382Y619D01*
X1380Y619D01*
X1380Y617D01*
X1378Y617D01*
X1378Y615D01*
X1376Y615D01*
X1376Y613D01*
X1372Y613D01*
X1372Y611D01*
X1370Y611D01*
X1370Y591D01*
X1374Y591D01*
X1374Y589D01*
X1378Y589D01*
X1378Y587D01*
X1380Y587D01*
X1380Y585D01*
X1382Y585D01*
X1382Y583D01*
X1384Y583D01*
X1384Y581D01*
X1386Y581D01*
X1386Y579D01*
X1388Y579D01*
X1388Y575D01*
X1390Y575D01*
X1390Y573D01*
X1392Y573D01*
X1392Y569D01*
X1394Y569D01*
X1394Y561D01*
X1396Y561D01*
X1396Y557D01*
X1444Y557D01*
X1444Y559D01*
X1436Y559D01*
X1436Y561D01*
X1432Y561D01*
X1432Y563D01*
X1428Y563D01*
X1428Y565D01*
X1426Y565D01*
X1426Y567D01*
X1422Y567D01*
X1422Y569D01*
X1420Y569D01*
X1420Y571D01*
X1418Y571D01*
X1418Y573D01*
X1416Y573D01*
X1416Y577D01*
X1414Y577D01*
X1414Y579D01*
X1412Y579D01*
X1412Y583D01*
X1410Y583D01*
X1410Y589D01*
X1408Y589D01*
X1408Y601D01*
X1406Y601D01*
X1406Y603D01*
X1408Y603D01*
X1408Y615D01*
X1410Y615D01*
X1410Y621D01*
X1412Y621D01*
X1412Y623D01*
X1414Y623D01*
X1414Y627D01*
X1416Y627D01*
X1416Y629D01*
X1418Y629D01*
X1418Y633D01*
X1420Y633D01*
X1420Y635D01*
X1424Y635D01*
X1424Y637D01*
X1426Y637D01*
X1426Y639D01*
X1430Y639D01*
X1430Y641D01*
X1432Y641D01*
X1432Y643D01*
X1438Y643D01*
X1438Y645D01*
X1446Y645D01*
X1446Y647D01*
X1396Y647D01*
G37*
D02*
G36*
X1476Y565D02*
X1476Y563D01*
X1472Y563D01*
X1472Y561D01*
X1468Y561D01*
X1468Y559D01*
X1460Y559D01*
X1460Y557D01*
X1506Y557D01*
X1506Y565D01*
X1476Y565D01*
G37*
D02*
G36*
X1396Y557D02*
X1396Y555D01*
X1506Y555D01*
X1506Y557D01*
X1396Y557D01*
G37*
D02*
G36*
X1396Y557D02*
X1396Y555D01*
X1506Y555D01*
X1506Y557D01*
X1396Y557D01*
G37*
D02*
G36*
X1396Y555D02*
X1396Y541D01*
X1394Y541D01*
X1394Y535D01*
X1392Y535D01*
X1392Y531D01*
X1390Y531D01*
X1390Y527D01*
X1388Y527D01*
X1388Y525D01*
X1386Y525D01*
X1386Y523D01*
X1384Y523D01*
X1384Y521D01*
X1382Y521D01*
X1382Y519D01*
X1380Y519D01*
X1380Y517D01*
X1378Y517D01*
X1378Y515D01*
X1376Y515D01*
X1376Y513D01*
X1372Y513D01*
X1372Y511D01*
X1368Y511D01*
X1368Y509D01*
X1360Y509D01*
X1360Y507D01*
X1544Y507D01*
X1544Y509D01*
X1536Y509D01*
X1536Y511D01*
X1532Y511D01*
X1532Y513D01*
X1528Y513D01*
X1528Y515D01*
X1526Y515D01*
X1526Y517D01*
X1522Y517D01*
X1522Y519D01*
X1520Y519D01*
X1520Y521D01*
X1518Y521D01*
X1518Y523D01*
X1516Y523D01*
X1516Y527D01*
X1514Y527D01*
X1514Y529D01*
X1512Y529D01*
X1512Y533D01*
X1510Y533D01*
X1510Y539D01*
X1508Y539D01*
X1508Y551D01*
X1506Y551D01*
X1506Y555D01*
X1396Y555D01*
G37*
D02*
G36*
X1156Y515D02*
X1156Y507D01*
X1344Y507D01*
X1344Y509D01*
X1336Y509D01*
X1336Y511D01*
X1332Y511D01*
X1332Y513D01*
X1328Y513D01*
X1328Y515D01*
X1156Y515D01*
G37*
D02*
G36*
X1156Y507D02*
X1156Y505D01*
X1560Y505D01*
X1560Y507D01*
X1156Y507D01*
G37*
D02*
G36*
X1156Y507D02*
X1156Y505D01*
X1560Y505D01*
X1560Y507D01*
X1156Y507D01*
G37*
D02*
G36*
X1156Y505D02*
X1156Y495D01*
X1166Y495D01*
X1166Y493D01*
X1170Y493D01*
X1170Y491D01*
X1174Y491D01*
X1174Y489D01*
X1178Y489D01*
X1178Y487D01*
X1180Y487D01*
X1180Y485D01*
X1182Y485D01*
X1182Y483D01*
X1184Y483D01*
X1184Y481D01*
X1186Y481D01*
X1186Y479D01*
X1188Y479D01*
X1188Y475D01*
X1190Y475D01*
X1190Y473D01*
X1192Y473D01*
X1192Y469D01*
X1194Y469D01*
X1194Y461D01*
X1196Y461D01*
X1196Y441D01*
X1194Y441D01*
X1194Y435D01*
X1192Y435D01*
X1192Y431D01*
X1190Y431D01*
X1190Y427D01*
X1188Y427D01*
X1188Y425D01*
X1186Y425D01*
X1186Y423D01*
X1184Y423D01*
X1184Y421D01*
X1182Y421D01*
X1182Y419D01*
X1180Y419D01*
X1180Y417D01*
X1178Y417D01*
X1178Y415D01*
X1176Y415D01*
X1176Y413D01*
X1172Y413D01*
X1172Y411D01*
X1168Y411D01*
X1168Y409D01*
X1160Y409D01*
X1160Y407D01*
X1522Y407D01*
X1522Y453D01*
X1626Y453D01*
X1626Y473D01*
X1622Y473D01*
X1622Y475D01*
X1620Y475D01*
X1620Y477D01*
X1616Y477D01*
X1616Y479D01*
X1612Y479D01*
X1612Y481D01*
X1608Y481D01*
X1608Y483D01*
X1604Y483D01*
X1604Y485D01*
X1600Y485D01*
X1600Y487D01*
X1596Y487D01*
X1596Y489D01*
X1592Y489D01*
X1592Y491D01*
X1588Y491D01*
X1588Y493D01*
X1584Y493D01*
X1584Y495D01*
X1580Y495D01*
X1580Y497D01*
X1576Y497D01*
X1576Y499D01*
X1572Y499D01*
X1572Y501D01*
X1568Y501D01*
X1568Y503D01*
X1564Y503D01*
X1564Y505D01*
X1156Y505D01*
G37*
D02*
G36*
X266Y407D02*
X266Y405D01*
X1522Y405D01*
X1522Y407D01*
X266Y407D01*
G37*
D02*
G36*
X266Y407D02*
X266Y405D01*
X1522Y405D01*
X1522Y407D01*
X266Y407D01*
G37*
D02*
G36*
X266Y405D02*
X266Y403D01*
X268Y403D01*
X268Y399D01*
X270Y399D01*
X270Y397D01*
X1106Y397D01*
X1106Y395D01*
X1116Y395D01*
X1116Y393D01*
X1120Y393D01*
X1120Y391D01*
X1124Y391D01*
X1124Y389D01*
X1128Y389D01*
X1128Y387D01*
X1130Y387D01*
X1130Y385D01*
X1132Y385D01*
X1132Y383D01*
X1134Y383D01*
X1134Y381D01*
X1136Y381D01*
X1136Y379D01*
X1138Y379D01*
X1138Y375D01*
X1140Y375D01*
X1140Y373D01*
X1142Y373D01*
X1142Y369D01*
X1144Y369D01*
X1144Y361D01*
X1146Y361D01*
X1146Y347D01*
X1156Y347D01*
X1156Y345D01*
X1166Y345D01*
X1166Y343D01*
X1170Y343D01*
X1170Y341D01*
X1174Y341D01*
X1174Y339D01*
X1178Y339D01*
X1178Y337D01*
X1180Y337D01*
X1180Y335D01*
X1182Y335D01*
X1182Y333D01*
X1184Y333D01*
X1184Y331D01*
X1186Y331D01*
X1186Y329D01*
X1188Y329D01*
X1188Y325D01*
X1190Y325D01*
X1190Y323D01*
X1192Y323D01*
X1192Y319D01*
X1194Y319D01*
X1194Y311D01*
X1196Y311D01*
X1196Y291D01*
X1194Y291D01*
X1194Y285D01*
X1192Y285D01*
X1192Y281D01*
X1190Y281D01*
X1190Y277D01*
X1188Y277D01*
X1188Y275D01*
X1186Y275D01*
X1186Y273D01*
X1184Y273D01*
X1184Y271D01*
X1182Y271D01*
X1182Y269D01*
X1180Y269D01*
X1180Y267D01*
X1178Y267D01*
X1178Y265D01*
X1176Y265D01*
X1176Y263D01*
X1172Y263D01*
X1172Y261D01*
X1168Y261D01*
X1168Y259D01*
X1160Y259D01*
X1160Y257D01*
X1464Y257D01*
X1464Y329D01*
X1462Y329D01*
X1462Y333D01*
X1460Y333D01*
X1460Y339D01*
X1458Y339D01*
X1458Y351D01*
X1456Y351D01*
X1456Y353D01*
X1458Y353D01*
X1458Y365D01*
X1460Y365D01*
X1460Y371D01*
X1462Y371D01*
X1462Y373D01*
X1464Y373D01*
X1464Y377D01*
X1466Y377D01*
X1466Y379D01*
X1468Y379D01*
X1468Y383D01*
X1470Y383D01*
X1470Y385D01*
X1474Y385D01*
X1474Y387D01*
X1476Y387D01*
X1476Y389D01*
X1480Y389D01*
X1480Y391D01*
X1482Y391D01*
X1482Y393D01*
X1488Y393D01*
X1488Y395D01*
X1496Y395D01*
X1496Y397D01*
X1522Y397D01*
X1522Y405D01*
X266Y405D01*
G37*
D02*
G36*
X270Y397D02*
X270Y395D01*
X272Y395D01*
X272Y391D01*
X274Y391D01*
X274Y389D01*
X1080Y389D01*
X1080Y391D01*
X1082Y391D01*
X1082Y393D01*
X1088Y393D01*
X1088Y395D01*
X1096Y395D01*
X1096Y397D01*
X270Y397D01*
G37*
D02*
G36*
X316Y265D02*
X316Y137D01*
X438Y137D01*
X438Y139D01*
X432Y139D01*
X432Y141D01*
X426Y141D01*
X426Y143D01*
X422Y143D01*
X422Y145D01*
X418Y145D01*
X418Y147D01*
X416Y147D01*
X416Y149D01*
X412Y149D01*
X412Y151D01*
X410Y151D01*
X410Y153D01*
X408Y153D01*
X408Y155D01*
X406Y155D01*
X406Y157D01*
X404Y157D01*
X404Y159D01*
X402Y159D01*
X402Y161D01*
X400Y161D01*
X400Y163D01*
X398Y163D01*
X398Y167D01*
X396Y167D01*
X396Y171D01*
X394Y171D01*
X394Y173D01*
X392Y173D01*
X392Y179D01*
X390Y179D01*
X390Y185D01*
X388Y185D01*
X388Y195D01*
X386Y195D01*
X386Y209D01*
X388Y209D01*
X388Y219D01*
X390Y219D01*
X390Y225D01*
X392Y225D01*
X392Y229D01*
X394Y229D01*
X394Y233D01*
X396Y233D01*
X396Y237D01*
X398Y237D01*
X398Y239D01*
X400Y239D01*
X400Y243D01*
X402Y243D01*
X402Y245D01*
X404Y245D01*
X404Y265D01*
X316Y265D01*
G37*
D02*
G36*
X500Y265D02*
X500Y243D01*
X502Y243D01*
X502Y241D01*
X504Y241D01*
X504Y239D01*
X506Y239D01*
X506Y235D01*
X508Y235D01*
X508Y233D01*
X510Y233D01*
X510Y229D01*
X512Y229D01*
X512Y223D01*
X514Y223D01*
X514Y215D01*
X516Y215D01*
X516Y187D01*
X514Y187D01*
X514Y181D01*
X512Y181D01*
X512Y175D01*
X510Y175D01*
X510Y171D01*
X508Y171D01*
X508Y169D01*
X506Y169D01*
X506Y165D01*
X504Y165D01*
X504Y163D01*
X502Y163D01*
X502Y159D01*
X500Y159D01*
X500Y157D01*
X498Y157D01*
X498Y155D01*
X496Y155D01*
X496Y153D01*
X494Y153D01*
X494Y151D01*
X490Y151D01*
X490Y149D01*
X488Y149D01*
X488Y147D01*
X484Y147D01*
X484Y145D01*
X482Y145D01*
X482Y143D01*
X478Y143D01*
X478Y141D01*
X472Y141D01*
X472Y139D01*
X464Y139D01*
X464Y137D01*
X636Y137D01*
X636Y265D01*
X500Y265D01*
G37*
D02*
G36*
X766Y265D02*
X766Y137D01*
X888Y137D01*
X888Y139D01*
X882Y139D01*
X882Y141D01*
X876Y141D01*
X876Y143D01*
X872Y143D01*
X872Y145D01*
X868Y145D01*
X868Y147D01*
X866Y147D01*
X866Y149D01*
X862Y149D01*
X862Y151D01*
X860Y151D01*
X860Y153D01*
X858Y153D01*
X858Y155D01*
X856Y155D01*
X856Y157D01*
X854Y157D01*
X854Y159D01*
X852Y159D01*
X852Y161D01*
X850Y161D01*
X850Y163D01*
X848Y163D01*
X848Y167D01*
X846Y167D01*
X846Y171D01*
X844Y171D01*
X844Y173D01*
X842Y173D01*
X842Y179D01*
X840Y179D01*
X840Y185D01*
X838Y185D01*
X838Y195D01*
X836Y195D01*
X836Y209D01*
X838Y209D01*
X838Y219D01*
X840Y219D01*
X840Y225D01*
X842Y225D01*
X842Y229D01*
X844Y229D01*
X844Y233D01*
X846Y233D01*
X846Y237D01*
X848Y237D01*
X848Y239D01*
X850Y239D01*
X850Y243D01*
X852Y243D01*
X852Y245D01*
X854Y245D01*
X854Y265D01*
X766Y265D01*
G37*
D02*
G36*
X950Y265D02*
X950Y257D01*
X1144Y257D01*
X1144Y259D01*
X1136Y259D01*
X1136Y261D01*
X1132Y261D01*
X1132Y263D01*
X1128Y263D01*
X1128Y265D01*
X950Y265D01*
G37*
D02*
G36*
X950Y257D02*
X950Y255D01*
X1464Y255D01*
X1464Y257D01*
X950Y257D01*
G37*
D02*
G36*
X950Y257D02*
X950Y255D01*
X1464Y255D01*
X1464Y257D01*
X950Y257D01*
G37*
D02*
G36*
X950Y255D02*
X950Y243D01*
X952Y243D01*
X952Y241D01*
X954Y241D01*
X954Y239D01*
X956Y239D01*
X956Y235D01*
X958Y235D01*
X958Y233D01*
X960Y233D01*
X960Y229D01*
X962Y229D01*
X962Y223D01*
X964Y223D01*
X964Y215D01*
X966Y215D01*
X966Y187D01*
X964Y187D01*
X964Y181D01*
X962Y181D01*
X962Y175D01*
X960Y175D01*
X960Y171D01*
X958Y171D01*
X958Y169D01*
X956Y169D01*
X956Y165D01*
X954Y165D01*
X954Y163D01*
X952Y163D01*
X952Y161D01*
X1406Y161D01*
X1406Y159D01*
X1418Y159D01*
X1418Y157D01*
X1424Y157D01*
X1424Y155D01*
X1428Y155D01*
X1428Y153D01*
X1432Y153D01*
X1432Y151D01*
X1434Y151D01*
X1434Y149D01*
X1438Y149D01*
X1438Y147D01*
X1440Y147D01*
X1440Y145D01*
X1442Y145D01*
X1442Y143D01*
X1462Y143D01*
X1462Y145D01*
X1464Y145D01*
X1464Y147D01*
X1466Y147D01*
X1466Y171D01*
X1464Y171D01*
X1464Y255D01*
X950Y255D01*
G37*
D02*
G36*
X952Y161D02*
X952Y159D01*
X950Y159D01*
X950Y157D01*
X948Y157D01*
X948Y155D01*
X946Y155D01*
X946Y153D01*
X944Y153D01*
X944Y151D01*
X940Y151D01*
X940Y149D01*
X938Y149D01*
X938Y147D01*
X934Y147D01*
X934Y145D01*
X932Y145D01*
X932Y143D01*
X928Y143D01*
X928Y141D01*
X922Y141D01*
X922Y139D01*
X914Y139D01*
X914Y137D01*
X1056Y137D01*
X1056Y139D01*
X1058Y139D01*
X1058Y141D01*
X1060Y141D01*
X1060Y143D01*
X1062Y143D01*
X1062Y145D01*
X1064Y145D01*
X1064Y147D01*
X1068Y147D01*
X1068Y149D01*
X1070Y149D01*
X1070Y151D01*
X1072Y151D01*
X1072Y153D01*
X1076Y153D01*
X1076Y155D01*
X1080Y155D01*
X1080Y157D01*
X1088Y157D01*
X1088Y159D01*
X1100Y159D01*
X1100Y161D01*
X952Y161D01*
G37*
D02*
G36*
X1106Y161D02*
X1106Y159D01*
X1118Y159D01*
X1118Y157D01*
X1124Y157D01*
X1124Y155D01*
X1128Y155D01*
X1128Y153D01*
X1132Y153D01*
X1132Y151D01*
X1134Y151D01*
X1134Y149D01*
X1138Y149D01*
X1138Y147D01*
X1140Y147D01*
X1140Y145D01*
X1142Y145D01*
X1142Y143D01*
X1162Y143D01*
X1162Y145D01*
X1164Y145D01*
X1164Y147D01*
X1168Y147D01*
X1168Y149D01*
X1170Y149D01*
X1170Y151D01*
X1172Y151D01*
X1172Y153D01*
X1176Y153D01*
X1176Y155D01*
X1180Y155D01*
X1180Y157D01*
X1188Y157D01*
X1188Y159D01*
X1200Y159D01*
X1200Y161D01*
X1106Y161D01*
G37*
D02*
G36*
X1206Y161D02*
X1206Y159D01*
X1218Y159D01*
X1218Y157D01*
X1224Y157D01*
X1224Y155D01*
X1228Y155D01*
X1228Y153D01*
X1232Y153D01*
X1232Y151D01*
X1234Y151D01*
X1234Y149D01*
X1238Y149D01*
X1238Y147D01*
X1240Y147D01*
X1240Y145D01*
X1242Y145D01*
X1242Y143D01*
X1262Y143D01*
X1262Y145D01*
X1264Y145D01*
X1264Y147D01*
X1268Y147D01*
X1268Y149D01*
X1270Y149D01*
X1270Y151D01*
X1272Y151D01*
X1272Y153D01*
X1276Y153D01*
X1276Y155D01*
X1280Y155D01*
X1280Y157D01*
X1288Y157D01*
X1288Y159D01*
X1300Y159D01*
X1300Y161D01*
X1206Y161D01*
G37*
D02*
G36*
X1306Y161D02*
X1306Y159D01*
X1318Y159D01*
X1318Y157D01*
X1324Y157D01*
X1324Y155D01*
X1328Y155D01*
X1328Y153D01*
X1332Y153D01*
X1332Y151D01*
X1334Y151D01*
X1334Y149D01*
X1338Y149D01*
X1338Y147D01*
X1340Y147D01*
X1340Y145D01*
X1342Y145D01*
X1342Y143D01*
X1362Y143D01*
X1362Y145D01*
X1364Y145D01*
X1364Y147D01*
X1368Y147D01*
X1368Y149D01*
X1370Y149D01*
X1370Y151D01*
X1372Y151D01*
X1372Y153D01*
X1376Y153D01*
X1376Y155D01*
X1380Y155D01*
X1380Y157D01*
X1388Y157D01*
X1388Y159D01*
X1400Y159D01*
X1400Y161D01*
X1306Y161D01*
G37*
D02*
G36*
X52Y137D02*
X52Y135D01*
X1056Y135D01*
X1056Y137D01*
X52Y137D01*
G37*
D02*
G36*
X52Y137D02*
X52Y135D01*
X1056Y135D01*
X1056Y137D01*
X52Y137D01*
G37*
D02*
G36*
X52Y137D02*
X52Y135D01*
X1056Y135D01*
X1056Y137D01*
X52Y137D01*
G37*
D02*
G36*
X52Y137D02*
X52Y135D01*
X1056Y135D01*
X1056Y137D01*
X52Y137D01*
G37*
D02*
G36*
X52Y137D02*
X52Y135D01*
X1056Y135D01*
X1056Y137D01*
X52Y137D01*
G37*
D02*
G36*
X52Y135D02*
X52Y71D01*
X54Y71D01*
X54Y67D01*
X56Y67D01*
X56Y63D01*
X58Y63D01*
X58Y61D01*
X60Y61D01*
X60Y59D01*
X62Y59D01*
X62Y57D01*
X64Y57D01*
X64Y55D01*
X66Y55D01*
X66Y53D01*
X70Y53D01*
X70Y51D01*
X74Y51D01*
X74Y49D01*
X80Y49D01*
X80Y47D01*
X1058Y47D01*
X1058Y67D01*
X1056Y67D01*
X1056Y69D01*
X1054Y69D01*
X1054Y71D01*
X1052Y71D01*
X1052Y75D01*
X1050Y75D01*
X1050Y79D01*
X1048Y79D01*
X1048Y85D01*
X1046Y85D01*
X1046Y93D01*
X1044Y93D01*
X1044Y111D01*
X1046Y111D01*
X1046Y121D01*
X1048Y121D01*
X1048Y125D01*
X1050Y125D01*
X1050Y129D01*
X1052Y129D01*
X1052Y133D01*
X1054Y133D01*
X1054Y135D01*
X52Y135D01*
G37*
D02*
G36*
X1580Y87D02*
X1619Y87D01*
X1619Y47D01*
X1580Y47D01*
X1580Y87D01*
G37*
D02*
G36*
X1680Y165D02*
X1719Y165D01*
X1719Y125D01*
X1680Y125D01*
X1680Y165D01*
G37*
D02*
G36*
X1680Y87D02*
X1719Y87D01*
X1719Y47D01*
X1680Y47D01*
X1680Y87D01*
G37*
D02*
G36*
X1020Y2063D02*
X1059Y2063D01*
X1059Y2023D01*
X1020Y2023D01*
X1020Y2063D01*
G37*
D02*
G36*
X1020Y1985D02*
X1059Y1985D01*
X1059Y1945D01*
X1020Y1945D01*
X1020Y1985D01*
G37*
D02*
G36*
X1687Y297D02*
X1712Y297D01*
X1712Y257D01*
X1687Y257D01*
X1687Y297D01*
G37*
D02*
G36*
X1687Y447D02*
X1712Y447D01*
X1712Y407D01*
X1687Y407D01*
X1687Y447D01*
G37*
D02*
G36*
X2531Y341D02*
X2568Y341D01*
X2568Y297D01*
X2531Y297D01*
X2531Y341D01*
G37*
D02*
G36*
X2564Y374D02*
X2608Y374D01*
X2608Y337D01*
X2564Y337D01*
X2564Y374D01*
G37*
D02*
G36*
X1887Y297D02*
X1912Y297D01*
X1912Y257D01*
X1887Y257D01*
X1887Y297D01*
G37*
D02*
G36*
X1137Y447D02*
X1162Y447D01*
X1162Y407D01*
X1137Y407D01*
X1137Y447D01*
G37*
D02*
G36*
X1378Y919D02*
X1421Y919D01*
X1421Y871D01*
X1378Y871D01*
X1378Y919D01*
G37*
D02*
G36*
X2287Y651D02*
X2312Y651D01*
X2312Y613D01*
X2287Y613D01*
X2287Y651D01*
G37*
D02*
G36*
X2254Y618D02*
X2292Y618D01*
X2292Y593D01*
X2254Y593D01*
X2254Y618D01*
G37*
D02*
G36*
X2306Y618D02*
X2348Y618D01*
X2348Y593D01*
X2306Y593D01*
X2306Y618D01*
G37*
D02*
G36*
X677Y187D02*
X722Y187D01*
X722Y137D01*
X677Y137D01*
X677Y187D01*
G37*
D02*
G36*
X632Y228D02*
X680Y228D01*
X680Y183D01*
X632Y183D01*
X632Y228D01*
G37*
D02*
G36*
X718Y228D02*
X766Y228D01*
X766Y183D01*
X718Y183D01*
X718Y228D01*
G37*
D02*
G36*
X2531Y589D02*
X2568Y589D01*
X2568Y545D01*
X2531Y545D01*
X2531Y589D01*
G37*
D02*
G36*
X2564Y622D02*
X2608Y622D01*
X2608Y585D01*
X2564Y585D01*
X2564Y622D01*
G37*
D02*
G36*
X387Y1051D02*
X412Y1051D01*
X412Y1011D01*
X387Y1011D01*
X387Y1051D01*
G37*
D02*
G36*
X387Y997D02*
X412Y997D01*
X412Y957D01*
X387Y957D01*
X387Y997D01*
G37*
D02*
G36*
X352Y1016D02*
X392Y1016D01*
X392Y991D01*
X352Y991D01*
X352Y1016D01*
G37*
D02*
G36*
X452Y1366D02*
X492Y1366D01*
X492Y1341D01*
X452Y1341D01*
X452Y1366D01*
G37*
D02*
G36*
X537Y1197D02*
X562Y1197D01*
X562Y1157D01*
X537Y1157D01*
X537Y1197D01*
G37*
D02*
G36*
X556Y1216D02*
X596Y1216D01*
X596Y1191D01*
X556Y1191D01*
X556Y1216D01*
G37*
D02*
G36*
X2328Y919D02*
X2371Y919D01*
X2371Y871D01*
X2328Y871D01*
X2328Y919D01*
G37*
D02*
G36*
X2328Y837D02*
X2371Y837D01*
X2371Y789D01*
X2328Y789D01*
X2328Y837D01*
G37*
D02*
G36*
X1237Y1001D02*
X1262Y1001D01*
X1262Y961D01*
X1237Y961D01*
X1237Y1001D01*
G37*
D02*
G36*
X1237Y947D02*
X1262Y947D01*
X1262Y907D01*
X1237Y907D01*
X1237Y947D01*
G37*
D02*
G36*
X452Y1116D02*
X492Y1116D01*
X492Y1091D01*
X452Y1091D01*
X452Y1116D01*
G37*
D02*
G36*
X377Y1921D02*
X422Y1921D01*
X422Y1873D01*
X377Y1873D01*
X377Y1921D01*
G37*
D02*
G36*
X377Y1835D02*
X422Y1835D01*
X422Y1787D01*
X377Y1787D01*
X377Y1835D01*
G37*
D02*
G36*
X332Y1876D02*
X380Y1876D01*
X380Y1831D01*
X332Y1831D01*
X332Y1876D01*
G37*
D02*
G36*
X606Y1466D02*
X646Y1466D01*
X646Y1441D01*
X606Y1441D01*
X606Y1466D01*
G37*
D02*
G36*
X1256Y1116D02*
X1296Y1116D01*
X1296Y1091D01*
X1256Y1091D01*
X1256Y1116D01*
G37*
D02*
G36*
X552Y1716D02*
X592Y1716D01*
X592Y1691D01*
X552Y1691D01*
X552Y1716D01*
G37*
D02*
G36*
X606Y1716D02*
X646Y1716D01*
X646Y1691D01*
X606Y1691D01*
X606Y1716D01*
G37*
D02*
G36*
X1752Y1616D02*
X1792Y1616D01*
X1792Y1591D01*
X1752Y1591D01*
X1752Y1616D01*
G37*
D02*
G36*
X1806Y1616D02*
X1846Y1616D01*
X1846Y1591D01*
X1806Y1591D01*
X1806Y1616D01*
G37*
D02*
G36*
X1837Y1301D02*
X1862Y1301D01*
X1862Y1261D01*
X1837Y1261D01*
X1837Y1301D01*
G37*
D02*
G36*
X1777Y1821D02*
X1822Y1821D01*
X1822Y1773D01*
X1777Y1773D01*
X1777Y1821D01*
G37*
D02*
G36*
X1734Y1776D02*
X1780Y1776D01*
X1780Y1731D01*
X1734Y1731D01*
X1734Y1776D01*
G37*
D02*
G36*
X1818Y1776D02*
X1868Y1776D01*
X1868Y1731D01*
X1818Y1731D01*
X1818Y1776D01*
G37*
D02*
G36*
X2037Y1301D02*
X2062Y1301D01*
X2062Y1261D01*
X2037Y1261D01*
X2037Y1301D01*
G37*
D02*
G36*
X2468Y1776D02*
X2518Y1776D01*
X2518Y1731D01*
X2468Y1731D01*
X2468Y1776D01*
G37*
D02*
G54D22*
X222Y232D02*
X282Y232D01*
X282Y172D01*
X222Y172D01*
X222Y232D01*
D02*
X672Y232D02*
X732Y232D01*
X732Y172D01*
X672Y172D01*
X672Y232D01*
D02*
X1132Y1722D02*
X1072Y1722D01*
X1072Y1782D01*
X1132Y1782D01*
X1132Y1722D01*
D02*
G04 End of Copper0*
M02*