G04 MADE WITH FRITZING*
G04 WWW.FRITZING.ORG*
G04 DOUBLE SIDED*
G04 HOLES PLATED*
G04 CONTOUR ON CENTER OF CONTOUR VECTOR*
%ASAXBY*%
%FSLAX23Y23*%
%MOIN*%
%OFA0B0*%
%SFA1.0B1.0*%
%ADD10C,0.075000*%
%ADD11C,0.039370*%
%ADD12C,0.066194*%
%ADD13C,0.066222*%
%ADD14C,0.080000*%
%ADD15C,0.062992*%
%ADD16R,0.111721X0.150623*%
%ADD17R,0.080000X0.080000*%
%ADD18R,0.075000X0.075000*%
%ADD19R,0.062992X0.062992*%
%ADD20C,0.024000*%
%ADD21C,0.032000*%
%LNCOPPER0*%
G90*
G70*
G54D10*
X1184Y1756D03*
X131Y2006D03*
X2357Y1021D03*
G54D11*
X1702Y452D03*
X1202Y952D03*
X1252Y1102D03*
X1302Y1252D03*
X2002Y1602D03*
X2152Y1302D03*
X1452Y1752D03*
X302Y1452D03*
X302Y1252D03*
X552Y1202D03*
X552Y1052D03*
X602Y1452D03*
X602Y1702D03*
X202Y1702D03*
X152Y1402D03*
X252Y1002D03*
X1852Y851D03*
X2152Y852D03*
X502Y1352D03*
X2252Y1152D03*
X1502Y352D03*
X2552Y852D03*
X1702Y1102D03*
X2303Y603D03*
X1552Y703D03*
X1802Y553D03*
X502Y1102D03*
X1802Y1602D03*
X402Y1002D03*
X252Y1352D03*
X1702Y302D03*
X1902Y302D03*
X1902Y452D03*
G54D12*
X2102Y103D03*
X2202Y103D03*
X2302Y103D03*
X2402Y103D03*
X2502Y103D03*
G54D13*
X1642Y2003D03*
X1542Y2003D03*
X1442Y2003D03*
X1342Y2003D03*
X1242Y2003D03*
X1142Y2003D03*
X1042Y2003D03*
X942Y2003D03*
X842Y2003D03*
X742Y2003D03*
X2502Y2003D03*
X2402Y2003D03*
X2302Y2003D03*
X2202Y2003D03*
X2102Y2003D03*
X2002Y2003D03*
X1902Y2003D03*
X1802Y2003D03*
G54D12*
X1202Y103D03*
X1102Y103D03*
X1302Y103D03*
X1402Y103D03*
X1502Y103D03*
X1602Y103D03*
X1702Y103D03*
X1802Y103D03*
X2002Y103D03*
G54D14*
X2452Y1753D03*
X2252Y1753D03*
X1552Y1752D03*
X1352Y1752D03*
X2002Y1753D03*
X1802Y1753D03*
X402Y1852D03*
X202Y1852D03*
G54D10*
X2452Y1152D03*
X2452Y852D03*
X2352Y1152D03*
X2352Y852D03*
X1502Y1152D03*
X1502Y852D03*
X1402Y1152D03*
X1402Y852D03*
G54D15*
X2552Y602D03*
X2552Y701D03*
X2552Y354D03*
X2552Y453D03*
G54D16*
X1602Y353D03*
G54D17*
X2452Y1753D03*
X1552Y1752D03*
X2002Y1753D03*
X402Y1852D03*
G54D18*
X2452Y1152D03*
X1502Y1152D03*
G54D19*
X2552Y602D03*
X2552Y354D03*
G54D20*
X1883Y452D02*
X1721Y452D01*
D02*
X1296Y1234D02*
X1258Y1120D01*
D02*
X2001Y1352D02*
X2002Y1583D01*
D02*
X2134Y1308D02*
X2001Y1352D01*
D02*
X1401Y1851D02*
X1443Y1769D01*
D02*
X1151Y1851D02*
X1401Y1851D01*
D02*
X1053Y1751D02*
X1151Y1851D01*
D02*
X1001Y1702D02*
X1053Y1751D01*
D02*
X803Y1702D02*
X1001Y1702D01*
D02*
X702Y1654D02*
X803Y1702D01*
D02*
X602Y1602D02*
X702Y1654D01*
D02*
X501Y1553D02*
X602Y1602D01*
D02*
X452Y1453D02*
X501Y1553D01*
D02*
X321Y1452D02*
X452Y1453D01*
D02*
X553Y1352D02*
X552Y1221D01*
D02*
X593Y1435D02*
X553Y1352D01*
D02*
X502Y1852D02*
X603Y1802D01*
D02*
X603Y1802D02*
X602Y1721D01*
D02*
X433Y1852D02*
X502Y1852D01*
G54D21*
D02*
X202Y1502D02*
X202Y1678D01*
D02*
X163Y1424D02*
X202Y1502D01*
G54D20*
D02*
X1701Y1003D02*
X1351Y1003D01*
D02*
X1351Y1003D02*
X1300Y852D01*
D02*
X1300Y852D02*
X253Y902D01*
D02*
X1839Y865D02*
X1701Y1003D01*
D02*
X253Y902D02*
X252Y983D01*
D02*
X2252Y903D02*
X2169Y861D01*
D02*
X2252Y1133D02*
X2252Y903D01*
D02*
X502Y1121D02*
X502Y1333D01*
D02*
X1502Y333D02*
X1502Y133D01*
D02*
X2453Y1252D02*
X2201Y1202D01*
D02*
X2201Y1202D02*
X1801Y1202D01*
D02*
X2552Y1252D02*
X2453Y1252D01*
D02*
X1801Y1202D02*
X1715Y1116D01*
D02*
X2552Y871D02*
X2552Y1252D01*
D02*
X2480Y852D02*
X2533Y852D01*
D02*
X2301Y503D02*
X2302Y584D01*
D02*
X2201Y453D02*
X2301Y503D01*
D02*
X2002Y453D02*
X2201Y453D01*
D02*
X1921Y452D02*
X2002Y453D01*
D02*
X2402Y602D02*
X2525Y602D01*
D02*
X2402Y502D02*
X2402Y602D01*
D02*
X2253Y403D02*
X2402Y502D01*
D02*
X2001Y403D02*
X2253Y403D01*
D02*
X1919Y444D02*
X2001Y403D01*
D02*
X1652Y702D02*
X1751Y653D01*
D02*
X1751Y653D02*
X1803Y604D01*
D02*
X1803Y604D02*
X1802Y572D01*
D02*
X1571Y702D02*
X1652Y702D01*
D02*
X2351Y1301D02*
X2201Y1252D01*
D02*
X2201Y1252D02*
X1321Y1252D01*
D02*
X1183Y953D02*
X421Y1001D01*
D02*
X2403Y1352D02*
X2351Y1301D01*
D02*
X2453Y1452D02*
X2403Y1352D01*
D02*
X2452Y1721D02*
X2453Y1452D01*
D02*
X1602Y283D02*
X1602Y133D01*
D02*
X1602Y451D02*
X1403Y554D01*
D02*
X1403Y554D02*
X1402Y824D01*
D02*
X1602Y422D02*
X1602Y451D01*
D02*
X1652Y353D02*
X2525Y354D01*
D02*
X303Y1401D02*
X265Y1365D01*
D02*
X852Y1654D02*
X751Y1602D01*
D02*
X751Y1602D02*
X651Y1553D01*
D02*
X2251Y1651D02*
X852Y1654D01*
D02*
X2252Y1721D02*
X2251Y1651D01*
D02*
X651Y1553D02*
X553Y1501D01*
D02*
X501Y1401D02*
X303Y1401D01*
D02*
X553Y1501D02*
X501Y1401D01*
D02*
X1883Y302D02*
X1721Y302D01*
D02*
X571Y1051D02*
X1140Y1004D01*
D02*
X1140Y1004D02*
X1251Y1053D01*
D02*
X1251Y1053D02*
X1751Y1053D01*
D02*
X1751Y1053D02*
X1901Y903D01*
D02*
X1901Y903D02*
X1902Y471D01*
D02*
X1150Y1053D02*
X1251Y1303D01*
D02*
X1251Y1303D02*
X1803Y1303D01*
D02*
X1803Y1303D02*
X1802Y1583D01*
D02*
X521Y1101D02*
X1150Y1053D01*
G36*
X1164Y1813D02*
X1164Y1811D01*
X1162Y1811D01*
X1162Y1809D01*
X1160Y1809D01*
X1160Y1807D01*
X1158Y1807D01*
X1158Y1805D01*
X1156Y1805D01*
X1156Y1803D01*
X1154Y1803D01*
X1154Y1801D01*
X1152Y1801D01*
X1152Y1799D01*
X1150Y1799D01*
X1150Y1797D01*
X1148Y1797D01*
X1148Y1793D01*
X1146Y1793D01*
X1146Y1791D01*
X1144Y1791D01*
X1144Y1789D01*
X1142Y1789D01*
X1142Y1787D01*
X1140Y1787D01*
X1140Y1785D01*
X1138Y1785D01*
X1138Y1783D01*
X1136Y1783D01*
X1136Y1781D01*
X1134Y1781D01*
X1134Y1779D01*
X1132Y1779D01*
X1132Y1777D01*
X1130Y1777D01*
X1130Y1775D01*
X1128Y1775D01*
X1128Y1773D01*
X1126Y1773D01*
X1126Y1771D01*
X1124Y1771D01*
X1124Y1769D01*
X1122Y1769D01*
X1122Y1767D01*
X1120Y1767D01*
X1120Y1765D01*
X1118Y1765D01*
X1118Y1763D01*
X1116Y1763D01*
X1116Y1761D01*
X1114Y1761D01*
X1114Y1759D01*
X1112Y1759D01*
X1112Y1757D01*
X1110Y1757D01*
X1110Y1755D01*
X1108Y1755D01*
X1108Y1753D01*
X1106Y1753D01*
X1106Y1751D01*
X1104Y1751D01*
X1104Y1749D01*
X1102Y1749D01*
X1102Y1747D01*
X1100Y1747D01*
X1100Y1745D01*
X1098Y1745D01*
X1098Y1743D01*
X1096Y1743D01*
X1096Y1741D01*
X1094Y1741D01*
X1094Y1739D01*
X1092Y1739D01*
X1092Y1737D01*
X1090Y1737D01*
X1090Y1735D01*
X1088Y1735D01*
X1088Y1733D01*
X1086Y1733D01*
X1086Y1731D01*
X1084Y1731D01*
X1084Y1729D01*
X1082Y1729D01*
X1082Y1727D01*
X1080Y1727D01*
X1080Y1725D01*
X1078Y1725D01*
X1078Y1723D01*
X1076Y1723D01*
X1076Y1721D01*
X1074Y1721D01*
X1074Y1719D01*
X1072Y1719D01*
X1072Y1717D01*
X1070Y1717D01*
X1070Y1715D01*
X1068Y1715D01*
X1068Y1713D01*
X1066Y1713D01*
X1066Y1711D01*
X1064Y1711D01*
X1064Y1709D01*
X1062Y1709D01*
X1062Y1689D01*
X1304Y1689D01*
X1304Y1709D01*
X1302Y1709D01*
X1302Y1711D01*
X1300Y1711D01*
X1300Y1713D01*
X1298Y1713D01*
X1298Y1717D01*
X1296Y1717D01*
X1296Y1721D01*
X1294Y1721D01*
X1294Y1723D01*
X1292Y1723D01*
X1292Y1729D01*
X1290Y1729D01*
X1290Y1735D01*
X1288Y1735D01*
X1288Y1745D01*
X1286Y1745D01*
X1286Y1759D01*
X1288Y1759D01*
X1288Y1769D01*
X1290Y1769D01*
X1290Y1775D01*
X1292Y1775D01*
X1292Y1779D01*
X1294Y1779D01*
X1294Y1783D01*
X1296Y1783D01*
X1296Y1787D01*
X1298Y1787D01*
X1298Y1789D01*
X1300Y1789D01*
X1300Y1793D01*
X1302Y1793D01*
X1302Y1813D01*
X1164Y1813D01*
G37*
D02*
G36*
X76Y2059D02*
X76Y2057D01*
X70Y2057D01*
X70Y2055D01*
X68Y2055D01*
X68Y2053D01*
X64Y2053D01*
X64Y2051D01*
X62Y2051D01*
X62Y2049D01*
X60Y2049D01*
X60Y2047D01*
X58Y2047D01*
X58Y2043D01*
X56Y2043D01*
X56Y2041D01*
X54Y2041D01*
X54Y2035D01*
X52Y2035D01*
X52Y1945D01*
X728Y1945D01*
X728Y1947D01*
X722Y1947D01*
X722Y1949D01*
X716Y1949D01*
X716Y1951D01*
X712Y1951D01*
X712Y1953D01*
X710Y1953D01*
X710Y1955D01*
X708Y1955D01*
X708Y1957D01*
X704Y1957D01*
X704Y1959D01*
X702Y1959D01*
X702Y1961D01*
X700Y1961D01*
X700Y1963D01*
X698Y1963D01*
X698Y1967D01*
X696Y1967D01*
X696Y1969D01*
X694Y1969D01*
X694Y1971D01*
X692Y1971D01*
X692Y1975D01*
X690Y1975D01*
X690Y1979D01*
X688Y1979D01*
X688Y1983D01*
X686Y1983D01*
X686Y1993D01*
X684Y1993D01*
X684Y2011D01*
X686Y2011D01*
X686Y2021D01*
X688Y2021D01*
X688Y2025D01*
X690Y2025D01*
X690Y2029D01*
X692Y2029D01*
X692Y2033D01*
X694Y2033D01*
X694Y2035D01*
X696Y2035D01*
X696Y2039D01*
X698Y2039D01*
X698Y2059D01*
X76Y2059D01*
G37*
D02*
G36*
X1686Y2059D02*
X1686Y2039D01*
X1688Y2039D01*
X1688Y2037D01*
X1690Y2037D01*
X1690Y2033D01*
X1692Y2033D01*
X1692Y2029D01*
X1694Y2029D01*
X1694Y2027D01*
X1696Y2027D01*
X1696Y2021D01*
X1698Y2021D01*
X1698Y2013D01*
X1700Y2013D01*
X1700Y1991D01*
X1698Y1991D01*
X1698Y1983D01*
X1696Y1983D01*
X1696Y1979D01*
X1694Y1979D01*
X1694Y1975D01*
X1692Y1975D01*
X1692Y1971D01*
X1690Y1971D01*
X1690Y1969D01*
X1688Y1969D01*
X1688Y1965D01*
X1686Y1965D01*
X1686Y1963D01*
X1684Y1963D01*
X1684Y1961D01*
X1682Y1961D01*
X1682Y1959D01*
X1680Y1959D01*
X1680Y1957D01*
X1676Y1957D01*
X1676Y1955D01*
X1674Y1955D01*
X1674Y1953D01*
X1672Y1953D01*
X1672Y1951D01*
X1668Y1951D01*
X1668Y1949D01*
X1664Y1949D01*
X1664Y1947D01*
X1656Y1947D01*
X1656Y1945D01*
X1788Y1945D01*
X1788Y1947D01*
X1782Y1947D01*
X1782Y1949D01*
X1776Y1949D01*
X1776Y1951D01*
X1774Y1951D01*
X1774Y1953D01*
X1770Y1953D01*
X1770Y1955D01*
X1768Y1955D01*
X1768Y1957D01*
X1764Y1957D01*
X1764Y1959D01*
X1762Y1959D01*
X1762Y1961D01*
X1760Y1961D01*
X1760Y1963D01*
X1758Y1963D01*
X1758Y1967D01*
X1756Y1967D01*
X1756Y1969D01*
X1754Y1969D01*
X1754Y1971D01*
X1752Y1971D01*
X1752Y1975D01*
X1750Y1975D01*
X1750Y1979D01*
X1748Y1979D01*
X1748Y1985D01*
X1746Y1985D01*
X1746Y1993D01*
X1744Y1993D01*
X1744Y2011D01*
X1746Y2011D01*
X1746Y2021D01*
X1748Y2021D01*
X1748Y2025D01*
X1750Y2025D01*
X1750Y2029D01*
X1752Y2029D01*
X1752Y2033D01*
X1754Y2033D01*
X1754Y2035D01*
X1756Y2035D01*
X1756Y2039D01*
X1758Y2039D01*
X1758Y2059D01*
X1686Y2059D01*
G37*
D02*
G36*
X2544Y1963D02*
X2544Y1961D01*
X2542Y1961D01*
X2542Y1959D01*
X2540Y1959D01*
X2540Y1957D01*
X2538Y1957D01*
X2538Y1955D01*
X2534Y1955D01*
X2534Y1953D01*
X2532Y1953D01*
X2532Y1951D01*
X2528Y1951D01*
X2528Y1949D01*
X2524Y1949D01*
X2524Y1947D01*
X2516Y1947D01*
X2516Y1945D01*
X2564Y1945D01*
X2564Y1963D01*
X2544Y1963D01*
G37*
D02*
G36*
X782Y1961D02*
X782Y1959D01*
X780Y1959D01*
X780Y1957D01*
X776Y1957D01*
X776Y1955D01*
X774Y1955D01*
X774Y1953D01*
X772Y1953D01*
X772Y1951D01*
X768Y1951D01*
X768Y1949D01*
X764Y1949D01*
X764Y1947D01*
X756Y1947D01*
X756Y1945D01*
X828Y1945D01*
X828Y1947D01*
X822Y1947D01*
X822Y1949D01*
X816Y1949D01*
X816Y1951D01*
X814Y1951D01*
X814Y1953D01*
X810Y1953D01*
X810Y1955D01*
X808Y1955D01*
X808Y1957D01*
X804Y1957D01*
X804Y1959D01*
X802Y1959D01*
X802Y1961D01*
X782Y1961D01*
G37*
D02*
G36*
X882Y1961D02*
X882Y1959D01*
X880Y1959D01*
X880Y1957D01*
X878Y1957D01*
X878Y1955D01*
X874Y1955D01*
X874Y1953D01*
X872Y1953D01*
X872Y1951D01*
X868Y1951D01*
X868Y1949D01*
X864Y1949D01*
X864Y1947D01*
X856Y1947D01*
X856Y1945D01*
X928Y1945D01*
X928Y1947D01*
X922Y1947D01*
X922Y1949D01*
X916Y1949D01*
X916Y1951D01*
X914Y1951D01*
X914Y1953D01*
X910Y1953D01*
X910Y1955D01*
X908Y1955D01*
X908Y1957D01*
X904Y1957D01*
X904Y1959D01*
X902Y1959D01*
X902Y1961D01*
X882Y1961D01*
G37*
D02*
G36*
X982Y1961D02*
X982Y1959D01*
X980Y1959D01*
X980Y1957D01*
X978Y1957D01*
X978Y1955D01*
X974Y1955D01*
X974Y1953D01*
X972Y1953D01*
X972Y1951D01*
X968Y1951D01*
X968Y1949D01*
X964Y1949D01*
X964Y1947D01*
X956Y1947D01*
X956Y1945D01*
X1028Y1945D01*
X1028Y1947D01*
X1022Y1947D01*
X1022Y1949D01*
X1016Y1949D01*
X1016Y1951D01*
X1014Y1951D01*
X1014Y1953D01*
X1010Y1953D01*
X1010Y1955D01*
X1008Y1955D01*
X1008Y1957D01*
X1004Y1957D01*
X1004Y1959D01*
X1002Y1959D01*
X1002Y1961D01*
X982Y1961D01*
G37*
D02*
G36*
X1082Y1961D02*
X1082Y1959D01*
X1080Y1959D01*
X1080Y1957D01*
X1078Y1957D01*
X1078Y1955D01*
X1074Y1955D01*
X1074Y1953D01*
X1072Y1953D01*
X1072Y1951D01*
X1068Y1951D01*
X1068Y1949D01*
X1064Y1949D01*
X1064Y1947D01*
X1056Y1947D01*
X1056Y1945D01*
X1128Y1945D01*
X1128Y1947D01*
X1122Y1947D01*
X1122Y1949D01*
X1116Y1949D01*
X1116Y1951D01*
X1114Y1951D01*
X1114Y1953D01*
X1110Y1953D01*
X1110Y1955D01*
X1108Y1955D01*
X1108Y1957D01*
X1104Y1957D01*
X1104Y1959D01*
X1102Y1959D01*
X1102Y1961D01*
X1082Y1961D01*
G37*
D02*
G36*
X1182Y1961D02*
X1182Y1959D01*
X1180Y1959D01*
X1180Y1957D01*
X1178Y1957D01*
X1178Y1955D01*
X1174Y1955D01*
X1174Y1953D01*
X1172Y1953D01*
X1172Y1951D01*
X1168Y1951D01*
X1168Y1949D01*
X1164Y1949D01*
X1164Y1947D01*
X1156Y1947D01*
X1156Y1945D01*
X1228Y1945D01*
X1228Y1947D01*
X1222Y1947D01*
X1222Y1949D01*
X1216Y1949D01*
X1216Y1951D01*
X1214Y1951D01*
X1214Y1953D01*
X1210Y1953D01*
X1210Y1955D01*
X1208Y1955D01*
X1208Y1957D01*
X1204Y1957D01*
X1204Y1959D01*
X1202Y1959D01*
X1202Y1961D01*
X1182Y1961D01*
G37*
D02*
G36*
X1282Y1961D02*
X1282Y1959D01*
X1280Y1959D01*
X1280Y1957D01*
X1278Y1957D01*
X1278Y1955D01*
X1274Y1955D01*
X1274Y1953D01*
X1272Y1953D01*
X1272Y1951D01*
X1268Y1951D01*
X1268Y1949D01*
X1264Y1949D01*
X1264Y1947D01*
X1256Y1947D01*
X1256Y1945D01*
X1328Y1945D01*
X1328Y1947D01*
X1322Y1947D01*
X1322Y1949D01*
X1316Y1949D01*
X1316Y1951D01*
X1314Y1951D01*
X1314Y1953D01*
X1310Y1953D01*
X1310Y1955D01*
X1308Y1955D01*
X1308Y1957D01*
X1304Y1957D01*
X1304Y1959D01*
X1302Y1959D01*
X1302Y1961D01*
X1282Y1961D01*
G37*
D02*
G36*
X1382Y1961D02*
X1382Y1959D01*
X1380Y1959D01*
X1380Y1957D01*
X1378Y1957D01*
X1378Y1955D01*
X1374Y1955D01*
X1374Y1953D01*
X1372Y1953D01*
X1372Y1951D01*
X1368Y1951D01*
X1368Y1949D01*
X1364Y1949D01*
X1364Y1947D01*
X1356Y1947D01*
X1356Y1945D01*
X1428Y1945D01*
X1428Y1947D01*
X1422Y1947D01*
X1422Y1949D01*
X1416Y1949D01*
X1416Y1951D01*
X1414Y1951D01*
X1414Y1953D01*
X1410Y1953D01*
X1410Y1955D01*
X1408Y1955D01*
X1408Y1957D01*
X1404Y1957D01*
X1404Y1959D01*
X1402Y1959D01*
X1402Y1961D01*
X1382Y1961D01*
G37*
D02*
G36*
X1482Y1961D02*
X1482Y1959D01*
X1480Y1959D01*
X1480Y1957D01*
X1478Y1957D01*
X1478Y1955D01*
X1474Y1955D01*
X1474Y1953D01*
X1472Y1953D01*
X1472Y1951D01*
X1468Y1951D01*
X1468Y1949D01*
X1464Y1949D01*
X1464Y1947D01*
X1456Y1947D01*
X1456Y1945D01*
X1528Y1945D01*
X1528Y1947D01*
X1522Y1947D01*
X1522Y1949D01*
X1516Y1949D01*
X1516Y1951D01*
X1514Y1951D01*
X1514Y1953D01*
X1510Y1953D01*
X1510Y1955D01*
X1508Y1955D01*
X1508Y1957D01*
X1504Y1957D01*
X1504Y1959D01*
X1502Y1959D01*
X1502Y1961D01*
X1482Y1961D01*
G37*
D02*
G36*
X1582Y1961D02*
X1582Y1959D01*
X1580Y1959D01*
X1580Y1957D01*
X1578Y1957D01*
X1578Y1955D01*
X1574Y1955D01*
X1574Y1953D01*
X1572Y1953D01*
X1572Y1951D01*
X1568Y1951D01*
X1568Y1949D01*
X1564Y1949D01*
X1564Y1947D01*
X1556Y1947D01*
X1556Y1945D01*
X1628Y1945D01*
X1628Y1947D01*
X1622Y1947D01*
X1622Y1949D01*
X1616Y1949D01*
X1616Y1951D01*
X1612Y1951D01*
X1612Y1953D01*
X1610Y1953D01*
X1610Y1955D01*
X1608Y1955D01*
X1608Y1957D01*
X1604Y1957D01*
X1604Y1959D01*
X1602Y1959D01*
X1602Y1961D01*
X1582Y1961D01*
G37*
D02*
G36*
X1842Y1961D02*
X1842Y1959D01*
X1840Y1959D01*
X1840Y1957D01*
X1838Y1957D01*
X1838Y1955D01*
X1834Y1955D01*
X1834Y1953D01*
X1832Y1953D01*
X1832Y1951D01*
X1828Y1951D01*
X1828Y1949D01*
X1824Y1949D01*
X1824Y1947D01*
X1816Y1947D01*
X1816Y1945D01*
X1888Y1945D01*
X1888Y1947D01*
X1882Y1947D01*
X1882Y1949D01*
X1876Y1949D01*
X1876Y1951D01*
X1874Y1951D01*
X1874Y1953D01*
X1870Y1953D01*
X1870Y1955D01*
X1868Y1955D01*
X1868Y1957D01*
X1864Y1957D01*
X1864Y1959D01*
X1862Y1959D01*
X1862Y1961D01*
X1842Y1961D01*
G37*
D02*
G36*
X1942Y1961D02*
X1942Y1959D01*
X1940Y1959D01*
X1940Y1957D01*
X1938Y1957D01*
X1938Y1955D01*
X1934Y1955D01*
X1934Y1953D01*
X1932Y1953D01*
X1932Y1951D01*
X1928Y1951D01*
X1928Y1949D01*
X1924Y1949D01*
X1924Y1947D01*
X1916Y1947D01*
X1916Y1945D01*
X1988Y1945D01*
X1988Y1947D01*
X1982Y1947D01*
X1982Y1949D01*
X1976Y1949D01*
X1976Y1951D01*
X1974Y1951D01*
X1974Y1953D01*
X1970Y1953D01*
X1970Y1955D01*
X1968Y1955D01*
X1968Y1957D01*
X1964Y1957D01*
X1964Y1959D01*
X1962Y1959D01*
X1962Y1961D01*
X1942Y1961D01*
G37*
D02*
G36*
X2042Y1961D02*
X2042Y1959D01*
X2040Y1959D01*
X2040Y1957D01*
X2038Y1957D01*
X2038Y1955D01*
X2034Y1955D01*
X2034Y1953D01*
X2032Y1953D01*
X2032Y1951D01*
X2028Y1951D01*
X2028Y1949D01*
X2024Y1949D01*
X2024Y1947D01*
X2016Y1947D01*
X2016Y1945D01*
X2088Y1945D01*
X2088Y1947D01*
X2082Y1947D01*
X2082Y1949D01*
X2076Y1949D01*
X2076Y1951D01*
X2074Y1951D01*
X2074Y1953D01*
X2070Y1953D01*
X2070Y1955D01*
X2068Y1955D01*
X2068Y1957D01*
X2064Y1957D01*
X2064Y1959D01*
X2062Y1959D01*
X2062Y1961D01*
X2042Y1961D01*
G37*
D02*
G36*
X2142Y1961D02*
X2142Y1959D01*
X2140Y1959D01*
X2140Y1957D01*
X2138Y1957D01*
X2138Y1955D01*
X2134Y1955D01*
X2134Y1953D01*
X2132Y1953D01*
X2132Y1951D01*
X2128Y1951D01*
X2128Y1949D01*
X2124Y1949D01*
X2124Y1947D01*
X2116Y1947D01*
X2116Y1945D01*
X2188Y1945D01*
X2188Y1947D01*
X2182Y1947D01*
X2182Y1949D01*
X2176Y1949D01*
X2176Y1951D01*
X2172Y1951D01*
X2172Y1953D01*
X2170Y1953D01*
X2170Y1955D01*
X2168Y1955D01*
X2168Y1957D01*
X2164Y1957D01*
X2164Y1959D01*
X2162Y1959D01*
X2162Y1961D01*
X2142Y1961D01*
G37*
D02*
G36*
X2242Y1961D02*
X2242Y1959D01*
X2240Y1959D01*
X2240Y1957D01*
X2236Y1957D01*
X2236Y1955D01*
X2234Y1955D01*
X2234Y1953D01*
X2232Y1953D01*
X2232Y1951D01*
X2228Y1951D01*
X2228Y1949D01*
X2224Y1949D01*
X2224Y1947D01*
X2216Y1947D01*
X2216Y1945D01*
X2288Y1945D01*
X2288Y1947D01*
X2282Y1947D01*
X2282Y1949D01*
X2276Y1949D01*
X2276Y1951D01*
X2274Y1951D01*
X2274Y1953D01*
X2270Y1953D01*
X2270Y1955D01*
X2268Y1955D01*
X2268Y1957D01*
X2264Y1957D01*
X2264Y1959D01*
X2262Y1959D01*
X2262Y1961D01*
X2242Y1961D01*
G37*
D02*
G36*
X2342Y1961D02*
X2342Y1959D01*
X2340Y1959D01*
X2340Y1957D01*
X2338Y1957D01*
X2338Y1955D01*
X2334Y1955D01*
X2334Y1953D01*
X2332Y1953D01*
X2332Y1951D01*
X2328Y1951D01*
X2328Y1949D01*
X2324Y1949D01*
X2324Y1947D01*
X2316Y1947D01*
X2316Y1945D01*
X2388Y1945D01*
X2388Y1947D01*
X2382Y1947D01*
X2382Y1949D01*
X2376Y1949D01*
X2376Y1951D01*
X2374Y1951D01*
X2374Y1953D01*
X2370Y1953D01*
X2370Y1955D01*
X2368Y1955D01*
X2368Y1957D01*
X2364Y1957D01*
X2364Y1959D01*
X2362Y1959D01*
X2362Y1961D01*
X2342Y1961D01*
G37*
D02*
G36*
X2442Y1961D02*
X2442Y1959D01*
X2440Y1959D01*
X2440Y1957D01*
X2438Y1957D01*
X2438Y1955D01*
X2434Y1955D01*
X2434Y1953D01*
X2432Y1953D01*
X2432Y1951D01*
X2428Y1951D01*
X2428Y1949D01*
X2424Y1949D01*
X2424Y1947D01*
X2416Y1947D01*
X2416Y1945D01*
X2488Y1945D01*
X2488Y1947D01*
X2482Y1947D01*
X2482Y1949D01*
X2476Y1949D01*
X2476Y1951D01*
X2474Y1951D01*
X2474Y1953D01*
X2470Y1953D01*
X2470Y1955D01*
X2468Y1955D01*
X2468Y1957D01*
X2464Y1957D01*
X2464Y1959D01*
X2462Y1959D01*
X2462Y1961D01*
X2442Y1961D01*
G37*
D02*
G36*
X52Y1945D02*
X52Y1943D01*
X2564Y1943D01*
X2564Y1945D01*
X52Y1945D01*
G37*
D02*
G36*
X52Y1945D02*
X52Y1943D01*
X2564Y1943D01*
X2564Y1945D01*
X52Y1945D01*
G37*
D02*
G36*
X52Y1945D02*
X52Y1943D01*
X2564Y1943D01*
X2564Y1945D01*
X52Y1945D01*
G37*
D02*
G36*
X52Y1945D02*
X52Y1943D01*
X2564Y1943D01*
X2564Y1945D01*
X52Y1945D01*
G37*
D02*
G36*
X52Y1945D02*
X52Y1943D01*
X2564Y1943D01*
X2564Y1945D01*
X52Y1945D01*
G37*
D02*
G36*
X52Y1945D02*
X52Y1943D01*
X2564Y1943D01*
X2564Y1945D01*
X52Y1945D01*
G37*
D02*
G36*
X52Y1945D02*
X52Y1943D01*
X2564Y1943D01*
X2564Y1945D01*
X52Y1945D01*
G37*
D02*
G36*
X52Y1945D02*
X52Y1943D01*
X2564Y1943D01*
X2564Y1945D01*
X52Y1945D01*
G37*
D02*
G36*
X52Y1945D02*
X52Y1943D01*
X2564Y1943D01*
X2564Y1945D01*
X52Y1945D01*
G37*
D02*
G36*
X52Y1945D02*
X52Y1943D01*
X2564Y1943D01*
X2564Y1945D01*
X52Y1945D01*
G37*
D02*
G36*
X52Y1945D02*
X52Y1943D01*
X2564Y1943D01*
X2564Y1945D01*
X52Y1945D01*
G37*
D02*
G36*
X52Y1945D02*
X52Y1943D01*
X2564Y1943D01*
X2564Y1945D01*
X52Y1945D01*
G37*
D02*
G36*
X52Y1945D02*
X52Y1943D01*
X2564Y1943D01*
X2564Y1945D01*
X52Y1945D01*
G37*
D02*
G36*
X52Y1945D02*
X52Y1943D01*
X2564Y1943D01*
X2564Y1945D01*
X52Y1945D01*
G37*
D02*
G36*
X52Y1945D02*
X52Y1943D01*
X2564Y1943D01*
X2564Y1945D01*
X52Y1945D01*
G37*
D02*
G36*
X52Y1945D02*
X52Y1943D01*
X2564Y1943D01*
X2564Y1945D01*
X52Y1945D01*
G37*
D02*
G36*
X52Y1945D02*
X52Y1943D01*
X2564Y1943D01*
X2564Y1945D01*
X52Y1945D01*
G37*
D02*
G36*
X52Y1945D02*
X52Y1943D01*
X2564Y1943D01*
X2564Y1945D01*
X52Y1945D01*
G37*
D02*
G36*
X52Y1945D02*
X52Y1943D01*
X2564Y1943D01*
X2564Y1945D01*
X52Y1945D01*
G37*
D02*
G36*
X52Y1943D02*
X52Y1917D01*
X466Y1917D01*
X466Y1887D01*
X1412Y1887D01*
X1412Y1885D01*
X1418Y1885D01*
X1418Y1883D01*
X1422Y1883D01*
X1422Y1881D01*
X1424Y1881D01*
X1424Y1879D01*
X1426Y1879D01*
X1426Y1877D01*
X1428Y1877D01*
X1428Y1875D01*
X1430Y1875D01*
X1430Y1873D01*
X1432Y1873D01*
X1432Y1869D01*
X1434Y1869D01*
X1434Y1865D01*
X1436Y1865D01*
X1436Y1861D01*
X1438Y1861D01*
X1438Y1857D01*
X1440Y1857D01*
X1440Y1855D01*
X1442Y1855D01*
X1442Y1851D01*
X1444Y1851D01*
X1444Y1847D01*
X1446Y1847D01*
X1446Y1843D01*
X1448Y1843D01*
X1448Y1839D01*
X1450Y1839D01*
X1450Y1835D01*
X1452Y1835D01*
X1452Y1831D01*
X1454Y1831D01*
X1454Y1827D01*
X1456Y1827D01*
X1456Y1823D01*
X1458Y1823D01*
X1458Y1819D01*
X1460Y1819D01*
X1460Y1817D01*
X2518Y1817D01*
X2518Y1687D01*
X2564Y1687D01*
X2564Y1943D01*
X52Y1943D01*
G37*
D02*
G36*
X52Y1917D02*
X52Y1787D01*
X188Y1787D01*
X188Y1789D01*
X182Y1789D01*
X182Y1791D01*
X176Y1791D01*
X176Y1793D01*
X172Y1793D01*
X172Y1795D01*
X168Y1795D01*
X168Y1797D01*
X166Y1797D01*
X166Y1799D01*
X162Y1799D01*
X162Y1801D01*
X160Y1801D01*
X160Y1803D01*
X158Y1803D01*
X158Y1805D01*
X156Y1805D01*
X156Y1807D01*
X154Y1807D01*
X154Y1809D01*
X152Y1809D01*
X152Y1811D01*
X150Y1811D01*
X150Y1813D01*
X148Y1813D01*
X148Y1817D01*
X146Y1817D01*
X146Y1821D01*
X144Y1821D01*
X144Y1823D01*
X142Y1823D01*
X142Y1829D01*
X140Y1829D01*
X140Y1835D01*
X138Y1835D01*
X138Y1845D01*
X136Y1845D01*
X136Y1859D01*
X138Y1859D01*
X138Y1869D01*
X140Y1869D01*
X140Y1875D01*
X142Y1875D01*
X142Y1879D01*
X144Y1879D01*
X144Y1883D01*
X146Y1883D01*
X146Y1887D01*
X148Y1887D01*
X148Y1889D01*
X150Y1889D01*
X150Y1893D01*
X152Y1893D01*
X152Y1895D01*
X154Y1895D01*
X154Y1897D01*
X156Y1897D01*
X156Y1899D01*
X158Y1899D01*
X158Y1901D01*
X160Y1901D01*
X160Y1903D01*
X164Y1903D01*
X164Y1905D01*
X166Y1905D01*
X166Y1907D01*
X170Y1907D01*
X170Y1909D01*
X174Y1909D01*
X174Y1911D01*
X178Y1911D01*
X178Y1913D01*
X184Y1913D01*
X184Y1915D01*
X192Y1915D01*
X192Y1917D01*
X52Y1917D01*
G37*
D02*
G36*
X210Y1917D02*
X210Y1915D01*
X220Y1915D01*
X220Y1913D01*
X226Y1913D01*
X226Y1911D01*
X230Y1911D01*
X230Y1909D01*
X234Y1909D01*
X234Y1907D01*
X238Y1907D01*
X238Y1905D01*
X240Y1905D01*
X240Y1903D01*
X242Y1903D01*
X242Y1901D01*
X244Y1901D01*
X244Y1899D01*
X248Y1899D01*
X248Y1897D01*
X250Y1897D01*
X250Y1893D01*
X252Y1893D01*
X252Y1891D01*
X254Y1891D01*
X254Y1889D01*
X256Y1889D01*
X256Y1885D01*
X258Y1885D01*
X258Y1883D01*
X260Y1883D01*
X260Y1879D01*
X262Y1879D01*
X262Y1873D01*
X264Y1873D01*
X264Y1865D01*
X266Y1865D01*
X266Y1837D01*
X264Y1837D01*
X264Y1831D01*
X262Y1831D01*
X262Y1825D01*
X260Y1825D01*
X260Y1821D01*
X258Y1821D01*
X258Y1819D01*
X256Y1819D01*
X256Y1815D01*
X254Y1815D01*
X254Y1813D01*
X252Y1813D01*
X252Y1809D01*
X250Y1809D01*
X250Y1807D01*
X248Y1807D01*
X248Y1805D01*
X246Y1805D01*
X246Y1803D01*
X244Y1803D01*
X244Y1801D01*
X240Y1801D01*
X240Y1799D01*
X238Y1799D01*
X238Y1797D01*
X234Y1797D01*
X234Y1795D01*
X232Y1795D01*
X232Y1793D01*
X228Y1793D01*
X228Y1791D01*
X222Y1791D01*
X222Y1789D01*
X214Y1789D01*
X214Y1787D01*
X336Y1787D01*
X336Y1917D01*
X210Y1917D01*
G37*
D02*
G36*
X466Y1887D02*
X466Y1787D01*
X1038Y1787D01*
X1038Y1789D01*
X1040Y1789D01*
X1040Y1791D01*
X1042Y1791D01*
X1042Y1793D01*
X1044Y1793D01*
X1044Y1795D01*
X1046Y1795D01*
X1046Y1797D01*
X1048Y1797D01*
X1048Y1799D01*
X1050Y1799D01*
X1050Y1801D01*
X1052Y1801D01*
X1052Y1803D01*
X1054Y1803D01*
X1054Y1807D01*
X1056Y1807D01*
X1056Y1809D01*
X1058Y1809D01*
X1058Y1811D01*
X1060Y1811D01*
X1060Y1813D01*
X1062Y1813D01*
X1062Y1815D01*
X1064Y1815D01*
X1064Y1817D01*
X1066Y1817D01*
X1066Y1819D01*
X1068Y1819D01*
X1068Y1821D01*
X1070Y1821D01*
X1070Y1823D01*
X1072Y1823D01*
X1072Y1825D01*
X1074Y1825D01*
X1074Y1827D01*
X1076Y1827D01*
X1076Y1829D01*
X1078Y1829D01*
X1078Y1831D01*
X1080Y1831D01*
X1080Y1833D01*
X1082Y1833D01*
X1082Y1835D01*
X1084Y1835D01*
X1084Y1837D01*
X1086Y1837D01*
X1086Y1839D01*
X1088Y1839D01*
X1088Y1841D01*
X1090Y1841D01*
X1090Y1843D01*
X1092Y1843D01*
X1092Y1845D01*
X1094Y1845D01*
X1094Y1847D01*
X1096Y1847D01*
X1096Y1849D01*
X1098Y1849D01*
X1098Y1851D01*
X1100Y1851D01*
X1100Y1853D01*
X1102Y1853D01*
X1102Y1855D01*
X1104Y1855D01*
X1104Y1857D01*
X1106Y1857D01*
X1106Y1859D01*
X1108Y1859D01*
X1108Y1861D01*
X1110Y1861D01*
X1110Y1863D01*
X1112Y1863D01*
X1112Y1865D01*
X1114Y1865D01*
X1114Y1867D01*
X1116Y1867D01*
X1116Y1869D01*
X1118Y1869D01*
X1118Y1871D01*
X1120Y1871D01*
X1120Y1873D01*
X1122Y1873D01*
X1122Y1875D01*
X1124Y1875D01*
X1124Y1877D01*
X1126Y1877D01*
X1126Y1879D01*
X1128Y1879D01*
X1128Y1881D01*
X1132Y1881D01*
X1132Y1883D01*
X1134Y1883D01*
X1134Y1885D01*
X1140Y1885D01*
X1140Y1887D01*
X466Y1887D01*
G37*
D02*
G36*
X1460Y1817D02*
X1460Y1815D01*
X1462Y1815D01*
X1462Y1811D01*
X1464Y1811D01*
X1464Y1807D01*
X1466Y1807D01*
X1466Y1803D01*
X1486Y1803D01*
X1486Y1817D01*
X1460Y1817D01*
G37*
D02*
G36*
X1616Y1817D02*
X1616Y1689D01*
X1754Y1689D01*
X1754Y1709D01*
X1752Y1709D01*
X1752Y1713D01*
X1750Y1713D01*
X1750Y1715D01*
X1748Y1715D01*
X1748Y1719D01*
X1746Y1719D01*
X1746Y1721D01*
X1744Y1721D01*
X1744Y1725D01*
X1742Y1725D01*
X1742Y1731D01*
X1740Y1731D01*
X1740Y1737D01*
X1738Y1737D01*
X1738Y1767D01*
X1740Y1767D01*
X1740Y1773D01*
X1742Y1773D01*
X1742Y1779D01*
X1744Y1779D01*
X1744Y1783D01*
X1746Y1783D01*
X1746Y1787D01*
X1748Y1787D01*
X1748Y1789D01*
X1750Y1789D01*
X1750Y1791D01*
X1752Y1791D01*
X1752Y1795D01*
X1754Y1795D01*
X1754Y1797D01*
X1756Y1797D01*
X1756Y1799D01*
X1758Y1799D01*
X1758Y1801D01*
X1760Y1801D01*
X1760Y1803D01*
X1764Y1803D01*
X1764Y1805D01*
X1766Y1805D01*
X1766Y1807D01*
X1770Y1807D01*
X1770Y1809D01*
X1772Y1809D01*
X1772Y1811D01*
X1776Y1811D01*
X1776Y1813D01*
X1782Y1813D01*
X1782Y1815D01*
X1790Y1815D01*
X1790Y1817D01*
X1616Y1817D01*
G37*
D02*
G36*
X1814Y1817D02*
X1814Y1815D01*
X1822Y1815D01*
X1822Y1813D01*
X1828Y1813D01*
X1828Y1811D01*
X1832Y1811D01*
X1832Y1809D01*
X1834Y1809D01*
X1834Y1807D01*
X1838Y1807D01*
X1838Y1805D01*
X1840Y1805D01*
X1840Y1803D01*
X1844Y1803D01*
X1844Y1801D01*
X1846Y1801D01*
X1846Y1799D01*
X1848Y1799D01*
X1848Y1797D01*
X1850Y1797D01*
X1850Y1795D01*
X1852Y1795D01*
X1852Y1793D01*
X1854Y1793D01*
X1854Y1789D01*
X1856Y1789D01*
X1856Y1787D01*
X1858Y1787D01*
X1858Y1783D01*
X1860Y1783D01*
X1860Y1779D01*
X1862Y1779D01*
X1862Y1775D01*
X1864Y1775D01*
X1864Y1769D01*
X1866Y1769D01*
X1866Y1755D01*
X1868Y1755D01*
X1868Y1749D01*
X1866Y1749D01*
X1866Y1735D01*
X1864Y1735D01*
X1864Y1729D01*
X1862Y1729D01*
X1862Y1725D01*
X1860Y1725D01*
X1860Y1721D01*
X1858Y1721D01*
X1858Y1717D01*
X1856Y1717D01*
X1856Y1715D01*
X1854Y1715D01*
X1854Y1711D01*
X1852Y1711D01*
X1852Y1709D01*
X1850Y1709D01*
X1850Y1689D01*
X1938Y1689D01*
X1938Y1817D01*
X1814Y1817D01*
G37*
D02*
G36*
X2068Y1817D02*
X2068Y1689D01*
X2176Y1689D01*
X2176Y1687D01*
X2206Y1687D01*
X2206Y1707D01*
X2204Y1707D01*
X2204Y1709D01*
X2202Y1709D01*
X2202Y1713D01*
X2200Y1713D01*
X2200Y1715D01*
X2198Y1715D01*
X2198Y1719D01*
X2196Y1719D01*
X2196Y1721D01*
X2194Y1721D01*
X2194Y1725D01*
X2192Y1725D01*
X2192Y1731D01*
X2190Y1731D01*
X2190Y1737D01*
X2188Y1737D01*
X2188Y1767D01*
X2190Y1767D01*
X2190Y1773D01*
X2192Y1773D01*
X2192Y1779D01*
X2194Y1779D01*
X2194Y1783D01*
X2196Y1783D01*
X2196Y1787D01*
X2198Y1787D01*
X2198Y1789D01*
X2200Y1789D01*
X2200Y1791D01*
X2202Y1791D01*
X2202Y1795D01*
X2204Y1795D01*
X2204Y1797D01*
X2206Y1797D01*
X2206Y1799D01*
X2208Y1799D01*
X2208Y1801D01*
X2210Y1801D01*
X2210Y1803D01*
X2214Y1803D01*
X2214Y1805D01*
X2216Y1805D01*
X2216Y1807D01*
X2220Y1807D01*
X2220Y1809D01*
X2222Y1809D01*
X2222Y1811D01*
X2226Y1811D01*
X2226Y1813D01*
X2232Y1813D01*
X2232Y1815D01*
X2240Y1815D01*
X2240Y1817D01*
X2068Y1817D01*
G37*
D02*
G36*
X2264Y1817D02*
X2264Y1815D01*
X2272Y1815D01*
X2272Y1813D01*
X2278Y1813D01*
X2278Y1811D01*
X2282Y1811D01*
X2282Y1809D01*
X2284Y1809D01*
X2284Y1807D01*
X2288Y1807D01*
X2288Y1805D01*
X2290Y1805D01*
X2290Y1803D01*
X2294Y1803D01*
X2294Y1801D01*
X2296Y1801D01*
X2296Y1799D01*
X2298Y1799D01*
X2298Y1797D01*
X2300Y1797D01*
X2300Y1795D01*
X2302Y1795D01*
X2302Y1793D01*
X2304Y1793D01*
X2304Y1789D01*
X2306Y1789D01*
X2306Y1787D01*
X2308Y1787D01*
X2308Y1783D01*
X2310Y1783D01*
X2310Y1779D01*
X2312Y1779D01*
X2312Y1775D01*
X2314Y1775D01*
X2314Y1769D01*
X2316Y1769D01*
X2316Y1755D01*
X2318Y1755D01*
X2318Y1749D01*
X2316Y1749D01*
X2316Y1735D01*
X2314Y1735D01*
X2314Y1729D01*
X2312Y1729D01*
X2312Y1725D01*
X2310Y1725D01*
X2310Y1721D01*
X2308Y1721D01*
X2308Y1717D01*
X2306Y1717D01*
X2306Y1715D01*
X2304Y1715D01*
X2304Y1711D01*
X2302Y1711D01*
X2302Y1709D01*
X2300Y1709D01*
X2300Y1707D01*
X2298Y1707D01*
X2298Y1705D01*
X2296Y1705D01*
X2296Y1703D01*
X2294Y1703D01*
X2294Y1701D01*
X2290Y1701D01*
X2290Y1699D01*
X2288Y1699D01*
X2288Y1687D01*
X2388Y1687D01*
X2388Y1817D01*
X2264Y1817D01*
G37*
D02*
G36*
X52Y1787D02*
X52Y1785D01*
X1036Y1785D01*
X1036Y1787D01*
X52Y1787D01*
G37*
D02*
G36*
X52Y1787D02*
X52Y1785D01*
X1036Y1785D01*
X1036Y1787D01*
X52Y1787D01*
G37*
D02*
G36*
X52Y1787D02*
X52Y1785D01*
X1036Y1785D01*
X1036Y1787D01*
X52Y1787D01*
G37*
D02*
G36*
X52Y1785D02*
X52Y1747D01*
X606Y1747D01*
X606Y1745D01*
X616Y1745D01*
X616Y1743D01*
X620Y1743D01*
X620Y1741D01*
X624Y1741D01*
X624Y1739D01*
X628Y1739D01*
X628Y1737D01*
X630Y1737D01*
X630Y1735D01*
X632Y1735D01*
X632Y1733D01*
X634Y1733D01*
X634Y1731D01*
X636Y1731D01*
X636Y1729D01*
X638Y1729D01*
X638Y1725D01*
X640Y1725D01*
X640Y1723D01*
X642Y1723D01*
X642Y1719D01*
X644Y1719D01*
X644Y1711D01*
X646Y1711D01*
X646Y1691D01*
X644Y1691D01*
X644Y1685D01*
X642Y1685D01*
X642Y1673D01*
X662Y1673D01*
X662Y1675D01*
X666Y1675D01*
X666Y1677D01*
X670Y1677D01*
X670Y1679D01*
X674Y1679D01*
X674Y1681D01*
X678Y1681D01*
X678Y1683D01*
X682Y1683D01*
X682Y1685D01*
X686Y1685D01*
X686Y1687D01*
X690Y1687D01*
X690Y1689D01*
X694Y1689D01*
X694Y1691D01*
X698Y1691D01*
X698Y1693D01*
X702Y1693D01*
X702Y1695D01*
X706Y1695D01*
X706Y1697D01*
X710Y1697D01*
X710Y1699D01*
X714Y1699D01*
X714Y1701D01*
X718Y1701D01*
X718Y1703D01*
X722Y1703D01*
X722Y1705D01*
X726Y1705D01*
X726Y1707D01*
X730Y1707D01*
X730Y1709D01*
X734Y1709D01*
X734Y1711D01*
X738Y1711D01*
X738Y1713D01*
X742Y1713D01*
X742Y1715D01*
X746Y1715D01*
X746Y1717D01*
X752Y1717D01*
X752Y1719D01*
X756Y1719D01*
X756Y1721D01*
X760Y1721D01*
X760Y1723D01*
X764Y1723D01*
X764Y1725D01*
X768Y1725D01*
X768Y1727D01*
X772Y1727D01*
X772Y1729D01*
X776Y1729D01*
X776Y1731D01*
X780Y1731D01*
X780Y1733D01*
X784Y1733D01*
X784Y1735D01*
X788Y1735D01*
X788Y1737D01*
X794Y1737D01*
X794Y1739D01*
X988Y1739D01*
X988Y1741D01*
X990Y1741D01*
X990Y1743D01*
X992Y1743D01*
X992Y1745D01*
X994Y1745D01*
X994Y1747D01*
X996Y1747D01*
X996Y1749D01*
X998Y1749D01*
X998Y1751D01*
X1000Y1751D01*
X1000Y1753D01*
X1002Y1753D01*
X1002Y1755D01*
X1004Y1755D01*
X1004Y1757D01*
X1006Y1757D01*
X1006Y1759D01*
X1008Y1759D01*
X1008Y1761D01*
X1010Y1761D01*
X1010Y1763D01*
X1012Y1763D01*
X1012Y1765D01*
X1014Y1765D01*
X1014Y1767D01*
X1016Y1767D01*
X1016Y1769D01*
X1018Y1769D01*
X1018Y1771D01*
X1022Y1771D01*
X1022Y1773D01*
X1024Y1773D01*
X1024Y1775D01*
X1026Y1775D01*
X1026Y1777D01*
X1028Y1777D01*
X1028Y1779D01*
X1030Y1779D01*
X1030Y1781D01*
X1032Y1781D01*
X1032Y1783D01*
X1034Y1783D01*
X1034Y1785D01*
X52Y1785D01*
G37*
D02*
G36*
X52Y1747D02*
X52Y1357D01*
X144Y1357D01*
X144Y1359D01*
X136Y1359D01*
X136Y1361D01*
X132Y1361D01*
X132Y1363D01*
X128Y1363D01*
X128Y1365D01*
X126Y1365D01*
X126Y1367D01*
X122Y1367D01*
X122Y1369D01*
X120Y1369D01*
X120Y1371D01*
X118Y1371D01*
X118Y1373D01*
X116Y1373D01*
X116Y1377D01*
X114Y1377D01*
X114Y1379D01*
X112Y1379D01*
X112Y1383D01*
X110Y1383D01*
X110Y1389D01*
X108Y1389D01*
X108Y1401D01*
X106Y1401D01*
X106Y1403D01*
X108Y1403D01*
X108Y1415D01*
X110Y1415D01*
X110Y1421D01*
X112Y1421D01*
X112Y1423D01*
X114Y1423D01*
X114Y1427D01*
X116Y1427D01*
X116Y1429D01*
X118Y1429D01*
X118Y1433D01*
X120Y1433D01*
X120Y1435D01*
X124Y1435D01*
X124Y1439D01*
X126Y1439D01*
X126Y1443D01*
X128Y1443D01*
X128Y1447D01*
X130Y1447D01*
X130Y1451D01*
X132Y1451D01*
X132Y1455D01*
X134Y1455D01*
X134Y1459D01*
X136Y1459D01*
X136Y1463D01*
X138Y1463D01*
X138Y1467D01*
X140Y1467D01*
X140Y1471D01*
X142Y1471D01*
X142Y1475D01*
X144Y1475D01*
X144Y1479D01*
X146Y1479D01*
X146Y1483D01*
X148Y1483D01*
X148Y1487D01*
X150Y1487D01*
X150Y1491D01*
X152Y1491D01*
X152Y1495D01*
X154Y1495D01*
X154Y1499D01*
X156Y1499D01*
X156Y1503D01*
X158Y1503D01*
X158Y1507D01*
X160Y1507D01*
X160Y1511D01*
X162Y1511D01*
X162Y1537D01*
X160Y1537D01*
X160Y1689D01*
X158Y1689D01*
X158Y1701D01*
X156Y1701D01*
X156Y1703D01*
X158Y1703D01*
X158Y1715D01*
X160Y1715D01*
X160Y1721D01*
X162Y1721D01*
X162Y1723D01*
X164Y1723D01*
X164Y1727D01*
X166Y1727D01*
X166Y1729D01*
X168Y1729D01*
X168Y1733D01*
X170Y1733D01*
X170Y1735D01*
X174Y1735D01*
X174Y1737D01*
X176Y1737D01*
X176Y1739D01*
X180Y1739D01*
X180Y1741D01*
X182Y1741D01*
X182Y1743D01*
X188Y1743D01*
X188Y1745D01*
X196Y1745D01*
X196Y1747D01*
X52Y1747D01*
G37*
D02*
G36*
X206Y1747D02*
X206Y1745D01*
X216Y1745D01*
X216Y1743D01*
X220Y1743D01*
X220Y1741D01*
X224Y1741D01*
X224Y1739D01*
X228Y1739D01*
X228Y1737D01*
X230Y1737D01*
X230Y1735D01*
X232Y1735D01*
X232Y1733D01*
X234Y1733D01*
X234Y1731D01*
X236Y1731D01*
X236Y1729D01*
X238Y1729D01*
X238Y1725D01*
X240Y1725D01*
X240Y1723D01*
X242Y1723D01*
X242Y1719D01*
X244Y1719D01*
X244Y1711D01*
X246Y1711D01*
X246Y1691D01*
X244Y1691D01*
X244Y1685D01*
X242Y1685D01*
X242Y1543D01*
X244Y1543D01*
X244Y1499D01*
X242Y1499D01*
X242Y1497D01*
X306Y1497D01*
X306Y1495D01*
X316Y1495D01*
X316Y1493D01*
X320Y1493D01*
X320Y1491D01*
X324Y1491D01*
X324Y1489D01*
X430Y1489D01*
X430Y1493D01*
X432Y1493D01*
X432Y1497D01*
X434Y1497D01*
X434Y1501D01*
X436Y1501D01*
X436Y1505D01*
X438Y1505D01*
X438Y1509D01*
X440Y1509D01*
X440Y1513D01*
X442Y1513D01*
X442Y1517D01*
X444Y1517D01*
X444Y1521D01*
X446Y1521D01*
X446Y1525D01*
X448Y1525D01*
X448Y1529D01*
X450Y1529D01*
X450Y1535D01*
X452Y1535D01*
X452Y1539D01*
X454Y1539D01*
X454Y1543D01*
X456Y1543D01*
X456Y1547D01*
X458Y1547D01*
X458Y1551D01*
X460Y1551D01*
X460Y1555D01*
X462Y1555D01*
X462Y1559D01*
X464Y1559D01*
X464Y1563D01*
X466Y1563D01*
X466Y1567D01*
X468Y1567D01*
X468Y1571D01*
X470Y1571D01*
X470Y1573D01*
X472Y1573D01*
X472Y1577D01*
X474Y1577D01*
X474Y1579D01*
X476Y1579D01*
X476Y1581D01*
X478Y1581D01*
X478Y1583D01*
X482Y1583D01*
X482Y1585D01*
X486Y1585D01*
X486Y1587D01*
X490Y1587D01*
X490Y1589D01*
X494Y1589D01*
X494Y1591D01*
X498Y1591D01*
X498Y1593D01*
X502Y1593D01*
X502Y1595D01*
X506Y1595D01*
X506Y1597D01*
X510Y1597D01*
X510Y1599D01*
X514Y1599D01*
X514Y1601D01*
X518Y1601D01*
X518Y1603D01*
X522Y1603D01*
X522Y1605D01*
X526Y1605D01*
X526Y1607D01*
X530Y1607D01*
X530Y1609D01*
X534Y1609D01*
X534Y1611D01*
X538Y1611D01*
X538Y1613D01*
X542Y1613D01*
X542Y1615D01*
X548Y1615D01*
X548Y1617D01*
X552Y1617D01*
X552Y1619D01*
X556Y1619D01*
X556Y1621D01*
X560Y1621D01*
X560Y1623D01*
X564Y1623D01*
X564Y1625D01*
X568Y1625D01*
X568Y1627D01*
X572Y1627D01*
X572Y1629D01*
X576Y1629D01*
X576Y1631D01*
X580Y1631D01*
X580Y1633D01*
X584Y1633D01*
X584Y1635D01*
X588Y1635D01*
X588Y1637D01*
X592Y1637D01*
X592Y1639D01*
X594Y1639D01*
X594Y1659D01*
X586Y1659D01*
X586Y1661D01*
X582Y1661D01*
X582Y1663D01*
X578Y1663D01*
X578Y1665D01*
X576Y1665D01*
X576Y1667D01*
X572Y1667D01*
X572Y1669D01*
X570Y1669D01*
X570Y1671D01*
X568Y1671D01*
X568Y1673D01*
X566Y1673D01*
X566Y1677D01*
X564Y1677D01*
X564Y1679D01*
X562Y1679D01*
X562Y1683D01*
X560Y1683D01*
X560Y1689D01*
X558Y1689D01*
X558Y1701D01*
X556Y1701D01*
X556Y1703D01*
X558Y1703D01*
X558Y1715D01*
X560Y1715D01*
X560Y1721D01*
X562Y1721D01*
X562Y1723D01*
X564Y1723D01*
X564Y1727D01*
X566Y1727D01*
X566Y1729D01*
X568Y1729D01*
X568Y1733D01*
X570Y1733D01*
X570Y1735D01*
X574Y1735D01*
X574Y1737D01*
X576Y1737D01*
X576Y1739D01*
X580Y1739D01*
X580Y1741D01*
X582Y1741D01*
X582Y1743D01*
X588Y1743D01*
X588Y1745D01*
X596Y1745D01*
X596Y1747D01*
X206Y1747D01*
G37*
D02*
G36*
X2288Y1687D02*
X2288Y1685D01*
X2564Y1685D01*
X2564Y1687D01*
X2288Y1687D01*
G37*
D02*
G36*
X2288Y1687D02*
X2288Y1685D01*
X2564Y1685D01*
X2564Y1687D01*
X2288Y1687D01*
G37*
D02*
G36*
X2288Y1685D02*
X2288Y1645D01*
X2286Y1645D01*
X2286Y1637D01*
X2284Y1637D01*
X2284Y1633D01*
X2282Y1633D01*
X2282Y1629D01*
X2280Y1629D01*
X2280Y1627D01*
X2278Y1627D01*
X2278Y1625D01*
X2276Y1625D01*
X2276Y1623D01*
X2274Y1623D01*
X2274Y1621D01*
X2270Y1621D01*
X2270Y1619D01*
X2268Y1619D01*
X2268Y1617D01*
X2262Y1617D01*
X2262Y1615D01*
X2252Y1615D01*
X2252Y1613D01*
X2564Y1613D01*
X2564Y1685D01*
X2288Y1685D01*
G37*
D02*
G36*
X860Y1617D02*
X860Y1615D01*
X856Y1615D01*
X856Y1613D01*
X852Y1613D01*
X852Y1611D01*
X848Y1611D01*
X848Y1609D01*
X844Y1609D01*
X844Y1607D01*
X840Y1607D01*
X840Y1605D01*
X838Y1605D01*
X838Y1603D01*
X834Y1603D01*
X834Y1601D01*
X830Y1601D01*
X830Y1599D01*
X826Y1599D01*
X826Y1597D01*
X822Y1597D01*
X822Y1595D01*
X818Y1595D01*
X818Y1593D01*
X814Y1593D01*
X814Y1591D01*
X810Y1591D01*
X810Y1589D01*
X806Y1589D01*
X806Y1587D01*
X802Y1587D01*
X802Y1585D01*
X798Y1585D01*
X798Y1583D01*
X794Y1583D01*
X794Y1581D01*
X790Y1581D01*
X790Y1579D01*
X786Y1579D01*
X786Y1577D01*
X782Y1577D01*
X782Y1575D01*
X778Y1575D01*
X778Y1573D01*
X774Y1573D01*
X774Y1571D01*
X770Y1571D01*
X770Y1569D01*
X766Y1569D01*
X766Y1567D01*
X762Y1567D01*
X762Y1565D01*
X758Y1565D01*
X758Y1563D01*
X754Y1563D01*
X754Y1561D01*
X750Y1561D01*
X750Y1559D01*
X746Y1559D01*
X746Y1557D01*
X1794Y1557D01*
X1794Y1559D01*
X1786Y1559D01*
X1786Y1561D01*
X1782Y1561D01*
X1782Y1563D01*
X1778Y1563D01*
X1778Y1565D01*
X1776Y1565D01*
X1776Y1567D01*
X1772Y1567D01*
X1772Y1569D01*
X1770Y1569D01*
X1770Y1571D01*
X1768Y1571D01*
X1768Y1573D01*
X1766Y1573D01*
X1766Y1577D01*
X1764Y1577D01*
X1764Y1579D01*
X1762Y1579D01*
X1762Y1583D01*
X1760Y1583D01*
X1760Y1589D01*
X1758Y1589D01*
X1758Y1601D01*
X1756Y1601D01*
X1756Y1615D01*
X890Y1615D01*
X890Y1617D01*
X860Y1617D01*
G37*
D02*
G36*
X1846Y1615D02*
X1846Y1591D01*
X1844Y1591D01*
X1844Y1585D01*
X1842Y1585D01*
X1842Y1581D01*
X1840Y1581D01*
X1840Y1577D01*
X1838Y1577D01*
X1838Y1575D01*
X1836Y1575D01*
X1836Y1573D01*
X1834Y1573D01*
X1834Y1571D01*
X1832Y1571D01*
X1832Y1569D01*
X1830Y1569D01*
X1830Y1567D01*
X1828Y1567D01*
X1828Y1565D01*
X1826Y1565D01*
X1826Y1563D01*
X1822Y1563D01*
X1822Y1561D01*
X1818Y1561D01*
X1818Y1559D01*
X1810Y1559D01*
X1810Y1557D01*
X1964Y1557D01*
X1964Y1579D01*
X1962Y1579D01*
X1962Y1583D01*
X1960Y1583D01*
X1960Y1589D01*
X1958Y1589D01*
X1958Y1601D01*
X1956Y1601D01*
X1956Y1615D01*
X1846Y1615D01*
G37*
D02*
G36*
X2046Y1615D02*
X2046Y1613D01*
X2170Y1613D01*
X2170Y1615D01*
X2046Y1615D01*
G37*
D02*
G36*
X2046Y1613D02*
X2046Y1611D01*
X2564Y1611D01*
X2564Y1613D01*
X2046Y1613D01*
G37*
D02*
G36*
X2046Y1613D02*
X2046Y1611D01*
X2564Y1611D01*
X2564Y1613D01*
X2046Y1613D01*
G37*
D02*
G36*
X2046Y1611D02*
X2046Y1591D01*
X2044Y1591D01*
X2044Y1585D01*
X2042Y1585D01*
X2042Y1581D01*
X2040Y1581D01*
X2040Y1577D01*
X2038Y1577D01*
X2038Y1377D01*
X2044Y1377D01*
X2044Y1375D01*
X2050Y1375D01*
X2050Y1373D01*
X2056Y1373D01*
X2056Y1371D01*
X2062Y1371D01*
X2062Y1369D01*
X2068Y1369D01*
X2068Y1367D01*
X2074Y1367D01*
X2074Y1365D01*
X2080Y1365D01*
X2080Y1363D01*
X2088Y1363D01*
X2088Y1361D01*
X2094Y1361D01*
X2094Y1359D01*
X2100Y1359D01*
X2100Y1357D01*
X2106Y1357D01*
X2106Y1355D01*
X2112Y1355D01*
X2112Y1353D01*
X2118Y1353D01*
X2118Y1351D01*
X2124Y1351D01*
X2124Y1349D01*
X2130Y1349D01*
X2130Y1347D01*
X2156Y1347D01*
X2156Y1345D01*
X2166Y1345D01*
X2166Y1343D01*
X2170Y1343D01*
X2170Y1341D01*
X2174Y1341D01*
X2174Y1339D01*
X2178Y1339D01*
X2178Y1337D01*
X2180Y1337D01*
X2180Y1335D01*
X2182Y1335D01*
X2182Y1333D01*
X2184Y1333D01*
X2184Y1331D01*
X2186Y1331D01*
X2186Y1329D01*
X2188Y1329D01*
X2188Y1325D01*
X2190Y1325D01*
X2190Y1323D01*
X2192Y1323D01*
X2192Y1319D01*
X2194Y1319D01*
X2194Y1311D01*
X2196Y1311D01*
X2196Y1291D01*
X2194Y1291D01*
X2194Y1289D01*
X2554Y1289D01*
X2554Y1287D01*
X2564Y1287D01*
X2564Y1285D01*
X2568Y1285D01*
X2568Y1283D01*
X2572Y1283D01*
X2572Y1281D01*
X2576Y1281D01*
X2576Y1279D01*
X2578Y1279D01*
X2578Y1277D01*
X2580Y1277D01*
X2580Y1275D01*
X2582Y1275D01*
X2582Y1271D01*
X2584Y1271D01*
X2584Y1267D01*
X2586Y1267D01*
X2586Y1263D01*
X2588Y1263D01*
X2588Y1251D01*
X2590Y1251D01*
X2590Y1191D01*
X2588Y1191D01*
X2588Y875D01*
X2590Y875D01*
X2590Y873D01*
X2592Y873D01*
X2592Y869D01*
X2594Y869D01*
X2594Y861D01*
X2596Y861D01*
X2596Y841D01*
X2594Y841D01*
X2594Y835D01*
X2592Y835D01*
X2592Y831D01*
X2590Y831D01*
X2590Y827D01*
X2588Y827D01*
X2588Y825D01*
X2586Y825D01*
X2586Y823D01*
X2584Y823D01*
X2584Y821D01*
X2582Y821D01*
X2582Y819D01*
X2580Y819D01*
X2580Y817D01*
X2578Y817D01*
X2578Y815D01*
X2576Y815D01*
X2576Y813D01*
X2572Y813D01*
X2572Y811D01*
X2568Y811D01*
X2568Y809D01*
X2560Y809D01*
X2560Y807D01*
X2664Y807D01*
X2664Y1453D01*
X2662Y1453D01*
X2662Y1455D01*
X2660Y1455D01*
X2660Y1457D01*
X2658Y1457D01*
X2658Y1459D01*
X2656Y1459D01*
X2656Y1461D01*
X2654Y1461D01*
X2654Y1463D01*
X2652Y1463D01*
X2652Y1465D01*
X2650Y1465D01*
X2650Y1467D01*
X2648Y1467D01*
X2648Y1469D01*
X2646Y1469D01*
X2646Y1471D01*
X2644Y1471D01*
X2644Y1473D01*
X2642Y1473D01*
X2642Y1475D01*
X2640Y1475D01*
X2640Y1477D01*
X2638Y1477D01*
X2638Y1479D01*
X2636Y1479D01*
X2636Y1481D01*
X2634Y1481D01*
X2634Y1483D01*
X2632Y1483D01*
X2632Y1485D01*
X2630Y1485D01*
X2630Y1487D01*
X2628Y1487D01*
X2628Y1489D01*
X2626Y1489D01*
X2626Y1491D01*
X2624Y1491D01*
X2624Y1493D01*
X2622Y1493D01*
X2622Y1495D01*
X2620Y1495D01*
X2620Y1497D01*
X2618Y1497D01*
X2618Y1499D01*
X2616Y1499D01*
X2616Y1501D01*
X2614Y1501D01*
X2614Y1503D01*
X2612Y1503D01*
X2612Y1505D01*
X2610Y1505D01*
X2610Y1507D01*
X2608Y1507D01*
X2608Y1509D01*
X2606Y1509D01*
X2606Y1511D01*
X2604Y1511D01*
X2604Y1513D01*
X2602Y1513D01*
X2602Y1515D01*
X2600Y1515D01*
X2600Y1517D01*
X2598Y1517D01*
X2598Y1519D01*
X2596Y1519D01*
X2596Y1521D01*
X2594Y1521D01*
X2594Y1523D01*
X2592Y1523D01*
X2592Y1525D01*
X2590Y1525D01*
X2590Y1527D01*
X2588Y1527D01*
X2588Y1529D01*
X2586Y1529D01*
X2586Y1531D01*
X2584Y1531D01*
X2584Y1533D01*
X2582Y1533D01*
X2582Y1535D01*
X2580Y1535D01*
X2580Y1537D01*
X2578Y1537D01*
X2578Y1539D01*
X2576Y1539D01*
X2576Y1541D01*
X2574Y1541D01*
X2574Y1543D01*
X2572Y1543D01*
X2572Y1545D01*
X2570Y1545D01*
X2570Y1547D01*
X2568Y1547D01*
X2568Y1549D01*
X2566Y1549D01*
X2566Y1551D01*
X2564Y1551D01*
X2564Y1611D01*
X2046Y1611D01*
G37*
D02*
G36*
X742Y1557D02*
X742Y1555D01*
X1964Y1555D01*
X1964Y1557D01*
X742Y1557D01*
G37*
D02*
G36*
X742Y1557D02*
X742Y1555D01*
X1964Y1555D01*
X1964Y1557D01*
X742Y1557D01*
G37*
D02*
G36*
X738Y1555D02*
X738Y1553D01*
X734Y1553D01*
X734Y1551D01*
X730Y1551D01*
X730Y1549D01*
X726Y1549D01*
X726Y1547D01*
X722Y1547D01*
X722Y1545D01*
X718Y1545D01*
X718Y1543D01*
X714Y1543D01*
X714Y1541D01*
X710Y1541D01*
X710Y1539D01*
X706Y1539D01*
X706Y1537D01*
X702Y1537D01*
X702Y1535D01*
X698Y1535D01*
X698Y1533D01*
X692Y1533D01*
X692Y1531D01*
X688Y1531D01*
X688Y1529D01*
X684Y1529D01*
X684Y1527D01*
X680Y1527D01*
X680Y1525D01*
X676Y1525D01*
X676Y1523D01*
X672Y1523D01*
X672Y1521D01*
X668Y1521D01*
X668Y1519D01*
X664Y1519D01*
X664Y1517D01*
X660Y1517D01*
X660Y1515D01*
X656Y1515D01*
X656Y1513D01*
X654Y1513D01*
X654Y1511D01*
X650Y1511D01*
X650Y1509D01*
X646Y1509D01*
X646Y1507D01*
X642Y1507D01*
X642Y1505D01*
X638Y1505D01*
X638Y1503D01*
X634Y1503D01*
X634Y1481D01*
X636Y1481D01*
X636Y1479D01*
X638Y1479D01*
X638Y1475D01*
X640Y1475D01*
X640Y1473D01*
X642Y1473D01*
X642Y1469D01*
X644Y1469D01*
X644Y1461D01*
X646Y1461D01*
X646Y1441D01*
X644Y1441D01*
X644Y1435D01*
X642Y1435D01*
X642Y1431D01*
X640Y1431D01*
X640Y1427D01*
X638Y1427D01*
X638Y1425D01*
X636Y1425D01*
X636Y1423D01*
X634Y1423D01*
X634Y1421D01*
X632Y1421D01*
X632Y1419D01*
X630Y1419D01*
X630Y1417D01*
X628Y1417D01*
X628Y1415D01*
X626Y1415D01*
X626Y1413D01*
X622Y1413D01*
X622Y1411D01*
X618Y1411D01*
X618Y1409D01*
X610Y1409D01*
X610Y1407D01*
X1964Y1407D01*
X1964Y1555D01*
X738Y1555D01*
G37*
D02*
G36*
X242Y1497D02*
X242Y1489D01*
X240Y1489D01*
X240Y1483D01*
X238Y1483D01*
X238Y1479D01*
X236Y1479D01*
X236Y1475D01*
X234Y1475D01*
X234Y1471D01*
X232Y1471D01*
X232Y1467D01*
X230Y1467D01*
X230Y1463D01*
X228Y1463D01*
X228Y1459D01*
X226Y1459D01*
X226Y1455D01*
X224Y1455D01*
X224Y1451D01*
X222Y1451D01*
X222Y1447D01*
X220Y1447D01*
X220Y1443D01*
X218Y1443D01*
X218Y1441D01*
X216Y1441D01*
X216Y1437D01*
X214Y1437D01*
X214Y1433D01*
X212Y1433D01*
X212Y1429D01*
X210Y1429D01*
X210Y1425D01*
X208Y1425D01*
X208Y1421D01*
X206Y1421D01*
X206Y1417D01*
X204Y1417D01*
X204Y1413D01*
X202Y1413D01*
X202Y1409D01*
X200Y1409D01*
X200Y1405D01*
X198Y1405D01*
X198Y1401D01*
X196Y1401D01*
X196Y1391D01*
X194Y1391D01*
X194Y1385D01*
X192Y1385D01*
X192Y1381D01*
X190Y1381D01*
X190Y1377D01*
X188Y1377D01*
X188Y1375D01*
X186Y1375D01*
X186Y1373D01*
X184Y1373D01*
X184Y1371D01*
X182Y1371D01*
X182Y1369D01*
X180Y1369D01*
X180Y1367D01*
X178Y1367D01*
X178Y1365D01*
X176Y1365D01*
X176Y1363D01*
X172Y1363D01*
X172Y1361D01*
X168Y1361D01*
X168Y1359D01*
X160Y1359D01*
X160Y1357D01*
X208Y1357D01*
X208Y1365D01*
X210Y1365D01*
X210Y1371D01*
X212Y1371D01*
X212Y1373D01*
X214Y1373D01*
X214Y1377D01*
X216Y1377D01*
X216Y1379D01*
X218Y1379D01*
X218Y1383D01*
X220Y1383D01*
X220Y1385D01*
X224Y1385D01*
X224Y1387D01*
X226Y1387D01*
X226Y1389D01*
X230Y1389D01*
X230Y1391D01*
X232Y1391D01*
X232Y1393D01*
X238Y1393D01*
X238Y1395D01*
X244Y1395D01*
X244Y1397D01*
X246Y1397D01*
X246Y1399D01*
X248Y1399D01*
X248Y1401D01*
X250Y1401D01*
X250Y1403D01*
X252Y1403D01*
X252Y1405D01*
X256Y1405D01*
X256Y1407D01*
X258Y1407D01*
X258Y1409D01*
X260Y1409D01*
X260Y1411D01*
X262Y1411D01*
X262Y1433D01*
X260Y1433D01*
X260Y1439D01*
X258Y1439D01*
X258Y1451D01*
X256Y1451D01*
X256Y1453D01*
X258Y1453D01*
X258Y1465D01*
X260Y1465D01*
X260Y1471D01*
X262Y1471D01*
X262Y1473D01*
X264Y1473D01*
X264Y1477D01*
X266Y1477D01*
X266Y1479D01*
X268Y1479D01*
X268Y1483D01*
X270Y1483D01*
X270Y1485D01*
X274Y1485D01*
X274Y1487D01*
X276Y1487D01*
X276Y1489D01*
X280Y1489D01*
X280Y1491D01*
X282Y1491D01*
X282Y1493D01*
X288Y1493D01*
X288Y1495D01*
X296Y1495D01*
X296Y1497D01*
X242Y1497D01*
G37*
D02*
G36*
X552Y1419D02*
X552Y1417D01*
X550Y1417D01*
X550Y1413D01*
X548Y1413D01*
X548Y1409D01*
X546Y1409D01*
X546Y1407D01*
X594Y1407D01*
X594Y1409D01*
X586Y1409D01*
X586Y1411D01*
X582Y1411D01*
X582Y1413D01*
X578Y1413D01*
X578Y1415D01*
X576Y1415D01*
X576Y1417D01*
X572Y1417D01*
X572Y1419D01*
X552Y1419D01*
G37*
D02*
G36*
X546Y1407D02*
X546Y1405D01*
X1964Y1405D01*
X1964Y1407D01*
X546Y1407D01*
G37*
D02*
G36*
X546Y1407D02*
X546Y1405D01*
X1964Y1405D01*
X1964Y1407D01*
X546Y1407D01*
G37*
D02*
G36*
X544Y1405D02*
X544Y1401D01*
X542Y1401D01*
X542Y1397D01*
X540Y1397D01*
X540Y1373D01*
X542Y1373D01*
X542Y1369D01*
X544Y1369D01*
X544Y1361D01*
X546Y1361D01*
X546Y1341D01*
X544Y1341D01*
X544Y1335D01*
X542Y1335D01*
X542Y1331D01*
X540Y1331D01*
X540Y1327D01*
X538Y1327D01*
X538Y1325D01*
X536Y1325D01*
X536Y1323D01*
X534Y1323D01*
X534Y1321D01*
X532Y1321D01*
X532Y1319D01*
X530Y1319D01*
X530Y1317D01*
X528Y1317D01*
X528Y1315D01*
X526Y1315D01*
X526Y1313D01*
X522Y1313D01*
X522Y1311D01*
X518Y1311D01*
X518Y1309D01*
X510Y1309D01*
X510Y1307D01*
X2014Y1307D01*
X2014Y1309D01*
X2008Y1309D01*
X2008Y1311D01*
X2002Y1311D01*
X2002Y1313D01*
X1996Y1313D01*
X1996Y1315D01*
X1990Y1315D01*
X1990Y1317D01*
X1986Y1317D01*
X1986Y1319D01*
X1982Y1319D01*
X1982Y1321D01*
X1978Y1321D01*
X1978Y1323D01*
X1976Y1323D01*
X1976Y1325D01*
X1974Y1325D01*
X1974Y1327D01*
X1972Y1327D01*
X1972Y1329D01*
X1970Y1329D01*
X1970Y1333D01*
X1968Y1333D01*
X1968Y1337D01*
X1966Y1337D01*
X1966Y1341D01*
X1964Y1341D01*
X1964Y1405D01*
X544Y1405D01*
G37*
D02*
G36*
X316Y1363D02*
X316Y1361D01*
X314Y1361D01*
X314Y1359D01*
X312Y1359D01*
X312Y1357D01*
X310Y1357D01*
X310Y1355D01*
X308Y1355D01*
X308Y1353D01*
X306Y1353D01*
X306Y1351D01*
X304Y1351D01*
X304Y1349D01*
X302Y1349D01*
X302Y1347D01*
X300Y1347D01*
X300Y1345D01*
X298Y1345D01*
X298Y1343D01*
X296Y1343D01*
X296Y1341D01*
X294Y1341D01*
X294Y1335D01*
X292Y1335D01*
X292Y1331D01*
X290Y1331D01*
X290Y1327D01*
X288Y1327D01*
X288Y1325D01*
X286Y1325D01*
X286Y1323D01*
X284Y1323D01*
X284Y1321D01*
X282Y1321D01*
X282Y1319D01*
X280Y1319D01*
X280Y1317D01*
X278Y1317D01*
X278Y1315D01*
X276Y1315D01*
X276Y1313D01*
X272Y1313D01*
X272Y1311D01*
X268Y1311D01*
X268Y1309D01*
X260Y1309D01*
X260Y1307D01*
X494Y1307D01*
X494Y1309D01*
X486Y1309D01*
X486Y1311D01*
X482Y1311D01*
X482Y1313D01*
X478Y1313D01*
X478Y1315D01*
X476Y1315D01*
X476Y1317D01*
X472Y1317D01*
X472Y1319D01*
X470Y1319D01*
X470Y1321D01*
X468Y1321D01*
X468Y1323D01*
X466Y1323D01*
X466Y1327D01*
X464Y1327D01*
X464Y1329D01*
X462Y1329D01*
X462Y1333D01*
X460Y1333D01*
X460Y1339D01*
X458Y1339D01*
X458Y1351D01*
X456Y1351D01*
X456Y1363D01*
X316Y1363D01*
G37*
D02*
G36*
X52Y1357D02*
X52Y1355D01*
X208Y1355D01*
X208Y1357D01*
X52Y1357D01*
G37*
D02*
G36*
X52Y1357D02*
X52Y1355D01*
X208Y1355D01*
X208Y1357D01*
X52Y1357D01*
G37*
D02*
G36*
X52Y1355D02*
X52Y1307D01*
X244Y1307D01*
X244Y1309D01*
X236Y1309D01*
X236Y1311D01*
X232Y1311D01*
X232Y1313D01*
X228Y1313D01*
X228Y1315D01*
X226Y1315D01*
X226Y1317D01*
X222Y1317D01*
X222Y1319D01*
X220Y1319D01*
X220Y1321D01*
X218Y1321D01*
X218Y1323D01*
X216Y1323D01*
X216Y1327D01*
X214Y1327D01*
X214Y1329D01*
X212Y1329D01*
X212Y1333D01*
X210Y1333D01*
X210Y1339D01*
X208Y1339D01*
X208Y1351D01*
X206Y1351D01*
X206Y1353D01*
X208Y1353D01*
X208Y1355D01*
X52Y1355D01*
G37*
D02*
G36*
X52Y1307D02*
X52Y1305D01*
X2020Y1305D01*
X2020Y1307D01*
X52Y1307D01*
G37*
D02*
G36*
X52Y1307D02*
X52Y1305D01*
X2020Y1305D01*
X2020Y1307D01*
X52Y1307D01*
G37*
D02*
G36*
X52Y1307D02*
X52Y1305D01*
X2020Y1305D01*
X2020Y1307D01*
X52Y1307D01*
G37*
D02*
G36*
X52Y1305D02*
X52Y1297D01*
X1306Y1297D01*
X1306Y1295D01*
X1316Y1295D01*
X1316Y1293D01*
X1320Y1293D01*
X1320Y1291D01*
X1324Y1291D01*
X1324Y1289D01*
X1328Y1289D01*
X1328Y1287D01*
X1330Y1287D01*
X1330Y1285D01*
X1332Y1285D01*
X1332Y1283D01*
X1334Y1283D01*
X1334Y1281D01*
X1336Y1281D01*
X1336Y1279D01*
X1338Y1279D01*
X1338Y1275D01*
X1340Y1275D01*
X1340Y1273D01*
X1342Y1273D01*
X1342Y1269D01*
X1344Y1269D01*
X1344Y1261D01*
X1346Y1261D01*
X1346Y1241D01*
X1344Y1241D01*
X1344Y1235D01*
X1342Y1235D01*
X1342Y1231D01*
X1340Y1231D01*
X1340Y1227D01*
X1338Y1227D01*
X1338Y1225D01*
X1336Y1225D01*
X1336Y1223D01*
X1334Y1223D01*
X1334Y1221D01*
X1332Y1221D01*
X1332Y1219D01*
X1330Y1219D01*
X1330Y1217D01*
X1328Y1217D01*
X1328Y1215D01*
X1564Y1215D01*
X1564Y1089D01*
X1658Y1089D01*
X1658Y1101D01*
X1656Y1101D01*
X1656Y1103D01*
X1658Y1103D01*
X1658Y1115D01*
X1660Y1115D01*
X1660Y1121D01*
X1662Y1121D01*
X1662Y1123D01*
X1664Y1123D01*
X1664Y1127D01*
X1666Y1127D01*
X1666Y1129D01*
X1668Y1129D01*
X1668Y1133D01*
X1670Y1133D01*
X1670Y1135D01*
X1674Y1135D01*
X1674Y1137D01*
X1676Y1137D01*
X1676Y1139D01*
X1680Y1139D01*
X1680Y1141D01*
X1682Y1141D01*
X1682Y1143D01*
X1688Y1143D01*
X1688Y1145D01*
X1694Y1145D01*
X1694Y1147D01*
X1696Y1147D01*
X1696Y1149D01*
X1698Y1149D01*
X1698Y1151D01*
X1700Y1151D01*
X1700Y1153D01*
X1702Y1153D01*
X1702Y1155D01*
X1704Y1155D01*
X1704Y1157D01*
X1706Y1157D01*
X1706Y1159D01*
X1708Y1159D01*
X1708Y1161D01*
X1710Y1161D01*
X1710Y1163D01*
X1712Y1163D01*
X1712Y1165D01*
X1714Y1165D01*
X1714Y1167D01*
X1716Y1167D01*
X1716Y1169D01*
X1718Y1169D01*
X1718Y1171D01*
X1720Y1171D01*
X1720Y1173D01*
X1722Y1173D01*
X1722Y1175D01*
X1724Y1175D01*
X1724Y1177D01*
X1726Y1177D01*
X1726Y1179D01*
X1728Y1179D01*
X1728Y1181D01*
X1730Y1181D01*
X1730Y1183D01*
X1732Y1183D01*
X1732Y1185D01*
X1734Y1185D01*
X1734Y1187D01*
X1736Y1187D01*
X1736Y1189D01*
X1738Y1189D01*
X1738Y1191D01*
X1740Y1191D01*
X1740Y1193D01*
X1742Y1193D01*
X1742Y1195D01*
X1744Y1195D01*
X1744Y1197D01*
X1746Y1197D01*
X1746Y1199D01*
X1748Y1199D01*
X1748Y1201D01*
X1750Y1201D01*
X1750Y1205D01*
X1752Y1205D01*
X1752Y1207D01*
X1754Y1207D01*
X1754Y1209D01*
X1756Y1209D01*
X1756Y1211D01*
X1758Y1211D01*
X1758Y1213D01*
X1760Y1213D01*
X1760Y1215D01*
X1762Y1215D01*
X1762Y1217D01*
X1764Y1217D01*
X1764Y1219D01*
X1766Y1219D01*
X1766Y1221D01*
X1768Y1221D01*
X1768Y1223D01*
X1770Y1223D01*
X1770Y1225D01*
X1772Y1225D01*
X1772Y1227D01*
X1774Y1227D01*
X1774Y1229D01*
X1778Y1229D01*
X1778Y1231D01*
X1780Y1231D01*
X1780Y1233D01*
X1784Y1233D01*
X1784Y1235D01*
X1788Y1235D01*
X1788Y1237D01*
X1796Y1237D01*
X1796Y1239D01*
X2144Y1239D01*
X2144Y1259D01*
X2136Y1259D01*
X2136Y1261D01*
X2132Y1261D01*
X2132Y1263D01*
X2128Y1263D01*
X2128Y1265D01*
X2126Y1265D01*
X2126Y1267D01*
X2122Y1267D01*
X2122Y1269D01*
X2120Y1269D01*
X2120Y1271D01*
X2118Y1271D01*
X2118Y1273D01*
X2116Y1273D01*
X2116Y1275D01*
X2112Y1275D01*
X2112Y1277D01*
X2106Y1277D01*
X2106Y1279D01*
X2100Y1279D01*
X2100Y1281D01*
X2094Y1281D01*
X2094Y1283D01*
X2088Y1283D01*
X2088Y1285D01*
X2082Y1285D01*
X2082Y1287D01*
X2076Y1287D01*
X2076Y1289D01*
X2070Y1289D01*
X2070Y1291D01*
X2062Y1291D01*
X2062Y1293D01*
X2056Y1293D01*
X2056Y1295D01*
X2050Y1295D01*
X2050Y1297D01*
X2044Y1297D01*
X2044Y1299D01*
X2038Y1299D01*
X2038Y1301D01*
X2032Y1301D01*
X2032Y1303D01*
X2026Y1303D01*
X2026Y1305D01*
X52Y1305D01*
G37*
D02*
G36*
X52Y1297D02*
X52Y1207D01*
X294Y1207D01*
X294Y1209D01*
X286Y1209D01*
X286Y1211D01*
X282Y1211D01*
X282Y1213D01*
X278Y1213D01*
X278Y1215D01*
X276Y1215D01*
X276Y1217D01*
X272Y1217D01*
X272Y1219D01*
X270Y1219D01*
X270Y1221D01*
X268Y1221D01*
X268Y1223D01*
X266Y1223D01*
X266Y1227D01*
X264Y1227D01*
X264Y1229D01*
X262Y1229D01*
X262Y1233D01*
X260Y1233D01*
X260Y1239D01*
X258Y1239D01*
X258Y1251D01*
X256Y1251D01*
X256Y1253D01*
X258Y1253D01*
X258Y1265D01*
X260Y1265D01*
X260Y1271D01*
X262Y1271D01*
X262Y1273D01*
X264Y1273D01*
X264Y1277D01*
X266Y1277D01*
X266Y1279D01*
X268Y1279D01*
X268Y1283D01*
X270Y1283D01*
X270Y1285D01*
X274Y1285D01*
X274Y1287D01*
X276Y1287D01*
X276Y1289D01*
X280Y1289D01*
X280Y1291D01*
X282Y1291D01*
X282Y1293D01*
X288Y1293D01*
X288Y1295D01*
X296Y1295D01*
X296Y1297D01*
X52Y1297D01*
G37*
D02*
G36*
X306Y1297D02*
X306Y1295D01*
X316Y1295D01*
X316Y1293D01*
X320Y1293D01*
X320Y1291D01*
X324Y1291D01*
X324Y1289D01*
X328Y1289D01*
X328Y1287D01*
X330Y1287D01*
X330Y1285D01*
X332Y1285D01*
X332Y1283D01*
X334Y1283D01*
X334Y1281D01*
X336Y1281D01*
X336Y1279D01*
X338Y1279D01*
X338Y1275D01*
X340Y1275D01*
X340Y1273D01*
X342Y1273D01*
X342Y1269D01*
X344Y1269D01*
X344Y1261D01*
X346Y1261D01*
X346Y1247D01*
X556Y1247D01*
X556Y1245D01*
X566Y1245D01*
X566Y1243D01*
X570Y1243D01*
X570Y1241D01*
X574Y1241D01*
X574Y1239D01*
X578Y1239D01*
X578Y1237D01*
X580Y1237D01*
X580Y1235D01*
X582Y1235D01*
X582Y1233D01*
X584Y1233D01*
X584Y1231D01*
X586Y1231D01*
X586Y1229D01*
X588Y1229D01*
X588Y1225D01*
X590Y1225D01*
X590Y1223D01*
X592Y1223D01*
X592Y1219D01*
X594Y1219D01*
X594Y1211D01*
X596Y1211D01*
X596Y1207D01*
X1294Y1207D01*
X1294Y1209D01*
X1286Y1209D01*
X1286Y1211D01*
X1282Y1211D01*
X1282Y1213D01*
X1278Y1213D01*
X1278Y1215D01*
X1276Y1215D01*
X1276Y1217D01*
X1272Y1217D01*
X1272Y1219D01*
X1270Y1219D01*
X1270Y1221D01*
X1268Y1221D01*
X1268Y1223D01*
X1266Y1223D01*
X1266Y1227D01*
X1264Y1227D01*
X1264Y1229D01*
X1262Y1229D01*
X1262Y1233D01*
X1260Y1233D01*
X1260Y1239D01*
X1258Y1239D01*
X1258Y1251D01*
X1256Y1251D01*
X1256Y1253D01*
X1258Y1253D01*
X1258Y1265D01*
X1260Y1265D01*
X1260Y1271D01*
X1262Y1271D01*
X1262Y1273D01*
X1264Y1273D01*
X1264Y1277D01*
X1266Y1277D01*
X1266Y1279D01*
X1268Y1279D01*
X1268Y1283D01*
X1270Y1283D01*
X1270Y1285D01*
X1274Y1285D01*
X1274Y1287D01*
X1276Y1287D01*
X1276Y1289D01*
X1280Y1289D01*
X1280Y1291D01*
X1282Y1291D01*
X1282Y1293D01*
X1288Y1293D01*
X1288Y1295D01*
X1296Y1295D01*
X1296Y1297D01*
X306Y1297D01*
G37*
D02*
G36*
X2194Y1289D02*
X2194Y1285D01*
X2192Y1285D01*
X2192Y1281D01*
X2190Y1281D01*
X2190Y1277D01*
X2188Y1277D01*
X2188Y1275D01*
X2186Y1275D01*
X2186Y1273D01*
X2184Y1273D01*
X2184Y1271D01*
X2182Y1271D01*
X2182Y1269D01*
X2180Y1269D01*
X2180Y1267D01*
X2178Y1267D01*
X2178Y1265D01*
X2176Y1265D01*
X2176Y1263D01*
X2172Y1263D01*
X2172Y1261D01*
X2168Y1261D01*
X2168Y1259D01*
X2160Y1259D01*
X2160Y1239D01*
X2206Y1239D01*
X2206Y1241D01*
X2216Y1241D01*
X2216Y1243D01*
X2226Y1243D01*
X2226Y1245D01*
X2236Y1245D01*
X2236Y1247D01*
X2246Y1247D01*
X2246Y1249D01*
X2256Y1249D01*
X2256Y1251D01*
X2266Y1251D01*
X2266Y1253D01*
X2276Y1253D01*
X2276Y1255D01*
X2286Y1255D01*
X2286Y1257D01*
X2296Y1257D01*
X2296Y1259D01*
X2306Y1259D01*
X2306Y1261D01*
X2316Y1261D01*
X2316Y1263D01*
X2326Y1263D01*
X2326Y1265D01*
X2336Y1265D01*
X2336Y1267D01*
X2346Y1267D01*
X2346Y1269D01*
X2356Y1269D01*
X2356Y1271D01*
X2366Y1271D01*
X2366Y1273D01*
X2376Y1273D01*
X2376Y1275D01*
X2386Y1275D01*
X2386Y1277D01*
X2396Y1277D01*
X2396Y1279D01*
X2408Y1279D01*
X2408Y1281D01*
X2418Y1281D01*
X2418Y1283D01*
X2428Y1283D01*
X2428Y1285D01*
X2438Y1285D01*
X2438Y1287D01*
X2450Y1287D01*
X2450Y1289D01*
X2194Y1289D01*
G37*
D02*
G36*
X346Y1247D02*
X346Y1241D01*
X344Y1241D01*
X344Y1235D01*
X342Y1235D01*
X342Y1231D01*
X340Y1231D01*
X340Y1227D01*
X338Y1227D01*
X338Y1225D01*
X336Y1225D01*
X336Y1223D01*
X334Y1223D01*
X334Y1221D01*
X332Y1221D01*
X332Y1219D01*
X330Y1219D01*
X330Y1217D01*
X328Y1217D01*
X328Y1215D01*
X326Y1215D01*
X326Y1213D01*
X322Y1213D01*
X322Y1211D01*
X318Y1211D01*
X318Y1209D01*
X310Y1209D01*
X310Y1207D01*
X508Y1207D01*
X508Y1215D01*
X510Y1215D01*
X510Y1221D01*
X512Y1221D01*
X512Y1223D01*
X514Y1223D01*
X514Y1227D01*
X516Y1227D01*
X516Y1229D01*
X518Y1229D01*
X518Y1233D01*
X520Y1233D01*
X520Y1235D01*
X524Y1235D01*
X524Y1237D01*
X526Y1237D01*
X526Y1239D01*
X530Y1239D01*
X530Y1241D01*
X532Y1241D01*
X532Y1243D01*
X538Y1243D01*
X538Y1245D01*
X546Y1245D01*
X546Y1247D01*
X346Y1247D01*
G37*
D02*
G36*
X1326Y1215D02*
X1326Y1213D01*
X1322Y1213D01*
X1322Y1211D01*
X1318Y1211D01*
X1318Y1209D01*
X1310Y1209D01*
X1310Y1207D01*
X1374Y1207D01*
X1374Y1209D01*
X1380Y1209D01*
X1380Y1211D01*
X1386Y1211D01*
X1386Y1213D01*
X1398Y1213D01*
X1398Y1215D01*
X1326Y1215D01*
G37*
D02*
G36*
X1406Y1215D02*
X1406Y1213D01*
X1418Y1213D01*
X1418Y1211D01*
X1440Y1211D01*
X1440Y1215D01*
X1406Y1215D01*
G37*
D02*
G36*
X52Y1207D02*
X52Y1205D01*
X508Y1205D01*
X508Y1207D01*
X52Y1207D01*
G37*
D02*
G36*
X52Y1207D02*
X52Y1205D01*
X508Y1205D01*
X508Y1207D01*
X52Y1207D01*
G37*
D02*
G36*
X596Y1207D02*
X596Y1205D01*
X1370Y1205D01*
X1370Y1207D01*
X596Y1207D01*
G37*
D02*
G36*
X596Y1207D02*
X596Y1205D01*
X1370Y1205D01*
X1370Y1207D01*
X596Y1207D01*
G37*
D02*
G36*
X52Y1205D02*
X52Y1157D01*
X544Y1157D01*
X544Y1159D01*
X536Y1159D01*
X536Y1161D01*
X532Y1161D01*
X532Y1163D01*
X528Y1163D01*
X528Y1165D01*
X526Y1165D01*
X526Y1167D01*
X522Y1167D01*
X522Y1169D01*
X520Y1169D01*
X520Y1171D01*
X518Y1171D01*
X518Y1173D01*
X516Y1173D01*
X516Y1177D01*
X514Y1177D01*
X514Y1179D01*
X512Y1179D01*
X512Y1183D01*
X510Y1183D01*
X510Y1189D01*
X508Y1189D01*
X508Y1201D01*
X506Y1201D01*
X506Y1203D01*
X508Y1203D01*
X508Y1205D01*
X52Y1205D01*
G37*
D02*
G36*
X596Y1205D02*
X596Y1191D01*
X594Y1191D01*
X594Y1185D01*
X592Y1185D01*
X592Y1181D01*
X590Y1181D01*
X590Y1177D01*
X588Y1177D01*
X588Y1175D01*
X586Y1175D01*
X586Y1173D01*
X584Y1173D01*
X584Y1171D01*
X582Y1171D01*
X582Y1169D01*
X580Y1169D01*
X580Y1167D01*
X578Y1167D01*
X578Y1165D01*
X576Y1165D01*
X576Y1163D01*
X572Y1163D01*
X572Y1161D01*
X568Y1161D01*
X568Y1159D01*
X560Y1159D01*
X560Y1157D01*
X1340Y1157D01*
X1340Y1167D01*
X1342Y1167D01*
X1342Y1173D01*
X1344Y1173D01*
X1344Y1177D01*
X1346Y1177D01*
X1346Y1181D01*
X1348Y1181D01*
X1348Y1185D01*
X1350Y1185D01*
X1350Y1189D01*
X1352Y1189D01*
X1352Y1191D01*
X1354Y1191D01*
X1354Y1193D01*
X1356Y1193D01*
X1356Y1195D01*
X1358Y1195D01*
X1358Y1197D01*
X1360Y1197D01*
X1360Y1199D01*
X1362Y1199D01*
X1362Y1201D01*
X1364Y1201D01*
X1364Y1203D01*
X1368Y1203D01*
X1368Y1205D01*
X596Y1205D01*
G37*
D02*
G36*
X1816Y1165D02*
X1816Y1163D01*
X1814Y1163D01*
X1814Y1161D01*
X1812Y1161D01*
X1812Y1159D01*
X1810Y1159D01*
X1810Y1157D01*
X1808Y1157D01*
X1808Y1155D01*
X1806Y1155D01*
X1806Y1153D01*
X1804Y1153D01*
X1804Y1151D01*
X1802Y1151D01*
X1802Y1149D01*
X1800Y1149D01*
X1800Y1147D01*
X1798Y1147D01*
X1798Y1145D01*
X1796Y1145D01*
X1796Y1143D01*
X1794Y1143D01*
X1794Y1141D01*
X1792Y1141D01*
X1792Y1139D01*
X1790Y1139D01*
X1790Y1137D01*
X1788Y1137D01*
X1788Y1135D01*
X1786Y1135D01*
X1786Y1133D01*
X1784Y1133D01*
X1784Y1131D01*
X1782Y1131D01*
X1782Y1129D01*
X1780Y1129D01*
X1780Y1127D01*
X1778Y1127D01*
X1778Y1125D01*
X1776Y1125D01*
X1776Y1123D01*
X1774Y1123D01*
X1774Y1121D01*
X1772Y1121D01*
X1772Y1119D01*
X1770Y1119D01*
X1770Y1117D01*
X1768Y1117D01*
X1768Y1115D01*
X1766Y1115D01*
X1766Y1113D01*
X1764Y1113D01*
X1764Y1111D01*
X1762Y1111D01*
X1762Y1109D01*
X1760Y1109D01*
X1760Y1107D01*
X1758Y1107D01*
X1758Y1105D01*
X1756Y1105D01*
X1756Y1103D01*
X1754Y1103D01*
X1754Y1101D01*
X1752Y1101D01*
X1752Y1099D01*
X1750Y1099D01*
X1750Y1097D01*
X1748Y1097D01*
X1748Y1095D01*
X1746Y1095D01*
X1746Y1091D01*
X1744Y1091D01*
X1744Y1085D01*
X1742Y1085D01*
X1742Y1081D01*
X1740Y1081D01*
X1740Y1077D01*
X1738Y1077D01*
X1738Y1075D01*
X1736Y1075D01*
X1736Y1073D01*
X1734Y1073D01*
X1734Y1071D01*
X1732Y1071D01*
X1732Y1069D01*
X1730Y1069D01*
X1730Y1067D01*
X1728Y1067D01*
X1728Y1065D01*
X1726Y1065D01*
X1726Y1063D01*
X1722Y1063D01*
X1722Y1061D01*
X1718Y1061D01*
X1718Y1059D01*
X1710Y1059D01*
X1710Y1039D01*
X1712Y1039D01*
X1712Y1037D01*
X1716Y1037D01*
X1716Y1035D01*
X1720Y1035D01*
X1720Y1033D01*
X1724Y1033D01*
X1724Y1031D01*
X1726Y1031D01*
X1726Y1029D01*
X1728Y1029D01*
X1728Y1027D01*
X1730Y1027D01*
X1730Y1025D01*
X1732Y1025D01*
X1732Y1023D01*
X1734Y1023D01*
X1734Y1021D01*
X1736Y1021D01*
X1736Y1019D01*
X1738Y1019D01*
X1738Y1017D01*
X1740Y1017D01*
X1740Y1015D01*
X1742Y1015D01*
X1742Y1013D01*
X1744Y1013D01*
X1744Y1011D01*
X1746Y1011D01*
X1746Y1009D01*
X1748Y1009D01*
X1748Y1007D01*
X1750Y1007D01*
X1750Y1005D01*
X1752Y1005D01*
X1752Y1003D01*
X1754Y1003D01*
X1754Y1001D01*
X1756Y1001D01*
X1756Y999D01*
X1758Y999D01*
X1758Y997D01*
X1760Y997D01*
X1760Y995D01*
X1762Y995D01*
X1762Y993D01*
X1764Y993D01*
X1764Y991D01*
X1766Y991D01*
X1766Y989D01*
X1768Y989D01*
X1768Y987D01*
X1770Y987D01*
X1770Y985D01*
X1772Y985D01*
X1772Y983D01*
X1774Y983D01*
X1774Y981D01*
X1776Y981D01*
X1776Y979D01*
X1778Y979D01*
X1778Y977D01*
X1780Y977D01*
X1780Y975D01*
X1782Y975D01*
X1782Y973D01*
X1784Y973D01*
X1784Y971D01*
X1786Y971D01*
X1786Y969D01*
X1788Y969D01*
X1788Y967D01*
X1790Y967D01*
X1790Y965D01*
X1792Y965D01*
X1792Y963D01*
X1794Y963D01*
X1794Y961D01*
X1796Y961D01*
X1796Y959D01*
X1798Y959D01*
X1798Y957D01*
X1800Y957D01*
X1800Y955D01*
X1802Y955D01*
X1802Y953D01*
X1804Y953D01*
X1804Y951D01*
X1806Y951D01*
X1806Y949D01*
X1808Y949D01*
X1808Y947D01*
X1810Y947D01*
X1810Y945D01*
X1812Y945D01*
X1812Y943D01*
X1814Y943D01*
X1814Y941D01*
X1816Y941D01*
X1816Y939D01*
X1818Y939D01*
X1818Y937D01*
X1820Y937D01*
X1820Y935D01*
X1822Y935D01*
X1822Y933D01*
X1824Y933D01*
X1824Y931D01*
X1826Y931D01*
X1826Y929D01*
X1828Y929D01*
X1828Y927D01*
X1830Y927D01*
X1830Y925D01*
X1832Y925D01*
X1832Y923D01*
X1834Y923D01*
X1834Y921D01*
X1836Y921D01*
X1836Y919D01*
X1838Y919D01*
X1838Y917D01*
X1840Y917D01*
X1840Y915D01*
X1842Y915D01*
X1842Y913D01*
X1844Y913D01*
X1844Y911D01*
X1846Y911D01*
X1846Y909D01*
X1848Y909D01*
X1848Y907D01*
X1850Y907D01*
X1850Y905D01*
X1852Y905D01*
X1852Y903D01*
X1854Y903D01*
X1854Y901D01*
X1856Y901D01*
X1856Y899D01*
X1858Y899D01*
X1858Y897D01*
X1860Y897D01*
X1860Y895D01*
X1864Y895D01*
X1864Y893D01*
X1870Y893D01*
X1870Y891D01*
X1874Y891D01*
X1874Y889D01*
X1878Y889D01*
X1878Y887D01*
X1880Y887D01*
X1880Y885D01*
X1882Y885D01*
X1882Y883D01*
X1884Y883D01*
X1884Y881D01*
X1886Y881D01*
X1886Y879D01*
X1888Y879D01*
X1888Y877D01*
X1890Y877D01*
X1890Y873D01*
X1892Y873D01*
X1892Y869D01*
X1894Y869D01*
X1894Y863D01*
X1896Y863D01*
X1896Y853D01*
X1898Y853D01*
X1898Y849D01*
X1896Y849D01*
X1896Y839D01*
X1894Y839D01*
X1894Y833D01*
X1892Y833D01*
X1892Y829D01*
X1890Y829D01*
X1890Y825D01*
X1888Y825D01*
X1888Y823D01*
X1886Y823D01*
X1886Y821D01*
X1884Y821D01*
X1884Y819D01*
X1882Y819D01*
X1882Y817D01*
X1880Y817D01*
X1880Y815D01*
X1878Y815D01*
X1878Y813D01*
X1874Y813D01*
X1874Y811D01*
X1870Y811D01*
X1870Y809D01*
X1864Y809D01*
X1864Y807D01*
X2144Y807D01*
X2144Y809D01*
X2136Y809D01*
X2136Y811D01*
X2132Y811D01*
X2132Y813D01*
X2128Y813D01*
X2128Y815D01*
X2126Y815D01*
X2126Y817D01*
X2122Y817D01*
X2122Y819D01*
X2120Y819D01*
X2120Y821D01*
X2118Y821D01*
X2118Y823D01*
X2116Y823D01*
X2116Y827D01*
X2114Y827D01*
X2114Y829D01*
X2112Y829D01*
X2112Y833D01*
X2110Y833D01*
X2110Y839D01*
X2108Y839D01*
X2108Y851D01*
X2106Y851D01*
X2106Y853D01*
X2108Y853D01*
X2108Y865D01*
X2110Y865D01*
X2110Y871D01*
X2112Y871D01*
X2112Y873D01*
X2114Y873D01*
X2114Y877D01*
X2116Y877D01*
X2116Y879D01*
X2118Y879D01*
X2118Y883D01*
X2120Y883D01*
X2120Y885D01*
X2124Y885D01*
X2124Y887D01*
X2126Y887D01*
X2126Y889D01*
X2130Y889D01*
X2130Y891D01*
X2132Y891D01*
X2132Y893D01*
X2138Y893D01*
X2138Y895D01*
X2146Y895D01*
X2146Y897D01*
X2162Y897D01*
X2162Y899D01*
X2164Y899D01*
X2164Y901D01*
X2168Y901D01*
X2168Y903D01*
X2172Y903D01*
X2172Y905D01*
X2176Y905D01*
X2176Y907D01*
X2180Y907D01*
X2180Y909D01*
X2184Y909D01*
X2184Y911D01*
X2188Y911D01*
X2188Y913D01*
X2192Y913D01*
X2192Y915D01*
X2196Y915D01*
X2196Y917D01*
X2200Y917D01*
X2200Y919D01*
X2204Y919D01*
X2204Y921D01*
X2208Y921D01*
X2208Y923D01*
X2212Y923D01*
X2212Y925D01*
X2216Y925D01*
X2216Y959D01*
X2214Y959D01*
X2214Y1129D01*
X2212Y1129D01*
X2212Y1133D01*
X2210Y1133D01*
X2210Y1139D01*
X2208Y1139D01*
X2208Y1151D01*
X2206Y1151D01*
X2206Y1165D01*
X1816Y1165D01*
G37*
D02*
G36*
X52Y1157D02*
X52Y1155D01*
X1340Y1155D01*
X1340Y1157D01*
X52Y1157D01*
G37*
D02*
G36*
X52Y1157D02*
X52Y1155D01*
X1340Y1155D01*
X1340Y1157D01*
X52Y1157D01*
G37*
D02*
G36*
X52Y1155D02*
X52Y1147D01*
X1256Y1147D01*
X1256Y1145D01*
X1266Y1145D01*
X1266Y1143D01*
X1270Y1143D01*
X1270Y1141D01*
X1274Y1141D01*
X1274Y1139D01*
X1278Y1139D01*
X1278Y1137D01*
X1280Y1137D01*
X1280Y1135D01*
X1282Y1135D01*
X1282Y1133D01*
X1284Y1133D01*
X1284Y1131D01*
X1286Y1131D01*
X1286Y1129D01*
X1288Y1129D01*
X1288Y1125D01*
X1290Y1125D01*
X1290Y1123D01*
X1292Y1123D01*
X1292Y1119D01*
X1294Y1119D01*
X1294Y1111D01*
X1296Y1111D01*
X1296Y1091D01*
X1294Y1091D01*
X1294Y1089D01*
X1392Y1089D01*
X1392Y1091D01*
X1384Y1091D01*
X1384Y1093D01*
X1378Y1093D01*
X1378Y1095D01*
X1374Y1095D01*
X1374Y1097D01*
X1370Y1097D01*
X1370Y1099D01*
X1366Y1099D01*
X1366Y1101D01*
X1364Y1101D01*
X1364Y1103D01*
X1362Y1103D01*
X1362Y1105D01*
X1360Y1105D01*
X1360Y1107D01*
X1358Y1107D01*
X1358Y1109D01*
X1356Y1109D01*
X1356Y1111D01*
X1354Y1111D01*
X1354Y1113D01*
X1352Y1113D01*
X1352Y1115D01*
X1350Y1115D01*
X1350Y1119D01*
X1348Y1119D01*
X1348Y1121D01*
X1346Y1121D01*
X1346Y1125D01*
X1344Y1125D01*
X1344Y1131D01*
X1342Y1131D01*
X1342Y1137D01*
X1340Y1137D01*
X1340Y1155D01*
X52Y1155D01*
G37*
D02*
G36*
X52Y1147D02*
X52Y1047D01*
X406Y1047D01*
X406Y1045D01*
X416Y1045D01*
X416Y1043D01*
X420Y1043D01*
X420Y1041D01*
X424Y1041D01*
X424Y1039D01*
X428Y1039D01*
X428Y1037D01*
X430Y1037D01*
X430Y1035D01*
X432Y1035D01*
X432Y1033D01*
X434Y1033D01*
X434Y1031D01*
X436Y1031D01*
X436Y1029D01*
X438Y1029D01*
X438Y1025D01*
X440Y1025D01*
X440Y1023D01*
X442Y1023D01*
X442Y1019D01*
X444Y1019D01*
X444Y1011D01*
X446Y1011D01*
X446Y1007D01*
X544Y1007D01*
X544Y1009D01*
X536Y1009D01*
X536Y1011D01*
X532Y1011D01*
X532Y1013D01*
X528Y1013D01*
X528Y1015D01*
X526Y1015D01*
X526Y1017D01*
X522Y1017D01*
X522Y1019D01*
X520Y1019D01*
X520Y1021D01*
X518Y1021D01*
X518Y1023D01*
X516Y1023D01*
X516Y1027D01*
X514Y1027D01*
X514Y1029D01*
X512Y1029D01*
X512Y1033D01*
X510Y1033D01*
X510Y1039D01*
X508Y1039D01*
X508Y1051D01*
X506Y1051D01*
X506Y1057D01*
X494Y1057D01*
X494Y1059D01*
X486Y1059D01*
X486Y1061D01*
X482Y1061D01*
X482Y1063D01*
X478Y1063D01*
X478Y1065D01*
X476Y1065D01*
X476Y1067D01*
X472Y1067D01*
X472Y1069D01*
X470Y1069D01*
X470Y1071D01*
X468Y1071D01*
X468Y1073D01*
X466Y1073D01*
X466Y1077D01*
X464Y1077D01*
X464Y1079D01*
X462Y1079D01*
X462Y1083D01*
X460Y1083D01*
X460Y1089D01*
X458Y1089D01*
X458Y1101D01*
X456Y1101D01*
X456Y1103D01*
X458Y1103D01*
X458Y1115D01*
X460Y1115D01*
X460Y1121D01*
X462Y1121D01*
X462Y1123D01*
X464Y1123D01*
X464Y1127D01*
X466Y1127D01*
X466Y1129D01*
X468Y1129D01*
X468Y1133D01*
X470Y1133D01*
X470Y1135D01*
X474Y1135D01*
X474Y1137D01*
X476Y1137D01*
X476Y1139D01*
X480Y1139D01*
X480Y1141D01*
X482Y1141D01*
X482Y1143D01*
X488Y1143D01*
X488Y1145D01*
X496Y1145D01*
X496Y1147D01*
X52Y1147D01*
G37*
D02*
G36*
X506Y1147D02*
X506Y1145D01*
X516Y1145D01*
X516Y1143D01*
X520Y1143D01*
X520Y1141D01*
X524Y1141D01*
X524Y1139D01*
X528Y1139D01*
X528Y1137D01*
X530Y1137D01*
X530Y1135D01*
X532Y1135D01*
X532Y1133D01*
X534Y1133D01*
X534Y1131D01*
X536Y1131D01*
X536Y1129D01*
X538Y1129D01*
X538Y1125D01*
X540Y1125D01*
X540Y1123D01*
X542Y1123D01*
X542Y1119D01*
X544Y1119D01*
X544Y1111D01*
X546Y1111D01*
X546Y1097D01*
X556Y1097D01*
X556Y1095D01*
X566Y1095D01*
X566Y1093D01*
X570Y1093D01*
X570Y1091D01*
X574Y1091D01*
X574Y1089D01*
X578Y1089D01*
X578Y1087D01*
X580Y1087D01*
X580Y1085D01*
X582Y1085D01*
X582Y1083D01*
X584Y1083D01*
X584Y1081D01*
X586Y1081D01*
X586Y1079D01*
X588Y1079D01*
X588Y1075D01*
X590Y1075D01*
X590Y1073D01*
X592Y1073D01*
X592Y1069D01*
X594Y1069D01*
X594Y1061D01*
X596Y1061D01*
X596Y1057D01*
X1244Y1057D01*
X1244Y1059D01*
X1236Y1059D01*
X1236Y1061D01*
X1232Y1061D01*
X1232Y1063D01*
X1228Y1063D01*
X1228Y1065D01*
X1226Y1065D01*
X1226Y1067D01*
X1222Y1067D01*
X1222Y1069D01*
X1220Y1069D01*
X1220Y1071D01*
X1218Y1071D01*
X1218Y1073D01*
X1216Y1073D01*
X1216Y1077D01*
X1214Y1077D01*
X1214Y1079D01*
X1212Y1079D01*
X1212Y1083D01*
X1210Y1083D01*
X1210Y1089D01*
X1208Y1089D01*
X1208Y1101D01*
X1206Y1101D01*
X1206Y1103D01*
X1208Y1103D01*
X1208Y1115D01*
X1210Y1115D01*
X1210Y1121D01*
X1212Y1121D01*
X1212Y1123D01*
X1214Y1123D01*
X1214Y1127D01*
X1216Y1127D01*
X1216Y1129D01*
X1218Y1129D01*
X1218Y1133D01*
X1220Y1133D01*
X1220Y1135D01*
X1224Y1135D01*
X1224Y1137D01*
X1226Y1137D01*
X1226Y1139D01*
X1230Y1139D01*
X1230Y1141D01*
X1232Y1141D01*
X1232Y1143D01*
X1238Y1143D01*
X1238Y1145D01*
X1246Y1145D01*
X1246Y1147D01*
X506Y1147D01*
G37*
D02*
G36*
X1420Y1093D02*
X1420Y1091D01*
X1410Y1091D01*
X1410Y1089D01*
X1440Y1089D01*
X1440Y1093D01*
X1420Y1093D01*
G37*
D02*
G36*
X1294Y1089D02*
X1294Y1087D01*
X1660Y1087D01*
X1660Y1089D01*
X1294Y1089D01*
G37*
D02*
G36*
X1294Y1089D02*
X1294Y1087D01*
X1660Y1087D01*
X1660Y1089D01*
X1294Y1089D01*
G37*
D02*
G36*
X1294Y1089D02*
X1294Y1087D01*
X1660Y1087D01*
X1660Y1089D01*
X1294Y1089D01*
G37*
D02*
G36*
X1294Y1087D02*
X1294Y1085D01*
X1292Y1085D01*
X1292Y1081D01*
X1290Y1081D01*
X1290Y1077D01*
X1288Y1077D01*
X1288Y1075D01*
X1286Y1075D01*
X1286Y1073D01*
X1284Y1073D01*
X1284Y1071D01*
X1282Y1071D01*
X1282Y1069D01*
X1280Y1069D01*
X1280Y1067D01*
X1278Y1067D01*
X1278Y1065D01*
X1276Y1065D01*
X1276Y1063D01*
X1272Y1063D01*
X1272Y1061D01*
X1268Y1061D01*
X1268Y1059D01*
X1260Y1059D01*
X1260Y1057D01*
X1694Y1057D01*
X1694Y1059D01*
X1686Y1059D01*
X1686Y1061D01*
X1682Y1061D01*
X1682Y1063D01*
X1678Y1063D01*
X1678Y1065D01*
X1676Y1065D01*
X1676Y1067D01*
X1672Y1067D01*
X1672Y1069D01*
X1670Y1069D01*
X1670Y1071D01*
X1668Y1071D01*
X1668Y1073D01*
X1666Y1073D01*
X1666Y1077D01*
X1664Y1077D01*
X1664Y1079D01*
X1662Y1079D01*
X1662Y1083D01*
X1660Y1083D01*
X1660Y1087D01*
X1294Y1087D01*
G37*
D02*
G36*
X596Y1057D02*
X596Y1055D01*
X1694Y1055D01*
X1694Y1057D01*
X596Y1057D01*
G37*
D02*
G36*
X596Y1057D02*
X596Y1055D01*
X1694Y1055D01*
X1694Y1057D01*
X596Y1057D01*
G37*
D02*
G36*
X596Y1055D02*
X596Y1041D01*
X594Y1041D01*
X594Y1035D01*
X592Y1035D01*
X592Y1031D01*
X590Y1031D01*
X590Y1027D01*
X588Y1027D01*
X588Y1025D01*
X586Y1025D01*
X586Y1023D01*
X584Y1023D01*
X584Y1021D01*
X582Y1021D01*
X582Y1019D01*
X580Y1019D01*
X580Y1017D01*
X578Y1017D01*
X578Y1015D01*
X576Y1015D01*
X576Y1013D01*
X572Y1013D01*
X572Y1011D01*
X568Y1011D01*
X568Y1009D01*
X560Y1009D01*
X560Y1007D01*
X1314Y1007D01*
X1314Y1013D01*
X1316Y1013D01*
X1316Y1017D01*
X1318Y1017D01*
X1318Y1021D01*
X1320Y1021D01*
X1320Y1025D01*
X1322Y1025D01*
X1322Y1027D01*
X1324Y1027D01*
X1324Y1029D01*
X1326Y1029D01*
X1326Y1031D01*
X1328Y1031D01*
X1328Y1033D01*
X1332Y1033D01*
X1332Y1035D01*
X1336Y1035D01*
X1336Y1037D01*
X1340Y1037D01*
X1340Y1039D01*
X1694Y1039D01*
X1694Y1055D01*
X596Y1055D01*
G37*
D02*
G36*
X52Y1047D02*
X52Y815D01*
X1262Y815D01*
X1262Y817D01*
X1222Y817D01*
X1222Y819D01*
X1180Y819D01*
X1180Y821D01*
X1138Y821D01*
X1138Y823D01*
X1096Y823D01*
X1096Y825D01*
X1056Y825D01*
X1056Y827D01*
X1014Y827D01*
X1014Y829D01*
X972Y829D01*
X972Y831D01*
X930Y831D01*
X930Y833D01*
X888Y833D01*
X888Y835D01*
X848Y835D01*
X848Y837D01*
X806Y837D01*
X806Y839D01*
X764Y839D01*
X764Y841D01*
X722Y841D01*
X722Y843D01*
X682Y843D01*
X682Y845D01*
X640Y845D01*
X640Y847D01*
X598Y847D01*
X598Y849D01*
X556Y849D01*
X556Y851D01*
X514Y851D01*
X514Y853D01*
X474Y853D01*
X474Y855D01*
X432Y855D01*
X432Y857D01*
X390Y857D01*
X390Y859D01*
X348Y859D01*
X348Y861D01*
X308Y861D01*
X308Y863D01*
X266Y863D01*
X266Y865D01*
X242Y865D01*
X242Y867D01*
X238Y867D01*
X238Y869D01*
X234Y869D01*
X234Y871D01*
X230Y871D01*
X230Y873D01*
X228Y873D01*
X228Y875D01*
X226Y875D01*
X226Y877D01*
X224Y877D01*
X224Y879D01*
X222Y879D01*
X222Y883D01*
X220Y883D01*
X220Y887D01*
X218Y887D01*
X218Y891D01*
X216Y891D01*
X216Y961D01*
X214Y961D01*
X214Y979D01*
X212Y979D01*
X212Y983D01*
X210Y983D01*
X210Y989D01*
X208Y989D01*
X208Y1001D01*
X206Y1001D01*
X206Y1003D01*
X208Y1003D01*
X208Y1015D01*
X210Y1015D01*
X210Y1021D01*
X212Y1021D01*
X212Y1023D01*
X214Y1023D01*
X214Y1027D01*
X216Y1027D01*
X216Y1029D01*
X218Y1029D01*
X218Y1033D01*
X220Y1033D01*
X220Y1035D01*
X224Y1035D01*
X224Y1037D01*
X226Y1037D01*
X226Y1039D01*
X230Y1039D01*
X230Y1041D01*
X232Y1041D01*
X232Y1043D01*
X238Y1043D01*
X238Y1045D01*
X246Y1045D01*
X246Y1047D01*
X52Y1047D01*
G37*
D02*
G36*
X256Y1047D02*
X256Y1045D01*
X266Y1045D01*
X266Y1043D01*
X270Y1043D01*
X270Y1041D01*
X274Y1041D01*
X274Y1039D01*
X278Y1039D01*
X278Y1037D01*
X280Y1037D01*
X280Y1035D01*
X282Y1035D01*
X282Y1033D01*
X284Y1033D01*
X284Y1031D01*
X286Y1031D01*
X286Y1029D01*
X288Y1029D01*
X288Y1025D01*
X290Y1025D01*
X290Y1023D01*
X292Y1023D01*
X292Y1019D01*
X294Y1019D01*
X294Y1011D01*
X296Y1011D01*
X296Y991D01*
X294Y991D01*
X294Y985D01*
X292Y985D01*
X292Y981D01*
X290Y981D01*
X290Y957D01*
X394Y957D01*
X394Y959D01*
X386Y959D01*
X386Y961D01*
X382Y961D01*
X382Y963D01*
X378Y963D01*
X378Y965D01*
X376Y965D01*
X376Y967D01*
X372Y967D01*
X372Y969D01*
X370Y969D01*
X370Y971D01*
X368Y971D01*
X368Y973D01*
X366Y973D01*
X366Y977D01*
X364Y977D01*
X364Y979D01*
X362Y979D01*
X362Y983D01*
X360Y983D01*
X360Y989D01*
X358Y989D01*
X358Y1001D01*
X356Y1001D01*
X356Y1003D01*
X358Y1003D01*
X358Y1015D01*
X360Y1015D01*
X360Y1021D01*
X362Y1021D01*
X362Y1023D01*
X364Y1023D01*
X364Y1027D01*
X366Y1027D01*
X366Y1029D01*
X368Y1029D01*
X368Y1033D01*
X370Y1033D01*
X370Y1035D01*
X374Y1035D01*
X374Y1037D01*
X376Y1037D01*
X376Y1039D01*
X380Y1039D01*
X380Y1041D01*
X382Y1041D01*
X382Y1043D01*
X388Y1043D01*
X388Y1045D01*
X396Y1045D01*
X396Y1047D01*
X256Y1047D01*
G37*
D02*
G36*
X446Y1007D02*
X446Y1005D01*
X1312Y1005D01*
X1312Y1007D01*
X446Y1007D01*
G37*
D02*
G36*
X446Y1007D02*
X446Y1005D01*
X1312Y1005D01*
X1312Y1007D01*
X446Y1007D01*
G37*
D02*
G36*
X446Y1005D02*
X446Y997D01*
X1206Y997D01*
X1206Y995D01*
X1216Y995D01*
X1216Y993D01*
X1220Y993D01*
X1220Y991D01*
X1224Y991D01*
X1224Y989D01*
X1228Y989D01*
X1228Y987D01*
X1230Y987D01*
X1230Y985D01*
X1232Y985D01*
X1232Y983D01*
X1234Y983D01*
X1234Y981D01*
X1236Y981D01*
X1236Y979D01*
X1238Y979D01*
X1238Y975D01*
X1240Y975D01*
X1240Y973D01*
X1242Y973D01*
X1242Y969D01*
X1244Y969D01*
X1244Y961D01*
X1246Y961D01*
X1246Y941D01*
X1244Y941D01*
X1244Y935D01*
X1242Y935D01*
X1242Y931D01*
X1240Y931D01*
X1240Y927D01*
X1238Y927D01*
X1238Y925D01*
X1236Y925D01*
X1236Y923D01*
X1234Y923D01*
X1234Y921D01*
X1232Y921D01*
X1232Y919D01*
X1230Y919D01*
X1230Y917D01*
X1228Y917D01*
X1228Y915D01*
X1226Y915D01*
X1226Y913D01*
X1222Y913D01*
X1222Y893D01*
X1224Y893D01*
X1224Y891D01*
X1274Y891D01*
X1274Y893D01*
X1276Y893D01*
X1276Y899D01*
X1278Y899D01*
X1278Y905D01*
X1280Y905D01*
X1280Y911D01*
X1282Y911D01*
X1282Y917D01*
X1284Y917D01*
X1284Y923D01*
X1286Y923D01*
X1286Y929D01*
X1288Y929D01*
X1288Y935D01*
X1290Y935D01*
X1290Y941D01*
X1292Y941D01*
X1292Y947D01*
X1294Y947D01*
X1294Y953D01*
X1296Y953D01*
X1296Y959D01*
X1298Y959D01*
X1298Y965D01*
X1300Y965D01*
X1300Y971D01*
X1302Y971D01*
X1302Y977D01*
X1304Y977D01*
X1304Y983D01*
X1306Y983D01*
X1306Y989D01*
X1308Y989D01*
X1308Y995D01*
X1310Y995D01*
X1310Y1001D01*
X1312Y1001D01*
X1312Y1005D01*
X446Y1005D01*
G37*
D02*
G36*
X446Y997D02*
X446Y991D01*
X444Y991D01*
X444Y985D01*
X442Y985D01*
X442Y981D01*
X440Y981D01*
X440Y977D01*
X438Y977D01*
X438Y975D01*
X436Y975D01*
X436Y973D01*
X434Y973D01*
X434Y971D01*
X432Y971D01*
X432Y969D01*
X430Y969D01*
X430Y967D01*
X428Y967D01*
X428Y965D01*
X426Y965D01*
X426Y963D01*
X422Y963D01*
X422Y961D01*
X418Y961D01*
X418Y959D01*
X410Y959D01*
X410Y957D01*
X1158Y957D01*
X1158Y965D01*
X1160Y965D01*
X1160Y971D01*
X1162Y971D01*
X1162Y973D01*
X1164Y973D01*
X1164Y977D01*
X1166Y977D01*
X1166Y979D01*
X1168Y979D01*
X1168Y983D01*
X1170Y983D01*
X1170Y985D01*
X1174Y985D01*
X1174Y987D01*
X1176Y987D01*
X1176Y989D01*
X1180Y989D01*
X1180Y991D01*
X1182Y991D01*
X1182Y993D01*
X1188Y993D01*
X1188Y995D01*
X1196Y995D01*
X1196Y997D01*
X446Y997D01*
G37*
D02*
G36*
X1376Y965D02*
X1376Y959D01*
X1374Y959D01*
X1374Y953D01*
X1372Y953D01*
X1372Y947D01*
X1370Y947D01*
X1370Y941D01*
X1368Y941D01*
X1368Y935D01*
X1366Y935D01*
X1366Y929D01*
X1364Y929D01*
X1364Y923D01*
X1362Y923D01*
X1362Y915D01*
X1506Y915D01*
X1506Y913D01*
X1518Y913D01*
X1518Y911D01*
X1524Y911D01*
X1524Y909D01*
X1528Y909D01*
X1528Y907D01*
X1532Y907D01*
X1532Y905D01*
X1536Y905D01*
X1536Y903D01*
X1538Y903D01*
X1538Y901D01*
X1542Y901D01*
X1542Y899D01*
X1544Y899D01*
X1544Y897D01*
X1546Y897D01*
X1546Y895D01*
X1548Y895D01*
X1548Y893D01*
X1550Y893D01*
X1550Y889D01*
X1552Y889D01*
X1552Y887D01*
X1554Y887D01*
X1554Y883D01*
X1556Y883D01*
X1556Y881D01*
X1558Y881D01*
X1558Y877D01*
X1560Y877D01*
X1560Y871D01*
X1562Y871D01*
X1562Y863D01*
X1564Y863D01*
X1564Y841D01*
X1562Y841D01*
X1562Y833D01*
X1560Y833D01*
X1560Y827D01*
X1558Y827D01*
X1558Y823D01*
X1556Y823D01*
X1556Y819D01*
X1554Y819D01*
X1554Y817D01*
X1552Y817D01*
X1552Y813D01*
X1550Y813D01*
X1550Y811D01*
X1548Y811D01*
X1548Y809D01*
X1546Y809D01*
X1546Y807D01*
X1840Y807D01*
X1840Y809D01*
X1834Y809D01*
X1834Y811D01*
X1832Y811D01*
X1832Y813D01*
X1828Y813D01*
X1828Y815D01*
X1824Y815D01*
X1824Y817D01*
X1822Y817D01*
X1822Y819D01*
X1820Y819D01*
X1820Y821D01*
X1818Y821D01*
X1818Y825D01*
X1816Y825D01*
X1816Y827D01*
X1814Y827D01*
X1814Y831D01*
X1812Y831D01*
X1812Y835D01*
X1810Y835D01*
X1810Y841D01*
X1808Y841D01*
X1808Y845D01*
X1806Y845D01*
X1806Y847D01*
X1804Y847D01*
X1804Y849D01*
X1802Y849D01*
X1802Y851D01*
X1800Y851D01*
X1800Y853D01*
X1798Y853D01*
X1798Y855D01*
X1796Y855D01*
X1796Y857D01*
X1794Y857D01*
X1794Y859D01*
X1792Y859D01*
X1792Y861D01*
X1790Y861D01*
X1790Y863D01*
X1788Y863D01*
X1788Y865D01*
X1786Y865D01*
X1786Y867D01*
X1784Y867D01*
X1784Y869D01*
X1782Y869D01*
X1782Y871D01*
X1780Y871D01*
X1780Y873D01*
X1778Y873D01*
X1778Y875D01*
X1776Y875D01*
X1776Y877D01*
X1774Y877D01*
X1774Y879D01*
X1772Y879D01*
X1772Y881D01*
X1770Y881D01*
X1770Y883D01*
X1768Y883D01*
X1768Y885D01*
X1766Y885D01*
X1766Y887D01*
X1764Y887D01*
X1764Y889D01*
X1762Y889D01*
X1762Y891D01*
X1760Y891D01*
X1760Y893D01*
X1758Y893D01*
X1758Y895D01*
X1756Y895D01*
X1756Y897D01*
X1754Y897D01*
X1754Y899D01*
X1752Y899D01*
X1752Y901D01*
X1750Y901D01*
X1750Y903D01*
X1748Y903D01*
X1748Y905D01*
X1746Y905D01*
X1746Y907D01*
X1744Y907D01*
X1744Y909D01*
X1742Y909D01*
X1742Y911D01*
X1740Y911D01*
X1740Y913D01*
X1738Y913D01*
X1738Y915D01*
X1736Y915D01*
X1736Y917D01*
X1734Y917D01*
X1734Y919D01*
X1732Y919D01*
X1732Y921D01*
X1730Y921D01*
X1730Y923D01*
X1728Y923D01*
X1728Y925D01*
X1726Y925D01*
X1726Y927D01*
X1724Y927D01*
X1724Y929D01*
X1722Y929D01*
X1722Y931D01*
X1720Y931D01*
X1720Y933D01*
X1718Y933D01*
X1718Y935D01*
X1716Y935D01*
X1716Y937D01*
X1714Y937D01*
X1714Y939D01*
X1712Y939D01*
X1712Y941D01*
X1710Y941D01*
X1710Y943D01*
X1708Y943D01*
X1708Y945D01*
X1706Y945D01*
X1706Y947D01*
X1704Y947D01*
X1704Y949D01*
X1702Y949D01*
X1702Y951D01*
X1700Y951D01*
X1700Y953D01*
X1698Y953D01*
X1698Y955D01*
X1696Y955D01*
X1696Y957D01*
X1694Y957D01*
X1694Y959D01*
X1692Y959D01*
X1692Y961D01*
X1690Y961D01*
X1690Y963D01*
X1688Y963D01*
X1688Y965D01*
X1376Y965D01*
G37*
D02*
G36*
X290Y957D02*
X290Y955D01*
X1158Y955D01*
X1158Y957D01*
X290Y957D01*
G37*
D02*
G36*
X290Y957D02*
X290Y955D01*
X1158Y955D01*
X1158Y957D01*
X290Y957D01*
G37*
D02*
G36*
X290Y955D02*
X290Y937D01*
X310Y937D01*
X310Y935D01*
X350Y935D01*
X350Y933D01*
X392Y933D01*
X392Y931D01*
X434Y931D01*
X434Y929D01*
X476Y929D01*
X476Y927D01*
X516Y927D01*
X516Y925D01*
X558Y925D01*
X558Y923D01*
X600Y923D01*
X600Y921D01*
X642Y921D01*
X642Y919D01*
X684Y919D01*
X684Y917D01*
X724Y917D01*
X724Y915D01*
X766Y915D01*
X766Y913D01*
X808Y913D01*
X808Y911D01*
X850Y911D01*
X850Y909D01*
X892Y909D01*
X892Y907D01*
X932Y907D01*
X932Y905D01*
X974Y905D01*
X974Y903D01*
X1016Y903D01*
X1016Y901D01*
X1058Y901D01*
X1058Y899D01*
X1100Y899D01*
X1100Y897D01*
X1140Y897D01*
X1140Y895D01*
X1178Y895D01*
X1178Y915D01*
X1176Y915D01*
X1176Y917D01*
X1172Y917D01*
X1172Y919D01*
X1170Y919D01*
X1170Y921D01*
X1168Y921D01*
X1168Y923D01*
X1166Y923D01*
X1166Y927D01*
X1164Y927D01*
X1164Y929D01*
X1162Y929D01*
X1162Y933D01*
X1160Y933D01*
X1160Y939D01*
X1158Y939D01*
X1158Y951D01*
X1156Y951D01*
X1156Y953D01*
X1158Y953D01*
X1158Y955D01*
X290Y955D01*
G37*
D02*
G36*
X1362Y915D02*
X1362Y911D01*
X1386Y911D01*
X1386Y913D01*
X1398Y913D01*
X1398Y915D01*
X1362Y915D01*
G37*
D02*
G36*
X1406Y915D02*
X1406Y913D01*
X1418Y913D01*
X1418Y911D01*
X1424Y911D01*
X1424Y909D01*
X1428Y909D01*
X1428Y907D01*
X1432Y907D01*
X1432Y905D01*
X1436Y905D01*
X1436Y903D01*
X1438Y903D01*
X1438Y901D01*
X1442Y901D01*
X1442Y899D01*
X1462Y899D01*
X1462Y901D01*
X1464Y901D01*
X1464Y903D01*
X1468Y903D01*
X1468Y905D01*
X1470Y905D01*
X1470Y907D01*
X1474Y907D01*
X1474Y909D01*
X1480Y909D01*
X1480Y911D01*
X1486Y911D01*
X1486Y913D01*
X1498Y913D01*
X1498Y915D01*
X1406Y915D01*
G37*
D02*
G36*
X2272Y873D02*
X2272Y871D01*
X2270Y871D01*
X2270Y869D01*
X2266Y869D01*
X2266Y867D01*
X2262Y867D01*
X2262Y865D01*
X2258Y865D01*
X2258Y863D01*
X2254Y863D01*
X2254Y861D01*
X2250Y861D01*
X2250Y859D01*
X2246Y859D01*
X2246Y857D01*
X2242Y857D01*
X2242Y855D01*
X2238Y855D01*
X2238Y853D01*
X2234Y853D01*
X2234Y851D01*
X2230Y851D01*
X2230Y849D01*
X2226Y849D01*
X2226Y847D01*
X2222Y847D01*
X2222Y845D01*
X2218Y845D01*
X2218Y843D01*
X2214Y843D01*
X2214Y841D01*
X2210Y841D01*
X2210Y839D01*
X2206Y839D01*
X2206Y837D01*
X2202Y837D01*
X2202Y835D01*
X2198Y835D01*
X2198Y833D01*
X2194Y833D01*
X2194Y831D01*
X2190Y831D01*
X2190Y827D01*
X2188Y827D01*
X2188Y825D01*
X2186Y825D01*
X2186Y823D01*
X2184Y823D01*
X2184Y821D01*
X2182Y821D01*
X2182Y819D01*
X2180Y819D01*
X2180Y817D01*
X2178Y817D01*
X2178Y815D01*
X2176Y815D01*
X2176Y813D01*
X2172Y813D01*
X2172Y811D01*
X2168Y811D01*
X2168Y809D01*
X2160Y809D01*
X2160Y807D01*
X2308Y807D01*
X2308Y809D01*
X2306Y809D01*
X2306Y811D01*
X2304Y811D01*
X2304Y813D01*
X2302Y813D01*
X2302Y815D01*
X2300Y815D01*
X2300Y819D01*
X2298Y819D01*
X2298Y821D01*
X2296Y821D01*
X2296Y825D01*
X2294Y825D01*
X2294Y831D01*
X2292Y831D01*
X2292Y837D01*
X2290Y837D01*
X2290Y867D01*
X2292Y867D01*
X2292Y873D01*
X2272Y873D01*
G37*
D02*
G36*
X1326Y825D02*
X1326Y823D01*
X1322Y823D01*
X1322Y821D01*
X1320Y821D01*
X1320Y819D01*
X1316Y819D01*
X1316Y817D01*
X1312Y817D01*
X1312Y815D01*
X1350Y815D01*
X1350Y819D01*
X1348Y819D01*
X1348Y821D01*
X1346Y821D01*
X1346Y825D01*
X1326Y825D01*
G37*
D02*
G36*
X52Y815D02*
X52Y813D01*
X1352Y813D01*
X1352Y815D01*
X52Y815D01*
G37*
D02*
G36*
X52Y815D02*
X52Y813D01*
X1352Y813D01*
X1352Y815D01*
X52Y815D01*
G37*
D02*
G36*
X2502Y815D02*
X2502Y813D01*
X2500Y813D01*
X2500Y811D01*
X2498Y811D01*
X2498Y809D01*
X2496Y809D01*
X2496Y807D01*
X2544Y807D01*
X2544Y809D01*
X2536Y809D01*
X2536Y811D01*
X2532Y811D01*
X2532Y813D01*
X2528Y813D01*
X2528Y815D01*
X2502Y815D01*
G37*
D02*
G36*
X52Y813D02*
X52Y789D01*
X1392Y789D01*
X1392Y791D01*
X1384Y791D01*
X1384Y793D01*
X1378Y793D01*
X1378Y795D01*
X1374Y795D01*
X1374Y797D01*
X1370Y797D01*
X1370Y799D01*
X1366Y799D01*
X1366Y801D01*
X1364Y801D01*
X1364Y803D01*
X1362Y803D01*
X1362Y805D01*
X1360Y805D01*
X1360Y807D01*
X1358Y807D01*
X1358Y809D01*
X1356Y809D01*
X1356Y811D01*
X1354Y811D01*
X1354Y813D01*
X52Y813D01*
G37*
D02*
G36*
X1544Y807D02*
X1544Y805D01*
X2310Y805D01*
X2310Y807D01*
X1544Y807D01*
G37*
D02*
G36*
X1544Y807D02*
X1544Y805D01*
X2310Y805D01*
X2310Y807D01*
X1544Y807D01*
G37*
D02*
G36*
X1544Y807D02*
X1544Y805D01*
X2310Y805D01*
X2310Y807D01*
X1544Y807D01*
G37*
D02*
G36*
X2494Y807D02*
X2494Y805D01*
X2664Y805D01*
X2664Y807D01*
X2494Y807D01*
G37*
D02*
G36*
X2494Y807D02*
X2494Y805D01*
X2664Y805D01*
X2664Y807D01*
X2494Y807D01*
G37*
D02*
G36*
X1442Y805D02*
X1442Y803D01*
X1440Y803D01*
X1440Y801D01*
X1436Y801D01*
X1436Y799D01*
X1434Y799D01*
X1434Y797D01*
X1430Y797D01*
X1430Y795D01*
X1426Y795D01*
X1426Y793D01*
X1420Y793D01*
X1420Y791D01*
X1410Y791D01*
X1410Y789D01*
X1492Y789D01*
X1492Y791D01*
X1484Y791D01*
X1484Y793D01*
X1478Y793D01*
X1478Y795D01*
X1474Y795D01*
X1474Y797D01*
X1470Y797D01*
X1470Y799D01*
X1466Y799D01*
X1466Y801D01*
X1464Y801D01*
X1464Y803D01*
X1462Y803D01*
X1462Y805D01*
X1442Y805D01*
G37*
D02*
G36*
X1542Y805D02*
X1542Y803D01*
X1540Y803D01*
X1540Y801D01*
X1536Y801D01*
X1536Y799D01*
X1534Y799D01*
X1534Y797D01*
X1530Y797D01*
X1530Y795D01*
X1526Y795D01*
X1526Y793D01*
X1520Y793D01*
X1520Y791D01*
X1510Y791D01*
X1510Y789D01*
X2342Y789D01*
X2342Y791D01*
X2334Y791D01*
X2334Y793D01*
X2328Y793D01*
X2328Y795D01*
X2324Y795D01*
X2324Y797D01*
X2320Y797D01*
X2320Y799D01*
X2316Y799D01*
X2316Y801D01*
X2314Y801D01*
X2314Y803D01*
X2312Y803D01*
X2312Y805D01*
X1542Y805D01*
G37*
D02*
G36*
X2392Y805D02*
X2392Y803D01*
X2390Y803D01*
X2390Y801D01*
X2386Y801D01*
X2386Y799D01*
X2384Y799D01*
X2384Y797D01*
X2380Y797D01*
X2380Y795D01*
X2376Y795D01*
X2376Y793D01*
X2370Y793D01*
X2370Y791D01*
X2360Y791D01*
X2360Y789D01*
X2442Y789D01*
X2442Y791D01*
X2434Y791D01*
X2434Y793D01*
X2428Y793D01*
X2428Y795D01*
X2424Y795D01*
X2424Y797D01*
X2420Y797D01*
X2420Y799D01*
X2416Y799D01*
X2416Y801D01*
X2414Y801D01*
X2414Y803D01*
X2412Y803D01*
X2412Y805D01*
X2392Y805D01*
G37*
D02*
G36*
X2492Y805D02*
X2492Y803D01*
X2490Y803D01*
X2490Y801D01*
X2486Y801D01*
X2486Y799D01*
X2484Y799D01*
X2484Y797D01*
X2480Y797D01*
X2480Y795D01*
X2476Y795D01*
X2476Y793D01*
X2470Y793D01*
X2470Y791D01*
X2460Y791D01*
X2460Y789D01*
X2664Y789D01*
X2664Y805D01*
X2492Y805D01*
G37*
D02*
G36*
X52Y789D02*
X52Y787D01*
X2664Y787D01*
X2664Y789D01*
X52Y789D01*
G37*
D02*
G36*
X52Y789D02*
X52Y787D01*
X2664Y787D01*
X2664Y789D01*
X52Y789D01*
G37*
D02*
G36*
X52Y789D02*
X52Y787D01*
X2664Y787D01*
X2664Y789D01*
X52Y789D01*
G37*
D02*
G36*
X52Y789D02*
X52Y787D01*
X2664Y787D01*
X2664Y789D01*
X52Y789D01*
G37*
D02*
G36*
X52Y789D02*
X52Y787D01*
X2664Y787D01*
X2664Y789D01*
X52Y789D01*
G37*
D02*
G36*
X52Y787D02*
X52Y757D01*
X2560Y757D01*
X2560Y755D01*
X2568Y755D01*
X2568Y753D01*
X2574Y753D01*
X2574Y751D01*
X2578Y751D01*
X2578Y749D01*
X2582Y749D01*
X2582Y747D01*
X2584Y747D01*
X2584Y745D01*
X2586Y745D01*
X2586Y743D01*
X2590Y743D01*
X2590Y741D01*
X2592Y741D01*
X2592Y739D01*
X2594Y739D01*
X2594Y735D01*
X2596Y735D01*
X2596Y733D01*
X2598Y733D01*
X2598Y731D01*
X2600Y731D01*
X2600Y727D01*
X2602Y727D01*
X2602Y723D01*
X2604Y723D01*
X2604Y719D01*
X2606Y719D01*
X2606Y711D01*
X2608Y711D01*
X2608Y689D01*
X2606Y689D01*
X2606Y681D01*
X2604Y681D01*
X2604Y659D01*
X2608Y659D01*
X2608Y545D01*
X2664Y545D01*
X2664Y787D01*
X52Y787D01*
G37*
D02*
G36*
X52Y757D02*
X52Y747D01*
X1560Y747D01*
X1560Y745D01*
X1568Y745D01*
X1568Y743D01*
X1572Y743D01*
X1572Y741D01*
X1576Y741D01*
X1576Y739D01*
X1658Y739D01*
X1658Y737D01*
X1666Y737D01*
X1666Y735D01*
X1670Y735D01*
X1670Y733D01*
X1674Y733D01*
X1674Y731D01*
X1678Y731D01*
X1678Y729D01*
X1682Y729D01*
X1682Y727D01*
X1686Y727D01*
X1686Y725D01*
X1690Y725D01*
X1690Y723D01*
X1694Y723D01*
X1694Y721D01*
X1698Y721D01*
X1698Y719D01*
X1702Y719D01*
X1702Y717D01*
X1706Y717D01*
X1706Y715D01*
X1710Y715D01*
X1710Y713D01*
X1714Y713D01*
X1714Y711D01*
X1718Y711D01*
X1718Y709D01*
X1722Y709D01*
X1722Y707D01*
X1726Y707D01*
X1726Y705D01*
X1730Y705D01*
X1730Y703D01*
X1734Y703D01*
X1734Y701D01*
X1738Y701D01*
X1738Y699D01*
X1742Y699D01*
X1742Y697D01*
X1746Y697D01*
X1746Y695D01*
X1750Y695D01*
X1750Y693D01*
X1754Y693D01*
X1754Y691D01*
X1758Y691D01*
X1758Y689D01*
X1762Y689D01*
X1762Y687D01*
X1766Y687D01*
X1766Y685D01*
X1770Y685D01*
X1770Y683D01*
X1774Y683D01*
X1774Y681D01*
X1776Y681D01*
X1776Y679D01*
X1778Y679D01*
X1778Y677D01*
X1780Y677D01*
X1780Y675D01*
X1782Y675D01*
X1782Y673D01*
X1784Y673D01*
X1784Y671D01*
X1786Y671D01*
X1786Y669D01*
X1788Y669D01*
X1788Y667D01*
X1790Y667D01*
X1790Y665D01*
X1792Y665D01*
X1792Y663D01*
X1794Y663D01*
X1794Y661D01*
X1796Y661D01*
X1796Y659D01*
X1798Y659D01*
X1798Y657D01*
X1800Y657D01*
X1800Y655D01*
X1804Y655D01*
X1804Y653D01*
X1806Y653D01*
X1806Y651D01*
X1808Y651D01*
X1808Y649D01*
X1810Y649D01*
X1810Y647D01*
X2312Y647D01*
X2312Y645D01*
X2320Y645D01*
X2320Y643D01*
X2324Y643D01*
X2324Y641D01*
X2326Y641D01*
X2326Y639D01*
X2330Y639D01*
X2330Y637D01*
X2332Y637D01*
X2332Y635D01*
X2334Y635D01*
X2334Y633D01*
X2336Y633D01*
X2336Y631D01*
X2338Y631D01*
X2338Y629D01*
X2340Y629D01*
X2340Y625D01*
X2342Y625D01*
X2342Y621D01*
X2344Y621D01*
X2344Y615D01*
X2346Y615D01*
X2346Y605D01*
X2348Y605D01*
X2348Y599D01*
X2346Y599D01*
X2346Y589D01*
X2344Y589D01*
X2344Y585D01*
X2342Y585D01*
X2342Y581D01*
X2340Y581D01*
X2340Y577D01*
X2338Y577D01*
X2338Y575D01*
X2336Y575D01*
X2336Y573D01*
X2334Y573D01*
X2334Y571D01*
X2332Y571D01*
X2332Y569D01*
X2330Y569D01*
X2330Y567D01*
X2328Y567D01*
X2328Y565D01*
X2324Y565D01*
X2324Y563D01*
X2320Y563D01*
X2320Y561D01*
X2314Y561D01*
X2314Y559D01*
X2496Y559D01*
X2496Y659D01*
X2500Y659D01*
X2500Y679D01*
X2498Y679D01*
X2498Y687D01*
X2496Y687D01*
X2496Y715D01*
X2498Y715D01*
X2498Y721D01*
X2500Y721D01*
X2500Y725D01*
X2502Y725D01*
X2502Y729D01*
X2504Y729D01*
X2504Y731D01*
X2506Y731D01*
X2506Y735D01*
X2508Y735D01*
X2508Y737D01*
X2510Y737D01*
X2510Y739D01*
X2512Y739D01*
X2512Y741D01*
X2514Y741D01*
X2514Y743D01*
X2516Y743D01*
X2516Y745D01*
X2520Y745D01*
X2520Y747D01*
X2522Y747D01*
X2522Y749D01*
X2526Y749D01*
X2526Y751D01*
X2530Y751D01*
X2530Y753D01*
X2534Y753D01*
X2534Y755D01*
X2544Y755D01*
X2544Y757D01*
X52Y757D01*
G37*
D02*
G36*
X52Y747D02*
X52Y657D01*
X1546Y657D01*
X1546Y659D01*
X1538Y659D01*
X1538Y661D01*
X1532Y661D01*
X1532Y663D01*
X1530Y663D01*
X1530Y665D01*
X1526Y665D01*
X1526Y667D01*
X1524Y667D01*
X1524Y669D01*
X1522Y669D01*
X1522Y671D01*
X1520Y671D01*
X1520Y673D01*
X1518Y673D01*
X1518Y675D01*
X1516Y675D01*
X1516Y677D01*
X1514Y677D01*
X1514Y681D01*
X1512Y681D01*
X1512Y685D01*
X1510Y685D01*
X1510Y691D01*
X1508Y691D01*
X1508Y713D01*
X1510Y713D01*
X1510Y719D01*
X1512Y719D01*
X1512Y723D01*
X1514Y723D01*
X1514Y727D01*
X1516Y727D01*
X1516Y729D01*
X1518Y729D01*
X1518Y731D01*
X1520Y731D01*
X1520Y735D01*
X1524Y735D01*
X1524Y737D01*
X1526Y737D01*
X1526Y739D01*
X1528Y739D01*
X1528Y741D01*
X1532Y741D01*
X1532Y743D01*
X1538Y743D01*
X1538Y745D01*
X1544Y745D01*
X1544Y747D01*
X52Y747D01*
G37*
D02*
G36*
X1574Y665D02*
X1574Y663D01*
X1572Y663D01*
X1572Y661D01*
X1566Y661D01*
X1566Y659D01*
X1558Y659D01*
X1558Y657D01*
X1656Y657D01*
X1656Y659D01*
X1652Y659D01*
X1652Y661D01*
X1648Y661D01*
X1648Y663D01*
X1644Y663D01*
X1644Y665D01*
X1574Y665D01*
G37*
D02*
G36*
X52Y657D02*
X52Y655D01*
X1660Y655D01*
X1660Y657D01*
X52Y657D01*
G37*
D02*
G36*
X52Y657D02*
X52Y655D01*
X1660Y655D01*
X1660Y657D01*
X52Y657D01*
G37*
D02*
G36*
X52Y655D02*
X52Y507D01*
X1796Y507D01*
X1796Y509D01*
X1788Y509D01*
X1788Y511D01*
X1782Y511D01*
X1782Y513D01*
X1780Y513D01*
X1780Y515D01*
X1776Y515D01*
X1776Y517D01*
X1774Y517D01*
X1774Y519D01*
X1772Y519D01*
X1772Y521D01*
X1770Y521D01*
X1770Y523D01*
X1768Y523D01*
X1768Y525D01*
X1766Y525D01*
X1766Y527D01*
X1764Y527D01*
X1764Y531D01*
X1762Y531D01*
X1762Y535D01*
X1760Y535D01*
X1760Y541D01*
X1758Y541D01*
X1758Y563D01*
X1760Y563D01*
X1760Y569D01*
X1762Y569D01*
X1762Y591D01*
X1760Y591D01*
X1760Y593D01*
X1758Y593D01*
X1758Y595D01*
X1756Y595D01*
X1756Y597D01*
X1754Y597D01*
X1754Y599D01*
X1752Y599D01*
X1752Y601D01*
X1750Y601D01*
X1750Y603D01*
X1748Y603D01*
X1748Y605D01*
X1746Y605D01*
X1746Y607D01*
X1744Y607D01*
X1744Y609D01*
X1742Y609D01*
X1742Y611D01*
X1740Y611D01*
X1740Y613D01*
X1738Y613D01*
X1738Y615D01*
X1736Y615D01*
X1736Y617D01*
X1734Y617D01*
X1734Y619D01*
X1732Y619D01*
X1732Y621D01*
X1728Y621D01*
X1728Y623D01*
X1724Y623D01*
X1724Y625D01*
X1720Y625D01*
X1720Y627D01*
X1716Y627D01*
X1716Y629D01*
X1712Y629D01*
X1712Y631D01*
X1708Y631D01*
X1708Y633D01*
X1704Y633D01*
X1704Y635D01*
X1700Y635D01*
X1700Y637D01*
X1696Y637D01*
X1696Y639D01*
X1692Y639D01*
X1692Y641D01*
X1688Y641D01*
X1688Y643D01*
X1684Y643D01*
X1684Y645D01*
X1680Y645D01*
X1680Y647D01*
X1676Y647D01*
X1676Y649D01*
X1672Y649D01*
X1672Y651D01*
X1668Y651D01*
X1668Y653D01*
X1664Y653D01*
X1664Y655D01*
X52Y655D01*
G37*
D02*
G36*
X1812Y647D02*
X1812Y645D01*
X1814Y645D01*
X1814Y643D01*
X1816Y643D01*
X1816Y641D01*
X1818Y641D01*
X1818Y639D01*
X1820Y639D01*
X1820Y637D01*
X1822Y637D01*
X1822Y635D01*
X1824Y635D01*
X1824Y633D01*
X1826Y633D01*
X1826Y631D01*
X1828Y631D01*
X1828Y629D01*
X1830Y629D01*
X1830Y627D01*
X1832Y627D01*
X1832Y625D01*
X1834Y625D01*
X1834Y621D01*
X1836Y621D01*
X1836Y617D01*
X1838Y617D01*
X1838Y611D01*
X1840Y611D01*
X1840Y573D01*
X1842Y573D01*
X1842Y571D01*
X1844Y571D01*
X1844Y563D01*
X1846Y563D01*
X1846Y559D01*
X2290Y559D01*
X2290Y561D01*
X2284Y561D01*
X2284Y563D01*
X2280Y563D01*
X2280Y565D01*
X2278Y565D01*
X2278Y567D01*
X2274Y567D01*
X2274Y569D01*
X2272Y569D01*
X2272Y571D01*
X2270Y571D01*
X2270Y573D01*
X2268Y573D01*
X2268Y577D01*
X2266Y577D01*
X2266Y579D01*
X2264Y579D01*
X2264Y583D01*
X2262Y583D01*
X2262Y587D01*
X2260Y587D01*
X2260Y593D01*
X2258Y593D01*
X2258Y613D01*
X2260Y613D01*
X2260Y619D01*
X2262Y619D01*
X2262Y623D01*
X2264Y623D01*
X2264Y627D01*
X2266Y627D01*
X2266Y629D01*
X2268Y629D01*
X2268Y631D01*
X2270Y631D01*
X2270Y635D01*
X2272Y635D01*
X2272Y637D01*
X2276Y637D01*
X2276Y639D01*
X2278Y639D01*
X2278Y641D01*
X2282Y641D01*
X2282Y643D01*
X2286Y643D01*
X2286Y645D01*
X2292Y645D01*
X2292Y647D01*
X1812Y647D01*
G37*
D02*
G36*
X1846Y559D02*
X1846Y557D01*
X2496Y557D01*
X2496Y559D01*
X1846Y559D01*
G37*
D02*
G36*
X1846Y559D02*
X1846Y557D01*
X2496Y557D01*
X2496Y559D01*
X1846Y559D01*
G37*
D02*
G36*
X1846Y557D02*
X1846Y545D01*
X2496Y545D01*
X2496Y557D01*
X1846Y557D01*
G37*
D02*
G36*
X1846Y545D02*
X1846Y543D01*
X2664Y543D01*
X2664Y545D01*
X1846Y545D01*
G37*
D02*
G36*
X1846Y545D02*
X1846Y543D01*
X2664Y543D01*
X2664Y545D01*
X1846Y545D01*
G37*
D02*
G36*
X1846Y543D02*
X1846Y541D01*
X1844Y541D01*
X1844Y535D01*
X1842Y535D01*
X1842Y531D01*
X1840Y531D01*
X1840Y527D01*
X1838Y527D01*
X1838Y525D01*
X1836Y525D01*
X1836Y523D01*
X1834Y523D01*
X1834Y519D01*
X1830Y519D01*
X1830Y517D01*
X1828Y517D01*
X1828Y515D01*
X1824Y515D01*
X1824Y513D01*
X1822Y513D01*
X1822Y511D01*
X1816Y511D01*
X1816Y509D01*
X2560Y509D01*
X2560Y507D01*
X2568Y507D01*
X2568Y505D01*
X2574Y505D01*
X2574Y503D01*
X2578Y503D01*
X2578Y501D01*
X2582Y501D01*
X2582Y499D01*
X2584Y499D01*
X2584Y497D01*
X2588Y497D01*
X2588Y495D01*
X2590Y495D01*
X2590Y493D01*
X2592Y493D01*
X2592Y491D01*
X2594Y491D01*
X2594Y489D01*
X2596Y489D01*
X2596Y485D01*
X2598Y485D01*
X2598Y483D01*
X2600Y483D01*
X2600Y479D01*
X2602Y479D01*
X2602Y477D01*
X2604Y477D01*
X2604Y471D01*
X2606Y471D01*
X2606Y465D01*
X2608Y465D01*
X2608Y439D01*
X2606Y439D01*
X2606Y433D01*
X2604Y433D01*
X2604Y411D01*
X2608Y411D01*
X2608Y297D01*
X2664Y297D01*
X2664Y543D01*
X1846Y543D01*
G37*
D02*
G36*
X1808Y509D02*
X1808Y507D01*
X2544Y507D01*
X2544Y509D01*
X1808Y509D01*
G37*
D02*
G36*
X52Y507D02*
X52Y505D01*
X2536Y505D01*
X2536Y507D01*
X52Y507D01*
G37*
D02*
G36*
X52Y507D02*
X52Y505D01*
X2536Y505D01*
X2536Y507D01*
X52Y507D01*
G37*
D02*
G36*
X52Y505D02*
X52Y497D01*
X1906Y497D01*
X1906Y495D01*
X1916Y495D01*
X1916Y493D01*
X1920Y493D01*
X1920Y491D01*
X1924Y491D01*
X1924Y489D01*
X1928Y489D01*
X1928Y487D01*
X1930Y487D01*
X1930Y485D01*
X1932Y485D01*
X1932Y483D01*
X1934Y483D01*
X1934Y481D01*
X1936Y481D01*
X1936Y479D01*
X1938Y479D01*
X1938Y475D01*
X1940Y475D01*
X1940Y473D01*
X1942Y473D01*
X1942Y469D01*
X1944Y469D01*
X1944Y461D01*
X1946Y461D01*
X1946Y441D01*
X1944Y441D01*
X1944Y435D01*
X1942Y435D01*
X1942Y431D01*
X1940Y431D01*
X1940Y427D01*
X1938Y427D01*
X1938Y425D01*
X1936Y425D01*
X1936Y423D01*
X1934Y423D01*
X1934Y421D01*
X1932Y421D01*
X1932Y419D01*
X1930Y419D01*
X1930Y417D01*
X1928Y417D01*
X1928Y415D01*
X1926Y415D01*
X1926Y413D01*
X1922Y413D01*
X1922Y411D01*
X1918Y411D01*
X1918Y409D01*
X1910Y409D01*
X1910Y407D01*
X2496Y407D01*
X2496Y411D01*
X2500Y411D01*
X2500Y433D01*
X2498Y433D01*
X2498Y439D01*
X2496Y439D01*
X2496Y465D01*
X2498Y465D01*
X2498Y471D01*
X2500Y471D01*
X2500Y475D01*
X2502Y475D01*
X2502Y479D01*
X2504Y479D01*
X2504Y483D01*
X2506Y483D01*
X2506Y485D01*
X2508Y485D01*
X2508Y489D01*
X2510Y489D01*
X2510Y491D01*
X2512Y491D01*
X2512Y493D01*
X2514Y493D01*
X2514Y495D01*
X2518Y495D01*
X2518Y497D01*
X2520Y497D01*
X2520Y499D01*
X2522Y499D01*
X2522Y501D01*
X2526Y501D01*
X2526Y503D01*
X2530Y503D01*
X2530Y505D01*
X52Y505D01*
G37*
D02*
G36*
X52Y497D02*
X52Y161D01*
X1406Y161D01*
X1406Y159D01*
X1418Y159D01*
X1418Y157D01*
X1424Y157D01*
X1424Y155D01*
X1428Y155D01*
X1428Y153D01*
X1432Y153D01*
X1432Y151D01*
X1434Y151D01*
X1434Y149D01*
X1438Y149D01*
X1438Y147D01*
X1440Y147D01*
X1440Y145D01*
X1442Y145D01*
X1442Y143D01*
X1462Y143D01*
X1462Y145D01*
X1464Y145D01*
X1464Y147D01*
X1466Y147D01*
X1466Y171D01*
X1464Y171D01*
X1464Y329D01*
X1462Y329D01*
X1462Y333D01*
X1460Y333D01*
X1460Y339D01*
X1458Y339D01*
X1458Y351D01*
X1456Y351D01*
X1456Y353D01*
X1458Y353D01*
X1458Y365D01*
X1460Y365D01*
X1460Y371D01*
X1462Y371D01*
X1462Y373D01*
X1464Y373D01*
X1464Y377D01*
X1466Y377D01*
X1466Y379D01*
X1468Y379D01*
X1468Y383D01*
X1470Y383D01*
X1470Y385D01*
X1474Y385D01*
X1474Y387D01*
X1476Y387D01*
X1476Y389D01*
X1480Y389D01*
X1480Y391D01*
X1482Y391D01*
X1482Y393D01*
X1488Y393D01*
X1488Y395D01*
X1496Y395D01*
X1496Y397D01*
X1522Y397D01*
X1522Y453D01*
X1658Y453D01*
X1658Y465D01*
X1660Y465D01*
X1660Y471D01*
X1662Y471D01*
X1662Y473D01*
X1664Y473D01*
X1664Y477D01*
X1666Y477D01*
X1666Y479D01*
X1668Y479D01*
X1668Y483D01*
X1670Y483D01*
X1670Y485D01*
X1674Y485D01*
X1674Y487D01*
X1676Y487D01*
X1676Y489D01*
X1680Y489D01*
X1680Y491D01*
X1682Y491D01*
X1682Y493D01*
X1688Y493D01*
X1688Y495D01*
X1696Y495D01*
X1696Y497D01*
X52Y497D01*
G37*
D02*
G36*
X1706Y497D02*
X1706Y495D01*
X1716Y495D01*
X1716Y493D01*
X1720Y493D01*
X1720Y491D01*
X1724Y491D01*
X1724Y489D01*
X1728Y489D01*
X1728Y487D01*
X1730Y487D01*
X1730Y485D01*
X1732Y485D01*
X1732Y483D01*
X1734Y483D01*
X1734Y481D01*
X1736Y481D01*
X1736Y479D01*
X1738Y479D01*
X1738Y475D01*
X1740Y475D01*
X1740Y473D01*
X1742Y473D01*
X1742Y469D01*
X1744Y469D01*
X1744Y461D01*
X1746Y461D01*
X1746Y441D01*
X1744Y441D01*
X1744Y435D01*
X1742Y435D01*
X1742Y431D01*
X1740Y431D01*
X1740Y427D01*
X1738Y427D01*
X1738Y425D01*
X1736Y425D01*
X1736Y423D01*
X1734Y423D01*
X1734Y421D01*
X1732Y421D01*
X1732Y419D01*
X1730Y419D01*
X1730Y417D01*
X1728Y417D01*
X1728Y415D01*
X1726Y415D01*
X1726Y413D01*
X1722Y413D01*
X1722Y411D01*
X1718Y411D01*
X1718Y409D01*
X1710Y409D01*
X1710Y407D01*
X1894Y407D01*
X1894Y409D01*
X1886Y409D01*
X1886Y411D01*
X1882Y411D01*
X1882Y413D01*
X1878Y413D01*
X1878Y415D01*
X1876Y415D01*
X1876Y417D01*
X1872Y417D01*
X1872Y419D01*
X1870Y419D01*
X1870Y421D01*
X1868Y421D01*
X1868Y423D01*
X1866Y423D01*
X1866Y427D01*
X1864Y427D01*
X1864Y429D01*
X1862Y429D01*
X1862Y433D01*
X1860Y433D01*
X1860Y439D01*
X1858Y439D01*
X1858Y451D01*
X1856Y451D01*
X1856Y453D01*
X1858Y453D01*
X1858Y465D01*
X1860Y465D01*
X1860Y471D01*
X1862Y471D01*
X1862Y473D01*
X1864Y473D01*
X1864Y477D01*
X1866Y477D01*
X1866Y479D01*
X1868Y479D01*
X1868Y483D01*
X1870Y483D01*
X1870Y485D01*
X1874Y485D01*
X1874Y487D01*
X1876Y487D01*
X1876Y489D01*
X1880Y489D01*
X1880Y491D01*
X1882Y491D01*
X1882Y493D01*
X1888Y493D01*
X1888Y495D01*
X1896Y495D01*
X1896Y497D01*
X1706Y497D01*
G37*
D02*
G36*
X1684Y407D02*
X1684Y405D01*
X2496Y405D01*
X2496Y407D01*
X1684Y407D01*
G37*
D02*
G36*
X1684Y407D02*
X1684Y405D01*
X2496Y405D01*
X2496Y407D01*
X1684Y407D01*
G37*
D02*
G36*
X1684Y405D02*
X1684Y347D01*
X1906Y347D01*
X1906Y345D01*
X1916Y345D01*
X1916Y343D01*
X1920Y343D01*
X1920Y341D01*
X1924Y341D01*
X1924Y339D01*
X1928Y339D01*
X1928Y337D01*
X1930Y337D01*
X1930Y335D01*
X1932Y335D01*
X1932Y333D01*
X1934Y333D01*
X1934Y331D01*
X1936Y331D01*
X1936Y329D01*
X1938Y329D01*
X1938Y325D01*
X1940Y325D01*
X1940Y323D01*
X1942Y323D01*
X1942Y319D01*
X1944Y319D01*
X1944Y311D01*
X1946Y311D01*
X1946Y297D01*
X2496Y297D01*
X2496Y405D01*
X1684Y405D01*
G37*
D02*
G36*
X1706Y347D02*
X1706Y345D01*
X1716Y345D01*
X1716Y343D01*
X1720Y343D01*
X1720Y341D01*
X1724Y341D01*
X1724Y339D01*
X1728Y339D01*
X1728Y337D01*
X1730Y337D01*
X1730Y335D01*
X1732Y335D01*
X1732Y333D01*
X1734Y333D01*
X1734Y331D01*
X1736Y331D01*
X1736Y329D01*
X1738Y329D01*
X1738Y325D01*
X1740Y325D01*
X1740Y323D01*
X1742Y323D01*
X1742Y319D01*
X1744Y319D01*
X1744Y311D01*
X1746Y311D01*
X1746Y291D01*
X1744Y291D01*
X1744Y285D01*
X1742Y285D01*
X1742Y281D01*
X1740Y281D01*
X1740Y277D01*
X1738Y277D01*
X1738Y275D01*
X1736Y275D01*
X1736Y273D01*
X1734Y273D01*
X1734Y271D01*
X1732Y271D01*
X1732Y269D01*
X1730Y269D01*
X1730Y267D01*
X1728Y267D01*
X1728Y265D01*
X1726Y265D01*
X1726Y263D01*
X1722Y263D01*
X1722Y261D01*
X1718Y261D01*
X1718Y259D01*
X1710Y259D01*
X1710Y257D01*
X1894Y257D01*
X1894Y259D01*
X1886Y259D01*
X1886Y261D01*
X1882Y261D01*
X1882Y263D01*
X1878Y263D01*
X1878Y265D01*
X1876Y265D01*
X1876Y267D01*
X1872Y267D01*
X1872Y269D01*
X1870Y269D01*
X1870Y271D01*
X1868Y271D01*
X1868Y273D01*
X1866Y273D01*
X1866Y277D01*
X1864Y277D01*
X1864Y279D01*
X1862Y279D01*
X1862Y283D01*
X1860Y283D01*
X1860Y289D01*
X1858Y289D01*
X1858Y301D01*
X1856Y301D01*
X1856Y303D01*
X1858Y303D01*
X1858Y315D01*
X1860Y315D01*
X1860Y321D01*
X1862Y321D01*
X1862Y323D01*
X1864Y323D01*
X1864Y327D01*
X1866Y327D01*
X1866Y329D01*
X1868Y329D01*
X1868Y333D01*
X1870Y333D01*
X1870Y335D01*
X1874Y335D01*
X1874Y337D01*
X1876Y337D01*
X1876Y339D01*
X1880Y339D01*
X1880Y341D01*
X1882Y341D01*
X1882Y343D01*
X1888Y343D01*
X1888Y345D01*
X1896Y345D01*
X1896Y347D01*
X1706Y347D01*
G37*
D02*
G36*
X1946Y297D02*
X1946Y295D01*
X2664Y295D01*
X2664Y297D01*
X1946Y297D01*
G37*
D02*
G36*
X1946Y297D02*
X1946Y295D01*
X2664Y295D01*
X2664Y297D01*
X1946Y297D01*
G37*
D02*
G36*
X1946Y295D02*
X1946Y291D01*
X1944Y291D01*
X1944Y285D01*
X1942Y285D01*
X1942Y281D01*
X1940Y281D01*
X1940Y277D01*
X1938Y277D01*
X1938Y275D01*
X1936Y275D01*
X1936Y273D01*
X1934Y273D01*
X1934Y271D01*
X1932Y271D01*
X1932Y269D01*
X1930Y269D01*
X1930Y267D01*
X1928Y267D01*
X1928Y265D01*
X1926Y265D01*
X1926Y263D01*
X1922Y263D01*
X1922Y261D01*
X1918Y261D01*
X1918Y259D01*
X1910Y259D01*
X1910Y257D01*
X2664Y257D01*
X2664Y295D01*
X1946Y295D01*
G37*
D02*
G36*
X1684Y257D02*
X1684Y255D01*
X2664Y255D01*
X2664Y257D01*
X1684Y257D01*
G37*
D02*
G36*
X1684Y257D02*
X1684Y255D01*
X2664Y255D01*
X2664Y257D01*
X1684Y257D01*
G37*
D02*
G36*
X1684Y255D02*
X1684Y253D01*
X1682Y253D01*
X1682Y251D01*
X1538Y251D01*
X1538Y177D01*
X1540Y177D01*
X1540Y161D01*
X2506Y161D01*
X2506Y159D01*
X2518Y159D01*
X2518Y157D01*
X2524Y157D01*
X2524Y155D01*
X2528Y155D01*
X2528Y153D01*
X2532Y153D01*
X2532Y151D01*
X2534Y151D01*
X2534Y149D01*
X2538Y149D01*
X2538Y147D01*
X2540Y147D01*
X2540Y145D01*
X2542Y145D01*
X2542Y143D01*
X2544Y143D01*
X2544Y141D01*
X2564Y141D01*
X2564Y147D01*
X2566Y147D01*
X2566Y149D01*
X2568Y149D01*
X2568Y151D01*
X2570Y151D01*
X2570Y153D01*
X2572Y153D01*
X2572Y155D01*
X2574Y155D01*
X2574Y157D01*
X2576Y157D01*
X2576Y159D01*
X2578Y159D01*
X2578Y161D01*
X2580Y161D01*
X2580Y163D01*
X2582Y163D01*
X2582Y165D01*
X2584Y165D01*
X2584Y167D01*
X2586Y167D01*
X2586Y169D01*
X2588Y169D01*
X2588Y171D01*
X2590Y171D01*
X2590Y173D01*
X2592Y173D01*
X2592Y175D01*
X2594Y175D01*
X2594Y177D01*
X2596Y177D01*
X2596Y179D01*
X2598Y179D01*
X2598Y181D01*
X2600Y181D01*
X2600Y183D01*
X2602Y183D01*
X2602Y185D01*
X2604Y185D01*
X2604Y187D01*
X2606Y187D01*
X2606Y189D01*
X2608Y189D01*
X2608Y191D01*
X2610Y191D01*
X2610Y193D01*
X2612Y193D01*
X2612Y195D01*
X2614Y195D01*
X2614Y197D01*
X2616Y197D01*
X2616Y199D01*
X2618Y199D01*
X2618Y201D01*
X2620Y201D01*
X2620Y203D01*
X2622Y203D01*
X2622Y205D01*
X2624Y205D01*
X2624Y207D01*
X2626Y207D01*
X2626Y209D01*
X2628Y209D01*
X2628Y211D01*
X2630Y211D01*
X2630Y213D01*
X2632Y213D01*
X2632Y215D01*
X2634Y215D01*
X2634Y217D01*
X2636Y217D01*
X2636Y219D01*
X2638Y219D01*
X2638Y221D01*
X2640Y221D01*
X2640Y223D01*
X2642Y223D01*
X2642Y225D01*
X2644Y225D01*
X2644Y227D01*
X2646Y227D01*
X2646Y229D01*
X2648Y229D01*
X2648Y231D01*
X2650Y231D01*
X2650Y233D01*
X2652Y233D01*
X2652Y235D01*
X2654Y235D01*
X2654Y237D01*
X2656Y237D01*
X2656Y239D01*
X2658Y239D01*
X2658Y241D01*
X2660Y241D01*
X2660Y243D01*
X2662Y243D01*
X2662Y245D01*
X2664Y245D01*
X2664Y255D01*
X1684Y255D01*
G37*
D02*
G36*
X52Y161D02*
X52Y71D01*
X54Y71D01*
X54Y67D01*
X56Y67D01*
X56Y63D01*
X58Y63D01*
X58Y61D01*
X60Y61D01*
X60Y59D01*
X62Y59D01*
X62Y57D01*
X64Y57D01*
X64Y55D01*
X66Y55D01*
X66Y53D01*
X70Y53D01*
X70Y51D01*
X74Y51D01*
X74Y49D01*
X80Y49D01*
X80Y47D01*
X1058Y47D01*
X1058Y67D01*
X1056Y67D01*
X1056Y69D01*
X1054Y69D01*
X1054Y71D01*
X1052Y71D01*
X1052Y75D01*
X1050Y75D01*
X1050Y79D01*
X1048Y79D01*
X1048Y85D01*
X1046Y85D01*
X1046Y93D01*
X1044Y93D01*
X1044Y111D01*
X1046Y111D01*
X1046Y121D01*
X1048Y121D01*
X1048Y125D01*
X1050Y125D01*
X1050Y129D01*
X1052Y129D01*
X1052Y133D01*
X1054Y133D01*
X1054Y135D01*
X1056Y135D01*
X1056Y139D01*
X1058Y139D01*
X1058Y141D01*
X1060Y141D01*
X1060Y143D01*
X1062Y143D01*
X1062Y145D01*
X1064Y145D01*
X1064Y147D01*
X1068Y147D01*
X1068Y149D01*
X1070Y149D01*
X1070Y151D01*
X1072Y151D01*
X1072Y153D01*
X1076Y153D01*
X1076Y155D01*
X1080Y155D01*
X1080Y157D01*
X1088Y157D01*
X1088Y159D01*
X1100Y159D01*
X1100Y161D01*
X52Y161D01*
G37*
D02*
G36*
X1106Y161D02*
X1106Y159D01*
X1118Y159D01*
X1118Y157D01*
X1124Y157D01*
X1124Y155D01*
X1128Y155D01*
X1128Y153D01*
X1132Y153D01*
X1132Y151D01*
X1134Y151D01*
X1134Y149D01*
X1138Y149D01*
X1138Y147D01*
X1140Y147D01*
X1140Y145D01*
X1142Y145D01*
X1142Y143D01*
X1162Y143D01*
X1162Y145D01*
X1164Y145D01*
X1164Y147D01*
X1168Y147D01*
X1168Y149D01*
X1170Y149D01*
X1170Y151D01*
X1172Y151D01*
X1172Y153D01*
X1176Y153D01*
X1176Y155D01*
X1180Y155D01*
X1180Y157D01*
X1188Y157D01*
X1188Y159D01*
X1200Y159D01*
X1200Y161D01*
X1106Y161D01*
G37*
D02*
G36*
X1206Y161D02*
X1206Y159D01*
X1218Y159D01*
X1218Y157D01*
X1224Y157D01*
X1224Y155D01*
X1228Y155D01*
X1228Y153D01*
X1232Y153D01*
X1232Y151D01*
X1234Y151D01*
X1234Y149D01*
X1238Y149D01*
X1238Y147D01*
X1240Y147D01*
X1240Y145D01*
X1242Y145D01*
X1242Y143D01*
X1262Y143D01*
X1262Y145D01*
X1264Y145D01*
X1264Y147D01*
X1268Y147D01*
X1268Y149D01*
X1270Y149D01*
X1270Y151D01*
X1272Y151D01*
X1272Y153D01*
X1276Y153D01*
X1276Y155D01*
X1280Y155D01*
X1280Y157D01*
X1288Y157D01*
X1288Y159D01*
X1300Y159D01*
X1300Y161D01*
X1206Y161D01*
G37*
D02*
G36*
X1306Y161D02*
X1306Y159D01*
X1318Y159D01*
X1318Y157D01*
X1324Y157D01*
X1324Y155D01*
X1328Y155D01*
X1328Y153D01*
X1332Y153D01*
X1332Y151D01*
X1334Y151D01*
X1334Y149D01*
X1338Y149D01*
X1338Y147D01*
X1340Y147D01*
X1340Y145D01*
X1342Y145D01*
X1342Y143D01*
X1362Y143D01*
X1362Y145D01*
X1364Y145D01*
X1364Y147D01*
X1368Y147D01*
X1368Y149D01*
X1370Y149D01*
X1370Y151D01*
X1372Y151D01*
X1372Y153D01*
X1376Y153D01*
X1376Y155D01*
X1380Y155D01*
X1380Y157D01*
X1388Y157D01*
X1388Y159D01*
X1400Y159D01*
X1400Y161D01*
X1306Y161D01*
G37*
D02*
G36*
X1540Y161D02*
X1540Y145D01*
X1542Y145D01*
X1542Y143D01*
X1562Y143D01*
X1562Y145D01*
X1564Y145D01*
X1564Y147D01*
X1568Y147D01*
X1568Y149D01*
X1570Y149D01*
X1570Y151D01*
X1572Y151D01*
X1572Y153D01*
X1576Y153D01*
X1576Y155D01*
X1580Y155D01*
X1580Y157D01*
X1588Y157D01*
X1588Y159D01*
X1600Y159D01*
X1600Y161D01*
X1540Y161D01*
G37*
D02*
G36*
X1606Y161D02*
X1606Y159D01*
X1618Y159D01*
X1618Y157D01*
X1624Y157D01*
X1624Y155D01*
X1628Y155D01*
X1628Y153D01*
X1632Y153D01*
X1632Y151D01*
X1634Y151D01*
X1634Y149D01*
X1638Y149D01*
X1638Y147D01*
X1640Y147D01*
X1640Y145D01*
X1642Y145D01*
X1642Y143D01*
X1662Y143D01*
X1662Y145D01*
X1664Y145D01*
X1664Y147D01*
X1668Y147D01*
X1668Y149D01*
X1670Y149D01*
X1670Y151D01*
X1672Y151D01*
X1672Y153D01*
X1676Y153D01*
X1676Y155D01*
X1680Y155D01*
X1680Y157D01*
X1688Y157D01*
X1688Y159D01*
X1700Y159D01*
X1700Y161D01*
X1606Y161D01*
G37*
D02*
G36*
X1706Y161D02*
X1706Y159D01*
X1718Y159D01*
X1718Y157D01*
X1724Y157D01*
X1724Y155D01*
X1728Y155D01*
X1728Y153D01*
X1732Y153D01*
X1732Y151D01*
X1734Y151D01*
X1734Y149D01*
X1738Y149D01*
X1738Y147D01*
X1740Y147D01*
X1740Y145D01*
X1742Y145D01*
X1742Y143D01*
X1762Y143D01*
X1762Y145D01*
X1764Y145D01*
X1764Y147D01*
X1768Y147D01*
X1768Y149D01*
X1770Y149D01*
X1770Y151D01*
X1772Y151D01*
X1772Y153D01*
X1776Y153D01*
X1776Y155D01*
X1780Y155D01*
X1780Y157D01*
X1788Y157D01*
X1788Y159D01*
X1800Y159D01*
X1800Y161D01*
X1706Y161D01*
G37*
D02*
G36*
X1806Y161D02*
X1806Y159D01*
X1818Y159D01*
X1818Y157D01*
X1824Y157D01*
X1824Y155D01*
X1828Y155D01*
X1828Y153D01*
X1832Y153D01*
X1832Y151D01*
X1834Y151D01*
X1834Y149D01*
X1838Y149D01*
X1838Y147D01*
X1840Y147D01*
X1840Y145D01*
X1842Y145D01*
X1842Y143D01*
X1844Y143D01*
X1844Y141D01*
X1846Y141D01*
X1846Y139D01*
X1848Y139D01*
X1848Y137D01*
X1850Y137D01*
X1850Y133D01*
X1852Y133D01*
X1852Y129D01*
X1854Y129D01*
X1854Y127D01*
X1856Y127D01*
X1856Y121D01*
X1858Y121D01*
X1858Y113D01*
X1860Y113D01*
X1860Y91D01*
X1858Y91D01*
X1858Y83D01*
X1856Y83D01*
X1856Y79D01*
X1854Y79D01*
X1854Y75D01*
X1852Y75D01*
X1852Y71D01*
X1850Y71D01*
X1850Y69D01*
X1848Y69D01*
X1848Y47D01*
X1958Y47D01*
X1958Y67D01*
X1956Y67D01*
X1956Y69D01*
X1954Y69D01*
X1954Y71D01*
X1952Y71D01*
X1952Y75D01*
X1950Y75D01*
X1950Y79D01*
X1948Y79D01*
X1948Y85D01*
X1946Y85D01*
X1946Y93D01*
X1944Y93D01*
X1944Y111D01*
X1946Y111D01*
X1946Y121D01*
X1948Y121D01*
X1948Y125D01*
X1950Y125D01*
X1950Y129D01*
X1952Y129D01*
X1952Y133D01*
X1954Y133D01*
X1954Y135D01*
X1956Y135D01*
X1956Y139D01*
X1958Y139D01*
X1958Y141D01*
X1960Y141D01*
X1960Y143D01*
X1962Y143D01*
X1962Y145D01*
X1964Y145D01*
X1964Y147D01*
X1968Y147D01*
X1968Y149D01*
X1970Y149D01*
X1970Y151D01*
X1972Y151D01*
X1972Y153D01*
X1976Y153D01*
X1976Y155D01*
X1980Y155D01*
X1980Y157D01*
X1988Y157D01*
X1988Y159D01*
X2000Y159D01*
X2000Y161D01*
X1806Y161D01*
G37*
D02*
G36*
X2006Y161D02*
X2006Y159D01*
X2018Y159D01*
X2018Y157D01*
X2024Y157D01*
X2024Y155D01*
X2028Y155D01*
X2028Y153D01*
X2032Y153D01*
X2032Y151D01*
X2034Y151D01*
X2034Y149D01*
X2038Y149D01*
X2038Y147D01*
X2040Y147D01*
X2040Y145D01*
X2042Y145D01*
X2042Y143D01*
X2062Y143D01*
X2062Y145D01*
X2064Y145D01*
X2064Y147D01*
X2068Y147D01*
X2068Y149D01*
X2070Y149D01*
X2070Y151D01*
X2072Y151D01*
X2072Y153D01*
X2076Y153D01*
X2076Y155D01*
X2080Y155D01*
X2080Y157D01*
X2088Y157D01*
X2088Y159D01*
X2100Y159D01*
X2100Y161D01*
X2006Y161D01*
G37*
D02*
G36*
X2106Y161D02*
X2106Y159D01*
X2118Y159D01*
X2118Y157D01*
X2124Y157D01*
X2124Y155D01*
X2128Y155D01*
X2128Y153D01*
X2132Y153D01*
X2132Y151D01*
X2134Y151D01*
X2134Y149D01*
X2138Y149D01*
X2138Y147D01*
X2140Y147D01*
X2140Y145D01*
X2142Y145D01*
X2142Y143D01*
X2162Y143D01*
X2162Y145D01*
X2164Y145D01*
X2164Y147D01*
X2168Y147D01*
X2168Y149D01*
X2170Y149D01*
X2170Y151D01*
X2172Y151D01*
X2172Y153D01*
X2176Y153D01*
X2176Y155D01*
X2180Y155D01*
X2180Y157D01*
X2188Y157D01*
X2188Y159D01*
X2200Y159D01*
X2200Y161D01*
X2106Y161D01*
G37*
D02*
G36*
X2206Y161D02*
X2206Y159D01*
X2218Y159D01*
X2218Y157D01*
X2224Y157D01*
X2224Y155D01*
X2228Y155D01*
X2228Y153D01*
X2232Y153D01*
X2232Y151D01*
X2234Y151D01*
X2234Y149D01*
X2238Y149D01*
X2238Y147D01*
X2240Y147D01*
X2240Y145D01*
X2242Y145D01*
X2242Y143D01*
X2262Y143D01*
X2262Y145D01*
X2264Y145D01*
X2264Y147D01*
X2268Y147D01*
X2268Y149D01*
X2270Y149D01*
X2270Y151D01*
X2272Y151D01*
X2272Y153D01*
X2276Y153D01*
X2276Y155D01*
X2280Y155D01*
X2280Y157D01*
X2288Y157D01*
X2288Y159D01*
X2300Y159D01*
X2300Y161D01*
X2206Y161D01*
G37*
D02*
G36*
X2306Y161D02*
X2306Y159D01*
X2318Y159D01*
X2318Y157D01*
X2324Y157D01*
X2324Y155D01*
X2328Y155D01*
X2328Y153D01*
X2332Y153D01*
X2332Y151D01*
X2334Y151D01*
X2334Y149D01*
X2338Y149D01*
X2338Y147D01*
X2340Y147D01*
X2340Y145D01*
X2342Y145D01*
X2342Y143D01*
X2362Y143D01*
X2362Y145D01*
X2364Y145D01*
X2364Y147D01*
X2368Y147D01*
X2368Y149D01*
X2370Y149D01*
X2370Y151D01*
X2372Y151D01*
X2372Y153D01*
X2376Y153D01*
X2376Y155D01*
X2380Y155D01*
X2380Y157D01*
X2388Y157D01*
X2388Y159D01*
X2400Y159D01*
X2400Y161D01*
X2306Y161D01*
G37*
D02*
G36*
X2406Y161D02*
X2406Y159D01*
X2418Y159D01*
X2418Y157D01*
X2424Y157D01*
X2424Y155D01*
X2428Y155D01*
X2428Y153D01*
X2432Y153D01*
X2432Y151D01*
X2434Y151D01*
X2434Y149D01*
X2438Y149D01*
X2438Y147D01*
X2440Y147D01*
X2440Y145D01*
X2442Y145D01*
X2442Y143D01*
X2462Y143D01*
X2462Y145D01*
X2464Y145D01*
X2464Y147D01*
X2468Y147D01*
X2468Y149D01*
X2470Y149D01*
X2470Y151D01*
X2472Y151D01*
X2472Y153D01*
X2476Y153D01*
X2476Y155D01*
X2480Y155D01*
X2480Y157D01*
X2488Y157D01*
X2488Y159D01*
X2500Y159D01*
X2500Y161D01*
X2406Y161D01*
G37*
D02*
G36*
X1580Y87D02*
X1619Y87D01*
X1619Y47D01*
X1580Y47D01*
X1580Y87D01*
G37*
D02*
G36*
X1680Y165D02*
X1719Y165D01*
X1719Y125D01*
X1680Y125D01*
X1680Y165D01*
G37*
D02*
G36*
X1680Y87D02*
X1719Y87D01*
X1719Y47D01*
X1680Y47D01*
X1680Y87D01*
G37*
D02*
G36*
X1020Y2063D02*
X1059Y2063D01*
X1059Y2023D01*
X1020Y2023D01*
X1020Y2063D01*
G37*
D02*
G36*
X1020Y1985D02*
X1059Y1985D01*
X1059Y1945D01*
X1020Y1945D01*
X1020Y1985D01*
G37*
D02*
G36*
X1687Y297D02*
X1712Y297D01*
X1712Y257D01*
X1687Y257D01*
X1687Y297D01*
G37*
D02*
G36*
X1687Y501D02*
X1712Y501D01*
X1712Y461D01*
X1687Y461D01*
X1687Y501D01*
G37*
D02*
G36*
X1687Y447D02*
X1712Y447D01*
X1712Y407D01*
X1687Y407D01*
X1687Y447D01*
G37*
D02*
G36*
X2531Y341D02*
X2568Y341D01*
X2568Y297D01*
X2531Y297D01*
X2531Y341D01*
G37*
D02*
G36*
X2564Y374D02*
X2608Y374D01*
X2608Y337D01*
X2564Y337D01*
X2564Y374D01*
G37*
D02*
G36*
X1887Y297D02*
X1912Y297D01*
X1912Y257D01*
X1887Y257D01*
X1887Y297D01*
G37*
D02*
G36*
X1906Y316D02*
X1946Y316D01*
X1946Y291D01*
X1906Y291D01*
X1906Y316D01*
G37*
D02*
G36*
X1378Y919D02*
X1421Y919D01*
X1421Y871D01*
X1378Y871D01*
X1378Y919D01*
G37*
D02*
G36*
X377Y1921D02*
X422Y1921D01*
X422Y1873D01*
X377Y1873D01*
X377Y1921D01*
G37*
D02*
G36*
X377Y1835D02*
X422Y1835D01*
X422Y1787D01*
X377Y1787D01*
X377Y1835D01*
G37*
D02*
G36*
X332Y1876D02*
X380Y1876D01*
X380Y1831D01*
X332Y1831D01*
X332Y1876D01*
G37*
D02*
G36*
X2287Y651D02*
X2312Y651D01*
X2312Y613D01*
X2287Y613D01*
X2287Y651D01*
G37*
D02*
G36*
X2254Y618D02*
X2292Y618D01*
X2292Y593D01*
X2254Y593D01*
X2254Y618D01*
G37*
D02*
G36*
X2306Y618D02*
X2348Y618D01*
X2348Y593D01*
X2306Y593D01*
X2306Y618D01*
G37*
D02*
G36*
X552Y1716D02*
X592Y1716D01*
X592Y1691D01*
X552Y1691D01*
X552Y1716D01*
G37*
D02*
G36*
X606Y1716D02*
X646Y1716D01*
X646Y1691D01*
X606Y1691D01*
X606Y1716D01*
G37*
D02*
G36*
X2531Y589D02*
X2568Y589D01*
X2568Y545D01*
X2531Y545D01*
X2531Y589D01*
G37*
D02*
G36*
X2564Y622D02*
X2608Y622D01*
X2608Y585D01*
X2564Y585D01*
X2564Y622D01*
G37*
D02*
G36*
X387Y1051D02*
X412Y1051D01*
X412Y1011D01*
X387Y1011D01*
X387Y1051D01*
G37*
D02*
G36*
X387Y997D02*
X412Y997D01*
X412Y957D01*
X387Y957D01*
X387Y997D01*
G37*
D02*
G36*
X352Y1016D02*
X392Y1016D01*
X392Y991D01*
X352Y991D01*
X352Y1016D01*
G37*
D02*
G36*
X452Y1366D02*
X492Y1366D01*
X492Y1341D01*
X452Y1341D01*
X452Y1366D01*
G37*
D02*
G36*
X606Y1466D02*
X646Y1466D01*
X646Y1441D01*
X606Y1441D01*
X606Y1466D01*
G37*
D02*
G36*
X1187Y947D02*
X1212Y947D01*
X1212Y907D01*
X1187Y907D01*
X1187Y947D01*
G37*
D02*
G36*
X1206Y966D02*
X1246Y966D01*
X1246Y941D01*
X1206Y941D01*
X1206Y966D01*
G37*
D02*
G36*
X452Y1116D02*
X492Y1116D01*
X492Y1091D01*
X452Y1091D01*
X452Y1116D01*
G37*
D02*
G36*
X537Y1197D02*
X562Y1197D01*
X562Y1157D01*
X537Y1157D01*
X537Y1197D01*
G37*
D02*
G36*
X556Y1216D02*
X596Y1216D01*
X596Y1191D01*
X556Y1191D01*
X556Y1216D01*
G37*
D02*
G36*
X2328Y919D02*
X2371Y919D01*
X2371Y871D01*
X2328Y871D01*
X2328Y919D01*
G37*
D02*
G36*
X2328Y837D02*
X2371Y837D01*
X2371Y789D01*
X2328Y789D01*
X2328Y837D01*
G37*
D02*
G36*
X1256Y1116D02*
X1296Y1116D01*
X1296Y1091D01*
X1256Y1091D01*
X1256Y1116D01*
G37*
D02*
G36*
X1752Y1616D02*
X1792Y1616D01*
X1792Y1591D01*
X1752Y1591D01*
X1752Y1616D01*
G37*
D02*
G36*
X1806Y1616D02*
X1846Y1616D01*
X1846Y1591D01*
X1806Y1591D01*
X1806Y1616D01*
G37*
D02*
G36*
X1777Y1821D02*
X1822Y1821D01*
X1822Y1773D01*
X1777Y1773D01*
X1777Y1821D01*
G37*
D02*
G36*
X1734Y1776D02*
X1780Y1776D01*
X1780Y1731D01*
X1734Y1731D01*
X1734Y1776D01*
G37*
D02*
G36*
X1818Y1776D02*
X1868Y1776D01*
X1868Y1731D01*
X1818Y1731D01*
X1818Y1776D01*
G37*
D02*
G36*
X2427Y1821D02*
X2472Y1821D01*
X2472Y1773D01*
X2427Y1773D01*
X2427Y1821D01*
G37*
D02*
G36*
X2384Y1776D02*
X2430Y1776D01*
X2430Y1731D01*
X2384Y1731D01*
X2384Y1776D01*
G37*
D02*
G36*
X2468Y1776D02*
X2518Y1776D01*
X2518Y1731D01*
X2468Y1731D01*
X2468Y1776D01*
G37*
D02*
G36*
X2288Y1109D02*
X2288Y1089D01*
X2342Y1089D01*
X2342Y1091D01*
X2334Y1091D01*
X2334Y1093D01*
X2328Y1093D01*
X2328Y1095D01*
X2324Y1095D01*
X2324Y1097D01*
X2320Y1097D01*
X2320Y1099D01*
X2316Y1099D01*
X2316Y1101D01*
X2314Y1101D01*
X2314Y1103D01*
X2312Y1103D01*
X2312Y1105D01*
X2310Y1105D01*
X2310Y1107D01*
X2308Y1107D01*
X2308Y1109D01*
X2288Y1109D01*
G37*
D02*
G36*
X2370Y1093D02*
X2370Y1091D01*
X2360Y1091D01*
X2360Y1089D01*
X2390Y1089D01*
X2390Y1093D01*
X2370Y1093D01*
G37*
D02*
G36*
X2288Y1089D02*
X2288Y1087D01*
X2514Y1087D01*
X2514Y1089D01*
X2288Y1089D01*
G37*
D02*
G36*
X2288Y1089D02*
X2288Y1087D01*
X2514Y1087D01*
X2514Y1089D01*
X2288Y1089D01*
G37*
D02*
G36*
X2288Y1087D02*
X2288Y965D01*
X2290Y965D01*
X2290Y915D01*
X2456Y915D01*
X2456Y913D01*
X2468Y913D01*
X2468Y911D01*
X2474Y911D01*
X2474Y909D01*
X2478Y909D01*
X2478Y907D01*
X2482Y907D01*
X2482Y905D01*
X2486Y905D01*
X2486Y903D01*
X2488Y903D01*
X2488Y901D01*
X2492Y901D01*
X2492Y899D01*
X2494Y899D01*
X2494Y897D01*
X2514Y897D01*
X2514Y1087D01*
X2288Y1087D01*
G37*
D02*
G36*
X2290Y915D02*
X2290Y901D01*
X2288Y901D01*
X2288Y895D01*
X2308Y895D01*
X2308Y897D01*
X2310Y897D01*
X2310Y899D01*
X2312Y899D01*
X2312Y901D01*
X2314Y901D01*
X2314Y903D01*
X2318Y903D01*
X2318Y905D01*
X2320Y905D01*
X2320Y907D01*
X2324Y907D01*
X2324Y909D01*
X2330Y909D01*
X2330Y911D01*
X2336Y911D01*
X2336Y913D01*
X2348Y913D01*
X2348Y915D01*
X2290Y915D01*
G37*
D02*
G36*
X2356Y915D02*
X2356Y913D01*
X2368Y913D01*
X2368Y911D01*
X2374Y911D01*
X2374Y909D01*
X2378Y909D01*
X2378Y907D01*
X2382Y907D01*
X2382Y905D01*
X2386Y905D01*
X2386Y903D01*
X2388Y903D01*
X2388Y901D01*
X2392Y901D01*
X2392Y899D01*
X2412Y899D01*
X2412Y901D01*
X2414Y901D01*
X2414Y903D01*
X2418Y903D01*
X2418Y905D01*
X2420Y905D01*
X2420Y907D01*
X2424Y907D01*
X2424Y909D01*
X2430Y909D01*
X2430Y911D01*
X2436Y911D01*
X2436Y913D01*
X2448Y913D01*
X2448Y915D01*
X2356Y915D01*
G37*
D02*
G04 End of Copper0*
M02*