G04 MADE WITH FRITZING*
G04 WWW.FRITZING.ORG*
G04 DOUBLE SIDED*
G04 HOLES PLATED*
G04 CONTOUR ON CENTER OF CONTOUR VECTOR*
%ASAXBY*%
%FSLAX23Y23*%
%MOIN*%
%OFA0B0*%
%SFA1.0B1.0*%
%ADD10C,0.075000*%
%ADD11C,0.039370*%
%ADD12C,0.066194*%
%ADD13C,0.066222*%
%ADD14C,0.080000*%
%ADD15C,0.062992*%
%ADD16R,0.137513X0.173810*%
%ADD17R,0.120543X0.148650*%
%ADD18R,0.080000X0.080000*%
%ADD19R,0.075000X0.075000*%
%ADD20R,0.062992X0.062992*%
%ADD21R,0.125984X0.070866*%
%ADD22C,0.024000*%
%ADD23C,0.032000*%
%LNCOPPER1*%
G90*
G70*
G54D10*
X2429Y1868D03*
X1746Y1886D03*
X1506Y1277D03*
X131Y2006D03*
X134Y764D03*
X2357Y1022D03*
X1708Y863D03*
X2355Y721D03*
X2595Y1439D03*
G54D11*
X1702Y452D03*
X1202Y952D03*
X1252Y1102D03*
X1302Y1252D03*
X2002Y1602D03*
X2152Y1302D03*
X1452Y1752D03*
X302Y1452D03*
X302Y1252D03*
X552Y1202D03*
X552Y1052D03*
X602Y1452D03*
X602Y1702D03*
X202Y1702D03*
X152Y1402D03*
X252Y1002D03*
X1852Y851D03*
X2152Y852D03*
X502Y1352D03*
X2252Y1152D03*
X1502Y352D03*
X2552Y852D03*
X1702Y1102D03*
X2303Y603D03*
X1552Y703D03*
X1802Y553D03*
X502Y1102D03*
X1802Y1602D03*
X402Y1002D03*
X252Y1352D03*
X1702Y302D03*
X1902Y302D03*
X1902Y452D03*
G54D12*
X2102Y103D03*
X2202Y103D03*
X2302Y103D03*
X2402Y103D03*
X2502Y103D03*
G54D13*
X1642Y2003D03*
X1542Y2003D03*
X1442Y2003D03*
X1342Y2003D03*
X1242Y2003D03*
X1142Y2003D03*
X1042Y2003D03*
X942Y2003D03*
X842Y2003D03*
X742Y2003D03*
X2502Y2003D03*
X2402Y2003D03*
X2302Y2003D03*
X2202Y2003D03*
X2102Y2003D03*
X2002Y2003D03*
X1902Y2003D03*
X1802Y2003D03*
G54D12*
X1202Y103D03*
X1102Y103D03*
X1302Y103D03*
X1402Y103D03*
X1502Y103D03*
X1602Y103D03*
X1702Y103D03*
X1802Y103D03*
X2002Y103D03*
G54D14*
X2452Y1753D03*
X2252Y1753D03*
X1552Y1752D03*
X1352Y1752D03*
X2002Y1753D03*
X1802Y1753D03*
X402Y1852D03*
X202Y1852D03*
G54D10*
X2452Y1152D03*
X2452Y852D03*
X2352Y1152D03*
X2352Y852D03*
X1502Y1152D03*
X1502Y852D03*
X1402Y1152D03*
X1402Y852D03*
G54D15*
X2552Y602D03*
X2552Y701D03*
X2552Y354D03*
X2552Y453D03*
G54D16*
X202Y1552D03*
X402Y1552D03*
X1352Y1452D03*
X1552Y1452D03*
X1802Y1452D03*
X2002Y1452D03*
X2252Y1452D03*
X2452Y1452D03*
G54D17*
X402Y1302D03*
X152Y1302D03*
G54D18*
X2452Y1753D03*
X1552Y1752D03*
X2002Y1753D03*
X402Y1852D03*
G54D19*
X2452Y1152D03*
X1502Y1152D03*
G54D20*
X2552Y602D03*
X2552Y354D03*
G54D21*
X1852Y973D03*
X1852Y752D03*
X1702Y973D03*
X1702Y752D03*
X2152Y973D03*
X2152Y752D03*
X2002Y973D03*
X2002Y752D03*
X1152Y1703D03*
X1152Y1482D03*
G54D22*
X1246Y1084D02*
X1208Y970D01*
D02*
X402Y1233D02*
X402Y1021D01*
D02*
X1601Y301D02*
X1602Y133D01*
D02*
X1691Y436D02*
X1601Y301D01*
D02*
X2252Y602D02*
X2252Y1102D01*
D02*
X2153Y651D02*
X2202Y602D01*
D02*
X2202Y602D02*
X2252Y602D01*
D02*
X2252Y1102D02*
X2326Y1139D01*
D02*
X2152Y722D02*
X2153Y651D01*
D02*
X2152Y1003D02*
X2152Y1283D01*
D02*
X2002Y1621D02*
X2002Y1721D01*
D02*
X206Y1284D02*
X284Y1258D01*
D02*
X302Y1271D02*
X302Y1433D01*
D02*
X1471Y1752D02*
X1521Y1752D01*
D02*
X2133Y852D02*
X1871Y851D01*
D02*
X253Y1152D02*
X252Y1021D01*
D02*
X198Y1233D02*
X253Y1152D01*
G54D23*
D02*
X152Y1371D02*
X152Y1378D01*
D02*
X202Y1727D02*
X202Y1816D01*
G54D22*
D02*
X602Y1683D02*
X602Y1471D01*
D02*
X552Y1183D02*
X552Y1071D01*
D02*
X2301Y1901D02*
X2302Y1972D01*
D02*
X2351Y1301D02*
X2351Y1603D01*
D02*
X2351Y1603D02*
X2351Y1802D01*
D02*
X2351Y1802D02*
X2301Y1901D01*
D02*
X1702Y1083D02*
X1702Y1003D01*
D02*
X1651Y553D02*
X1513Y367D01*
D02*
X1651Y652D02*
X1651Y553D01*
D02*
X1687Y722D02*
X1651Y652D01*
D02*
X2252Y1202D02*
X2252Y1171D01*
D02*
X2451Y1253D02*
X2403Y1253D01*
D02*
X2403Y1253D02*
X2252Y1202D01*
D02*
X2452Y1181D02*
X2451Y1253D01*
D02*
X456Y1330D02*
X485Y1344D01*
D02*
X2451Y753D02*
X2451Y824D01*
D02*
X2528Y713D02*
X2451Y753D01*
D02*
X2301Y851D02*
X2323Y852D01*
D02*
X2302Y622D02*
X2301Y851D01*
D02*
X2502Y1301D02*
X2552Y1252D01*
D02*
X2552Y953D02*
X2472Y872D01*
D02*
X2552Y1252D02*
X2552Y953D01*
D02*
X2351Y1301D02*
X2502Y1301D01*
D02*
X1801Y404D02*
X1802Y534D01*
D02*
X1802Y133D02*
X1801Y404D01*
D02*
X152Y1101D02*
X152Y852D01*
D02*
X1352Y753D02*
X1352Y702D01*
D02*
X1802Y1721D02*
X1802Y1621D01*
D02*
X1352Y702D02*
X1533Y703D01*
D02*
X1300Y801D02*
X1352Y753D01*
D02*
X650Y1451D02*
X603Y1303D01*
D02*
X502Y1303D02*
X456Y1303D01*
D02*
X603Y1303D02*
X502Y1303D01*
D02*
X701Y1852D02*
X650Y1802D01*
D02*
X650Y1802D02*
X650Y1703D01*
D02*
X650Y1703D02*
X650Y1451D01*
D02*
X1001Y1852D02*
X701Y1852D01*
D02*
X1051Y1902D02*
X1001Y1852D01*
D02*
X1045Y1972D02*
X1051Y1902D01*
D02*
X1302Y1053D02*
X1252Y902D01*
D02*
X1502Y1053D02*
X1302Y1053D01*
D02*
X1252Y902D02*
X203Y953D01*
D02*
X203Y1153D02*
X175Y1233D01*
D02*
X152Y852D02*
X1300Y801D01*
D02*
X152Y1233D02*
X152Y1101D01*
D02*
X203Y953D02*
X203Y1153D01*
D02*
X1502Y1124D02*
X1502Y1053D01*
G54D23*
D02*
X553Y1751D02*
X432Y1832D01*
D02*
X553Y1501D02*
X553Y1751D01*
D02*
X454Y1371D02*
X553Y1501D01*
G54D22*
D02*
X251Y1303D02*
X252Y1333D01*
D02*
X206Y1303D02*
X251Y1303D01*
D02*
X1152Y1752D02*
X1321Y1752D01*
D02*
X1152Y1732D02*
X1152Y1752D01*
D02*
X1902Y433D02*
X1902Y321D01*
D02*
X1702Y283D02*
X1702Y133D01*
D02*
X2452Y551D02*
X2533Y471D01*
D02*
X2101Y553D02*
X2452Y551D01*
D02*
X2001Y651D02*
X2101Y553D01*
D02*
X2001Y722D02*
X2001Y651D01*
D02*
X1502Y252D02*
X1502Y133D01*
D02*
X1853Y652D02*
X1702Y652D01*
D02*
X1702Y652D02*
X1701Y553D01*
D02*
X1701Y553D02*
X1502Y252D01*
D02*
X1852Y722D02*
X1853Y652D01*
D02*
X1251Y1303D02*
X1152Y1402D01*
D02*
X1351Y1303D02*
X1251Y1303D01*
D02*
X1403Y1252D02*
X1351Y1303D01*
D02*
X1152Y1402D02*
X1152Y1452D01*
D02*
X1402Y1181D02*
X1403Y1252D01*
D02*
X1944Y973D02*
X1909Y973D01*
D02*
X1801Y1053D02*
X1833Y1003D01*
D02*
X1751Y1152D02*
X1801Y1053D01*
D02*
X1651Y1202D02*
X1751Y1152D01*
D02*
X1602Y1152D02*
X1651Y1202D01*
D02*
X1602Y753D02*
X1602Y1152D01*
D02*
X1502Y753D02*
X1602Y753D01*
D02*
X1502Y824D02*
X1502Y753D01*
D02*
X1153Y1853D02*
X1301Y1853D01*
D02*
X1144Y1972D02*
X1153Y1853D01*
D02*
X1301Y1853D02*
X1651Y1852D01*
D02*
X1651Y1852D02*
X1651Y1603D01*
D02*
X1853Y1103D02*
X1852Y1003D01*
D02*
X1651Y1301D02*
X1801Y1202D01*
D02*
X1801Y1202D02*
X1853Y1103D01*
D02*
X1651Y1603D02*
X1651Y1301D01*
G36*
X2544Y1963D02*
X2544Y1961D01*
X2542Y1961D01*
X2542Y1959D01*
X2540Y1959D01*
X2540Y1957D01*
X2538Y1957D01*
X2538Y1955D01*
X2534Y1955D01*
X2534Y1953D01*
X2532Y1953D01*
X2532Y1951D01*
X2528Y1951D01*
X2528Y1949D01*
X2524Y1949D01*
X2524Y1947D01*
X2516Y1947D01*
X2516Y1945D01*
X2564Y1945D01*
X2564Y1963D01*
X2544Y1963D01*
G37*
D02*
G36*
X2342Y1961D02*
X2342Y1959D01*
X2340Y1959D01*
X2340Y1957D01*
X2338Y1957D01*
X2338Y1945D01*
X2388Y1945D01*
X2388Y1947D01*
X2382Y1947D01*
X2382Y1949D01*
X2376Y1949D01*
X2376Y1951D01*
X2374Y1951D01*
X2374Y1953D01*
X2370Y1953D01*
X2370Y1955D01*
X2368Y1955D01*
X2368Y1957D01*
X2364Y1957D01*
X2364Y1959D01*
X2362Y1959D01*
X2362Y1961D01*
X2342Y1961D01*
G37*
D02*
G36*
X2442Y1961D02*
X2442Y1959D01*
X2440Y1959D01*
X2440Y1957D01*
X2438Y1957D01*
X2438Y1955D01*
X2434Y1955D01*
X2434Y1953D01*
X2432Y1953D01*
X2432Y1951D01*
X2428Y1951D01*
X2428Y1949D01*
X2424Y1949D01*
X2424Y1947D01*
X2416Y1947D01*
X2416Y1945D01*
X2488Y1945D01*
X2488Y1947D01*
X2482Y1947D01*
X2482Y1949D01*
X2476Y1949D01*
X2476Y1951D01*
X2474Y1951D01*
X2474Y1953D01*
X2470Y1953D01*
X2470Y1955D01*
X2468Y1955D01*
X2468Y1957D01*
X2464Y1957D01*
X2464Y1959D01*
X2462Y1959D01*
X2462Y1961D01*
X2442Y1961D01*
G37*
D02*
G36*
X2338Y1945D02*
X2338Y1943D01*
X2564Y1943D01*
X2564Y1945D01*
X2338Y1945D01*
G37*
D02*
G36*
X2338Y1945D02*
X2338Y1943D01*
X2564Y1943D01*
X2564Y1945D01*
X2338Y1945D01*
G37*
D02*
G36*
X2338Y1945D02*
X2338Y1943D01*
X2564Y1943D01*
X2564Y1945D01*
X2338Y1945D01*
G37*
D02*
G36*
X2338Y1943D02*
X2338Y1907D01*
X2340Y1907D01*
X2340Y1903D01*
X2342Y1903D01*
X2342Y1899D01*
X2344Y1899D01*
X2344Y1895D01*
X2346Y1895D01*
X2346Y1891D01*
X2348Y1891D01*
X2348Y1887D01*
X2350Y1887D01*
X2350Y1883D01*
X2352Y1883D01*
X2352Y1879D01*
X2354Y1879D01*
X2354Y1875D01*
X2356Y1875D01*
X2356Y1871D01*
X2358Y1871D01*
X2358Y1867D01*
X2360Y1867D01*
X2360Y1863D01*
X2362Y1863D01*
X2362Y1859D01*
X2364Y1859D01*
X2364Y1855D01*
X2366Y1855D01*
X2366Y1851D01*
X2368Y1851D01*
X2368Y1847D01*
X2370Y1847D01*
X2370Y1843D01*
X2372Y1843D01*
X2372Y1839D01*
X2374Y1839D01*
X2374Y1835D01*
X2376Y1835D01*
X2376Y1831D01*
X2378Y1831D01*
X2378Y1827D01*
X2380Y1827D01*
X2380Y1823D01*
X2382Y1823D01*
X2382Y1819D01*
X2384Y1819D01*
X2384Y1817D01*
X2518Y1817D01*
X2518Y1687D01*
X2388Y1687D01*
X2388Y1563D01*
X2564Y1563D01*
X2564Y1943D01*
X2338Y1943D01*
G37*
D02*
G36*
X1686Y2059D02*
X1686Y2039D01*
X1688Y2039D01*
X1688Y2037D01*
X1690Y2037D01*
X1690Y2033D01*
X1692Y2033D01*
X1692Y2029D01*
X1694Y2029D01*
X1694Y2027D01*
X1696Y2027D01*
X1696Y2021D01*
X1698Y2021D01*
X1698Y2013D01*
X1700Y2013D01*
X1700Y1991D01*
X1698Y1991D01*
X1698Y1983D01*
X1696Y1983D01*
X1696Y1979D01*
X1694Y1979D01*
X1694Y1975D01*
X1692Y1975D01*
X1692Y1971D01*
X1690Y1971D01*
X1690Y1969D01*
X1688Y1969D01*
X1688Y1965D01*
X1686Y1965D01*
X1686Y1963D01*
X1684Y1963D01*
X1684Y1961D01*
X1682Y1961D01*
X1682Y1959D01*
X1680Y1959D01*
X1680Y1957D01*
X1676Y1957D01*
X1676Y1955D01*
X1674Y1955D01*
X1674Y1953D01*
X1672Y1953D01*
X1672Y1951D01*
X1668Y1951D01*
X1668Y1949D01*
X1664Y1949D01*
X1664Y1947D01*
X1656Y1947D01*
X1656Y1945D01*
X1788Y1945D01*
X1788Y1947D01*
X1782Y1947D01*
X1782Y1949D01*
X1776Y1949D01*
X1776Y1951D01*
X1774Y1951D01*
X1774Y1953D01*
X1770Y1953D01*
X1770Y1955D01*
X1768Y1955D01*
X1768Y1957D01*
X1764Y1957D01*
X1764Y1959D01*
X1762Y1959D01*
X1762Y1961D01*
X1760Y1961D01*
X1760Y1963D01*
X1758Y1963D01*
X1758Y1967D01*
X1756Y1967D01*
X1756Y1969D01*
X1754Y1969D01*
X1754Y1971D01*
X1752Y1971D01*
X1752Y1975D01*
X1750Y1975D01*
X1750Y1979D01*
X1748Y1979D01*
X1748Y1985D01*
X1746Y1985D01*
X1746Y1993D01*
X1744Y1993D01*
X1744Y2011D01*
X1746Y2011D01*
X1746Y2021D01*
X1748Y2021D01*
X1748Y2025D01*
X1750Y2025D01*
X1750Y2029D01*
X1752Y2029D01*
X1752Y2033D01*
X1754Y2033D01*
X1754Y2035D01*
X1756Y2035D01*
X1756Y2039D01*
X1758Y2039D01*
X1758Y2059D01*
X1686Y2059D01*
G37*
D02*
G36*
X1282Y1961D02*
X1282Y1959D01*
X1280Y1959D01*
X1280Y1957D01*
X1278Y1957D01*
X1278Y1955D01*
X1274Y1955D01*
X1274Y1953D01*
X1272Y1953D01*
X1272Y1951D01*
X1268Y1951D01*
X1268Y1949D01*
X1264Y1949D01*
X1264Y1947D01*
X1256Y1947D01*
X1256Y1945D01*
X1328Y1945D01*
X1328Y1947D01*
X1322Y1947D01*
X1322Y1949D01*
X1316Y1949D01*
X1316Y1951D01*
X1314Y1951D01*
X1314Y1953D01*
X1310Y1953D01*
X1310Y1955D01*
X1308Y1955D01*
X1308Y1957D01*
X1304Y1957D01*
X1304Y1959D01*
X1302Y1959D01*
X1302Y1961D01*
X1282Y1961D01*
G37*
D02*
G36*
X1382Y1961D02*
X1382Y1959D01*
X1380Y1959D01*
X1380Y1957D01*
X1378Y1957D01*
X1378Y1955D01*
X1374Y1955D01*
X1374Y1953D01*
X1372Y1953D01*
X1372Y1951D01*
X1368Y1951D01*
X1368Y1949D01*
X1364Y1949D01*
X1364Y1947D01*
X1356Y1947D01*
X1356Y1945D01*
X1428Y1945D01*
X1428Y1947D01*
X1422Y1947D01*
X1422Y1949D01*
X1416Y1949D01*
X1416Y1951D01*
X1414Y1951D01*
X1414Y1953D01*
X1410Y1953D01*
X1410Y1955D01*
X1408Y1955D01*
X1408Y1957D01*
X1404Y1957D01*
X1404Y1959D01*
X1402Y1959D01*
X1402Y1961D01*
X1382Y1961D01*
G37*
D02*
G36*
X1482Y1961D02*
X1482Y1959D01*
X1480Y1959D01*
X1480Y1957D01*
X1478Y1957D01*
X1478Y1955D01*
X1474Y1955D01*
X1474Y1953D01*
X1472Y1953D01*
X1472Y1951D01*
X1468Y1951D01*
X1468Y1949D01*
X1464Y1949D01*
X1464Y1947D01*
X1456Y1947D01*
X1456Y1945D01*
X1528Y1945D01*
X1528Y1947D01*
X1522Y1947D01*
X1522Y1949D01*
X1516Y1949D01*
X1516Y1951D01*
X1514Y1951D01*
X1514Y1953D01*
X1510Y1953D01*
X1510Y1955D01*
X1508Y1955D01*
X1508Y1957D01*
X1504Y1957D01*
X1504Y1959D01*
X1502Y1959D01*
X1502Y1961D01*
X1482Y1961D01*
G37*
D02*
G36*
X1582Y1961D02*
X1582Y1959D01*
X1580Y1959D01*
X1580Y1957D01*
X1578Y1957D01*
X1578Y1955D01*
X1574Y1955D01*
X1574Y1953D01*
X1572Y1953D01*
X1572Y1951D01*
X1568Y1951D01*
X1568Y1949D01*
X1564Y1949D01*
X1564Y1947D01*
X1556Y1947D01*
X1556Y1945D01*
X1628Y1945D01*
X1628Y1947D01*
X1622Y1947D01*
X1622Y1949D01*
X1616Y1949D01*
X1616Y1951D01*
X1612Y1951D01*
X1612Y1953D01*
X1610Y1953D01*
X1610Y1955D01*
X1608Y1955D01*
X1608Y1957D01*
X1604Y1957D01*
X1604Y1959D01*
X1602Y1959D01*
X1602Y1961D01*
X1582Y1961D01*
G37*
D02*
G36*
X1842Y1961D02*
X1842Y1959D01*
X1840Y1959D01*
X1840Y1957D01*
X1838Y1957D01*
X1838Y1955D01*
X1834Y1955D01*
X1834Y1953D01*
X1832Y1953D01*
X1832Y1951D01*
X1828Y1951D01*
X1828Y1949D01*
X1824Y1949D01*
X1824Y1947D01*
X1816Y1947D01*
X1816Y1945D01*
X1888Y1945D01*
X1888Y1947D01*
X1882Y1947D01*
X1882Y1949D01*
X1876Y1949D01*
X1876Y1951D01*
X1874Y1951D01*
X1874Y1953D01*
X1870Y1953D01*
X1870Y1955D01*
X1868Y1955D01*
X1868Y1957D01*
X1864Y1957D01*
X1864Y1959D01*
X1862Y1959D01*
X1862Y1961D01*
X1842Y1961D01*
G37*
D02*
G36*
X1942Y1961D02*
X1942Y1959D01*
X1940Y1959D01*
X1940Y1957D01*
X1938Y1957D01*
X1938Y1955D01*
X1934Y1955D01*
X1934Y1953D01*
X1932Y1953D01*
X1932Y1951D01*
X1928Y1951D01*
X1928Y1949D01*
X1924Y1949D01*
X1924Y1947D01*
X1916Y1947D01*
X1916Y1945D01*
X1988Y1945D01*
X1988Y1947D01*
X1982Y1947D01*
X1982Y1949D01*
X1976Y1949D01*
X1976Y1951D01*
X1974Y1951D01*
X1974Y1953D01*
X1970Y1953D01*
X1970Y1955D01*
X1968Y1955D01*
X1968Y1957D01*
X1964Y1957D01*
X1964Y1959D01*
X1962Y1959D01*
X1962Y1961D01*
X1942Y1961D01*
G37*
D02*
G36*
X2042Y1961D02*
X2042Y1959D01*
X2040Y1959D01*
X2040Y1957D01*
X2038Y1957D01*
X2038Y1955D01*
X2034Y1955D01*
X2034Y1953D01*
X2032Y1953D01*
X2032Y1951D01*
X2028Y1951D01*
X2028Y1949D01*
X2024Y1949D01*
X2024Y1947D01*
X2016Y1947D01*
X2016Y1945D01*
X2088Y1945D01*
X2088Y1947D01*
X2082Y1947D01*
X2082Y1949D01*
X2076Y1949D01*
X2076Y1951D01*
X2074Y1951D01*
X2074Y1953D01*
X2070Y1953D01*
X2070Y1955D01*
X2068Y1955D01*
X2068Y1957D01*
X2064Y1957D01*
X2064Y1959D01*
X2062Y1959D01*
X2062Y1961D01*
X2042Y1961D01*
G37*
D02*
G36*
X2142Y1961D02*
X2142Y1959D01*
X2140Y1959D01*
X2140Y1957D01*
X2138Y1957D01*
X2138Y1955D01*
X2134Y1955D01*
X2134Y1953D01*
X2132Y1953D01*
X2132Y1951D01*
X2128Y1951D01*
X2128Y1949D01*
X2124Y1949D01*
X2124Y1947D01*
X2116Y1947D01*
X2116Y1945D01*
X2188Y1945D01*
X2188Y1947D01*
X2182Y1947D01*
X2182Y1949D01*
X2176Y1949D01*
X2176Y1951D01*
X2172Y1951D01*
X2172Y1953D01*
X2170Y1953D01*
X2170Y1955D01*
X2168Y1955D01*
X2168Y1957D01*
X2164Y1957D01*
X2164Y1959D01*
X2162Y1959D01*
X2162Y1961D01*
X2142Y1961D01*
G37*
D02*
G36*
X2242Y1961D02*
X2242Y1959D01*
X2240Y1959D01*
X2240Y1957D01*
X2236Y1957D01*
X2236Y1955D01*
X2234Y1955D01*
X2234Y1953D01*
X2232Y1953D01*
X2232Y1951D01*
X2228Y1951D01*
X2228Y1949D01*
X2224Y1949D01*
X2224Y1947D01*
X2216Y1947D01*
X2216Y1945D01*
X2264Y1945D01*
X2264Y1959D01*
X2262Y1959D01*
X2262Y1961D01*
X2242Y1961D01*
G37*
D02*
G36*
X1184Y1959D02*
X1184Y1945D01*
X1228Y1945D01*
X1228Y1947D01*
X1222Y1947D01*
X1222Y1949D01*
X1216Y1949D01*
X1216Y1951D01*
X1214Y1951D01*
X1214Y1953D01*
X1210Y1953D01*
X1210Y1955D01*
X1208Y1955D01*
X1208Y1957D01*
X1204Y1957D01*
X1204Y1959D01*
X1184Y1959D01*
G37*
D02*
G36*
X1184Y1945D02*
X1184Y1943D01*
X2264Y1943D01*
X2264Y1945D01*
X1184Y1945D01*
G37*
D02*
G36*
X1184Y1945D02*
X1184Y1943D01*
X2264Y1943D01*
X2264Y1945D01*
X1184Y1945D01*
G37*
D02*
G36*
X1184Y1945D02*
X1184Y1943D01*
X2264Y1943D01*
X2264Y1945D01*
X1184Y1945D01*
G37*
D02*
G36*
X1184Y1945D02*
X1184Y1943D01*
X2264Y1943D01*
X2264Y1945D01*
X1184Y1945D01*
G37*
D02*
G36*
X1184Y1945D02*
X1184Y1943D01*
X2264Y1943D01*
X2264Y1945D01*
X1184Y1945D01*
G37*
D02*
G36*
X1184Y1945D02*
X1184Y1943D01*
X2264Y1943D01*
X2264Y1945D01*
X1184Y1945D01*
G37*
D02*
G36*
X1184Y1945D02*
X1184Y1943D01*
X2264Y1943D01*
X2264Y1945D01*
X1184Y1945D01*
G37*
D02*
G36*
X1184Y1945D02*
X1184Y1943D01*
X2264Y1943D01*
X2264Y1945D01*
X1184Y1945D01*
G37*
D02*
G36*
X1184Y1945D02*
X1184Y1943D01*
X2264Y1943D01*
X2264Y1945D01*
X1184Y1945D01*
G37*
D02*
G36*
X1184Y1945D02*
X1184Y1943D01*
X2264Y1943D01*
X2264Y1945D01*
X1184Y1945D01*
G37*
D02*
G36*
X1184Y1945D02*
X1184Y1943D01*
X2264Y1943D01*
X2264Y1945D01*
X1184Y1945D01*
G37*
D02*
G36*
X1184Y1943D02*
X1184Y1923D01*
X1186Y1923D01*
X1186Y1897D01*
X1188Y1897D01*
X1188Y1889D01*
X1660Y1889D01*
X1660Y1887D01*
X1666Y1887D01*
X1666Y1885D01*
X1670Y1885D01*
X1670Y1883D01*
X1672Y1883D01*
X1672Y1881D01*
X1674Y1881D01*
X1674Y1879D01*
X1678Y1879D01*
X1678Y1875D01*
X1680Y1875D01*
X1680Y1873D01*
X1682Y1873D01*
X1682Y1871D01*
X1684Y1871D01*
X1684Y1867D01*
X1686Y1867D01*
X1686Y1861D01*
X1688Y1861D01*
X1688Y1817D01*
X2264Y1817D01*
X2264Y1815D01*
X2272Y1815D01*
X2272Y1813D01*
X2278Y1813D01*
X2278Y1811D01*
X2282Y1811D01*
X2282Y1809D01*
X2284Y1809D01*
X2284Y1807D01*
X2306Y1807D01*
X2306Y1809D01*
X2304Y1809D01*
X2304Y1813D01*
X2302Y1813D01*
X2302Y1817D01*
X2300Y1817D01*
X2300Y1821D01*
X2298Y1821D01*
X2298Y1825D01*
X2296Y1825D01*
X2296Y1829D01*
X2294Y1829D01*
X2294Y1833D01*
X2292Y1833D01*
X2292Y1837D01*
X2290Y1837D01*
X2290Y1841D01*
X2288Y1841D01*
X2288Y1845D01*
X2286Y1845D01*
X2286Y1849D01*
X2284Y1849D01*
X2284Y1853D01*
X2282Y1853D01*
X2282Y1857D01*
X2280Y1857D01*
X2280Y1861D01*
X2278Y1861D01*
X2278Y1865D01*
X2276Y1865D01*
X2276Y1869D01*
X2274Y1869D01*
X2274Y1873D01*
X2272Y1873D01*
X2272Y1877D01*
X2270Y1877D01*
X2270Y1881D01*
X2268Y1881D01*
X2268Y1885D01*
X2266Y1885D01*
X2266Y1891D01*
X2264Y1891D01*
X2264Y1943D01*
X1184Y1943D01*
G37*
D02*
G36*
X1688Y1817D02*
X1688Y1687D01*
X1792Y1687D01*
X1792Y1689D01*
X1784Y1689D01*
X1784Y1691D01*
X1778Y1691D01*
X1778Y1693D01*
X1774Y1693D01*
X1774Y1695D01*
X1770Y1695D01*
X1770Y1697D01*
X1766Y1697D01*
X1766Y1699D01*
X1764Y1699D01*
X1764Y1701D01*
X1760Y1701D01*
X1760Y1703D01*
X1758Y1703D01*
X1758Y1705D01*
X1756Y1705D01*
X1756Y1707D01*
X1754Y1707D01*
X1754Y1709D01*
X1752Y1709D01*
X1752Y1713D01*
X1750Y1713D01*
X1750Y1715D01*
X1748Y1715D01*
X1748Y1719D01*
X1746Y1719D01*
X1746Y1721D01*
X1744Y1721D01*
X1744Y1725D01*
X1742Y1725D01*
X1742Y1731D01*
X1740Y1731D01*
X1740Y1737D01*
X1738Y1737D01*
X1738Y1767D01*
X1740Y1767D01*
X1740Y1773D01*
X1742Y1773D01*
X1742Y1779D01*
X1744Y1779D01*
X1744Y1783D01*
X1746Y1783D01*
X1746Y1787D01*
X1748Y1787D01*
X1748Y1789D01*
X1750Y1789D01*
X1750Y1791D01*
X1752Y1791D01*
X1752Y1795D01*
X1754Y1795D01*
X1754Y1797D01*
X1756Y1797D01*
X1756Y1799D01*
X1758Y1799D01*
X1758Y1801D01*
X1760Y1801D01*
X1760Y1803D01*
X1764Y1803D01*
X1764Y1805D01*
X1766Y1805D01*
X1766Y1807D01*
X1770Y1807D01*
X1770Y1809D01*
X1772Y1809D01*
X1772Y1811D01*
X1776Y1811D01*
X1776Y1813D01*
X1782Y1813D01*
X1782Y1815D01*
X1790Y1815D01*
X1790Y1817D01*
X1688Y1817D01*
G37*
D02*
G36*
X1814Y1817D02*
X1814Y1815D01*
X1822Y1815D01*
X1822Y1813D01*
X1828Y1813D01*
X1828Y1811D01*
X1832Y1811D01*
X1832Y1809D01*
X1834Y1809D01*
X1834Y1807D01*
X1838Y1807D01*
X1838Y1805D01*
X1840Y1805D01*
X1840Y1803D01*
X1844Y1803D01*
X1844Y1801D01*
X1846Y1801D01*
X1846Y1799D01*
X1848Y1799D01*
X1848Y1797D01*
X1850Y1797D01*
X1850Y1795D01*
X1852Y1795D01*
X1852Y1793D01*
X1854Y1793D01*
X1854Y1789D01*
X1856Y1789D01*
X1856Y1787D01*
X1858Y1787D01*
X1858Y1783D01*
X1860Y1783D01*
X1860Y1779D01*
X1862Y1779D01*
X1862Y1775D01*
X1864Y1775D01*
X1864Y1769D01*
X1866Y1769D01*
X1866Y1755D01*
X1868Y1755D01*
X1868Y1749D01*
X1866Y1749D01*
X1866Y1735D01*
X1864Y1735D01*
X1864Y1729D01*
X1862Y1729D01*
X1862Y1725D01*
X1860Y1725D01*
X1860Y1721D01*
X1858Y1721D01*
X1858Y1717D01*
X1856Y1717D01*
X1856Y1715D01*
X1854Y1715D01*
X1854Y1711D01*
X1852Y1711D01*
X1852Y1709D01*
X1850Y1709D01*
X1850Y1707D01*
X1848Y1707D01*
X1848Y1705D01*
X1846Y1705D01*
X1846Y1703D01*
X1844Y1703D01*
X1844Y1701D01*
X1840Y1701D01*
X1840Y1699D01*
X1838Y1699D01*
X1838Y1697D01*
X1834Y1697D01*
X1834Y1695D01*
X1832Y1695D01*
X1832Y1693D01*
X1826Y1693D01*
X1826Y1691D01*
X1822Y1691D01*
X1822Y1689D01*
X1812Y1689D01*
X1812Y1687D01*
X1938Y1687D01*
X1938Y1817D01*
X1814Y1817D01*
G37*
D02*
G36*
X2068Y1817D02*
X2068Y1687D01*
X2242Y1687D01*
X2242Y1689D01*
X2234Y1689D01*
X2234Y1691D01*
X2228Y1691D01*
X2228Y1693D01*
X2224Y1693D01*
X2224Y1695D01*
X2220Y1695D01*
X2220Y1697D01*
X2216Y1697D01*
X2216Y1699D01*
X2214Y1699D01*
X2214Y1701D01*
X2210Y1701D01*
X2210Y1703D01*
X2208Y1703D01*
X2208Y1705D01*
X2206Y1705D01*
X2206Y1707D01*
X2204Y1707D01*
X2204Y1709D01*
X2202Y1709D01*
X2202Y1713D01*
X2200Y1713D01*
X2200Y1715D01*
X2198Y1715D01*
X2198Y1719D01*
X2196Y1719D01*
X2196Y1721D01*
X2194Y1721D01*
X2194Y1725D01*
X2192Y1725D01*
X2192Y1731D01*
X2190Y1731D01*
X2190Y1737D01*
X2188Y1737D01*
X2188Y1767D01*
X2190Y1767D01*
X2190Y1773D01*
X2192Y1773D01*
X2192Y1779D01*
X2194Y1779D01*
X2194Y1783D01*
X2196Y1783D01*
X2196Y1787D01*
X2198Y1787D01*
X2198Y1789D01*
X2200Y1789D01*
X2200Y1791D01*
X2202Y1791D01*
X2202Y1795D01*
X2204Y1795D01*
X2204Y1797D01*
X2206Y1797D01*
X2206Y1799D01*
X2208Y1799D01*
X2208Y1801D01*
X2210Y1801D01*
X2210Y1803D01*
X2214Y1803D01*
X2214Y1805D01*
X2216Y1805D01*
X2216Y1807D01*
X2220Y1807D01*
X2220Y1809D01*
X2222Y1809D01*
X2222Y1811D01*
X2226Y1811D01*
X2226Y1813D01*
X2232Y1813D01*
X2232Y1815D01*
X2240Y1815D01*
X2240Y1817D01*
X2068Y1817D01*
G37*
D02*
G36*
X2294Y1703D02*
X2294Y1701D01*
X2290Y1701D01*
X2290Y1699D01*
X2288Y1699D01*
X2288Y1697D01*
X2284Y1697D01*
X2284Y1695D01*
X2282Y1695D01*
X2282Y1693D01*
X2276Y1693D01*
X2276Y1691D01*
X2272Y1691D01*
X2272Y1689D01*
X2262Y1689D01*
X2262Y1687D01*
X2314Y1687D01*
X2314Y1703D01*
X2294Y1703D01*
G37*
D02*
G36*
X1688Y1687D02*
X1688Y1685D01*
X1964Y1685D01*
X1964Y1687D01*
X1688Y1687D01*
G37*
D02*
G36*
X1688Y1687D02*
X1688Y1685D01*
X1964Y1685D01*
X1964Y1687D01*
X1688Y1687D01*
G37*
D02*
G36*
X2038Y1687D02*
X2038Y1685D01*
X2314Y1685D01*
X2314Y1687D01*
X2038Y1687D01*
G37*
D02*
G36*
X2038Y1687D02*
X2038Y1685D01*
X2314Y1685D01*
X2314Y1687D01*
X2038Y1687D01*
G37*
D02*
G36*
X1688Y1685D02*
X1688Y1647D01*
X1806Y1647D01*
X1806Y1645D01*
X1816Y1645D01*
X1816Y1643D01*
X1820Y1643D01*
X1820Y1641D01*
X1824Y1641D01*
X1824Y1639D01*
X1828Y1639D01*
X1828Y1637D01*
X1830Y1637D01*
X1830Y1635D01*
X1832Y1635D01*
X1832Y1633D01*
X1834Y1633D01*
X1834Y1631D01*
X1836Y1631D01*
X1836Y1629D01*
X1838Y1629D01*
X1838Y1625D01*
X1840Y1625D01*
X1840Y1623D01*
X1842Y1623D01*
X1842Y1619D01*
X1844Y1619D01*
X1844Y1611D01*
X1846Y1611D01*
X1846Y1591D01*
X1844Y1591D01*
X1844Y1585D01*
X1842Y1585D01*
X1842Y1563D01*
X1962Y1563D01*
X1962Y1583D01*
X1960Y1583D01*
X1960Y1589D01*
X1958Y1589D01*
X1958Y1601D01*
X1956Y1601D01*
X1956Y1603D01*
X1958Y1603D01*
X1958Y1615D01*
X1960Y1615D01*
X1960Y1621D01*
X1962Y1621D01*
X1962Y1623D01*
X1964Y1623D01*
X1964Y1685D01*
X1688Y1685D01*
G37*
D02*
G36*
X2038Y1685D02*
X2038Y1625D01*
X2040Y1625D01*
X2040Y1623D01*
X2042Y1623D01*
X2042Y1619D01*
X2044Y1619D01*
X2044Y1611D01*
X2046Y1611D01*
X2046Y1591D01*
X2044Y1591D01*
X2044Y1585D01*
X2042Y1585D01*
X2042Y1563D01*
X2096Y1563D01*
X2096Y1341D01*
X2094Y1341D01*
X2094Y1339D01*
X2130Y1339D01*
X2130Y1341D01*
X2132Y1341D01*
X2132Y1343D01*
X2138Y1343D01*
X2138Y1345D01*
X2146Y1345D01*
X2146Y1347D01*
X2158Y1347D01*
X2158Y1563D01*
X2314Y1563D01*
X2314Y1685D01*
X2038Y1685D01*
G37*
D02*
G36*
X1688Y1647D02*
X1688Y1339D01*
X1708Y1339D01*
X1708Y1563D01*
X1762Y1563D01*
X1762Y1583D01*
X1760Y1583D01*
X1760Y1589D01*
X1758Y1589D01*
X1758Y1601D01*
X1756Y1601D01*
X1756Y1603D01*
X1758Y1603D01*
X1758Y1615D01*
X1760Y1615D01*
X1760Y1621D01*
X1762Y1621D01*
X1762Y1623D01*
X1764Y1623D01*
X1764Y1627D01*
X1766Y1627D01*
X1766Y1629D01*
X1768Y1629D01*
X1768Y1633D01*
X1770Y1633D01*
X1770Y1635D01*
X1774Y1635D01*
X1774Y1637D01*
X1776Y1637D01*
X1776Y1639D01*
X1780Y1639D01*
X1780Y1641D01*
X1782Y1641D01*
X1782Y1643D01*
X1788Y1643D01*
X1788Y1645D01*
X1796Y1645D01*
X1796Y1647D01*
X1688Y1647D01*
G37*
D02*
G36*
X1688Y1339D02*
X1688Y1337D01*
X2126Y1337D01*
X2126Y1339D01*
X1688Y1339D01*
G37*
D02*
G36*
X1688Y1339D02*
X1688Y1337D01*
X2126Y1337D01*
X2126Y1339D01*
X1688Y1339D01*
G37*
D02*
G36*
X1688Y1337D02*
X1688Y1321D01*
X1690Y1321D01*
X1690Y1319D01*
X1692Y1319D01*
X1692Y1317D01*
X1696Y1317D01*
X1696Y1315D01*
X1698Y1315D01*
X1698Y1313D01*
X1702Y1313D01*
X1702Y1311D01*
X1704Y1311D01*
X1704Y1309D01*
X1708Y1309D01*
X1708Y1307D01*
X1710Y1307D01*
X1710Y1305D01*
X1714Y1305D01*
X1714Y1303D01*
X1716Y1303D01*
X1716Y1301D01*
X1720Y1301D01*
X1720Y1299D01*
X1722Y1299D01*
X1722Y1297D01*
X1726Y1297D01*
X1726Y1295D01*
X1728Y1295D01*
X1728Y1293D01*
X1732Y1293D01*
X1732Y1291D01*
X1734Y1291D01*
X1734Y1289D01*
X1738Y1289D01*
X1738Y1287D01*
X1740Y1287D01*
X1740Y1285D01*
X1744Y1285D01*
X1744Y1283D01*
X1746Y1283D01*
X1746Y1281D01*
X1750Y1281D01*
X1750Y1279D01*
X1752Y1279D01*
X1752Y1277D01*
X1756Y1277D01*
X1756Y1275D01*
X1758Y1275D01*
X1758Y1273D01*
X1762Y1273D01*
X1762Y1271D01*
X1764Y1271D01*
X1764Y1269D01*
X1768Y1269D01*
X1768Y1267D01*
X1770Y1267D01*
X1770Y1265D01*
X1774Y1265D01*
X1774Y1263D01*
X1776Y1263D01*
X1776Y1261D01*
X1780Y1261D01*
X1780Y1259D01*
X1782Y1259D01*
X1782Y1257D01*
X1786Y1257D01*
X1786Y1255D01*
X1788Y1255D01*
X1788Y1253D01*
X1792Y1253D01*
X1792Y1251D01*
X1794Y1251D01*
X1794Y1249D01*
X1798Y1249D01*
X1798Y1247D01*
X1800Y1247D01*
X1800Y1245D01*
X1804Y1245D01*
X1804Y1243D01*
X1806Y1243D01*
X1806Y1241D01*
X1810Y1241D01*
X1810Y1239D01*
X1812Y1239D01*
X1812Y1237D01*
X1816Y1237D01*
X1816Y1235D01*
X1818Y1235D01*
X1818Y1233D01*
X1822Y1233D01*
X1822Y1231D01*
X1824Y1231D01*
X1824Y1229D01*
X1826Y1229D01*
X1826Y1227D01*
X1828Y1227D01*
X1828Y1225D01*
X1830Y1225D01*
X1830Y1223D01*
X1832Y1223D01*
X1832Y1219D01*
X1834Y1219D01*
X1834Y1215D01*
X1836Y1215D01*
X1836Y1211D01*
X1838Y1211D01*
X1838Y1209D01*
X1840Y1209D01*
X1840Y1205D01*
X1842Y1205D01*
X1842Y1201D01*
X1844Y1201D01*
X1844Y1197D01*
X1846Y1197D01*
X1846Y1193D01*
X1848Y1193D01*
X1848Y1189D01*
X1850Y1189D01*
X1850Y1185D01*
X1852Y1185D01*
X1852Y1181D01*
X1854Y1181D01*
X1854Y1177D01*
X1856Y1177D01*
X1856Y1173D01*
X1858Y1173D01*
X1858Y1171D01*
X1860Y1171D01*
X1860Y1167D01*
X1862Y1167D01*
X1862Y1163D01*
X1864Y1163D01*
X1864Y1159D01*
X1866Y1159D01*
X1866Y1155D01*
X1868Y1155D01*
X1868Y1151D01*
X1870Y1151D01*
X1870Y1147D01*
X1872Y1147D01*
X1872Y1143D01*
X1874Y1143D01*
X1874Y1139D01*
X1876Y1139D01*
X1876Y1135D01*
X1878Y1135D01*
X1878Y1131D01*
X1880Y1131D01*
X1880Y1129D01*
X1882Y1129D01*
X1882Y1125D01*
X1884Y1125D01*
X1884Y1121D01*
X1886Y1121D01*
X1886Y1117D01*
X1888Y1117D01*
X1888Y1109D01*
X1890Y1109D01*
X1890Y1033D01*
X2114Y1033D01*
X2114Y1279D01*
X2112Y1279D01*
X2112Y1283D01*
X2110Y1283D01*
X2110Y1289D01*
X2108Y1289D01*
X2108Y1301D01*
X2106Y1301D01*
X2106Y1303D01*
X2108Y1303D01*
X2108Y1315D01*
X2110Y1315D01*
X2110Y1321D01*
X2112Y1321D01*
X2112Y1323D01*
X2114Y1323D01*
X2114Y1327D01*
X2116Y1327D01*
X2116Y1329D01*
X2118Y1329D01*
X2118Y1333D01*
X2120Y1333D01*
X2120Y1335D01*
X2124Y1335D01*
X2124Y1337D01*
X1688Y1337D01*
G37*
D02*
G36*
X1386Y1339D02*
X1386Y1319D01*
X1388Y1319D01*
X1388Y1317D01*
X1390Y1317D01*
X1390Y1315D01*
X1392Y1315D01*
X1392Y1313D01*
X1394Y1313D01*
X1394Y1311D01*
X1396Y1311D01*
X1396Y1309D01*
X1398Y1309D01*
X1398Y1307D01*
X1400Y1307D01*
X1400Y1305D01*
X1402Y1305D01*
X1402Y1303D01*
X1404Y1303D01*
X1404Y1301D01*
X1406Y1301D01*
X1406Y1299D01*
X1408Y1299D01*
X1408Y1297D01*
X1410Y1297D01*
X1410Y1295D01*
X1412Y1295D01*
X1412Y1293D01*
X1414Y1293D01*
X1414Y1291D01*
X1416Y1291D01*
X1416Y1289D01*
X1418Y1289D01*
X1418Y1287D01*
X1420Y1287D01*
X1420Y1285D01*
X1422Y1285D01*
X1422Y1283D01*
X1424Y1283D01*
X1424Y1281D01*
X1426Y1281D01*
X1426Y1279D01*
X1428Y1279D01*
X1428Y1277D01*
X1430Y1277D01*
X1430Y1275D01*
X1432Y1275D01*
X1432Y1273D01*
X1434Y1273D01*
X1434Y1269D01*
X1436Y1269D01*
X1436Y1265D01*
X1438Y1265D01*
X1438Y1259D01*
X1440Y1259D01*
X1440Y1215D01*
X1564Y1215D01*
X1564Y1185D01*
X1584Y1185D01*
X1584Y1187D01*
X1586Y1187D01*
X1586Y1189D01*
X1588Y1189D01*
X1588Y1191D01*
X1590Y1191D01*
X1590Y1193D01*
X1592Y1193D01*
X1592Y1195D01*
X1594Y1195D01*
X1594Y1197D01*
X1596Y1197D01*
X1596Y1199D01*
X1598Y1199D01*
X1598Y1201D01*
X1600Y1201D01*
X1600Y1203D01*
X1602Y1203D01*
X1602Y1205D01*
X1604Y1205D01*
X1604Y1207D01*
X1606Y1207D01*
X1606Y1209D01*
X1608Y1209D01*
X1608Y1211D01*
X1610Y1211D01*
X1610Y1213D01*
X1612Y1213D01*
X1612Y1215D01*
X1614Y1215D01*
X1614Y1217D01*
X1616Y1217D01*
X1616Y1219D01*
X1618Y1219D01*
X1618Y1221D01*
X1620Y1221D01*
X1620Y1223D01*
X1622Y1223D01*
X1622Y1225D01*
X1624Y1225D01*
X1624Y1227D01*
X1626Y1227D01*
X1626Y1229D01*
X1628Y1229D01*
X1628Y1231D01*
X1630Y1231D01*
X1630Y1233D01*
X1634Y1233D01*
X1634Y1235D01*
X1638Y1235D01*
X1638Y1237D01*
X1646Y1237D01*
X1646Y1239D01*
X1650Y1239D01*
X1650Y1259D01*
X1646Y1259D01*
X1646Y1261D01*
X1644Y1261D01*
X1644Y1263D01*
X1640Y1263D01*
X1640Y1265D01*
X1638Y1265D01*
X1638Y1267D01*
X1634Y1267D01*
X1634Y1269D01*
X1632Y1269D01*
X1632Y1271D01*
X1628Y1271D01*
X1628Y1273D01*
X1626Y1273D01*
X1626Y1275D01*
X1624Y1275D01*
X1624Y1277D01*
X1622Y1277D01*
X1622Y1279D01*
X1620Y1279D01*
X1620Y1283D01*
X1618Y1283D01*
X1618Y1287D01*
X1616Y1287D01*
X1616Y1295D01*
X1614Y1295D01*
X1614Y1339D01*
X1386Y1339D01*
G37*
D02*
G36*
X76Y2059D02*
X76Y2057D01*
X70Y2057D01*
X70Y2055D01*
X68Y2055D01*
X68Y2053D01*
X64Y2053D01*
X64Y2051D01*
X62Y2051D01*
X62Y2049D01*
X60Y2049D01*
X60Y2047D01*
X58Y2047D01*
X58Y2043D01*
X56Y2043D01*
X56Y2041D01*
X54Y2041D01*
X54Y2035D01*
X52Y2035D01*
X52Y1945D01*
X728Y1945D01*
X728Y1947D01*
X722Y1947D01*
X722Y1949D01*
X716Y1949D01*
X716Y1951D01*
X712Y1951D01*
X712Y1953D01*
X710Y1953D01*
X710Y1955D01*
X708Y1955D01*
X708Y1957D01*
X704Y1957D01*
X704Y1959D01*
X702Y1959D01*
X702Y1961D01*
X700Y1961D01*
X700Y1963D01*
X698Y1963D01*
X698Y1967D01*
X696Y1967D01*
X696Y1969D01*
X694Y1969D01*
X694Y1971D01*
X692Y1971D01*
X692Y1975D01*
X690Y1975D01*
X690Y1979D01*
X688Y1979D01*
X688Y1983D01*
X686Y1983D01*
X686Y1993D01*
X684Y1993D01*
X684Y2011D01*
X686Y2011D01*
X686Y2021D01*
X688Y2021D01*
X688Y2025D01*
X690Y2025D01*
X690Y2029D01*
X692Y2029D01*
X692Y2033D01*
X694Y2033D01*
X694Y2035D01*
X696Y2035D01*
X696Y2039D01*
X698Y2039D01*
X698Y2059D01*
X76Y2059D01*
G37*
D02*
G36*
X782Y1961D02*
X782Y1959D01*
X780Y1959D01*
X780Y1957D01*
X776Y1957D01*
X776Y1955D01*
X774Y1955D01*
X774Y1953D01*
X772Y1953D01*
X772Y1951D01*
X768Y1951D01*
X768Y1949D01*
X764Y1949D01*
X764Y1947D01*
X756Y1947D01*
X756Y1945D01*
X828Y1945D01*
X828Y1947D01*
X822Y1947D01*
X822Y1949D01*
X816Y1949D01*
X816Y1951D01*
X814Y1951D01*
X814Y1953D01*
X810Y1953D01*
X810Y1955D01*
X808Y1955D01*
X808Y1957D01*
X804Y1957D01*
X804Y1959D01*
X802Y1959D01*
X802Y1961D01*
X782Y1961D01*
G37*
D02*
G36*
X882Y1961D02*
X882Y1959D01*
X880Y1959D01*
X880Y1957D01*
X878Y1957D01*
X878Y1955D01*
X874Y1955D01*
X874Y1953D01*
X872Y1953D01*
X872Y1951D01*
X868Y1951D01*
X868Y1949D01*
X864Y1949D01*
X864Y1947D01*
X856Y1947D01*
X856Y1945D01*
X928Y1945D01*
X928Y1947D01*
X922Y1947D01*
X922Y1949D01*
X916Y1949D01*
X916Y1951D01*
X914Y1951D01*
X914Y1953D01*
X910Y1953D01*
X910Y1955D01*
X908Y1955D01*
X908Y1957D01*
X904Y1957D01*
X904Y1959D01*
X902Y1959D01*
X902Y1961D01*
X882Y1961D01*
G37*
D02*
G36*
X982Y1961D02*
X982Y1959D01*
X980Y1959D01*
X980Y1957D01*
X978Y1957D01*
X978Y1955D01*
X974Y1955D01*
X974Y1953D01*
X972Y1953D01*
X972Y1951D01*
X968Y1951D01*
X968Y1949D01*
X964Y1949D01*
X964Y1947D01*
X956Y1947D01*
X956Y1945D01*
X1028Y1945D01*
X1028Y1947D01*
X1022Y1947D01*
X1022Y1949D01*
X1016Y1949D01*
X1016Y1951D01*
X1014Y1951D01*
X1014Y1953D01*
X1010Y1953D01*
X1010Y1955D01*
X1008Y1955D01*
X1008Y1957D01*
X1004Y1957D01*
X1004Y1959D01*
X1002Y1959D01*
X1002Y1961D01*
X982Y1961D01*
G37*
D02*
G36*
X1082Y1961D02*
X1082Y1959D01*
X1080Y1959D01*
X1080Y1957D01*
X1078Y1957D01*
X1078Y1955D01*
X1074Y1955D01*
X1074Y1953D01*
X1072Y1953D01*
X1072Y1951D01*
X1068Y1951D01*
X1068Y1949D01*
X1064Y1949D01*
X1064Y1947D01*
X1056Y1947D01*
X1056Y1945D01*
X1110Y1945D01*
X1110Y1947D01*
X1108Y1947D01*
X1108Y1957D01*
X1104Y1957D01*
X1104Y1959D01*
X1102Y1959D01*
X1102Y1961D01*
X1082Y1961D01*
G37*
D02*
G36*
X52Y1945D02*
X52Y1943D01*
X1110Y1943D01*
X1110Y1945D01*
X52Y1945D01*
G37*
D02*
G36*
X52Y1945D02*
X52Y1943D01*
X1110Y1943D01*
X1110Y1945D01*
X52Y1945D01*
G37*
D02*
G36*
X52Y1945D02*
X52Y1943D01*
X1110Y1943D01*
X1110Y1945D01*
X52Y1945D01*
G37*
D02*
G36*
X52Y1945D02*
X52Y1943D01*
X1110Y1943D01*
X1110Y1945D01*
X52Y1945D01*
G37*
D02*
G36*
X52Y1945D02*
X52Y1943D01*
X1110Y1943D01*
X1110Y1945D01*
X52Y1945D01*
G37*
D02*
G36*
X52Y1943D02*
X52Y1917D01*
X466Y1917D01*
X466Y1787D01*
X1146Y1787D01*
X1146Y1789D01*
X1300Y1789D01*
X1300Y1793D01*
X1302Y1793D01*
X1302Y1795D01*
X1304Y1795D01*
X1304Y1815D01*
X1150Y1815D01*
X1150Y1817D01*
X1140Y1817D01*
X1140Y1819D01*
X1136Y1819D01*
X1136Y1821D01*
X1132Y1821D01*
X1132Y1823D01*
X1130Y1823D01*
X1130Y1825D01*
X1128Y1825D01*
X1128Y1827D01*
X1126Y1827D01*
X1126Y1829D01*
X1124Y1829D01*
X1124Y1831D01*
X1122Y1831D01*
X1122Y1835D01*
X1120Y1835D01*
X1120Y1839D01*
X1118Y1839D01*
X1118Y1845D01*
X1116Y1845D01*
X1116Y1865D01*
X1114Y1865D01*
X1114Y1893D01*
X1112Y1893D01*
X1112Y1921D01*
X1110Y1921D01*
X1110Y1943D01*
X52Y1943D01*
G37*
D02*
G36*
X52Y1917D02*
X52Y1401D01*
X106Y1401D01*
X106Y1403D01*
X108Y1403D01*
X108Y1415D01*
X110Y1415D01*
X110Y1439D01*
X108Y1439D01*
X108Y1663D01*
X162Y1663D01*
X162Y1683D01*
X160Y1683D01*
X160Y1689D01*
X158Y1689D01*
X158Y1701D01*
X156Y1701D01*
X156Y1703D01*
X158Y1703D01*
X158Y1715D01*
X160Y1715D01*
X160Y1803D01*
X158Y1803D01*
X158Y1805D01*
X156Y1805D01*
X156Y1807D01*
X154Y1807D01*
X154Y1809D01*
X152Y1809D01*
X152Y1811D01*
X150Y1811D01*
X150Y1813D01*
X148Y1813D01*
X148Y1817D01*
X146Y1817D01*
X146Y1821D01*
X144Y1821D01*
X144Y1823D01*
X142Y1823D01*
X142Y1829D01*
X140Y1829D01*
X140Y1835D01*
X138Y1835D01*
X138Y1845D01*
X136Y1845D01*
X136Y1859D01*
X138Y1859D01*
X138Y1869D01*
X140Y1869D01*
X140Y1875D01*
X142Y1875D01*
X142Y1879D01*
X144Y1879D01*
X144Y1883D01*
X146Y1883D01*
X146Y1887D01*
X148Y1887D01*
X148Y1889D01*
X150Y1889D01*
X150Y1893D01*
X152Y1893D01*
X152Y1895D01*
X154Y1895D01*
X154Y1897D01*
X156Y1897D01*
X156Y1899D01*
X158Y1899D01*
X158Y1901D01*
X160Y1901D01*
X160Y1903D01*
X164Y1903D01*
X164Y1905D01*
X166Y1905D01*
X166Y1907D01*
X170Y1907D01*
X170Y1909D01*
X174Y1909D01*
X174Y1911D01*
X178Y1911D01*
X178Y1913D01*
X184Y1913D01*
X184Y1915D01*
X192Y1915D01*
X192Y1917D01*
X52Y1917D01*
G37*
D02*
G36*
X210Y1917D02*
X210Y1915D01*
X220Y1915D01*
X220Y1913D01*
X226Y1913D01*
X226Y1911D01*
X230Y1911D01*
X230Y1909D01*
X234Y1909D01*
X234Y1907D01*
X238Y1907D01*
X238Y1905D01*
X240Y1905D01*
X240Y1903D01*
X242Y1903D01*
X242Y1901D01*
X244Y1901D01*
X244Y1899D01*
X248Y1899D01*
X248Y1897D01*
X250Y1897D01*
X250Y1893D01*
X252Y1893D01*
X252Y1891D01*
X254Y1891D01*
X254Y1889D01*
X256Y1889D01*
X256Y1885D01*
X258Y1885D01*
X258Y1883D01*
X260Y1883D01*
X260Y1879D01*
X262Y1879D01*
X262Y1873D01*
X264Y1873D01*
X264Y1865D01*
X266Y1865D01*
X266Y1837D01*
X264Y1837D01*
X264Y1831D01*
X262Y1831D01*
X262Y1825D01*
X260Y1825D01*
X260Y1821D01*
X258Y1821D01*
X258Y1819D01*
X256Y1819D01*
X256Y1815D01*
X254Y1815D01*
X254Y1813D01*
X252Y1813D01*
X252Y1809D01*
X250Y1809D01*
X250Y1807D01*
X248Y1807D01*
X248Y1805D01*
X246Y1805D01*
X246Y1803D01*
X244Y1803D01*
X244Y1801D01*
X242Y1801D01*
X242Y1787D01*
X336Y1787D01*
X336Y1917D01*
X210Y1917D01*
G37*
D02*
G36*
X242Y1787D02*
X242Y1785D01*
X1138Y1785D01*
X1138Y1787D01*
X242Y1787D01*
G37*
D02*
G36*
X242Y1787D02*
X242Y1785D01*
X1138Y1785D01*
X1138Y1787D01*
X242Y1787D01*
G37*
D02*
G36*
X242Y1785D02*
X242Y1747D01*
X606Y1747D01*
X606Y1745D01*
X616Y1745D01*
X616Y1743D01*
X620Y1743D01*
X620Y1741D01*
X624Y1741D01*
X624Y1739D01*
X628Y1739D01*
X628Y1737D01*
X630Y1737D01*
X630Y1735D01*
X632Y1735D01*
X632Y1733D01*
X634Y1733D01*
X634Y1731D01*
X636Y1731D01*
X636Y1729D01*
X638Y1729D01*
X638Y1725D01*
X640Y1725D01*
X640Y1723D01*
X642Y1723D01*
X642Y1719D01*
X644Y1719D01*
X644Y1711D01*
X646Y1711D01*
X646Y1691D01*
X644Y1691D01*
X644Y1685D01*
X642Y1685D01*
X642Y1681D01*
X640Y1681D01*
X640Y1677D01*
X638Y1677D01*
X638Y1675D01*
X636Y1675D01*
X636Y1673D01*
X634Y1673D01*
X634Y1671D01*
X632Y1671D01*
X632Y1669D01*
X630Y1669D01*
X630Y1667D01*
X628Y1667D01*
X628Y1665D01*
X626Y1665D01*
X626Y1663D01*
X622Y1663D01*
X622Y1661D01*
X618Y1661D01*
X618Y1659D01*
X610Y1659D01*
X610Y1657D01*
X1064Y1657D01*
X1064Y1763D01*
X1118Y1763D01*
X1118Y1767D01*
X1120Y1767D01*
X1120Y1771D01*
X1122Y1771D01*
X1122Y1773D01*
X1124Y1773D01*
X1124Y1777D01*
X1126Y1777D01*
X1126Y1779D01*
X1128Y1779D01*
X1128Y1781D01*
X1132Y1781D01*
X1132Y1783D01*
X1134Y1783D01*
X1134Y1785D01*
X242Y1785D01*
G37*
D02*
G36*
X242Y1747D02*
X242Y1719D01*
X244Y1719D01*
X244Y1711D01*
X246Y1711D01*
X246Y1691D01*
X244Y1691D01*
X244Y1685D01*
X242Y1685D01*
X242Y1663D01*
X496Y1663D01*
X496Y1657D01*
X594Y1657D01*
X594Y1659D01*
X586Y1659D01*
X586Y1661D01*
X582Y1661D01*
X582Y1663D01*
X578Y1663D01*
X578Y1665D01*
X576Y1665D01*
X576Y1667D01*
X572Y1667D01*
X572Y1669D01*
X570Y1669D01*
X570Y1671D01*
X568Y1671D01*
X568Y1673D01*
X566Y1673D01*
X566Y1677D01*
X564Y1677D01*
X564Y1679D01*
X562Y1679D01*
X562Y1683D01*
X560Y1683D01*
X560Y1689D01*
X558Y1689D01*
X558Y1701D01*
X556Y1701D01*
X556Y1703D01*
X558Y1703D01*
X558Y1715D01*
X560Y1715D01*
X560Y1721D01*
X562Y1721D01*
X562Y1723D01*
X564Y1723D01*
X564Y1727D01*
X566Y1727D01*
X566Y1729D01*
X568Y1729D01*
X568Y1733D01*
X570Y1733D01*
X570Y1735D01*
X574Y1735D01*
X574Y1737D01*
X576Y1737D01*
X576Y1739D01*
X580Y1739D01*
X580Y1741D01*
X582Y1741D01*
X582Y1743D01*
X588Y1743D01*
X588Y1745D01*
X596Y1745D01*
X596Y1747D01*
X242Y1747D01*
G37*
D02*
G36*
X1406Y1717D02*
X1406Y1715D01*
X1404Y1715D01*
X1404Y1713D01*
X1402Y1713D01*
X1402Y1709D01*
X1400Y1709D01*
X1400Y1707D01*
X1444Y1707D01*
X1444Y1709D01*
X1436Y1709D01*
X1436Y1711D01*
X1432Y1711D01*
X1432Y1713D01*
X1428Y1713D01*
X1428Y1715D01*
X1426Y1715D01*
X1426Y1717D01*
X1406Y1717D01*
G37*
D02*
G36*
X1240Y1715D02*
X1240Y1687D01*
X1338Y1687D01*
X1338Y1689D01*
X1332Y1689D01*
X1332Y1691D01*
X1326Y1691D01*
X1326Y1693D01*
X1322Y1693D01*
X1322Y1695D01*
X1318Y1695D01*
X1318Y1697D01*
X1316Y1697D01*
X1316Y1699D01*
X1312Y1699D01*
X1312Y1701D01*
X1310Y1701D01*
X1310Y1703D01*
X1308Y1703D01*
X1308Y1705D01*
X1306Y1705D01*
X1306Y1707D01*
X1304Y1707D01*
X1304Y1709D01*
X1302Y1709D01*
X1302Y1711D01*
X1300Y1711D01*
X1300Y1713D01*
X1298Y1713D01*
X1298Y1715D01*
X1240Y1715D01*
G37*
D02*
G36*
X1460Y1709D02*
X1460Y1707D01*
X1486Y1707D01*
X1486Y1709D01*
X1460Y1709D01*
G37*
D02*
G36*
X1398Y1707D02*
X1398Y1705D01*
X1486Y1705D01*
X1486Y1707D01*
X1398Y1707D01*
G37*
D02*
G36*
X1398Y1707D02*
X1398Y1705D01*
X1486Y1705D01*
X1486Y1707D01*
X1398Y1707D01*
G37*
D02*
G36*
X1396Y1705D02*
X1396Y1703D01*
X1394Y1703D01*
X1394Y1701D01*
X1390Y1701D01*
X1390Y1699D01*
X1388Y1699D01*
X1388Y1697D01*
X1384Y1697D01*
X1384Y1695D01*
X1382Y1695D01*
X1382Y1693D01*
X1378Y1693D01*
X1378Y1691D01*
X1372Y1691D01*
X1372Y1689D01*
X1364Y1689D01*
X1364Y1687D01*
X1486Y1687D01*
X1486Y1705D01*
X1396Y1705D01*
G37*
D02*
G36*
X1240Y1687D02*
X1240Y1685D01*
X1614Y1685D01*
X1614Y1687D01*
X1240Y1687D01*
G37*
D02*
G36*
X1240Y1687D02*
X1240Y1685D01*
X1614Y1685D01*
X1614Y1687D01*
X1240Y1687D01*
G37*
D02*
G36*
X1240Y1685D02*
X1240Y1641D01*
X1614Y1641D01*
X1614Y1685D01*
X1240Y1685D01*
G37*
D02*
G36*
X496Y1657D02*
X496Y1655D01*
X1064Y1655D01*
X1064Y1657D01*
X496Y1657D01*
G37*
D02*
G36*
X496Y1657D02*
X496Y1655D01*
X1064Y1655D01*
X1064Y1657D01*
X496Y1657D01*
G37*
D02*
G36*
X496Y1655D02*
X496Y1641D01*
X1064Y1641D01*
X1064Y1655D01*
X496Y1655D01*
G37*
D02*
G36*
X496Y1641D02*
X496Y1639D01*
X1614Y1639D01*
X1614Y1641D01*
X496Y1641D01*
G37*
D02*
G36*
X496Y1641D02*
X496Y1639D01*
X1614Y1639D01*
X1614Y1641D01*
X496Y1641D01*
G37*
D02*
G36*
X496Y1639D02*
X496Y1497D01*
X606Y1497D01*
X606Y1495D01*
X616Y1495D01*
X616Y1493D01*
X620Y1493D01*
X620Y1491D01*
X624Y1491D01*
X624Y1489D01*
X628Y1489D01*
X628Y1487D01*
X630Y1487D01*
X630Y1485D01*
X632Y1485D01*
X632Y1483D01*
X634Y1483D01*
X634Y1481D01*
X636Y1481D01*
X636Y1479D01*
X638Y1479D01*
X638Y1475D01*
X640Y1475D01*
X640Y1473D01*
X642Y1473D01*
X642Y1469D01*
X644Y1469D01*
X644Y1461D01*
X646Y1461D01*
X646Y1441D01*
X644Y1441D01*
X644Y1435D01*
X642Y1435D01*
X642Y1431D01*
X640Y1431D01*
X640Y1427D01*
X638Y1427D01*
X638Y1425D01*
X636Y1425D01*
X636Y1423D01*
X634Y1423D01*
X634Y1421D01*
X632Y1421D01*
X632Y1419D01*
X630Y1419D01*
X630Y1417D01*
X628Y1417D01*
X628Y1415D01*
X626Y1415D01*
X626Y1413D01*
X622Y1413D01*
X622Y1411D01*
X618Y1411D01*
X618Y1409D01*
X610Y1409D01*
X610Y1407D01*
X1114Y1407D01*
X1114Y1421D01*
X1064Y1421D01*
X1064Y1541D01*
X1066Y1541D01*
X1066Y1543D01*
X1258Y1543D01*
X1258Y1563D01*
X1614Y1563D01*
X1614Y1639D01*
X496Y1639D01*
G37*
D02*
G36*
X496Y1497D02*
X496Y1441D01*
X494Y1441D01*
X494Y1439D01*
X344Y1439D01*
X344Y1435D01*
X342Y1435D01*
X342Y1431D01*
X340Y1431D01*
X340Y1427D01*
X338Y1427D01*
X338Y1407D01*
X594Y1407D01*
X594Y1409D01*
X586Y1409D01*
X586Y1411D01*
X582Y1411D01*
X582Y1413D01*
X578Y1413D01*
X578Y1415D01*
X576Y1415D01*
X576Y1417D01*
X572Y1417D01*
X572Y1419D01*
X570Y1419D01*
X570Y1421D01*
X568Y1421D01*
X568Y1423D01*
X566Y1423D01*
X566Y1427D01*
X564Y1427D01*
X564Y1429D01*
X562Y1429D01*
X562Y1433D01*
X560Y1433D01*
X560Y1439D01*
X558Y1439D01*
X558Y1451D01*
X556Y1451D01*
X556Y1453D01*
X558Y1453D01*
X558Y1465D01*
X560Y1465D01*
X560Y1471D01*
X562Y1471D01*
X562Y1473D01*
X564Y1473D01*
X564Y1477D01*
X566Y1477D01*
X566Y1479D01*
X568Y1479D01*
X568Y1483D01*
X570Y1483D01*
X570Y1485D01*
X574Y1485D01*
X574Y1487D01*
X576Y1487D01*
X576Y1489D01*
X580Y1489D01*
X580Y1491D01*
X582Y1491D01*
X582Y1493D01*
X588Y1493D01*
X588Y1495D01*
X596Y1495D01*
X596Y1497D01*
X496Y1497D01*
G37*
D02*
G36*
X338Y1407D02*
X338Y1405D01*
X1114Y1405D01*
X1114Y1407D01*
X338Y1407D01*
G37*
D02*
G36*
X338Y1407D02*
X338Y1405D01*
X1114Y1405D01*
X1114Y1407D01*
X338Y1407D01*
G37*
D02*
G36*
X338Y1405D02*
X338Y1401D01*
X486Y1401D01*
X486Y1397D01*
X506Y1397D01*
X506Y1395D01*
X516Y1395D01*
X516Y1393D01*
X520Y1393D01*
X520Y1391D01*
X524Y1391D01*
X524Y1389D01*
X528Y1389D01*
X528Y1387D01*
X530Y1387D01*
X530Y1385D01*
X532Y1385D01*
X532Y1383D01*
X534Y1383D01*
X534Y1381D01*
X536Y1381D01*
X536Y1379D01*
X538Y1379D01*
X538Y1375D01*
X540Y1375D01*
X540Y1373D01*
X542Y1373D01*
X542Y1369D01*
X544Y1369D01*
X544Y1361D01*
X546Y1361D01*
X546Y1341D01*
X544Y1341D01*
X544Y1335D01*
X542Y1335D01*
X542Y1331D01*
X540Y1331D01*
X540Y1327D01*
X538Y1327D01*
X538Y1325D01*
X536Y1325D01*
X536Y1323D01*
X534Y1323D01*
X534Y1321D01*
X532Y1321D01*
X532Y1319D01*
X530Y1319D01*
X530Y1317D01*
X528Y1317D01*
X528Y1315D01*
X526Y1315D01*
X526Y1313D01*
X522Y1313D01*
X522Y1311D01*
X518Y1311D01*
X518Y1309D01*
X510Y1309D01*
X510Y1307D01*
X486Y1307D01*
X486Y1247D01*
X556Y1247D01*
X556Y1245D01*
X566Y1245D01*
X566Y1243D01*
X570Y1243D01*
X570Y1241D01*
X574Y1241D01*
X574Y1239D01*
X578Y1239D01*
X578Y1237D01*
X580Y1237D01*
X580Y1235D01*
X582Y1235D01*
X582Y1233D01*
X584Y1233D01*
X584Y1231D01*
X586Y1231D01*
X586Y1229D01*
X588Y1229D01*
X588Y1225D01*
X590Y1225D01*
X590Y1223D01*
X592Y1223D01*
X592Y1219D01*
X594Y1219D01*
X594Y1211D01*
X596Y1211D01*
X596Y1207D01*
X1294Y1207D01*
X1294Y1209D01*
X1286Y1209D01*
X1286Y1211D01*
X1282Y1211D01*
X1282Y1213D01*
X1278Y1213D01*
X1278Y1215D01*
X1276Y1215D01*
X1276Y1217D01*
X1272Y1217D01*
X1272Y1219D01*
X1270Y1219D01*
X1270Y1221D01*
X1268Y1221D01*
X1268Y1223D01*
X1266Y1223D01*
X1266Y1227D01*
X1264Y1227D01*
X1264Y1229D01*
X1262Y1229D01*
X1262Y1233D01*
X1260Y1233D01*
X1260Y1239D01*
X1258Y1239D01*
X1258Y1251D01*
X1256Y1251D01*
X1256Y1265D01*
X1248Y1265D01*
X1248Y1267D01*
X1238Y1267D01*
X1238Y1269D01*
X1234Y1269D01*
X1234Y1271D01*
X1230Y1271D01*
X1230Y1273D01*
X1228Y1273D01*
X1228Y1275D01*
X1226Y1275D01*
X1226Y1277D01*
X1224Y1277D01*
X1224Y1279D01*
X1222Y1279D01*
X1222Y1281D01*
X1220Y1281D01*
X1220Y1283D01*
X1218Y1283D01*
X1218Y1285D01*
X1216Y1285D01*
X1216Y1287D01*
X1214Y1287D01*
X1214Y1289D01*
X1212Y1289D01*
X1212Y1291D01*
X1210Y1291D01*
X1210Y1293D01*
X1208Y1293D01*
X1208Y1295D01*
X1206Y1295D01*
X1206Y1297D01*
X1204Y1297D01*
X1204Y1299D01*
X1202Y1299D01*
X1202Y1301D01*
X1200Y1301D01*
X1200Y1303D01*
X1198Y1303D01*
X1198Y1305D01*
X1196Y1305D01*
X1196Y1307D01*
X1194Y1307D01*
X1194Y1309D01*
X1192Y1309D01*
X1192Y1311D01*
X1190Y1311D01*
X1190Y1313D01*
X1188Y1313D01*
X1188Y1315D01*
X1186Y1315D01*
X1186Y1317D01*
X1184Y1317D01*
X1184Y1319D01*
X1182Y1319D01*
X1182Y1321D01*
X1180Y1321D01*
X1180Y1323D01*
X1178Y1323D01*
X1178Y1325D01*
X1176Y1325D01*
X1176Y1327D01*
X1174Y1327D01*
X1174Y1329D01*
X1172Y1329D01*
X1172Y1331D01*
X1170Y1331D01*
X1170Y1333D01*
X1168Y1333D01*
X1168Y1335D01*
X1166Y1335D01*
X1166Y1337D01*
X1164Y1337D01*
X1164Y1339D01*
X1162Y1339D01*
X1162Y1341D01*
X1160Y1341D01*
X1160Y1343D01*
X1158Y1343D01*
X1158Y1345D01*
X1156Y1345D01*
X1156Y1347D01*
X1154Y1347D01*
X1154Y1349D01*
X1152Y1349D01*
X1152Y1351D01*
X1150Y1351D01*
X1150Y1353D01*
X1148Y1353D01*
X1148Y1355D01*
X1146Y1355D01*
X1146Y1357D01*
X1144Y1357D01*
X1144Y1359D01*
X1142Y1359D01*
X1142Y1361D01*
X1140Y1361D01*
X1140Y1363D01*
X1138Y1363D01*
X1138Y1365D01*
X1136Y1365D01*
X1136Y1367D01*
X1134Y1367D01*
X1134Y1369D01*
X1132Y1369D01*
X1132Y1371D01*
X1130Y1371D01*
X1130Y1373D01*
X1128Y1373D01*
X1128Y1375D01*
X1126Y1375D01*
X1126Y1377D01*
X1124Y1377D01*
X1124Y1379D01*
X1122Y1379D01*
X1122Y1381D01*
X1120Y1381D01*
X1120Y1385D01*
X1118Y1385D01*
X1118Y1389D01*
X1116Y1389D01*
X1116Y1401D01*
X1114Y1401D01*
X1114Y1405D01*
X338Y1405D01*
G37*
D02*
G36*
X486Y1247D02*
X486Y1203D01*
X508Y1203D01*
X508Y1215D01*
X510Y1215D01*
X510Y1221D01*
X512Y1221D01*
X512Y1223D01*
X514Y1223D01*
X514Y1227D01*
X516Y1227D01*
X516Y1229D01*
X518Y1229D01*
X518Y1233D01*
X520Y1233D01*
X520Y1235D01*
X524Y1235D01*
X524Y1237D01*
X526Y1237D01*
X526Y1239D01*
X530Y1239D01*
X530Y1241D01*
X532Y1241D01*
X532Y1243D01*
X538Y1243D01*
X538Y1245D01*
X546Y1245D01*
X546Y1247D01*
X486Y1247D01*
G37*
D02*
G36*
X1344Y1239D02*
X1344Y1235D01*
X1342Y1235D01*
X1342Y1231D01*
X1340Y1231D01*
X1340Y1227D01*
X1338Y1227D01*
X1338Y1225D01*
X1336Y1225D01*
X1336Y1223D01*
X1334Y1223D01*
X1334Y1221D01*
X1332Y1221D01*
X1332Y1219D01*
X1330Y1219D01*
X1330Y1217D01*
X1328Y1217D01*
X1328Y1215D01*
X1326Y1215D01*
X1326Y1213D01*
X1322Y1213D01*
X1322Y1211D01*
X1318Y1211D01*
X1318Y1209D01*
X1310Y1209D01*
X1310Y1207D01*
X1366Y1207D01*
X1366Y1237D01*
X1364Y1237D01*
X1364Y1239D01*
X1344Y1239D01*
G37*
D02*
G36*
X258Y1215D02*
X258Y1207D01*
X260Y1207D01*
X260Y1205D01*
X262Y1205D01*
X262Y1203D01*
X316Y1203D01*
X316Y1207D01*
X294Y1207D01*
X294Y1209D01*
X286Y1209D01*
X286Y1211D01*
X282Y1211D01*
X282Y1213D01*
X278Y1213D01*
X278Y1215D01*
X258Y1215D01*
G37*
D02*
G36*
X596Y1207D02*
X596Y1205D01*
X1366Y1205D01*
X1366Y1207D01*
X596Y1207D01*
G37*
D02*
G36*
X596Y1207D02*
X596Y1205D01*
X1366Y1205D01*
X1366Y1207D01*
X596Y1207D01*
G37*
D02*
G36*
X596Y1205D02*
X596Y1191D01*
X594Y1191D01*
X594Y1185D01*
X592Y1185D01*
X592Y1181D01*
X590Y1181D01*
X590Y1177D01*
X588Y1177D01*
X588Y1175D01*
X586Y1175D01*
X586Y1173D01*
X584Y1173D01*
X584Y1171D01*
X582Y1171D01*
X582Y1169D01*
X580Y1169D01*
X580Y1167D01*
X578Y1167D01*
X578Y1165D01*
X576Y1165D01*
X576Y1163D01*
X572Y1163D01*
X572Y1161D01*
X568Y1161D01*
X568Y1159D01*
X560Y1159D01*
X560Y1157D01*
X1340Y1157D01*
X1340Y1167D01*
X1342Y1167D01*
X1342Y1173D01*
X1344Y1173D01*
X1344Y1177D01*
X1346Y1177D01*
X1346Y1181D01*
X1348Y1181D01*
X1348Y1185D01*
X1350Y1185D01*
X1350Y1189D01*
X1352Y1189D01*
X1352Y1191D01*
X1354Y1191D01*
X1354Y1193D01*
X1356Y1193D01*
X1356Y1195D01*
X1358Y1195D01*
X1358Y1197D01*
X1360Y1197D01*
X1360Y1199D01*
X1362Y1199D01*
X1362Y1201D01*
X1364Y1201D01*
X1364Y1203D01*
X1366Y1203D01*
X1366Y1205D01*
X596Y1205D01*
G37*
D02*
G36*
X262Y1203D02*
X262Y1201D01*
X506Y1201D01*
X506Y1203D01*
X262Y1203D01*
G37*
D02*
G36*
X262Y1203D02*
X262Y1201D01*
X506Y1201D01*
X506Y1203D01*
X262Y1203D01*
G37*
D02*
G36*
X264Y1201D02*
X264Y1199D01*
X266Y1199D01*
X266Y1195D01*
X268Y1195D01*
X268Y1193D01*
X270Y1193D01*
X270Y1189D01*
X272Y1189D01*
X272Y1187D01*
X274Y1187D01*
X274Y1183D01*
X276Y1183D01*
X276Y1181D01*
X278Y1181D01*
X278Y1177D01*
X280Y1177D01*
X280Y1175D01*
X282Y1175D01*
X282Y1171D01*
X284Y1171D01*
X284Y1169D01*
X286Y1169D01*
X286Y1165D01*
X288Y1165D01*
X288Y1157D01*
X544Y1157D01*
X544Y1159D01*
X536Y1159D01*
X536Y1161D01*
X532Y1161D01*
X532Y1163D01*
X528Y1163D01*
X528Y1165D01*
X526Y1165D01*
X526Y1167D01*
X522Y1167D01*
X522Y1169D01*
X520Y1169D01*
X520Y1171D01*
X518Y1171D01*
X518Y1173D01*
X516Y1173D01*
X516Y1177D01*
X514Y1177D01*
X514Y1179D01*
X512Y1179D01*
X512Y1183D01*
X510Y1183D01*
X510Y1189D01*
X508Y1189D01*
X508Y1201D01*
X264Y1201D01*
G37*
D02*
G36*
X290Y1157D02*
X290Y1155D01*
X1340Y1155D01*
X1340Y1157D01*
X290Y1157D01*
G37*
D02*
G36*
X290Y1157D02*
X290Y1155D01*
X1340Y1155D01*
X1340Y1157D01*
X290Y1157D01*
G37*
D02*
G36*
X290Y1155D02*
X290Y1147D01*
X1256Y1147D01*
X1256Y1145D01*
X1266Y1145D01*
X1266Y1143D01*
X1270Y1143D01*
X1270Y1141D01*
X1274Y1141D01*
X1274Y1139D01*
X1278Y1139D01*
X1278Y1137D01*
X1280Y1137D01*
X1280Y1135D01*
X1282Y1135D01*
X1282Y1133D01*
X1284Y1133D01*
X1284Y1131D01*
X1286Y1131D01*
X1286Y1129D01*
X1288Y1129D01*
X1288Y1125D01*
X1290Y1125D01*
X1290Y1123D01*
X1292Y1123D01*
X1292Y1119D01*
X1294Y1119D01*
X1294Y1111D01*
X1296Y1111D01*
X1296Y1089D01*
X1358Y1089D01*
X1358Y1109D01*
X1356Y1109D01*
X1356Y1111D01*
X1354Y1111D01*
X1354Y1113D01*
X1352Y1113D01*
X1352Y1115D01*
X1350Y1115D01*
X1350Y1119D01*
X1348Y1119D01*
X1348Y1121D01*
X1346Y1121D01*
X1346Y1125D01*
X1344Y1125D01*
X1344Y1131D01*
X1342Y1131D01*
X1342Y1137D01*
X1340Y1137D01*
X1340Y1155D01*
X290Y1155D01*
G37*
D02*
G36*
X290Y1147D02*
X290Y1063D01*
X288Y1063D01*
X288Y1047D01*
X406Y1047D01*
X406Y1045D01*
X416Y1045D01*
X416Y1043D01*
X420Y1043D01*
X420Y1041D01*
X424Y1041D01*
X424Y1039D01*
X428Y1039D01*
X428Y1037D01*
X430Y1037D01*
X430Y1035D01*
X432Y1035D01*
X432Y1033D01*
X434Y1033D01*
X434Y1031D01*
X436Y1031D01*
X436Y1029D01*
X438Y1029D01*
X438Y1025D01*
X440Y1025D01*
X440Y1023D01*
X442Y1023D01*
X442Y1019D01*
X444Y1019D01*
X444Y1011D01*
X446Y1011D01*
X446Y1007D01*
X544Y1007D01*
X544Y1009D01*
X536Y1009D01*
X536Y1011D01*
X532Y1011D01*
X532Y1013D01*
X528Y1013D01*
X528Y1015D01*
X526Y1015D01*
X526Y1017D01*
X522Y1017D01*
X522Y1019D01*
X520Y1019D01*
X520Y1021D01*
X518Y1021D01*
X518Y1023D01*
X516Y1023D01*
X516Y1027D01*
X514Y1027D01*
X514Y1029D01*
X512Y1029D01*
X512Y1033D01*
X510Y1033D01*
X510Y1039D01*
X508Y1039D01*
X508Y1051D01*
X506Y1051D01*
X506Y1057D01*
X494Y1057D01*
X494Y1059D01*
X486Y1059D01*
X486Y1061D01*
X482Y1061D01*
X482Y1063D01*
X478Y1063D01*
X478Y1065D01*
X476Y1065D01*
X476Y1067D01*
X472Y1067D01*
X472Y1069D01*
X470Y1069D01*
X470Y1071D01*
X468Y1071D01*
X468Y1073D01*
X466Y1073D01*
X466Y1077D01*
X464Y1077D01*
X464Y1079D01*
X462Y1079D01*
X462Y1083D01*
X460Y1083D01*
X460Y1089D01*
X458Y1089D01*
X458Y1101D01*
X456Y1101D01*
X456Y1103D01*
X458Y1103D01*
X458Y1115D01*
X460Y1115D01*
X460Y1121D01*
X462Y1121D01*
X462Y1123D01*
X464Y1123D01*
X464Y1127D01*
X466Y1127D01*
X466Y1129D01*
X468Y1129D01*
X468Y1133D01*
X470Y1133D01*
X470Y1135D01*
X474Y1135D01*
X474Y1137D01*
X476Y1137D01*
X476Y1139D01*
X480Y1139D01*
X480Y1141D01*
X482Y1141D01*
X482Y1143D01*
X488Y1143D01*
X488Y1145D01*
X496Y1145D01*
X496Y1147D01*
X290Y1147D01*
G37*
D02*
G36*
X506Y1147D02*
X506Y1145D01*
X516Y1145D01*
X516Y1143D01*
X520Y1143D01*
X520Y1141D01*
X524Y1141D01*
X524Y1139D01*
X528Y1139D01*
X528Y1137D01*
X530Y1137D01*
X530Y1135D01*
X532Y1135D01*
X532Y1133D01*
X534Y1133D01*
X534Y1131D01*
X536Y1131D01*
X536Y1129D01*
X538Y1129D01*
X538Y1125D01*
X540Y1125D01*
X540Y1123D01*
X542Y1123D01*
X542Y1119D01*
X544Y1119D01*
X544Y1111D01*
X546Y1111D01*
X546Y1097D01*
X556Y1097D01*
X556Y1095D01*
X566Y1095D01*
X566Y1093D01*
X570Y1093D01*
X570Y1091D01*
X574Y1091D01*
X574Y1089D01*
X578Y1089D01*
X578Y1087D01*
X580Y1087D01*
X580Y1085D01*
X582Y1085D01*
X582Y1083D01*
X584Y1083D01*
X584Y1081D01*
X586Y1081D01*
X586Y1079D01*
X588Y1079D01*
X588Y1075D01*
X590Y1075D01*
X590Y1073D01*
X592Y1073D01*
X592Y1069D01*
X594Y1069D01*
X594Y1061D01*
X596Y1061D01*
X596Y1041D01*
X594Y1041D01*
X594Y1035D01*
X592Y1035D01*
X592Y1031D01*
X590Y1031D01*
X590Y1027D01*
X588Y1027D01*
X588Y1025D01*
X586Y1025D01*
X586Y1023D01*
X584Y1023D01*
X584Y1021D01*
X582Y1021D01*
X582Y1019D01*
X580Y1019D01*
X580Y1017D01*
X578Y1017D01*
X578Y1015D01*
X576Y1015D01*
X576Y1013D01*
X572Y1013D01*
X572Y1011D01*
X568Y1011D01*
X568Y1009D01*
X560Y1009D01*
X560Y1007D01*
X1248Y1007D01*
X1248Y1011D01*
X1250Y1011D01*
X1250Y1017D01*
X1252Y1017D01*
X1252Y1023D01*
X1254Y1023D01*
X1254Y1029D01*
X1256Y1029D01*
X1256Y1035D01*
X1258Y1035D01*
X1258Y1057D01*
X1244Y1057D01*
X1244Y1059D01*
X1236Y1059D01*
X1236Y1061D01*
X1232Y1061D01*
X1232Y1063D01*
X1228Y1063D01*
X1228Y1065D01*
X1226Y1065D01*
X1226Y1067D01*
X1222Y1067D01*
X1222Y1069D01*
X1220Y1069D01*
X1220Y1071D01*
X1218Y1071D01*
X1218Y1073D01*
X1216Y1073D01*
X1216Y1077D01*
X1214Y1077D01*
X1214Y1079D01*
X1212Y1079D01*
X1212Y1083D01*
X1210Y1083D01*
X1210Y1089D01*
X1208Y1089D01*
X1208Y1101D01*
X1206Y1101D01*
X1206Y1103D01*
X1208Y1103D01*
X1208Y1115D01*
X1210Y1115D01*
X1210Y1121D01*
X1212Y1121D01*
X1212Y1123D01*
X1214Y1123D01*
X1214Y1127D01*
X1216Y1127D01*
X1216Y1129D01*
X1218Y1129D01*
X1218Y1133D01*
X1220Y1133D01*
X1220Y1135D01*
X1224Y1135D01*
X1224Y1137D01*
X1226Y1137D01*
X1226Y1139D01*
X1230Y1139D01*
X1230Y1141D01*
X1232Y1141D01*
X1232Y1143D01*
X1238Y1143D01*
X1238Y1145D01*
X1246Y1145D01*
X1246Y1147D01*
X506Y1147D01*
G37*
D02*
G36*
X288Y1047D02*
X288Y1025D01*
X290Y1025D01*
X290Y1023D01*
X292Y1023D01*
X292Y1019D01*
X294Y1019D01*
X294Y1011D01*
X296Y1011D01*
X296Y985D01*
X316Y985D01*
X316Y983D01*
X358Y983D01*
X358Y1001D01*
X356Y1001D01*
X356Y1003D01*
X358Y1003D01*
X358Y1015D01*
X360Y1015D01*
X360Y1021D01*
X362Y1021D01*
X362Y1023D01*
X364Y1023D01*
X364Y1027D01*
X366Y1027D01*
X366Y1029D01*
X368Y1029D01*
X368Y1033D01*
X370Y1033D01*
X370Y1035D01*
X374Y1035D01*
X374Y1037D01*
X376Y1037D01*
X376Y1039D01*
X380Y1039D01*
X380Y1041D01*
X382Y1041D01*
X382Y1043D01*
X388Y1043D01*
X388Y1045D01*
X396Y1045D01*
X396Y1047D01*
X288Y1047D01*
G37*
D02*
G36*
X446Y1007D02*
X446Y1005D01*
X1248Y1005D01*
X1248Y1007D01*
X446Y1007D01*
G37*
D02*
G36*
X446Y1007D02*
X446Y1005D01*
X1248Y1005D01*
X1248Y1007D01*
X446Y1007D01*
G37*
D02*
G36*
X446Y1005D02*
X446Y997D01*
X1206Y997D01*
X1206Y995D01*
X1216Y995D01*
X1216Y993D01*
X1220Y993D01*
X1220Y991D01*
X1244Y991D01*
X1244Y999D01*
X1246Y999D01*
X1246Y1005D01*
X446Y1005D01*
G37*
D02*
G36*
X446Y997D02*
X446Y977D01*
X480Y977D01*
X480Y975D01*
X522Y975D01*
X522Y973D01*
X564Y973D01*
X564Y971D01*
X604Y971D01*
X604Y969D01*
X646Y969D01*
X646Y967D01*
X686Y967D01*
X686Y965D01*
X728Y965D01*
X728Y963D01*
X770Y963D01*
X770Y961D01*
X810Y961D01*
X810Y959D01*
X852Y959D01*
X852Y957D01*
X894Y957D01*
X894Y955D01*
X934Y955D01*
X934Y953D01*
X976Y953D01*
X976Y951D01*
X1018Y951D01*
X1018Y949D01*
X1058Y949D01*
X1058Y947D01*
X1100Y947D01*
X1100Y945D01*
X1156Y945D01*
X1156Y953D01*
X1158Y953D01*
X1158Y965D01*
X1160Y965D01*
X1160Y971D01*
X1162Y971D01*
X1162Y973D01*
X1164Y973D01*
X1164Y977D01*
X1166Y977D01*
X1166Y979D01*
X1168Y979D01*
X1168Y983D01*
X1170Y983D01*
X1170Y985D01*
X1174Y985D01*
X1174Y987D01*
X1176Y987D01*
X1176Y989D01*
X1180Y989D01*
X1180Y991D01*
X1182Y991D01*
X1182Y993D01*
X1188Y993D01*
X1188Y995D01*
X1196Y995D01*
X1196Y997D01*
X446Y997D01*
G37*
D02*
G36*
X52Y1203D02*
X52Y657D01*
X1546Y657D01*
X1546Y659D01*
X1538Y659D01*
X1538Y661D01*
X1532Y661D01*
X1532Y663D01*
X1530Y663D01*
X1530Y665D01*
X1342Y665D01*
X1342Y667D01*
X1336Y667D01*
X1336Y669D01*
X1332Y669D01*
X1332Y671D01*
X1330Y671D01*
X1330Y673D01*
X1328Y673D01*
X1328Y675D01*
X1326Y675D01*
X1326Y677D01*
X1324Y677D01*
X1324Y679D01*
X1322Y679D01*
X1322Y681D01*
X1320Y681D01*
X1320Y685D01*
X1318Y685D01*
X1318Y689D01*
X1316Y689D01*
X1316Y697D01*
X1314Y697D01*
X1314Y739D01*
X1312Y739D01*
X1312Y741D01*
X1310Y741D01*
X1310Y743D01*
X1308Y743D01*
X1308Y745D01*
X1304Y745D01*
X1304Y747D01*
X1302Y747D01*
X1302Y749D01*
X1300Y749D01*
X1300Y751D01*
X1298Y751D01*
X1298Y753D01*
X1296Y753D01*
X1296Y755D01*
X1294Y755D01*
X1294Y757D01*
X1292Y757D01*
X1292Y759D01*
X1290Y759D01*
X1290Y761D01*
X1288Y761D01*
X1288Y763D01*
X1286Y763D01*
X1286Y765D01*
X1250Y765D01*
X1250Y767D01*
X1204Y767D01*
X1204Y769D01*
X1158Y769D01*
X1158Y771D01*
X1112Y771D01*
X1112Y773D01*
X1068Y773D01*
X1068Y775D01*
X1022Y775D01*
X1022Y777D01*
X976Y777D01*
X976Y779D01*
X930Y779D01*
X930Y781D01*
X886Y781D01*
X886Y783D01*
X840Y783D01*
X840Y785D01*
X794Y785D01*
X794Y787D01*
X748Y787D01*
X748Y789D01*
X702Y789D01*
X702Y791D01*
X658Y791D01*
X658Y793D01*
X612Y793D01*
X612Y795D01*
X566Y795D01*
X566Y797D01*
X520Y797D01*
X520Y799D01*
X476Y799D01*
X476Y801D01*
X430Y801D01*
X430Y803D01*
X384Y803D01*
X384Y805D01*
X338Y805D01*
X338Y807D01*
X294Y807D01*
X294Y809D01*
X248Y809D01*
X248Y811D01*
X202Y811D01*
X202Y813D01*
X156Y813D01*
X156Y815D01*
X140Y815D01*
X140Y817D01*
X136Y817D01*
X136Y819D01*
X132Y819D01*
X132Y821D01*
X130Y821D01*
X130Y823D01*
X126Y823D01*
X126Y825D01*
X124Y825D01*
X124Y829D01*
X122Y829D01*
X122Y831D01*
X120Y831D01*
X120Y835D01*
X118Y835D01*
X118Y839D01*
X116Y839D01*
X116Y847D01*
X114Y847D01*
X114Y1203D01*
X52Y1203D01*
G37*
D02*
G36*
X1594Y691D02*
X1594Y685D01*
X1592Y685D01*
X1592Y681D01*
X1590Y681D01*
X1590Y677D01*
X1588Y677D01*
X1588Y675D01*
X1586Y675D01*
X1586Y673D01*
X1584Y673D01*
X1584Y669D01*
X1580Y669D01*
X1580Y667D01*
X1578Y667D01*
X1578Y665D01*
X1574Y665D01*
X1574Y663D01*
X1572Y663D01*
X1572Y661D01*
X1566Y661D01*
X1566Y659D01*
X1558Y659D01*
X1558Y657D01*
X1616Y657D01*
X1616Y665D01*
X1618Y665D01*
X1618Y669D01*
X1620Y669D01*
X1620Y691D01*
X1594Y691D01*
G37*
D02*
G36*
X52Y657D02*
X52Y655D01*
X1614Y655D01*
X1614Y657D01*
X52Y657D01*
G37*
D02*
G36*
X52Y657D02*
X52Y655D01*
X1614Y655D01*
X1614Y657D01*
X52Y657D01*
G37*
D02*
G36*
X52Y655D02*
X52Y161D01*
X1406Y161D01*
X1406Y159D01*
X1418Y159D01*
X1418Y157D01*
X1424Y157D01*
X1424Y155D01*
X1428Y155D01*
X1428Y153D01*
X1432Y153D01*
X1432Y151D01*
X1434Y151D01*
X1434Y149D01*
X1438Y149D01*
X1438Y147D01*
X1440Y147D01*
X1440Y145D01*
X1442Y145D01*
X1442Y143D01*
X1462Y143D01*
X1462Y145D01*
X1464Y145D01*
X1464Y147D01*
X1466Y147D01*
X1466Y261D01*
X1468Y261D01*
X1468Y267D01*
X1470Y267D01*
X1470Y271D01*
X1472Y271D01*
X1472Y273D01*
X1474Y273D01*
X1474Y277D01*
X1476Y277D01*
X1476Y279D01*
X1478Y279D01*
X1478Y283D01*
X1480Y283D01*
X1480Y287D01*
X1482Y287D01*
X1482Y289D01*
X1484Y289D01*
X1484Y311D01*
X1482Y311D01*
X1482Y313D01*
X1478Y313D01*
X1478Y315D01*
X1476Y315D01*
X1476Y317D01*
X1472Y317D01*
X1472Y319D01*
X1470Y319D01*
X1470Y321D01*
X1468Y321D01*
X1468Y323D01*
X1466Y323D01*
X1466Y327D01*
X1464Y327D01*
X1464Y329D01*
X1462Y329D01*
X1462Y333D01*
X1460Y333D01*
X1460Y339D01*
X1458Y339D01*
X1458Y351D01*
X1456Y351D01*
X1456Y353D01*
X1458Y353D01*
X1458Y365D01*
X1460Y365D01*
X1460Y371D01*
X1462Y371D01*
X1462Y373D01*
X1464Y373D01*
X1464Y377D01*
X1466Y377D01*
X1466Y379D01*
X1468Y379D01*
X1468Y383D01*
X1470Y383D01*
X1470Y385D01*
X1474Y385D01*
X1474Y387D01*
X1476Y387D01*
X1476Y389D01*
X1480Y389D01*
X1480Y391D01*
X1482Y391D01*
X1482Y393D01*
X1488Y393D01*
X1488Y397D01*
X1490Y397D01*
X1490Y399D01*
X1492Y399D01*
X1492Y401D01*
X1494Y401D01*
X1494Y405D01*
X1496Y405D01*
X1496Y407D01*
X1498Y407D01*
X1498Y411D01*
X1500Y411D01*
X1500Y413D01*
X1502Y413D01*
X1502Y415D01*
X1504Y415D01*
X1504Y419D01*
X1506Y419D01*
X1506Y421D01*
X1508Y421D01*
X1508Y423D01*
X1510Y423D01*
X1510Y427D01*
X1512Y427D01*
X1512Y429D01*
X1514Y429D01*
X1514Y431D01*
X1516Y431D01*
X1516Y435D01*
X1518Y435D01*
X1518Y437D01*
X1520Y437D01*
X1520Y439D01*
X1522Y439D01*
X1522Y443D01*
X1524Y443D01*
X1524Y445D01*
X1526Y445D01*
X1526Y447D01*
X1528Y447D01*
X1528Y451D01*
X1530Y451D01*
X1530Y453D01*
X1532Y453D01*
X1532Y455D01*
X1534Y455D01*
X1534Y459D01*
X1536Y459D01*
X1536Y461D01*
X1538Y461D01*
X1538Y463D01*
X1540Y463D01*
X1540Y467D01*
X1542Y467D01*
X1542Y469D01*
X1544Y469D01*
X1544Y471D01*
X1546Y471D01*
X1546Y475D01*
X1548Y475D01*
X1548Y477D01*
X1550Y477D01*
X1550Y479D01*
X1552Y479D01*
X1552Y483D01*
X1554Y483D01*
X1554Y485D01*
X1556Y485D01*
X1556Y487D01*
X1558Y487D01*
X1558Y491D01*
X1560Y491D01*
X1560Y493D01*
X1562Y493D01*
X1562Y495D01*
X1564Y495D01*
X1564Y499D01*
X1566Y499D01*
X1566Y501D01*
X1568Y501D01*
X1568Y503D01*
X1570Y503D01*
X1570Y507D01*
X1572Y507D01*
X1572Y509D01*
X1574Y509D01*
X1574Y511D01*
X1576Y511D01*
X1576Y515D01*
X1578Y515D01*
X1578Y517D01*
X1580Y517D01*
X1580Y519D01*
X1582Y519D01*
X1582Y523D01*
X1584Y523D01*
X1584Y525D01*
X1586Y525D01*
X1586Y527D01*
X1588Y527D01*
X1588Y531D01*
X1590Y531D01*
X1590Y533D01*
X1592Y533D01*
X1592Y535D01*
X1594Y535D01*
X1594Y539D01*
X1596Y539D01*
X1596Y541D01*
X1598Y541D01*
X1598Y543D01*
X1600Y543D01*
X1600Y547D01*
X1602Y547D01*
X1602Y549D01*
X1604Y549D01*
X1604Y551D01*
X1606Y551D01*
X1606Y555D01*
X1608Y555D01*
X1608Y557D01*
X1610Y557D01*
X1610Y559D01*
X1612Y559D01*
X1612Y563D01*
X1614Y563D01*
X1614Y655D01*
X52Y655D01*
G37*
D02*
G36*
X52Y161D02*
X52Y71D01*
X54Y71D01*
X54Y67D01*
X56Y67D01*
X56Y63D01*
X58Y63D01*
X58Y61D01*
X60Y61D01*
X60Y59D01*
X62Y59D01*
X62Y57D01*
X64Y57D01*
X64Y55D01*
X66Y55D01*
X66Y53D01*
X70Y53D01*
X70Y51D01*
X74Y51D01*
X74Y49D01*
X80Y49D01*
X80Y47D01*
X1058Y47D01*
X1058Y67D01*
X1056Y67D01*
X1056Y69D01*
X1054Y69D01*
X1054Y71D01*
X1052Y71D01*
X1052Y75D01*
X1050Y75D01*
X1050Y79D01*
X1048Y79D01*
X1048Y85D01*
X1046Y85D01*
X1046Y93D01*
X1044Y93D01*
X1044Y111D01*
X1046Y111D01*
X1046Y121D01*
X1048Y121D01*
X1048Y125D01*
X1050Y125D01*
X1050Y129D01*
X1052Y129D01*
X1052Y133D01*
X1054Y133D01*
X1054Y135D01*
X1056Y135D01*
X1056Y139D01*
X1058Y139D01*
X1058Y141D01*
X1060Y141D01*
X1060Y143D01*
X1062Y143D01*
X1062Y145D01*
X1064Y145D01*
X1064Y147D01*
X1068Y147D01*
X1068Y149D01*
X1070Y149D01*
X1070Y151D01*
X1072Y151D01*
X1072Y153D01*
X1076Y153D01*
X1076Y155D01*
X1080Y155D01*
X1080Y157D01*
X1088Y157D01*
X1088Y159D01*
X1100Y159D01*
X1100Y161D01*
X52Y161D01*
G37*
D02*
G36*
X1106Y161D02*
X1106Y159D01*
X1118Y159D01*
X1118Y157D01*
X1124Y157D01*
X1124Y155D01*
X1128Y155D01*
X1128Y153D01*
X1132Y153D01*
X1132Y151D01*
X1134Y151D01*
X1134Y149D01*
X1138Y149D01*
X1138Y147D01*
X1140Y147D01*
X1140Y145D01*
X1142Y145D01*
X1142Y143D01*
X1162Y143D01*
X1162Y145D01*
X1164Y145D01*
X1164Y147D01*
X1168Y147D01*
X1168Y149D01*
X1170Y149D01*
X1170Y151D01*
X1172Y151D01*
X1172Y153D01*
X1176Y153D01*
X1176Y155D01*
X1180Y155D01*
X1180Y157D01*
X1188Y157D01*
X1188Y159D01*
X1200Y159D01*
X1200Y161D01*
X1106Y161D01*
G37*
D02*
G36*
X1206Y161D02*
X1206Y159D01*
X1218Y159D01*
X1218Y157D01*
X1224Y157D01*
X1224Y155D01*
X1228Y155D01*
X1228Y153D01*
X1232Y153D01*
X1232Y151D01*
X1234Y151D01*
X1234Y149D01*
X1238Y149D01*
X1238Y147D01*
X1240Y147D01*
X1240Y145D01*
X1242Y145D01*
X1242Y143D01*
X1262Y143D01*
X1262Y145D01*
X1264Y145D01*
X1264Y147D01*
X1268Y147D01*
X1268Y149D01*
X1270Y149D01*
X1270Y151D01*
X1272Y151D01*
X1272Y153D01*
X1276Y153D01*
X1276Y155D01*
X1280Y155D01*
X1280Y157D01*
X1288Y157D01*
X1288Y159D01*
X1300Y159D01*
X1300Y161D01*
X1206Y161D01*
G37*
D02*
G36*
X1306Y161D02*
X1306Y159D01*
X1318Y159D01*
X1318Y157D01*
X1324Y157D01*
X1324Y155D01*
X1328Y155D01*
X1328Y153D01*
X1332Y153D01*
X1332Y151D01*
X1334Y151D01*
X1334Y149D01*
X1338Y149D01*
X1338Y147D01*
X1340Y147D01*
X1340Y145D01*
X1342Y145D01*
X1342Y143D01*
X1362Y143D01*
X1362Y145D01*
X1364Y145D01*
X1364Y147D01*
X1368Y147D01*
X1368Y149D01*
X1370Y149D01*
X1370Y151D01*
X1372Y151D01*
X1372Y153D01*
X1376Y153D01*
X1376Y155D01*
X1380Y155D01*
X1380Y157D01*
X1388Y157D01*
X1388Y159D01*
X1400Y159D01*
X1400Y161D01*
X1306Y161D01*
G37*
D02*
G36*
X2314Y1093D02*
X2314Y1091D01*
X2310Y1091D01*
X2310Y1089D01*
X2342Y1089D01*
X2342Y1091D01*
X2334Y1091D01*
X2334Y1093D01*
X2314Y1093D01*
G37*
D02*
G36*
X2370Y1093D02*
X2370Y1091D01*
X2360Y1091D01*
X2360Y1089D01*
X2390Y1089D01*
X2390Y1093D01*
X2370Y1093D01*
G37*
D02*
G36*
X2306Y1089D02*
X2306Y1087D01*
X2516Y1087D01*
X2516Y1089D01*
X2306Y1089D01*
G37*
D02*
G36*
X2306Y1089D02*
X2306Y1087D01*
X2516Y1087D01*
X2516Y1089D01*
X2306Y1089D01*
G37*
D02*
G36*
X2302Y1087D02*
X2302Y1085D01*
X2298Y1085D01*
X2298Y1083D01*
X2294Y1083D01*
X2294Y1081D01*
X2290Y1081D01*
X2290Y919D01*
X2288Y919D01*
X2288Y915D01*
X2356Y915D01*
X2356Y913D01*
X2368Y913D01*
X2368Y911D01*
X2374Y911D01*
X2374Y909D01*
X2378Y909D01*
X2378Y907D01*
X2382Y907D01*
X2382Y905D01*
X2386Y905D01*
X2386Y903D01*
X2388Y903D01*
X2388Y901D01*
X2392Y901D01*
X2392Y899D01*
X2412Y899D01*
X2412Y901D01*
X2414Y901D01*
X2414Y903D01*
X2418Y903D01*
X2418Y905D01*
X2420Y905D01*
X2420Y907D01*
X2424Y907D01*
X2424Y909D01*
X2430Y909D01*
X2430Y911D01*
X2436Y911D01*
X2436Y913D01*
X2448Y913D01*
X2448Y915D01*
X2464Y915D01*
X2464Y917D01*
X2466Y917D01*
X2466Y919D01*
X2468Y919D01*
X2468Y921D01*
X2470Y921D01*
X2470Y923D01*
X2472Y923D01*
X2472Y925D01*
X2474Y925D01*
X2474Y927D01*
X2476Y927D01*
X2476Y929D01*
X2478Y929D01*
X2478Y931D01*
X2480Y931D01*
X2480Y933D01*
X2482Y933D01*
X2482Y935D01*
X2484Y935D01*
X2484Y937D01*
X2486Y937D01*
X2486Y939D01*
X2488Y939D01*
X2488Y941D01*
X2490Y941D01*
X2490Y943D01*
X2492Y943D01*
X2492Y945D01*
X2494Y945D01*
X2494Y947D01*
X2496Y947D01*
X2496Y949D01*
X2498Y949D01*
X2498Y951D01*
X2500Y951D01*
X2500Y953D01*
X2502Y953D01*
X2502Y955D01*
X2504Y955D01*
X2504Y957D01*
X2506Y957D01*
X2506Y959D01*
X2508Y959D01*
X2508Y961D01*
X2510Y961D01*
X2510Y963D01*
X2512Y963D01*
X2512Y965D01*
X2514Y965D01*
X2514Y967D01*
X2516Y967D01*
X2516Y1087D01*
X2302Y1087D01*
G37*
D02*
G36*
X2288Y915D02*
X2288Y895D01*
X2308Y895D01*
X2308Y897D01*
X2310Y897D01*
X2310Y899D01*
X2312Y899D01*
X2312Y901D01*
X2314Y901D01*
X2314Y903D01*
X2318Y903D01*
X2318Y905D01*
X2320Y905D01*
X2320Y907D01*
X2324Y907D01*
X2324Y909D01*
X2330Y909D01*
X2330Y911D01*
X2336Y911D01*
X2336Y913D01*
X2348Y913D01*
X2348Y915D01*
X2288Y915D01*
G37*
D02*
G36*
X1640Y911D02*
X1640Y813D01*
X1812Y813D01*
X1812Y835D01*
X1810Y835D01*
X1810Y841D01*
X1808Y841D01*
X1808Y861D01*
X1810Y861D01*
X1810Y867D01*
X1812Y867D01*
X1812Y871D01*
X1814Y871D01*
X1814Y875D01*
X1816Y875D01*
X1816Y877D01*
X1818Y877D01*
X1818Y881D01*
X1820Y881D01*
X1820Y883D01*
X1822Y883D01*
X1822Y885D01*
X1826Y885D01*
X1826Y887D01*
X1828Y887D01*
X1828Y889D01*
X1832Y889D01*
X1832Y891D01*
X1836Y891D01*
X1836Y911D01*
X1640Y911D01*
G37*
D02*
G36*
X2288Y809D02*
X2288Y789D01*
X2342Y789D01*
X2342Y791D01*
X2334Y791D01*
X2334Y793D01*
X2328Y793D01*
X2328Y795D01*
X2324Y795D01*
X2324Y797D01*
X2320Y797D01*
X2320Y799D01*
X2316Y799D01*
X2316Y801D01*
X2314Y801D01*
X2314Y803D01*
X2312Y803D01*
X2312Y805D01*
X2310Y805D01*
X2310Y807D01*
X2308Y807D01*
X2308Y809D01*
X2288Y809D01*
G37*
D02*
G36*
X2392Y805D02*
X2392Y803D01*
X2390Y803D01*
X2390Y801D01*
X2386Y801D01*
X2386Y799D01*
X2384Y799D01*
X2384Y797D01*
X2380Y797D01*
X2380Y795D01*
X2376Y795D01*
X2376Y793D01*
X2370Y793D01*
X2370Y791D01*
X2360Y791D01*
X2360Y789D01*
X2414Y789D01*
X2414Y803D01*
X2412Y803D01*
X2412Y805D01*
X2392Y805D01*
G37*
D02*
G36*
X2288Y789D02*
X2288Y787D01*
X2414Y787D01*
X2414Y789D01*
X2288Y789D01*
G37*
D02*
G36*
X2288Y789D02*
X2288Y787D01*
X2414Y787D01*
X2414Y789D01*
X2288Y789D01*
G37*
D02*
G36*
X2288Y787D02*
X2288Y647D01*
X2312Y647D01*
X2312Y645D01*
X2320Y645D01*
X2320Y643D01*
X2324Y643D01*
X2324Y641D01*
X2326Y641D01*
X2326Y639D01*
X2330Y639D01*
X2330Y637D01*
X2332Y637D01*
X2332Y635D01*
X2334Y635D01*
X2334Y633D01*
X2336Y633D01*
X2336Y631D01*
X2338Y631D01*
X2338Y629D01*
X2340Y629D01*
X2340Y625D01*
X2342Y625D01*
X2342Y621D01*
X2344Y621D01*
X2344Y615D01*
X2346Y615D01*
X2346Y605D01*
X2348Y605D01*
X2348Y589D01*
X2452Y589D01*
X2452Y587D01*
X2464Y587D01*
X2464Y585D01*
X2468Y585D01*
X2468Y583D01*
X2472Y583D01*
X2472Y581D01*
X2474Y581D01*
X2474Y579D01*
X2496Y579D01*
X2496Y659D01*
X2500Y659D01*
X2500Y679D01*
X2498Y679D01*
X2498Y687D01*
X2494Y687D01*
X2494Y689D01*
X2490Y689D01*
X2490Y691D01*
X2488Y691D01*
X2488Y693D01*
X2484Y693D01*
X2484Y695D01*
X2480Y695D01*
X2480Y697D01*
X2476Y697D01*
X2476Y699D01*
X2472Y699D01*
X2472Y701D01*
X2468Y701D01*
X2468Y703D01*
X2464Y703D01*
X2464Y705D01*
X2460Y705D01*
X2460Y707D01*
X2456Y707D01*
X2456Y709D01*
X2452Y709D01*
X2452Y711D01*
X2448Y711D01*
X2448Y713D01*
X2444Y713D01*
X2444Y715D01*
X2440Y715D01*
X2440Y717D01*
X2438Y717D01*
X2438Y719D01*
X2434Y719D01*
X2434Y721D01*
X2430Y721D01*
X2430Y723D01*
X2428Y723D01*
X2428Y725D01*
X2426Y725D01*
X2426Y727D01*
X2424Y727D01*
X2424Y729D01*
X2422Y729D01*
X2422Y731D01*
X2420Y731D01*
X2420Y733D01*
X2418Y733D01*
X2418Y737D01*
X2416Y737D01*
X2416Y743D01*
X2414Y743D01*
X2414Y787D01*
X2288Y787D01*
G37*
D02*
G36*
X2546Y1551D02*
X2546Y1341D01*
X2544Y1341D01*
X2544Y1339D01*
X2536Y1339D01*
X2536Y1319D01*
X2538Y1319D01*
X2538Y1317D01*
X2540Y1317D01*
X2540Y1315D01*
X2542Y1315D01*
X2542Y1313D01*
X2544Y1313D01*
X2544Y1311D01*
X2546Y1311D01*
X2546Y1309D01*
X2548Y1309D01*
X2548Y1307D01*
X2550Y1307D01*
X2550Y1305D01*
X2552Y1305D01*
X2552Y1303D01*
X2554Y1303D01*
X2554Y1301D01*
X2556Y1301D01*
X2556Y1299D01*
X2558Y1299D01*
X2558Y1297D01*
X2560Y1297D01*
X2560Y1295D01*
X2562Y1295D01*
X2562Y1293D01*
X2564Y1293D01*
X2564Y1291D01*
X2566Y1291D01*
X2566Y1289D01*
X2568Y1289D01*
X2568Y1287D01*
X2570Y1287D01*
X2570Y1285D01*
X2572Y1285D01*
X2572Y1283D01*
X2574Y1283D01*
X2574Y1281D01*
X2576Y1281D01*
X2576Y1279D01*
X2578Y1279D01*
X2578Y1277D01*
X2580Y1277D01*
X2580Y1275D01*
X2582Y1275D01*
X2582Y1271D01*
X2584Y1271D01*
X2584Y1267D01*
X2586Y1267D01*
X2586Y1263D01*
X2588Y1263D01*
X2588Y1251D01*
X2590Y1251D01*
X2590Y953D01*
X2588Y953D01*
X2588Y941D01*
X2586Y941D01*
X2586Y937D01*
X2584Y937D01*
X2584Y933D01*
X2582Y933D01*
X2582Y929D01*
X2580Y929D01*
X2580Y927D01*
X2578Y927D01*
X2578Y925D01*
X2576Y925D01*
X2576Y923D01*
X2574Y923D01*
X2574Y921D01*
X2572Y921D01*
X2572Y919D01*
X2570Y919D01*
X2570Y917D01*
X2568Y917D01*
X2568Y915D01*
X2566Y915D01*
X2566Y893D01*
X2570Y893D01*
X2570Y891D01*
X2574Y891D01*
X2574Y889D01*
X2578Y889D01*
X2578Y887D01*
X2580Y887D01*
X2580Y885D01*
X2582Y885D01*
X2582Y883D01*
X2584Y883D01*
X2584Y881D01*
X2586Y881D01*
X2586Y879D01*
X2588Y879D01*
X2588Y875D01*
X2590Y875D01*
X2590Y873D01*
X2592Y873D01*
X2592Y869D01*
X2594Y869D01*
X2594Y861D01*
X2596Y861D01*
X2596Y841D01*
X2594Y841D01*
X2594Y835D01*
X2592Y835D01*
X2592Y831D01*
X2590Y831D01*
X2590Y827D01*
X2588Y827D01*
X2588Y825D01*
X2586Y825D01*
X2586Y823D01*
X2584Y823D01*
X2584Y821D01*
X2582Y821D01*
X2582Y819D01*
X2580Y819D01*
X2580Y817D01*
X2578Y817D01*
X2578Y815D01*
X2576Y815D01*
X2576Y813D01*
X2572Y813D01*
X2572Y811D01*
X2568Y811D01*
X2568Y809D01*
X2560Y809D01*
X2560Y807D01*
X2664Y807D01*
X2664Y1453D01*
X2662Y1453D01*
X2662Y1455D01*
X2660Y1455D01*
X2660Y1457D01*
X2658Y1457D01*
X2658Y1459D01*
X2656Y1459D01*
X2656Y1461D01*
X2654Y1461D01*
X2654Y1463D01*
X2652Y1463D01*
X2652Y1465D01*
X2650Y1465D01*
X2650Y1467D01*
X2648Y1467D01*
X2648Y1469D01*
X2646Y1469D01*
X2646Y1471D01*
X2644Y1471D01*
X2644Y1473D01*
X2642Y1473D01*
X2642Y1475D01*
X2640Y1475D01*
X2640Y1477D01*
X2638Y1477D01*
X2638Y1479D01*
X2636Y1479D01*
X2636Y1481D01*
X2634Y1481D01*
X2634Y1483D01*
X2632Y1483D01*
X2632Y1485D01*
X2630Y1485D01*
X2630Y1487D01*
X2628Y1487D01*
X2628Y1489D01*
X2626Y1489D01*
X2626Y1491D01*
X2624Y1491D01*
X2624Y1493D01*
X2622Y1493D01*
X2622Y1495D01*
X2620Y1495D01*
X2620Y1497D01*
X2618Y1497D01*
X2618Y1499D01*
X2616Y1499D01*
X2616Y1501D01*
X2614Y1501D01*
X2614Y1503D01*
X2612Y1503D01*
X2612Y1505D01*
X2610Y1505D01*
X2610Y1507D01*
X2608Y1507D01*
X2608Y1509D01*
X2606Y1509D01*
X2606Y1511D01*
X2604Y1511D01*
X2604Y1513D01*
X2602Y1513D01*
X2602Y1515D01*
X2600Y1515D01*
X2600Y1517D01*
X2598Y1517D01*
X2598Y1519D01*
X2596Y1519D01*
X2596Y1521D01*
X2594Y1521D01*
X2594Y1523D01*
X2592Y1523D01*
X2592Y1525D01*
X2590Y1525D01*
X2590Y1527D01*
X2588Y1527D01*
X2588Y1529D01*
X2586Y1529D01*
X2586Y1531D01*
X2584Y1531D01*
X2584Y1533D01*
X2582Y1533D01*
X2582Y1535D01*
X2580Y1535D01*
X2580Y1537D01*
X2578Y1537D01*
X2578Y1539D01*
X2576Y1539D01*
X2576Y1541D01*
X2574Y1541D01*
X2574Y1543D01*
X2572Y1543D01*
X2572Y1545D01*
X2570Y1545D01*
X2570Y1547D01*
X2568Y1547D01*
X2568Y1549D01*
X2566Y1549D01*
X2566Y1551D01*
X2546Y1551D01*
G37*
D02*
G36*
X2502Y817D02*
X2502Y813D01*
X2500Y813D01*
X2500Y811D01*
X2498Y811D01*
X2498Y809D01*
X2496Y809D01*
X2496Y807D01*
X2544Y807D01*
X2544Y809D01*
X2536Y809D01*
X2536Y811D01*
X2532Y811D01*
X2532Y813D01*
X2528Y813D01*
X2528Y815D01*
X2526Y815D01*
X2526Y817D01*
X2502Y817D01*
G37*
D02*
G36*
X2494Y807D02*
X2494Y805D01*
X2664Y805D01*
X2664Y807D01*
X2494Y807D01*
G37*
D02*
G36*
X2494Y807D02*
X2494Y805D01*
X2664Y805D01*
X2664Y807D01*
X2494Y807D01*
G37*
D02*
G36*
X2492Y805D02*
X2492Y803D01*
X2490Y803D01*
X2490Y801D01*
X2488Y801D01*
X2488Y775D01*
X2490Y775D01*
X2490Y773D01*
X2494Y773D01*
X2494Y771D01*
X2498Y771D01*
X2498Y769D01*
X2502Y769D01*
X2502Y767D01*
X2506Y767D01*
X2506Y765D01*
X2510Y765D01*
X2510Y763D01*
X2512Y763D01*
X2512Y761D01*
X2516Y761D01*
X2516Y759D01*
X2520Y759D01*
X2520Y757D01*
X2560Y757D01*
X2560Y755D01*
X2568Y755D01*
X2568Y753D01*
X2574Y753D01*
X2574Y751D01*
X2578Y751D01*
X2578Y749D01*
X2582Y749D01*
X2582Y747D01*
X2584Y747D01*
X2584Y745D01*
X2586Y745D01*
X2586Y743D01*
X2590Y743D01*
X2590Y741D01*
X2592Y741D01*
X2592Y739D01*
X2594Y739D01*
X2594Y735D01*
X2596Y735D01*
X2596Y733D01*
X2598Y733D01*
X2598Y731D01*
X2600Y731D01*
X2600Y727D01*
X2602Y727D01*
X2602Y723D01*
X2604Y723D01*
X2604Y719D01*
X2606Y719D01*
X2606Y711D01*
X2608Y711D01*
X2608Y689D01*
X2606Y689D01*
X2606Y681D01*
X2604Y681D01*
X2604Y659D01*
X2608Y659D01*
X2608Y545D01*
X2530Y545D01*
X2530Y525D01*
X2532Y525D01*
X2532Y523D01*
X2534Y523D01*
X2534Y521D01*
X2536Y521D01*
X2536Y519D01*
X2538Y519D01*
X2538Y517D01*
X2540Y517D01*
X2540Y515D01*
X2542Y515D01*
X2542Y513D01*
X2544Y513D01*
X2544Y511D01*
X2546Y511D01*
X2546Y509D01*
X2560Y509D01*
X2560Y507D01*
X2568Y507D01*
X2568Y505D01*
X2574Y505D01*
X2574Y503D01*
X2578Y503D01*
X2578Y501D01*
X2582Y501D01*
X2582Y499D01*
X2584Y499D01*
X2584Y497D01*
X2588Y497D01*
X2588Y495D01*
X2590Y495D01*
X2590Y493D01*
X2592Y493D01*
X2592Y491D01*
X2594Y491D01*
X2594Y489D01*
X2596Y489D01*
X2596Y485D01*
X2598Y485D01*
X2598Y483D01*
X2600Y483D01*
X2600Y479D01*
X2602Y479D01*
X2602Y477D01*
X2604Y477D01*
X2604Y471D01*
X2606Y471D01*
X2606Y465D01*
X2608Y465D01*
X2608Y439D01*
X2606Y439D01*
X2606Y433D01*
X2604Y433D01*
X2604Y411D01*
X2608Y411D01*
X2608Y297D01*
X2664Y297D01*
X2664Y805D01*
X2492Y805D01*
G37*
D02*
G36*
X2524Y757D02*
X2524Y755D01*
X2544Y755D01*
X2544Y757D01*
X2524Y757D01*
G37*
D02*
G36*
X1890Y691D02*
X1890Y645D01*
X1888Y645D01*
X1888Y639D01*
X1886Y639D01*
X1886Y635D01*
X1884Y635D01*
X1884Y631D01*
X1882Y631D01*
X1882Y629D01*
X1880Y629D01*
X1880Y627D01*
X1878Y627D01*
X1878Y625D01*
X1876Y625D01*
X1876Y623D01*
X1874Y623D01*
X1874Y621D01*
X1870Y621D01*
X1870Y619D01*
X1868Y619D01*
X1868Y617D01*
X1862Y617D01*
X1862Y615D01*
X1810Y615D01*
X1810Y595D01*
X1818Y595D01*
X1818Y593D01*
X1822Y593D01*
X1822Y591D01*
X1826Y591D01*
X1826Y589D01*
X1828Y589D01*
X1828Y587D01*
X1830Y587D01*
X1830Y585D01*
X1834Y585D01*
X1834Y583D01*
X1836Y583D01*
X1836Y579D01*
X1838Y579D01*
X1838Y577D01*
X1840Y577D01*
X1840Y573D01*
X1842Y573D01*
X1842Y571D01*
X1844Y571D01*
X1844Y563D01*
X1846Y563D01*
X1846Y541D01*
X1844Y541D01*
X1844Y535D01*
X1842Y535D01*
X1842Y531D01*
X1840Y531D01*
X1840Y519D01*
X1838Y519D01*
X1838Y497D01*
X1906Y497D01*
X1906Y495D01*
X1916Y495D01*
X1916Y493D01*
X1920Y493D01*
X1920Y491D01*
X1924Y491D01*
X1924Y489D01*
X1928Y489D01*
X1928Y487D01*
X1930Y487D01*
X1930Y485D01*
X1932Y485D01*
X1932Y483D01*
X1934Y483D01*
X1934Y481D01*
X1936Y481D01*
X1936Y479D01*
X1938Y479D01*
X1938Y475D01*
X1940Y475D01*
X1940Y473D01*
X1942Y473D01*
X1942Y469D01*
X1944Y469D01*
X1944Y461D01*
X1946Y461D01*
X1946Y441D01*
X1944Y441D01*
X1944Y435D01*
X1942Y435D01*
X1942Y431D01*
X1940Y431D01*
X1940Y427D01*
X1938Y427D01*
X1938Y425D01*
X1936Y425D01*
X1936Y423D01*
X1934Y423D01*
X1934Y421D01*
X1932Y421D01*
X1932Y419D01*
X1930Y419D01*
X1930Y417D01*
X1928Y417D01*
X1928Y415D01*
X1926Y415D01*
X1926Y413D01*
X1922Y413D01*
X1922Y411D01*
X1918Y411D01*
X1918Y409D01*
X1910Y409D01*
X1910Y407D01*
X2496Y407D01*
X2496Y411D01*
X2500Y411D01*
X2500Y433D01*
X2498Y433D01*
X2498Y439D01*
X2496Y439D01*
X2496Y457D01*
X2494Y457D01*
X2494Y459D01*
X2492Y459D01*
X2492Y461D01*
X2490Y461D01*
X2490Y463D01*
X2488Y463D01*
X2488Y465D01*
X2486Y465D01*
X2486Y467D01*
X2484Y467D01*
X2484Y469D01*
X2482Y469D01*
X2482Y471D01*
X2480Y471D01*
X2480Y473D01*
X2478Y473D01*
X2478Y475D01*
X2476Y475D01*
X2476Y477D01*
X2474Y477D01*
X2474Y479D01*
X2472Y479D01*
X2472Y481D01*
X2470Y481D01*
X2470Y483D01*
X2468Y483D01*
X2468Y485D01*
X2466Y485D01*
X2466Y487D01*
X2464Y487D01*
X2464Y489D01*
X2462Y489D01*
X2462Y491D01*
X2460Y491D01*
X2460Y493D01*
X2458Y493D01*
X2458Y495D01*
X2456Y495D01*
X2456Y497D01*
X2454Y497D01*
X2454Y499D01*
X2450Y499D01*
X2450Y501D01*
X2448Y501D01*
X2448Y503D01*
X2446Y503D01*
X2446Y505D01*
X2444Y505D01*
X2444Y507D01*
X2442Y507D01*
X2442Y509D01*
X2440Y509D01*
X2440Y511D01*
X2438Y511D01*
X2438Y513D01*
X2436Y513D01*
X2436Y515D01*
X2102Y515D01*
X2102Y517D01*
X2090Y517D01*
X2090Y519D01*
X2084Y519D01*
X2084Y521D01*
X2080Y521D01*
X2080Y523D01*
X2078Y523D01*
X2078Y525D01*
X2076Y525D01*
X2076Y527D01*
X2074Y527D01*
X2074Y529D01*
X2072Y529D01*
X2072Y531D01*
X2070Y531D01*
X2070Y533D01*
X2068Y533D01*
X2068Y535D01*
X2066Y535D01*
X2066Y537D01*
X2064Y537D01*
X2064Y539D01*
X2062Y539D01*
X2062Y541D01*
X2060Y541D01*
X2060Y543D01*
X2058Y543D01*
X2058Y545D01*
X2056Y545D01*
X2056Y547D01*
X2054Y547D01*
X2054Y549D01*
X2052Y549D01*
X2052Y551D01*
X2048Y551D01*
X2048Y553D01*
X2046Y553D01*
X2046Y555D01*
X2044Y555D01*
X2044Y557D01*
X2042Y557D01*
X2042Y559D01*
X2040Y559D01*
X2040Y561D01*
X2038Y561D01*
X2038Y563D01*
X2036Y563D01*
X2036Y565D01*
X2034Y565D01*
X2034Y567D01*
X2032Y567D01*
X2032Y569D01*
X2030Y569D01*
X2030Y571D01*
X2028Y571D01*
X2028Y573D01*
X2026Y573D01*
X2026Y575D01*
X2024Y575D01*
X2024Y577D01*
X2022Y577D01*
X2022Y579D01*
X2020Y579D01*
X2020Y581D01*
X2018Y581D01*
X2018Y583D01*
X2016Y583D01*
X2016Y585D01*
X2014Y585D01*
X2014Y587D01*
X2012Y587D01*
X2012Y589D01*
X2010Y589D01*
X2010Y591D01*
X2008Y591D01*
X2008Y593D01*
X2006Y593D01*
X2006Y595D01*
X2004Y595D01*
X2004Y597D01*
X2002Y597D01*
X2002Y599D01*
X2000Y599D01*
X2000Y601D01*
X1998Y601D01*
X1998Y603D01*
X1996Y603D01*
X1996Y605D01*
X1994Y605D01*
X1994Y607D01*
X1992Y607D01*
X1992Y609D01*
X1990Y609D01*
X1990Y611D01*
X1988Y611D01*
X1988Y613D01*
X1986Y613D01*
X1986Y615D01*
X1984Y615D01*
X1984Y617D01*
X1982Y617D01*
X1982Y619D01*
X1980Y619D01*
X1980Y621D01*
X1978Y621D01*
X1978Y623D01*
X1974Y623D01*
X1974Y627D01*
X1972Y627D01*
X1972Y629D01*
X1970Y629D01*
X1970Y631D01*
X1968Y631D01*
X1968Y635D01*
X1966Y635D01*
X1966Y641D01*
X1964Y641D01*
X1964Y691D01*
X1890Y691D01*
G37*
D02*
G36*
X1838Y497D02*
X1838Y453D01*
X1858Y453D01*
X1858Y465D01*
X1860Y465D01*
X1860Y471D01*
X1862Y471D01*
X1862Y473D01*
X1864Y473D01*
X1864Y477D01*
X1866Y477D01*
X1866Y479D01*
X1868Y479D01*
X1868Y483D01*
X1870Y483D01*
X1870Y485D01*
X1874Y485D01*
X1874Y487D01*
X1876Y487D01*
X1876Y489D01*
X1880Y489D01*
X1880Y491D01*
X1882Y491D01*
X1882Y493D01*
X1888Y493D01*
X1888Y495D01*
X1896Y495D01*
X1896Y497D01*
X1838Y497D01*
G37*
D02*
G36*
X1838Y451D02*
X1838Y407D01*
X1894Y407D01*
X1894Y409D01*
X1886Y409D01*
X1886Y411D01*
X1882Y411D01*
X1882Y413D01*
X1878Y413D01*
X1878Y415D01*
X1876Y415D01*
X1876Y417D01*
X1872Y417D01*
X1872Y419D01*
X1870Y419D01*
X1870Y421D01*
X1868Y421D01*
X1868Y423D01*
X1866Y423D01*
X1866Y427D01*
X1864Y427D01*
X1864Y429D01*
X1862Y429D01*
X1862Y433D01*
X1860Y433D01*
X1860Y439D01*
X1858Y439D01*
X1858Y451D01*
X1838Y451D01*
G37*
D02*
G36*
X1838Y407D02*
X1838Y405D01*
X2496Y405D01*
X2496Y407D01*
X1838Y407D01*
G37*
D02*
G36*
X1838Y407D02*
X1838Y405D01*
X2496Y405D01*
X2496Y407D01*
X1838Y407D01*
G37*
D02*
G36*
X1838Y405D02*
X1838Y347D01*
X1906Y347D01*
X1906Y345D01*
X1916Y345D01*
X1916Y343D01*
X1920Y343D01*
X1920Y341D01*
X1924Y341D01*
X1924Y339D01*
X1928Y339D01*
X1928Y337D01*
X1930Y337D01*
X1930Y335D01*
X1932Y335D01*
X1932Y333D01*
X1934Y333D01*
X1934Y331D01*
X1936Y331D01*
X1936Y329D01*
X1938Y329D01*
X1938Y325D01*
X1940Y325D01*
X1940Y323D01*
X1942Y323D01*
X1942Y319D01*
X1944Y319D01*
X1944Y311D01*
X1946Y311D01*
X1946Y297D01*
X2496Y297D01*
X2496Y405D01*
X1838Y405D01*
G37*
D02*
G36*
X1838Y347D02*
X1838Y303D01*
X1858Y303D01*
X1858Y315D01*
X1860Y315D01*
X1860Y321D01*
X1862Y321D01*
X1862Y323D01*
X1864Y323D01*
X1864Y327D01*
X1866Y327D01*
X1866Y329D01*
X1868Y329D01*
X1868Y333D01*
X1870Y333D01*
X1870Y335D01*
X1874Y335D01*
X1874Y337D01*
X1876Y337D01*
X1876Y339D01*
X1880Y339D01*
X1880Y341D01*
X1882Y341D01*
X1882Y343D01*
X1888Y343D01*
X1888Y345D01*
X1896Y345D01*
X1896Y347D01*
X1838Y347D01*
G37*
D02*
G36*
X1838Y301D02*
X1838Y257D01*
X1894Y257D01*
X1894Y259D01*
X1886Y259D01*
X1886Y261D01*
X1882Y261D01*
X1882Y263D01*
X1878Y263D01*
X1878Y265D01*
X1876Y265D01*
X1876Y267D01*
X1872Y267D01*
X1872Y269D01*
X1870Y269D01*
X1870Y271D01*
X1868Y271D01*
X1868Y273D01*
X1866Y273D01*
X1866Y277D01*
X1864Y277D01*
X1864Y279D01*
X1862Y279D01*
X1862Y283D01*
X1860Y283D01*
X1860Y289D01*
X1858Y289D01*
X1858Y301D01*
X1838Y301D01*
G37*
D02*
G36*
X1946Y297D02*
X1946Y295D01*
X2664Y295D01*
X2664Y297D01*
X1946Y297D01*
G37*
D02*
G36*
X1946Y297D02*
X1946Y295D01*
X2664Y295D01*
X2664Y297D01*
X1946Y297D01*
G37*
D02*
G36*
X1946Y295D02*
X1946Y291D01*
X1944Y291D01*
X1944Y285D01*
X1942Y285D01*
X1942Y281D01*
X1940Y281D01*
X1940Y277D01*
X1938Y277D01*
X1938Y275D01*
X1936Y275D01*
X1936Y273D01*
X1934Y273D01*
X1934Y271D01*
X1932Y271D01*
X1932Y269D01*
X1930Y269D01*
X1930Y267D01*
X1928Y267D01*
X1928Y265D01*
X1926Y265D01*
X1926Y263D01*
X1922Y263D01*
X1922Y261D01*
X1918Y261D01*
X1918Y259D01*
X1910Y259D01*
X1910Y257D01*
X2664Y257D01*
X2664Y295D01*
X1946Y295D01*
G37*
D02*
G36*
X1838Y257D02*
X1838Y255D01*
X2664Y255D01*
X2664Y257D01*
X1838Y257D01*
G37*
D02*
G36*
X1838Y257D02*
X1838Y255D01*
X2664Y255D01*
X2664Y257D01*
X1838Y257D01*
G37*
D02*
G36*
X1838Y255D02*
X1838Y175D01*
X1840Y175D01*
X1840Y161D01*
X2506Y161D01*
X2506Y159D01*
X2518Y159D01*
X2518Y157D01*
X2524Y157D01*
X2524Y155D01*
X2528Y155D01*
X2528Y153D01*
X2532Y153D01*
X2532Y151D01*
X2534Y151D01*
X2534Y149D01*
X2538Y149D01*
X2538Y147D01*
X2540Y147D01*
X2540Y145D01*
X2542Y145D01*
X2542Y143D01*
X2544Y143D01*
X2544Y141D01*
X2564Y141D01*
X2564Y147D01*
X2566Y147D01*
X2566Y149D01*
X2568Y149D01*
X2568Y151D01*
X2570Y151D01*
X2570Y153D01*
X2572Y153D01*
X2572Y155D01*
X2574Y155D01*
X2574Y157D01*
X2576Y157D01*
X2576Y159D01*
X2578Y159D01*
X2578Y161D01*
X2580Y161D01*
X2580Y163D01*
X2582Y163D01*
X2582Y165D01*
X2584Y165D01*
X2584Y167D01*
X2586Y167D01*
X2586Y169D01*
X2588Y169D01*
X2588Y171D01*
X2590Y171D01*
X2590Y173D01*
X2592Y173D01*
X2592Y175D01*
X2594Y175D01*
X2594Y177D01*
X2596Y177D01*
X2596Y179D01*
X2598Y179D01*
X2598Y181D01*
X2600Y181D01*
X2600Y183D01*
X2602Y183D01*
X2602Y185D01*
X2604Y185D01*
X2604Y187D01*
X2606Y187D01*
X2606Y189D01*
X2608Y189D01*
X2608Y191D01*
X2610Y191D01*
X2610Y193D01*
X2612Y193D01*
X2612Y195D01*
X2614Y195D01*
X2614Y197D01*
X2616Y197D01*
X2616Y199D01*
X2618Y199D01*
X2618Y201D01*
X2620Y201D01*
X2620Y203D01*
X2622Y203D01*
X2622Y205D01*
X2624Y205D01*
X2624Y207D01*
X2626Y207D01*
X2626Y209D01*
X2628Y209D01*
X2628Y211D01*
X2630Y211D01*
X2630Y213D01*
X2632Y213D01*
X2632Y215D01*
X2634Y215D01*
X2634Y217D01*
X2636Y217D01*
X2636Y219D01*
X2638Y219D01*
X2638Y221D01*
X2640Y221D01*
X2640Y223D01*
X2642Y223D01*
X2642Y225D01*
X2644Y225D01*
X2644Y227D01*
X2646Y227D01*
X2646Y229D01*
X2648Y229D01*
X2648Y231D01*
X2650Y231D01*
X2650Y233D01*
X2652Y233D01*
X2652Y235D01*
X2654Y235D01*
X2654Y237D01*
X2656Y237D01*
X2656Y239D01*
X2658Y239D01*
X2658Y241D01*
X2660Y241D01*
X2660Y243D01*
X2662Y243D01*
X2662Y245D01*
X2664Y245D01*
X2664Y255D01*
X1838Y255D01*
G37*
D02*
G36*
X1840Y161D02*
X1840Y145D01*
X1842Y145D01*
X1842Y143D01*
X1844Y143D01*
X1844Y141D01*
X1846Y141D01*
X1846Y139D01*
X1848Y139D01*
X1848Y137D01*
X1850Y137D01*
X1850Y133D01*
X1852Y133D01*
X1852Y129D01*
X1854Y129D01*
X1854Y127D01*
X1856Y127D01*
X1856Y121D01*
X1858Y121D01*
X1858Y113D01*
X1860Y113D01*
X1860Y91D01*
X1858Y91D01*
X1858Y83D01*
X1856Y83D01*
X1856Y79D01*
X1854Y79D01*
X1854Y75D01*
X1852Y75D01*
X1852Y71D01*
X1850Y71D01*
X1850Y69D01*
X1848Y69D01*
X1848Y47D01*
X1958Y47D01*
X1958Y67D01*
X1956Y67D01*
X1956Y69D01*
X1954Y69D01*
X1954Y71D01*
X1952Y71D01*
X1952Y75D01*
X1950Y75D01*
X1950Y79D01*
X1948Y79D01*
X1948Y85D01*
X1946Y85D01*
X1946Y93D01*
X1944Y93D01*
X1944Y111D01*
X1946Y111D01*
X1946Y121D01*
X1948Y121D01*
X1948Y125D01*
X1950Y125D01*
X1950Y129D01*
X1952Y129D01*
X1952Y133D01*
X1954Y133D01*
X1954Y135D01*
X1956Y135D01*
X1956Y139D01*
X1958Y139D01*
X1958Y141D01*
X1960Y141D01*
X1960Y143D01*
X1962Y143D01*
X1962Y145D01*
X1964Y145D01*
X1964Y147D01*
X1968Y147D01*
X1968Y149D01*
X1970Y149D01*
X1970Y151D01*
X1972Y151D01*
X1972Y153D01*
X1976Y153D01*
X1976Y155D01*
X1980Y155D01*
X1980Y157D01*
X1988Y157D01*
X1988Y159D01*
X2000Y159D01*
X2000Y161D01*
X1840Y161D01*
G37*
D02*
G36*
X2006Y161D02*
X2006Y159D01*
X2018Y159D01*
X2018Y157D01*
X2024Y157D01*
X2024Y155D01*
X2028Y155D01*
X2028Y153D01*
X2032Y153D01*
X2032Y151D01*
X2034Y151D01*
X2034Y149D01*
X2038Y149D01*
X2038Y147D01*
X2040Y147D01*
X2040Y145D01*
X2042Y145D01*
X2042Y143D01*
X2062Y143D01*
X2062Y145D01*
X2064Y145D01*
X2064Y147D01*
X2068Y147D01*
X2068Y149D01*
X2070Y149D01*
X2070Y151D01*
X2072Y151D01*
X2072Y153D01*
X2076Y153D01*
X2076Y155D01*
X2080Y155D01*
X2080Y157D01*
X2088Y157D01*
X2088Y159D01*
X2100Y159D01*
X2100Y161D01*
X2006Y161D01*
G37*
D02*
G36*
X2106Y161D02*
X2106Y159D01*
X2118Y159D01*
X2118Y157D01*
X2124Y157D01*
X2124Y155D01*
X2128Y155D01*
X2128Y153D01*
X2132Y153D01*
X2132Y151D01*
X2134Y151D01*
X2134Y149D01*
X2138Y149D01*
X2138Y147D01*
X2140Y147D01*
X2140Y145D01*
X2142Y145D01*
X2142Y143D01*
X2162Y143D01*
X2162Y145D01*
X2164Y145D01*
X2164Y147D01*
X2168Y147D01*
X2168Y149D01*
X2170Y149D01*
X2170Y151D01*
X2172Y151D01*
X2172Y153D01*
X2176Y153D01*
X2176Y155D01*
X2180Y155D01*
X2180Y157D01*
X2188Y157D01*
X2188Y159D01*
X2200Y159D01*
X2200Y161D01*
X2106Y161D01*
G37*
D02*
G36*
X2206Y161D02*
X2206Y159D01*
X2218Y159D01*
X2218Y157D01*
X2224Y157D01*
X2224Y155D01*
X2228Y155D01*
X2228Y153D01*
X2232Y153D01*
X2232Y151D01*
X2234Y151D01*
X2234Y149D01*
X2238Y149D01*
X2238Y147D01*
X2240Y147D01*
X2240Y145D01*
X2242Y145D01*
X2242Y143D01*
X2262Y143D01*
X2262Y145D01*
X2264Y145D01*
X2264Y147D01*
X2268Y147D01*
X2268Y149D01*
X2270Y149D01*
X2270Y151D01*
X2272Y151D01*
X2272Y153D01*
X2276Y153D01*
X2276Y155D01*
X2280Y155D01*
X2280Y157D01*
X2288Y157D01*
X2288Y159D01*
X2300Y159D01*
X2300Y161D01*
X2206Y161D01*
G37*
D02*
G36*
X2306Y161D02*
X2306Y159D01*
X2318Y159D01*
X2318Y157D01*
X2324Y157D01*
X2324Y155D01*
X2328Y155D01*
X2328Y153D01*
X2332Y153D01*
X2332Y151D01*
X2334Y151D01*
X2334Y149D01*
X2338Y149D01*
X2338Y147D01*
X2340Y147D01*
X2340Y145D01*
X2342Y145D01*
X2342Y143D01*
X2362Y143D01*
X2362Y145D01*
X2364Y145D01*
X2364Y147D01*
X2368Y147D01*
X2368Y149D01*
X2370Y149D01*
X2370Y151D01*
X2372Y151D01*
X2372Y153D01*
X2376Y153D01*
X2376Y155D01*
X2380Y155D01*
X2380Y157D01*
X2388Y157D01*
X2388Y159D01*
X2400Y159D01*
X2400Y161D01*
X2306Y161D01*
G37*
D02*
G36*
X2406Y161D02*
X2406Y159D01*
X2418Y159D01*
X2418Y157D01*
X2424Y157D01*
X2424Y155D01*
X2428Y155D01*
X2428Y153D01*
X2432Y153D01*
X2432Y151D01*
X2434Y151D01*
X2434Y149D01*
X2438Y149D01*
X2438Y147D01*
X2440Y147D01*
X2440Y145D01*
X2442Y145D01*
X2442Y143D01*
X2462Y143D01*
X2462Y145D01*
X2464Y145D01*
X2464Y147D01*
X2468Y147D01*
X2468Y149D01*
X2470Y149D01*
X2470Y151D01*
X2472Y151D01*
X2472Y153D01*
X2476Y153D01*
X2476Y155D01*
X2480Y155D01*
X2480Y157D01*
X2488Y157D01*
X2488Y159D01*
X2500Y159D01*
X2500Y161D01*
X2406Y161D01*
G37*
D02*
G36*
X1580Y87D02*
X1619Y87D01*
X1619Y47D01*
X1580Y47D01*
X1580Y87D01*
G37*
D02*
G36*
X1680Y87D02*
X1719Y87D01*
X1719Y47D01*
X1680Y47D01*
X1680Y87D01*
G37*
D02*
G36*
X1020Y2063D02*
X1059Y2063D01*
X1059Y2023D01*
X1020Y2023D01*
X1020Y2063D01*
G37*
D02*
G36*
X1687Y351D02*
X1712Y351D01*
X1712Y311D01*
X1687Y311D01*
X1687Y351D01*
G37*
D02*
G36*
X1706Y316D02*
X1746Y316D01*
X1746Y291D01*
X1706Y291D01*
X1706Y316D01*
G37*
D02*
G36*
X1706Y466D02*
X1746Y466D01*
X1746Y441D01*
X1706Y441D01*
X1706Y466D01*
G37*
D02*
G36*
X2531Y341D02*
X2568Y341D01*
X2568Y297D01*
X2531Y297D01*
X2531Y341D01*
G37*
D02*
G36*
X2492Y374D02*
X2534Y374D01*
X2534Y337D01*
X2492Y337D01*
X2492Y374D01*
G37*
D02*
G36*
X2564Y374D02*
X2608Y374D01*
X2608Y337D01*
X2564Y337D01*
X2564Y374D01*
G37*
D02*
G36*
X1887Y297D02*
X1912Y297D01*
X1912Y257D01*
X1887Y257D01*
X1887Y297D01*
G37*
D02*
G36*
X1852Y316D02*
X1892Y316D01*
X1892Y291D01*
X1852Y291D01*
X1852Y316D01*
G37*
D02*
G36*
X1906Y316D02*
X1946Y316D01*
X1946Y291D01*
X1906Y291D01*
X1906Y316D01*
G37*
D02*
G36*
X1887Y501D02*
X1912Y501D01*
X1912Y461D01*
X1887Y461D01*
X1887Y501D01*
G37*
D02*
G36*
X1852Y466D02*
X1892Y466D01*
X1892Y441D01*
X1852Y441D01*
X1852Y466D01*
G37*
D02*
G36*
X1906Y466D02*
X1946Y466D01*
X1946Y441D01*
X1906Y441D01*
X1906Y466D01*
G37*
D02*
G36*
X377Y1921D02*
X422Y1921D01*
X422Y1873D01*
X377Y1873D01*
X377Y1921D01*
G37*
D02*
G36*
X332Y1876D02*
X380Y1876D01*
X380Y1831D01*
X332Y1831D01*
X332Y1876D01*
G37*
D02*
G36*
X1378Y919D02*
X1421Y919D01*
X1421Y871D01*
X1378Y871D01*
X1378Y919D01*
G37*
D02*
G36*
X2306Y618D02*
X2348Y618D01*
X2348Y593D01*
X2306Y593D01*
X2306Y618D01*
G37*
D02*
G36*
X587Y1751D02*
X612Y1751D01*
X612Y1711D01*
X587Y1711D01*
X587Y1751D01*
G37*
D02*
G36*
X352Y1016D02*
X392Y1016D01*
X392Y991D01*
X352Y991D01*
X352Y1016D01*
G37*
D02*
G36*
X406Y1016D02*
X446Y1016D01*
X446Y991D01*
X406Y991D01*
X406Y1016D01*
G37*
D02*
G36*
X506Y1366D02*
X546Y1366D01*
X546Y1341D01*
X506Y1341D01*
X506Y1366D01*
G37*
D02*
G36*
X537Y1047D02*
X562Y1047D01*
X562Y1007D01*
X537Y1007D01*
X537Y1047D01*
G37*
D02*
G36*
X556Y1066D02*
X596Y1066D01*
X596Y1041D01*
X556Y1041D01*
X556Y1066D01*
G37*
D02*
G36*
X2492Y622D02*
X2534Y622D01*
X2534Y585D01*
X2492Y585D01*
X2492Y622D01*
G37*
D02*
G36*
X2564Y622D02*
X2608Y622D01*
X2608Y585D01*
X2564Y585D01*
X2564Y622D01*
G37*
D02*
G36*
X537Y1251D02*
X562Y1251D01*
X562Y1211D01*
X537Y1211D01*
X537Y1251D01*
G37*
D02*
G36*
X502Y1216D02*
X542Y1216D01*
X542Y1191D01*
X502Y1191D01*
X502Y1216D01*
G37*
D02*
G36*
X556Y1216D02*
X596Y1216D01*
X596Y1191D01*
X556Y1191D01*
X556Y1216D01*
G37*
D02*
G36*
X2328Y919D02*
X2371Y919D01*
X2371Y871D01*
X2328Y871D01*
X2328Y919D01*
G37*
D02*
G36*
X1152Y966D02*
X1192Y966D01*
X1192Y941D01*
X1152Y941D01*
X1152Y966D01*
G37*
D02*
G36*
X487Y1151D02*
X512Y1151D01*
X512Y1111D01*
X487Y1111D01*
X487Y1151D01*
G37*
D02*
G36*
X452Y1116D02*
X492Y1116D01*
X492Y1091D01*
X452Y1091D01*
X452Y1116D01*
G37*
D02*
G36*
X1237Y1151D02*
X1262Y1151D01*
X1262Y1111D01*
X1237Y1111D01*
X1237Y1151D01*
G37*
D02*
G36*
X1202Y1116D02*
X1242Y1116D01*
X1242Y1091D01*
X1202Y1091D01*
X1202Y1116D01*
G37*
D02*
G36*
X1256Y1116D02*
X1296Y1116D01*
X1296Y1091D01*
X1256Y1091D01*
X1256Y1116D01*
G37*
D02*
G36*
X1287Y1247D02*
X1312Y1247D01*
X1312Y1207D01*
X1287Y1207D01*
X1287Y1247D01*
G37*
D02*
G36*
X1252Y1266D02*
X1292Y1266D01*
X1292Y1241D01*
X1252Y1241D01*
X1252Y1266D01*
G37*
D02*
G36*
X1752Y1616D02*
X1792Y1616D01*
X1792Y1591D01*
X1752Y1591D01*
X1752Y1616D01*
G37*
D02*
G36*
X1806Y1616D02*
X1846Y1616D01*
X1846Y1591D01*
X1806Y1591D01*
X1806Y1616D01*
G37*
D02*
G36*
X1777Y1821D02*
X1822Y1821D01*
X1822Y1773D01*
X1777Y1773D01*
X1777Y1821D01*
G37*
D02*
G36*
X1734Y1776D02*
X1780Y1776D01*
X1780Y1731D01*
X1734Y1731D01*
X1734Y1776D01*
G37*
D02*
G36*
X1818Y1776D02*
X1868Y1776D01*
X1868Y1731D01*
X1818Y1731D01*
X1818Y1776D01*
G37*
D02*
G36*
X2427Y1821D02*
X2472Y1821D01*
X2472Y1773D01*
X2427Y1773D01*
X2427Y1821D01*
G37*
D02*
G36*
X2427Y1735D02*
X2472Y1735D01*
X2472Y1687D01*
X2427Y1687D01*
X2427Y1735D01*
G37*
D02*
G36*
X2468Y1776D02*
X2518Y1776D01*
X2518Y1731D01*
X2468Y1731D01*
X2468Y1776D01*
G37*
D02*
G04 End of Copper1*
M02*